<?xml version="1.0" encoding="utf-8"?>
<!-- Generator: Adobe Illustrator 25.2.0, SVG Export Plug-In . SVG Version: 6.00 Build 0)  -->
<svg version="1.1" id="effect" xmlns="http://www.w3.org/2000/svg" xmlns:xlink="http://www.w3.org/1999/xlink" x="0px" y="0px"
	 viewBox="0 0 512 512" style="enable-background:new 0 0 512 512;" xml:space="preserve">
<style type="text/css">
	.st0{fill:#EFEFEF;}
	.st1{fill:#F3F3F1;}
	.st2{fill:#87CB82;}
	.st3{fill:#67B77E;}
	.st4{fill:#DADADA;}
	.st5{fill:#666666;}
</style>
<path class="st0" d="M164.01,494.96c94.51-27.29,173.55,2.93,219.09-10.23c45.54-13.16,133.63-66.96,73.13-276.48
	S258.2,5.16,208.1,19.63C-26.47,87.37-3.37,543.3,164.01,494.96L164.01,494.96z"/>
<path class="st1" d="M139.79,104.96l-34.83,34.83c-16.68,16.68-16.68,43.73,0,60.43l206.83,206.82c16.68,16.68,43.73,16.68,60.43,0
	l34.83-34.83c16.68-16.68,16.68-43.73,0-60.43L200.21,104.96C183.52,88.28,156.47,88.28,139.79,104.96L139.79,104.96z"/>
<path class="st2" d="M407.04,139.8l-34.84-34.84c-16.64-16.64-43.66-16.64-60.44,0L256,160.71L351.29,256l55.75-55.75
	C423.68,183.47,423.68,156.44,407.04,139.8z"/>
<path class="st2" d="M104.96,311.75c-16.64,16.78-16.64,43.8,0,60.44l34.84,34.84c16.64,16.64,43.66,16.64,60.44,0L256,351.29
	L160.71,256L104.96,311.75z"/>
<path class="st3" d="M365.51,241.78L351.29,256L256,160.71l55.75-55.75c12.09-11.95,29.58-15.36,44.52-9.96
	c-5.83,1.99-11.38,5.4-16.07,9.96l-55.75,55.75L365.51,241.78z"/>
<path class="st3" d="M184.18,417c-15.08,5.4-32.43,1.99-44.37-9.96l-34.84-34.84c-16.64-16.64-16.64-43.66,0-60.44L160.71,256
	l14.22,14.22l-41.53,41.53c-16.64,16.78-16.64,43.8,0,60.44l34.84,34.84C172.94,411.59,178.35,415,184.18,417z"/>
<path class="st4" d="M356.27,417c-14.93,5.4-32.43,1.99-44.52-9.96L104.96,200.25c-16.64-16.78-16.64-43.8,0-60.44l34.84-34.84
	c11.95-11.95,29.3-15.36,44.37-9.96c-5.83,1.99-11.24,5.4-15.93,9.96L133.4,139.8c-16.64,16.64-16.64,43.66,0,60.44L340.2,407.04
	C344.89,411.59,350.44,415,356.27,417L356.27,417z"/>
<path class="st5" d="M342,430.22c-14.26,0-27.66-5.56-37.75-15.64L97.42,207.74C87.34,197.66,81.78,184.26,81.78,170
	s5.56-27.66,15.64-37.75l34.83-34.83c20.17-20.17,55.34-20.17,75.51,0l206.82,206.83c10.08,10.08,15.64,23.48,15.64,37.75
	s-5.56,27.66-15.64,37.75l-34.83,34.83C369.66,424.66,356.27,430.22,342,430.22L342,430.22z M169.03,93.3
	c-8.95,0-21.61,4.54-27.93,10.86l-36.36,36.36c-6.33,6.33-11.52,14.98-11.52,23.94s0.77,24.05,7.09,30.37l215.71,214.6
	c12.65,12.65,42.1,10.67,54.75-1.98l36.36-36.36c6.33-6.33,12.21-18.14,12.4-27.09c0.25-11.94-2.04-21.11-8.36-27.44l-210.95-211.6
	C193.88,98.63,177.98,93.3,169.03,93.3L169.03,93.3z"/>
<path class="st5" d="M358.83,263.54l-7.54-7.54l55.75-55.75c12.44-12.54,15.24-45.49,2.79-57.95l-37.63-37.34
	c-12.47-12.47-46.56-11.05-59.11,1.39l-55.74,55.71l-8.89-8.89l55.75-55.75c20.92-20.74,54.78-20.76,75.53,0l34.84,34.84
	c20.74,20.74,20.75,54.61,0.03,75.51L358.83,263.54z"/>
<path class="st5" d="M169.96,430.14c-13.67,0-27.32-5.18-37.69-15.56l-34.84-34.84c-20.74-20.74-20.75-54.61-0.03-75.51l55.78-55.78
	l7.54,7.55l-56.16,57.02c-12.44,12.54-15.49,40.09-3.03,52.55l36.94,37.08c12.47,12.47,40.47,22.21,57.87,6.36l56.53-56.53
	l10.69,6.36l-55.75,55.75C197.33,424.96,183.64,430.14,169.96,430.14z"/>
<path class="st5" d="M231.14,274.72l43.52-43.52l10.58,10.58l-43.52,43.52L231.14,274.72z"/>
<path class="st5" d="M189.25,232.81l43.52-43.52l9.82,9.82l-43.52,43.52L189.25,232.81z"/>
<path class="st5" d="M273.37,316.96l43.52-43.52l11.01,11.01l-43.52,43.52L273.37,316.96z"/>
<g>
	<path class="st4" d="M61.6,116.48l20.11-20.11l10.06,10.06l-20.11,20.11L61.6,116.48z"/>
	<path class="st4" d="M119.44,58.65l20.11-20.11l10.06,10.06L129.49,68.7L119.44,58.65z"/>
	<path class="st4" d="M59.1,48.59l10.06-10.06l20.11,20.11L79.21,68.7L59.1,48.59z"/>
</g>
</svg>
