<?xml version="1.0" encoding="utf-8"?>
<!-- Generator: Adobe Illustrator 25.2.0, SVG Export Plug-In . SVG Version: 6.00 Build 0)  -->
<svg version="1.1" id="effect" xmlns="http://www.w3.org/2000/svg" xmlns:xlink="http://www.w3.org/1999/xlink" x="0px" y="0px"
	 viewBox="0 0 512 512" style="enable-background:new 0 0 512 512;" xml:space="preserve">
<style type="text/css">
	.st0{fill:#EFEFEF;}
	.st1{fill:#F3F3F1;}
	.st2{fill:#87CB82;}
	.st3{fill:#67B77E;}
	.st4{fill:#DADADA;}
	.st5{fill:#666666;}
</style>
<path class="st0" d="M496.41,289.49c-53.79-82.36-48.07-166.78-74-206.48c-25.93-39.69-103.2-108.13-285.77,11.12
	S0.51,343.03,29.04,386.67C162.56,591.08,591.69,435.36,496.41,289.49z"/>
<circle class="st1" cx="256" cy="256" r="163.56"/>
<path class="st2" d="M241.78,149.33h28.44c7.85,0,14.22,6.37,14.22,14.22v64h64c7.85,0,14.22,6.37,14.22,14.22v28.44
	c0,7.85-6.37,14.22-14.22,14.22h-64v64c0,7.85-6.37,14.22-14.22,14.22h-28.44c-7.85,0-14.22-6.37-14.22-14.22v-64h-64
	c-7.85,0-14.22-6.37-14.22-14.22v-28.44c0-7.85,6.37-14.22,14.22-14.22h64v-64C227.56,155.7,233.93,149.33,241.78,149.33z"/>
<path class="st3" d="M192,284.44h-28.44c-7.82,0-14.22-6.4-14.22-14.22v-28.44c0-7.82,6.4-14.22,14.22-14.22H192
	c-7.82,0-14.22,6.4-14.22,14.22v28.44C177.78,278.04,184.18,284.44,192,284.44z"/>
<path class="st4" d="M270.22,418.99c-4.69,0.43-9.39,0.57-14.22,0.57c-90.31,0-163.56-73.24-163.56-163.56S165.69,92.44,256,92.44
	c4.84,0,9.53,0.14,14.22,0.57C186.6,100.27,120.89,170.52,120.89,256S186.6,411.73,270.22,418.99z"/>
<path class="st5" d="M270.22,373.33h-28.44c-13.72,0-14.89-4.24-14.89-24.89v-61.6h-63.33c-16.18,0-24.89,4.21-24.89-16.62v-28.44
	c0-16.57,4.42-15.9,24.89-15.9h62.22v-62.32c0-21.48,2.27-24.89,16-24.89h28.44c13.72,0,15.41,4.07,15.41,24.89v60.55h62.81
	c13.72,0,24.89,0,24.89,17.68v28.44c0,17.06-5.01,16.84-24.89,16.84h-62.36v61.38C286.08,362.17,287.63,373.33,270.22,373.33z
	 M153.28,236.25c-2.18,0-3.95,1.77-3.95,3.95v31.6c0,2.18,1.77,3.95,3.95,3.95h71.11c6.54,0,11.85,5.31,11.85,11.85v71.11
	c0,2.18,1.77,3.95,3.95,3.95h31.6c2.18,0,3.95-1.77,3.95-3.95V287.6c0-6.54,5.31-11.85,11.85-11.85h71.11
	c2.18,0,3.95-1.77,3.95-3.95v-31.6c0-2.18-1.77-3.95-3.95-3.95H287.6c-6.54,0-11.85-5.31-11.85-11.85v-71.11
	c0-2.18-1.77-3.95-3.95-3.95h-31.6c-2.18,0-3.95,1.77-3.95,3.95v71.11c0,6.54-5.31,11.85-11.85,11.85H153.28z"/>
<path class="st5" d="M256,430.22c-96.07,0-174.22-78.15-174.22-174.22S159.93,81.78,256,81.78S430.22,159.93,430.22,256
	S352.07,430.22,256,430.22z M256,92.44c-90.19,0-163.56,73.36-163.56,163.56S165.81,419.56,256,419.56S419.56,346.19,419.56,256
	S346.19,92.44,256,92.44z"/>
<path class="st4" d="M440.89,91.38c-11.76,0-21.33-9.57-21.33-21.33s9.57-21.33,21.33-21.33s21.33,9.57,21.33,21.33
	S452.65,91.38,440.89,91.38z M440.89,62.93c-3.93,0-7.11,3.19-7.11,7.11s3.19,7.11,7.11,7.11s7.11-3.19,7.11-7.11
	S444.81,62.93,440.89,62.93z"/>
</svg>
