<?xml version="1.0" encoding="utf-8"?>
<!-- Generator: Adobe Illustrator 25.2.0, SVG Export Plug-In . SVG Version: 6.00 Build 0)  -->
<svg version="1.1" id="effect" xmlns="http://www.w3.org/2000/svg" xmlns:xlink="http://www.w3.org/1999/xlink" x="0px" y="0px"
	 viewBox="0 0 512 512" style="enable-background:new 0 0 512 512;" xml:space="preserve">
<style type="text/css">
	.st0{fill:#EFEFEF;}
	.st1{fill:#F3F3F1;}
	.st2{fill:#DADADA;}
	.st3{fill:#666666;}
	.st4{fill:#87CB82;}
	.st5{fill:#67B77E;}
</style>
<path class="st0" d="M14.26,203.53c46.26,86.81,33.05,170.4,55.34,212.24s93.17,116.88,285.62,14.34S512.95,194.32,488.42,148.3
	C373.62-67.19-67.67,49.78,14.26,203.53L14.26,203.53z"/>
<path class="st1" d="M405.33,277.33h-33.56c-11.52-33.14-43.24-56.89-80.36-56.89h-78.08c-2.42-23.75-18.92-37.97-49.78-42.67v54.19
	c-6.54,3.7-12.37,8.25-17.64,13.51c-5.26,5.26-9.81,11.09-13.51,17.64h-25.74c-7.82,0-14.22,6.4-14.22,14.22v28.44
	c0,7.82,6.4,14.22,14.22,14.22h15.5c4.27,25.46,19.77,47.22,41.39,59.59v25.74c0,7.82,6.4,14.22,14.22,14.22H192
	c7.82,0,14.22-6.4,14.22-14.22v-14.22h85.33v14.22c0,7.82,6.4,14.22,14.22,14.22H320c7.82,0,14.22-6.4,14.22-14.22v-25.74
	c6.54-3.7,12.37-8.25,17.64-13.51c15.22-15.08,24.6-35.84,24.89-58.88l-2.22-2.26l2.22,0.84h28.59c7.82,0,14.22-6.4,14.22-14.22
	S413.16,277.33,405.33,277.33z"/>
<path class="st2" d="M199.11,417.56c-2.13,1.28-4.55,1.99-7.11,1.99h-14.22c-7.82,0-14.22-6.4-14.22-14.22v-25.74
	c-21.62-12.37-37.12-34.13-41.39-59.59h-15.5c-7.82,0-14.22-6.4-14.22-14.22v-28.44c0-7.82,6.4-14.22,14.22-14.22h25.74
	c3.7-6.54,8.25-12.37,13.51-17.64c5.26-5.26,11.09-9.81,17.64-13.51v-54.19c11.38,1.71,20.91,4.84,28.44,9.24v44.94
	c-6.54,3.7-12.37,8.25-17.64,13.51s-9.81,11.09-13.51,17.64h-25.74c-7.82,0-14.22,6.4-14.22,14.22v28.44
	c0,7.82,6.4,14.22,14.22,14.22h15.5c4.27,25.46,19.77,47.22,41.39,59.59v25.74C192,410.6,194.84,415.15,199.11,417.56z"/>
<path class="st3" d="M320,430.22h-14.22c-13.72,0-24.89-11.16-24.89-24.89v-3.56h-64v3.56c0,13.72-11.16,24.89-24.89,24.89h-14.22
	c-13.72,0-24.89-11.16-24.89-24.89v-19.8c-19.41-12.89-33.34-32.33-39.32-54.87h-6.9c-13.72,0-24.89-11.16-24.89-24.89v-28.44
	c0-13.72,11.16-24.89,24.89-24.89h19.78c3.43-5.13,7.41-10.01,11.93-14.52c4.52-4.52,9.39-8.52,14.52-11.92v-48.23
	c0-3.11,1.37-6.06,3.71-8.09c2.36-2.03,5.52-2.87,8.56-2.46c37.96,5.77,52.3,24.73,57.06,42.55h12.43l-0.2,12.55h-17.38
	c-5.48,0-9.82-9.18-10.37-14.63c-1.04-10.18-19.98-23.11-43.16-29.92l1.98,50.98c0,3.85-2.14,6.92-5.49,8.81
	c-5.53,3.11-6.32,3.49-12.3,8.65c-5.6,4.98-7.03,8.09-13.13,15.9c-1.89,3.34-6.81,3.78-10.65,3.78l-21.78,0.33
	c-1.93,0-6.98,1.77-6.98,6.95l-0.77,36.02c0.1,4.7,3.37,6.64,6.53,6.47l19.31,1.28c5.21,0,4.67,4.89,5.52,10.03
	c3.7,22.06,14.34,35.59,33.63,46.64c3.31,1.91,5.96,5.28,5.96,9.11l0.1,22.51c-0.44,7.86,7.16,9.98,9.09,9.98l19.84,0.76
	c8.1,0.79,8.71-8.08,8.71-10.01l-0.17-6.27c0-5.89,0.99-11.29,6.87-11.29l78.48,0.41c5.89,0,5.99,3.21,5.99,9.1l0.22,11.31
	c0,1.93,1.55,8.12,8.87,7.76l16.41,0.22c1.93,0,10.71,1.54,10.89-3.69l0.86-30.67c0-3.85,3.09-7.64,6.43-9.53
	c5.53-3.11,14.48-11.82,19.29-16.63c13.81-13.67,15.5-29.99,15.74-49.51l12.64,0.16c0,37.14-8.49,48.73-26.25,66.36
	c-4.51,4.49-9.37,8.49-14.49,11.89v19.77C344.89,419.06,333.72,430.22,320,430.22L320,430.22z"/>
<path class="st3" d="M401.56,319.55h-28.44v-13.42h28.44c1.96,0,11.55,0.89,11.1-11.84c-0.37-10.7-9.14-13.85-11.1-13.85v-10.67
	c13.72,0,24.89,11.16,24.89,24.89S415.29,319.55,401.56,319.55z"/>
<path class="st2" d="M167.11,113.41c-11.76,0-21.33-9.57-21.33-21.33s9.57-21.33,21.33-21.33c11.76,0,21.33,9.57,21.33,21.33
	S178.87,113.41,167.11,113.41z M167.11,84.96c-3.91,0-7.11,3.19-7.11,7.11c0,3.93,3.2,7.11,7.11,7.11s7.11-3.19,7.11-7.11
	C174.22,88.15,171.02,84.96,167.11,84.96z"/>
<g>
	<path class="st4" d="M341.33,279.86c0,0,78.22-33.01,78.22-99.04c0-26.41,0-59.43,0-59.43l-78.22-26.41l-78.22,26.41v59.43
		C263.11,246.85,341.33,279.86,341.33,279.86z"/>
	<path class="st5" d="M355.56,272.47c-8.39,4.98-14.22,7.4-14.22,7.4s-78.22-33-78.22-98.99c0-39.68,0-59.45,0-59.45l78.22-26.45
		l14.22,4.84l-64,21.62v59.45C291.56,228.95,333.08,259.52,355.56,272.47L355.56,272.47z"/>
	<path class="st3" d="M341.33,291.18c-1.42,0-2.82-0.28-4.15-0.84c-3.46-1.46-84.74-36.59-84.74-108.87v-59.43
		c0-4.58,2.92-8.63,7.25-10.1l78.22-26.41c2.22-0.75,4.61-0.75,6.83,0l78.22,26.41c4.34,1.46,7.25,5.53,7.25,10.1v59.43
		c0,72.28-81.28,107.42-84.74,108.87C344.15,290.9,342.76,291.18,341.33,291.18z M263.95,121.25v59.3
		c0,57.28,59.84,91.25,77.37,99.97c17.51-8.76,77.4-42.9,77.4-99.97v-59.3l-77.39-26.13L263.95,121.25z"/>
	<path class="st3" d="M334.22,220.07c-0.2,0-0.38,0-0.58-0.01c-3.04-0.17-5.85-1.62-7.75-3.98l-28.44-35.56l9.4-6.6l27.02,33.75
		l48.61-48.08l9.07,7.59l-49.78,49.78C339.77,218.95,337.04,220.07,334.22,220.07L334.22,220.07z"/>
</g>
</svg>
