<?xml version="1.0" encoding="utf-8"?>
<!-- Generator: Adobe Illustrator 25.2.0, SVG Export Plug-In . SVG Version: 6.00 Build 0)  -->
<svg version="1.1" id="effect" xmlns="http://www.w3.org/2000/svg" xmlns:xlink="http://www.w3.org/1999/xlink" x="0px" y="0px"
	 viewBox="0 0 512 512" style="enable-background:new 0 0 512 512;" xml:space="preserve">
<style type="text/css">
	.st0{fill:#EFEFEF;}
	.st1{fill:#F3F3F1;}
	.st2{fill:#87CB82;}
	.st3{fill:#DADADA;}
	.st4{fill:#67B77E;}
	.st5{fill:#666666;}
</style>
<path class="st0" d="M115.4,79.13C89.73,174.09,22.9,226.01,10.52,271.77S-1.52,420.75,209,477.67
	c210.52,56.92,276.37-64.01,289.96-114.36C562.69,127.62,160.87-89.06,115.4,79.13L115.4,79.13z"/>
<path class="st1" d="M391.11,391.11H92.44l7.68-30.86c3.27-12.94,12.8-23.18,25.32-27.31l57.17-19.06
	c7.96-3.27,12.52-10.38,15.22-18.06c1-2.84,1.71-5.69,2.28-8.39c0.28-1.28,0.57-2.56,0.71-3.7c1-6.68,1-12.52,1-14.93
	c-9.24-7.68-20.62-20.91-20.62-32.14s-6.4-12.94-6.4-12.94s-6.4-16.07-6.4-25.74c0,0,0-0.14,0.14-0.28
	c0.43-1.28,2.56-6.12,6.83-6.12c0,0,0-4.98,0-12.23c0-0.14,0-0.14,0-0.28c0.28-6.83,0.71-15.5,0.71-26.17
	c0-8.53,3.98-18.92,10.81-28.59c2.56-1.56,4.69-2.13,4.69-3.56c0-1,0.28-2.13,0.71-3.41c11.95-13.8,29.58-24.89,49.49-24.89
	c19.91,0,37.55,11.09,49.49,24.89c0.43,1.28,0.71,2.42,0.71,3.41c0,1.42,2.13,1.99,4.69,3.56c6.83,9.67,10.81,20.05,10.81,28.59
	c0,10.67,0.43,19.34,0.71,26.17v0.28v12.23c4.27,0,6.4,4.84,6.83,6.12c0.14,0.14,0.14,0.28,0.14,0.28c0,9.67-6.4,25.74-6.4,25.74
	s-6.4,1.71-6.4,12.94c0,11.24-11.38,24.46-20.62,32.14c0,2.28,0,8.11,1,14.93c0.14,1.14,0.43,2.42,0.71,3.7
	c0.57,2.84,1.28,5.55,2.28,8.39c2.7,7.68,7.25,14.79,15.22,18.06l57.17,19.06c12.52,4.12,22.04,14.36,25.32,27.31L391.11,391.11z"/>
<path class="st2" d="M341.33,418.9c0,0,78.22-33.01,78.22-99.04c0-26.41,0-59.43,0-59.43l-78.22-26.41l-78.22,26.41v59.43
	C263.11,385.89,341.33,418.9,341.33,418.9z"/>
<path class="st3" d="M228.08,266.8c0,2.42,0,8.25-1,14.93c-0.14,1.14-0.43,2.42-0.71,3.7c-0.57,2.7-1.28,5.55-2.28,8.39
	c-2.7,7.68-7.25,14.79-15.22,18.06l-57.17,19.06c-12.52,4.12-22.04,14.36-25.32,27.31l-7.68,30.86H90.27l7.68-30.86
	c3.27-12.94,12.8-23.18,25.32-27.31l57.17-19.06c7.96-3.27,12.52-10.38,15.22-18.06c1-2.84,1.71-5.69,2.28-8.39
	c0.28-1.28,0.57-2.56,0.71-3.7c1-6.68,1-12.52,1-14.93c-9.24-7.68-20.62-20.91-20.62-32.14c0-11.24-6.4-12.94-6.4-12.94
	s-6.4-16.07-6.4-25.74c0,0,0-0.14,0.14-0.28c0.43-1.28,2.56-6.12,6.83-6.12c0,0,0-4.98,0-12.23c0-0.14,0-0.14,0-0.28
	c0.28-6.83,0.71-15.5,0.71-26.17c0-8.53,3.98-18.92,10.81-28.59c2.56-1.56,4.69-2.13,4.69-3.56c0-1,0.28-2.13,0.71-3.41
	c11.95-13.8,29.58-24.89,49.49-24.89c4.84,0,9.67,0.71,14.22,1.99c-13.94,3.56-26.31,12.52-35.27,22.9
	c-0.43,1.28-0.71,2.42-0.71,3.41c0,1.42-2.13,1.99-4.69,3.56c-6.83,9.67-10.81,20.05-10.81,28.59c0,10.67-0.43,19.34-0.71,26.17
	v0.28v12.23c-4.27,0-6.4,4.84-6.83,6.12c-0.14,0.14-0.14,0.28-0.14,0.28c0,9.67,6.4,25.74,6.4,25.74s6.4,1.71,6.4,12.94
	S218.84,259.12,228.08,266.8L228.08,266.8z"/>
<path class="st4" d="M355.56,411.51c-8.39,4.98-14.22,7.4-14.22,7.4s-78.22-33-78.22-98.99c0-39.68,0-59.45,0-59.45l78.22-26.45
	l14.22,4.84l-64,21.62v59.45C291.56,367.99,333.08,398.56,355.56,411.51L355.56,411.51z"/>
<path class="st5" d="M242.06,401.78H92.44c-3.27,0-6.39-1.51-8.41-4.1c-2.03-2.59-2.73-5.96-1.95-9.14l7.68-30.86
	c4.17-16.54,16.26-29.57,32.33-34.86l57.13-19.04c6.58-2.76,11.08-13.99,11.82-30.25c-7.68-7.17-20.52-21.48-20.52-36.85
	c0-1.76-0.26-2.84-0.44-3.37c-2.35-1.15-4.21-3.14-5.19-5.62c-0.74-1.83-7.17-18.3-7.17-29.7c0-0.85,0.1-1.71,0.3-2.55
	c0.95-3.9,3.11-7.81,6.3-10.6c0.07-1.27,0.14-2.63,0.21-4.08c0.37-6.98,0.87-16.28,0.87-27.86c0-27.98,32.8-71.11,76.37-71.11
	c36.75,0,55.47,19.3,59.85,33.04c8.83,5.21,17.24,14.46,17.24,38.07v32.07c3.04,2.59,5.25,6.12,6.41,9.63
	c0.37,1.1,0.55,2.23,0.55,3.38l-11.59,0.31l-0.33,0.11c2.69-0.9,0,0,0,0s-4.8-5.9-4.58-12.72l-0.81-26.77
	c0-16.37-1.64-25.43-4.66-26.94c-2.36-1.21-11.03-7.67-11.03-15.3c-0.54-2.29-21.83-25.61-51.06-25.61
	c-31.25,0-65.1,37.61-65.1,54.2c0,12.05,0.23,16.84-0.17,24.11c-0.21,4.04-1.33,12.88-1.33,15.3c0,4.27-2.53,8.6-6.15,10.31
	c0.7,4.62,3.58,18.3,5.2,22.89c4.3,3.47,7.88,11.64,7.88,21.95c0,5.7,5.95,14.01,15.52,21.95c2.43,2.03,6.18,5.47,6.18,8.65
	c0,28.53-3.68,36.55-20.3,43.45l-58.06,19.06c-9.14,3.02-22.95,17.92-25.32,27.31l-7.17,28.8l147.67-0.45L242.06,401.78z
	 M172.02,234.01h0.03C172.03,234.03,172.02,234.01,172.02,234.01z M171.99,234.01"/>
<path class="st5" d="M341.33,430.22c-1.42,0-2.82-0.28-4.15-0.84c-3.46-1.46-84.74-36.59-84.74-108.87v-59.43
	c0-4.58,2.92-8.63,7.25-10.1l78.22-26.41c2.22-0.75,4.61-0.75,6.83,0l78.22,26.41c4.34,1.46,7.25,5.53,7.25,10.1v59.43
	c0,72.28-81.28,107.42-84.74,108.87C344.15,429.94,342.76,430.22,341.33,430.22z M263.95,260.29v59.3
	c0,57.28,59.84,91.25,77.37,99.97c17.51-8.76,77.4-42.9,77.4-99.97v-59.3l-77.39-26.13L263.95,260.29z"/>
<path class="st5" d="M334.22,359.11c-0.2,0-0.38,0-0.58-0.01c-3.04-0.17-5.85-1.62-7.75-3.98l-28.44-35.56l9.4-6.6l27.02,33.75
	l48.61-48.08l9.07,7.59L341.77,356C339.77,357.99,337.04,359.11,334.22,359.11L334.22,359.11z"/>
<g>
	<path class="st3" d="M318.49,58.63l10.06-10.06l20.11,20.11L338.6,78.74L318.49,58.63z"/>
	<path class="st3" d="M376.35,116.58l10.06-10.06l20.11,20.11l-10.06,10.06L376.35,116.58z"/>
	<path class="st3" d="M376.31,66.17l20.11-20.11l10.06,10.06l-20.11,20.11L376.31,66.17z"/>
</g>
</svg>
