<?xml version="1.0" encoding="utf-8"?>
<!-- Generator: Adobe Illustrator 25.2.0, SVG Export Plug-In . SVG Version: 6.00 Build 0)  -->
<svg version="1.1" id="_x31__x2C_5" xmlns="http://www.w3.org/2000/svg" xmlns:xlink="http://www.w3.org/1999/xlink" x="0px"
	 y="0px" viewBox="0 0 512 512" style="enable-background:new 0 0 512 512;" xml:space="preserve">
<style type="text/css">
	.st0{fill:#EFEFEF;}
	.st1{fill:#DADADA;}
	.st2{fill:#F3F3F1;}
	.st3{fill:#87CB82;}
	.st4{fill:#67B77E;}
	.st5{fill:#666666;}
</style>
<path class="st0" d="M59.26,392.86c0-98.38-50.96-165.93-50.96-213.33S35.56,32.57,253.62,32.57S503.69,166.5,503.69,218.64
	C503.71,462.79,59.26,567.08,59.26,392.86z"/>
<path class="st1" d="M448,312.89c-11.76,0-21.33-9.57-21.33-21.33s9.57-21.33,21.33-21.33s21.33,9.57,21.33,21.33
	S459.76,312.89,448,312.89z M448,284.44c-3.91,0-7.11,3.2-7.11,7.11s3.2,7.11,7.11,7.11s7.11-3.2,7.11-7.11
	S451.91,284.44,448,284.44z"/>
<path class="st2" d="M259.4,160h-78.72c-4.51,0-8.82,2.19-11.51,5.8C121.96,229.25,96,279.1,96,328.01
	c0,43.79,23.18,88.01,74.97,88.01h88.01c44.23,0,71.71-33.72,71.71-88.01c0-48.37-25.53-106.84-59.08-161.24
	C269,162.55,264.35,160,259.4,160z"/>
<g>
	<path class="st3" d="M294.41,92.44c-7.85,0-139.59,0-147.46,0c-7.85,0-14.22,6.37-14.22,14.22c0,3.5,1.27,6.71,3.37,9.19
		L180.64,160h80.1l44.53-44.15c2.1-2.47,3.37-5.69,3.37-9.19C308.64,98.82,302.26,92.44,294.41,92.44z"/>
	<circle class="st3" cx="398.22" cy="113.78" r="17.78"/>
	<circle class="st3" cx="341.33" cy="184.89" r="17.78"/>
	<circle class="st3" cx="256" cy="142.22" r="17.78"/>
</g>
<path class="st1" d="M128,327.99c0-48.91,25.96-98.76,73.17-162.2c2.69-3.61,7-5.8,11.51-5.8h-32c-4.51,0-8.82,2.19-11.51,5.8
	C121.96,229.23,96,279.08,96,327.99c0,43.79,23.18,88.01,74.97,88.01h32C151.18,416,128,371.8,128,327.99z"/>
<path class="st4" d="M154.34,108c0-7.85,7.28-14.22,15.13-14.22c-16.98,0-22.89,0-25.17,0c-7.85,0-14.22,6.37-14.22,14.22
	c0,3.5,1.27,6.71,3.37,9.19l44.53,44.15h19.65l-39.91-44.15C155.61,114.71,154.34,111.5,154.34,108L154.34,108z"/>
<path class="st4" d="M417.64,113.78c0-2.87,0.84-5.51,2.13-7.94c-3.41-6.42-10.66-10.93-19.18-10.93
	c-11.76,0-21.31,8.45-21.31,18.87s9.55,18.87,21.31,18.87c8.53,0,15.77-4.51,19.18-10.93C418.47,119.29,417.64,116.65,417.64,113.78
	z"/>
<path class="st4" d="M360.04,184.89c0-2.7,0.79-5.19,2.03-7.48c-3.24-6.04-10.13-10.3-18.24-10.3c-11.19,0-20.27,7.96-20.27,17.78
	s9.08,17.78,20.27,17.78c8.11,0,15-4.25,18.24-10.3C360.83,190.08,360.04,187.59,360.04,184.89z"/>
<path class="st4" d="M273.64,142.22c0-2.7,0.77-5.19,1.97-7.48c-3.15-6.04-9.84-10.3-17.71-10.3c-10.86,0-19.67,7.96-19.67,17.78
	S247.04,160,257.9,160c7.87,0,14.56-4.25,17.71-10.3C274.41,147.41,273.64,144.92,273.64,142.22z"/>
<path class="st5" d="M398.22,142.22c-15.69,0-28.44-12.76-28.44-28.44s12.76-28.44,28.44-28.44c15.69,0,28.44,12.76,28.44,28.44
	S413.91,142.22,398.22,142.22z M398.22,96c-9.78,0-17.78,8-17.78,17.78c0,9.78,8,17.78,17.78,17.78s17.78-8,17.78-17.78
	S408,96,398.22,96z"/>
<path class="st5" d="M341.33,213.33c-15.69,0-28.44-12.76-28.44-28.44s12.76-28.44,28.44-28.44c15.69,0,28.44,12.76,28.44,28.44
	S357.02,213.33,341.33,213.33z M341.33,168.15c-9.21,0-16.74,7.53-16.74,16.74c0,9.21,7.53,16.74,16.74,16.74
	s16.74-7.53,16.74-16.74C358.07,175.68,350.54,168.15,341.33,168.15z"/>
<path class="st5" d="M256,170.67c-15.69,0-28.44-12.76-28.44-28.44s12.76-28.44,28.44-28.44s28.44,12.76,28.44,28.44
	S271.69,170.67,256,170.67z M256,126.22c-8.8,0-16,7.2-16,16s7.2,16,16,16s16-7.2,16-16S264.8,126.22,256,126.22z"/>
<path class="st5" d="M352.04,167.3l30.44-38.15l10.97,7.6l-30.44,38.15L352.04,167.3z"/>
<path class="st5" d="M270.21,161.13l3.55-13.18l47.53,23.61l-3.55,13.18L270.21,161.13z"/>
<path class="st5" d="M180.07,168.33l-48.34-38.68c-8.36-6.68-11.51-17.52-7.96-27.65s12.74-16.67,23.44-16.67h64.71v11.96
	l-69.43-0.22c-8.37,1.27-9.74,7.7-9.74,10.48c0,2.69-0.96,6.23,4.2,11.72l48.17,41.1L180.07,168.33z"/>
<path class="st5" d="M128,156.44h71.11v14.22H128V156.44z"/>
<path class="st5" d="M218.74,348.44h-40.96v-13.5h40.96c12.8,0.22,16.8-11.1,16.8-15.96c0-5.01-5.76-9.98-13.08-10.2l-13.97-1.55
	c-21.5-1.77-30.71-11.43-30.71-28.05c0-16.77,13.53-30.29,30.15-30.29h40.96v14.45h-40.96c-4.86,0-15.3,3.13-16.07,14.19
	c-0.67,9.53,4.66,15.96,10.42,15.96l16.18,2.44c18.4,2.74,30.43,5.6,30.43,22.22C248.89,334.92,235.36,348.44,218.74,348.44z"/>
<path class="st5" d="M210.48,227.56H224v33.35h-13.52V227.56z"/>
<path class="st5" d="M210.48,338.89l13.13-0.39v30.89l-13.13,0.39V338.89z"/>
<path class="st5" d="M263.11,426.67h-96c-56.49,0-81.78-48.23-81.78-96c0-66.39,40.19-146.31,90.34-175.73l6.7,12.18
	c-43.76,25.67-83.3,102.64-83.63,161.46c-0.22,39.4,22.56,85.52,67.17,85.52l97.99,0.44c51.34,0,64.51-59.14,64.51-81.58
	c0-25.91-9.09-64.28-23.5-93.78l11.58-5.06c15.77,32.31,24.83,67.51,24.83,96.55C341.33,389.87,311.37,426.67,263.11,426.67
	L263.11,426.67z"/>
</svg>
