<?xml version="1.0" encoding="utf-8"?>
<!-- Generator: Adobe Illustrator 25.2.0, SVG Export Plug-In . SVG Version: 6.00 Build 0)  -->
<svg version="1.1" id="effect" xmlns="http://www.w3.org/2000/svg" xmlns:xlink="http://www.w3.org/1999/xlink" x="0px" y="0px"
	 viewBox="0 0 512 512" style="enable-background:new 0 0 512 512;" xml:space="preserve">
<style type="text/css">
	.st0{fill:#EFEFEF;}
	.st1{fill:#F3F3F1;}
	.st2{fill:#DADADA;}
	.st3{fill:#666666;}
	.st4{fill:#87CB82;}
	.st5{fill:#67B77E;}
</style>
<path class="st0" d="M115.4,79.13C89.73,174.09,22.9,226.01,10.52,271.77S-1.52,420.75,209,477.67
	c210.52,56.92,276.37-64.01,289.96-114.36C562.69,127.62,160.87-89.06,115.4,79.13L115.4,79.13z"/>
<path class="st1" d="M345.74,209.92c-3.84,3.7-5.55,9.1-4.41,14.36l36.55,173.08c1,3.98-0.28,8.25-3.27,11.24
	c-6.97,7.11-18.77,5.69-23.89-2.84l-63-118.9c-4.98-8.25-16.36-9.96-23.47-3.27l-79.79,73.96l17.92,40.96
	c7.11,15.8-13.75,29.13-24.18,15.22l-30.44-41.67c-1.14-1.42-2.28-2.84-3.84-3.98c-1.14-1.56-2.56-2.7-3.98-3.84L98.28,333.8
	c-13.82-10.37-0.71-31.35,15.22-24.18l40.96,17.92l73.96-79.79c6.68-7.11,4.98-18.49-3.27-23.47l-118.9-63
	c-8.53-5.12-9.96-16.92-2.84-23.89c2.99-2.99,7.25-4.27,11.24-3.27l173.08,36.55c5.26,1.14,10.67-0.57,14.36-4.41l13.8-14.79
	l48.21-51.06c9.96-10.67,37.26-10.52,47.64-0.14c5.26,5.26,7.82,14.65,7.82,23.89c0,9.39-2.56,18.63-7.96,23.75l-51.06,48.21
	L345.74,209.92z"/>
<g>
	<path class="st2" d="M402.06,94.72c-3.84,1.14-7.11,3.13-9.53,5.69l-48.21,51.06l-13.8,14.79c-3.7,3.84-9.1,5.55-14.36,4.41
		l-15.5-3.27c0.57-0.28,1-0.71,1.42-1.14l13.8-14.79l48.21-51.06C371.77,92.16,389.55,90.45,402.06,94.72z"/>
	<path class="st2" d="M256.85,247.75l-73.96,79.79l-20.2-8.82l65.71-70.97c6.68-7.11,4.98-18.49-3.27-23.47l-118.9-63
		c-8.53-5.12-9.96-16.92-2.84-23.89c2.99-2.99,7.25-4.27,11.24-3.27l16.92,3.56c-6.83,6.97-5.26,18.49,3.13,23.61l118.9,63
		C261.83,229.26,263.54,240.64,256.85,247.75z"/>
	<path class="st2" d="M203.09,408.75c-0.71,2.56-1.99,4.84-3.84,6.68c-2.13,2.13-4.69,3.41-7.4,3.84c-1.85,0.43-3.7,0.43-5.4-0.14
		c-3.13-0.71-6.12-2.56-8.25-5.4l-30.44-41.67c-1.14-1.42-2.28-2.84-3.84-3.98c-1.14-1.56-2.56-2.7-3.98-3.84L98.28,333.8
		c-2.84-2.13-4.69-5.12-5.4-8.25c-0.43-1.71-0.57-3.56-0.14-5.4c0.43-2.7-0.08-6.2,2.06-8.33c4.41-4.41,13.02-4.75,18.71-2.19
		l10.38,4.55c-1.42,1.85-2.42,3.84-2.7,5.97c-0.43,1.85-0.28,3.7,0.14,5.4c0.71,3.13,2.56,6.12,5.4,8.25l41.67,30.44
		c1.42,1.14,2.84,2.28,3.98,3.84c1.56,1.14,2.7,2.56,3.84,3.98L203.09,408.75z"/>
</g>
<path class="st3" d="M189.64,430.21c-0.61,0-1.24-0.03-1.86-0.07c-7.24-0.54-13.87-4.22-18.18-10.08l-30.45-41.7
	c-0.85-1.11-1.69-1.96-2.57-2.59l-44.64-32.95c-5.76-4.15-9.49-10.67-10.1-17.83c-0.63-7.25,1.96-14.42,7.1-19.68
	c7.64-7.62,19.23-9.78,28.93-5.39l33.91,14.82l68.81-74.23c1.32-1.42,1.34-2.96,1.22-3.75c-0.11-0.82-0.55-2.35-2.19-3.33
	L101.23,170.7c-7.42-4.44-11.95-11.42-12.9-19.46c-0.94-8.01,1.82-15.84,7.58-21.48c5.58-5.56,13.74-7.88,21.32-5.99l172.69,36.45
	c1.66,0.37,3.31-0.16,4.48-1.38l61.92-65.76c6.83-7.18,18.3-11.31,31.52-11.31c13.01,0,24.48,3.98,31.43,10.94
	c7.08,7.08,11.18,19.26,10.95,32.58c-0.23,12.8-4.37,23.89-11.35,30.41l-51,48.17l-8.8-9.55l51.54-48.37
	c2.23-2.08,6.32-10.31,6.82-23.44c-0.17-11.97-7.28-19.75-9.64-22.11c-2.35-2.33-9.98-9.45-27.43-7.15
	c-8.74,1.15-17.96,11.15-20.62,13.97l-56.27,59.44c-6.41,6.67-10.43,7.91-19.32,5.98l-170.49-36.65c-0.03,0.03,0.03-0.03,0,0
	c-6.82-0.33-10.81-0.17-13.8,7.98c-3.66,9.31,4.71,16.31,6.38,17.32l117.49,61.82c7.27,4.37,9.53,6.73,10.59,14.53
	c-0.19,4.32-4.72,9.85-10.1,15.57l-64.12,70.42c-3.1,3.33-6.95,4.74-11.12,2.92l-37.33-17.63c-8.4-1.66-11.47,0.43-13.88,1.91
	c-6.65,5.65-4.96,14.11-4.91,14.74c0.5,5.47,13.8,12.95,13.8,12.95l36.75,25.3c2.49,1.78,4.83,5.77,7.15,8.79l32.09,41.73
	c3.79,4.81,6.41,4.02,8.9,3.66c2.19-0.7,3.41,0.5,7.9-5.49c1.39-1.35,3.64-6.98,2.49-12.64l-16.54-36.48
	c-2.58-4.83,2.9-13.13,6.23-16.23l26.77-23.78l9.45,8.87l-30.15,27.99l14.88,34.02c4.24,9.96,1.96,21.52-5.63,28.87
	C202.42,427.63,196.17,430.21,189.64,430.21L189.64,430.21z"/>
<path class="st2" d="M273.92,85.42c-11.76,0-21.33-9.57-21.33-21.33s9.57-21.33,21.33-21.33s21.33,9.57,21.33,21.33
	S285.68,85.42,273.92,85.42z M273.92,56.97c-3.93,0-7.11,3.19-7.11,7.11s3.19,7.11,7.11,7.11s7.11-3.19,7.11-7.11
	S277.85,56.97,273.92,56.97z"/>
<g>
	<path class="st4" d="M341.33,419.33c0,0,78.22-33.01,78.22-99.04c0-26.41,0-59.43,0-59.43l-78.22-26.41l-78.22,26.41v59.43
		C263.1,386.32,341.33,419.33,341.33,419.33z"/>
	<path class="st5" d="M355.55,411.93c-8.39,4.98-14.22,7.4-14.22,7.4s-78.22-33-78.22-98.99c0-39.68,0-59.45,0-59.45l78.22-26.45
		l14.22,4.84l-64,21.62v59.45C291.55,368.41,333.08,398.99,355.55,411.93L355.55,411.93z"/>
	<path class="st3" d="M341.33,430.65c-1.42,0-2.82-0.28-4.15-0.84c-3.46-1.46-84.74-36.59-84.74-108.87V261.5
		c0-4.58,2.92-8.63,7.25-10.1l78.22-26.41c2.22-0.75,4.61-0.75,6.83,0l78.22,26.41c4.34,1.46,7.25,5.53,7.25,10.1v59.43
		c0,72.28-81.28,107.42-84.74,108.87C344.14,430.36,342.75,430.65,341.33,430.65z M263.94,260.71v59.3
		c0,57.28,59.84,91.25,77.37,99.97c17.51-8.76,77.4-42.9,77.4-99.97v-59.3l-77.39-26.13L263.94,260.71z"/>
	<path class="st3" d="M334.22,359.54c-0.2,0-0.38,0-0.58-0.01c-3.04-0.17-5.85-1.62-7.75-3.98l-28.44-35.56l9.4-6.6l27.02,33.75
		l48.61-48.08l9.07,7.59l-49.78,49.78C339.76,358.41,337.03,359.54,334.22,359.54L334.22,359.54z"/>
</g>
</svg>
