<svg xmlns="http://www.w3.org/2000/svg" viewBox="0 0 135 40"><defs><style>.cls-1{fill:#a6a6a6;}.cls-2{fill:#fff;}</style></defs><g id="圖層_2" data-name="圖層 2"><g id="artwork"><rect width="135" height="40" rx="5"/><path class="cls-1" d="M130,.8A4.2,4.2,0,0,1,134.2,5V35a4.2,4.2,0,0,1-4.2,4.2H5A4.2,4.2,0,0,1,.8,35V5A4.2,4.2,0,0,1,5,.8H130m0-.8H5A5,5,0,0,0,0,5V35a5,5,0,0,0,5,5H130a5,5,0,0,0,5-5V5a5,5,0,0,0-5-5Z"/><path class="cls-2" d="M41.42,17.33H37.36l-1,2.88H34.67L38.51,9.58H40.3l3.83,10.63H42.39ZM37.78,16H41l-1.58-4.66h0Z"/><path class="cls-2" d="M52.42,16.33c0,2.41-1.29,4-3.23,4a2.63,2.63,0,0,1-2.44-1.36h0v3.84H45.12V12.46h1.54v1.29h0a2.75,2.75,0,0,1,2.47-1.37C51.12,12.38,52.42,13.93,52.42,16.33Zm-1.63,0c0-1.57-.82-2.6-2-2.6s-2,1.06-2,2.6.82,2.61,2,2.61S50.79,17.92,50.79,16.33Z"/><path class="cls-2" d="M61,16.33c0,2.41-1.29,4-3.23,4a2.62,2.62,0,0,1-2.44-1.36h0v3.84H53.65V12.46h1.54v1.29h0a2.75,2.75,0,0,1,2.47-1.37C59.65,12.38,61,13.93,61,16.33Zm-1.64,0c0-1.57-.81-2.6-2-2.6s-2,1.06-2,2.6.82,2.61,2,2.61S59.31,17.92,59.31,16.33Z"/><path class="cls-2" d="M66.59,17.25C66.7,18.3,67.73,19,69.13,19s2.3-.69,2.3-1.64-.58-1.32-2-1.66l-1.37-.33c-2-.47-2.86-1.38-2.86-2.86,0-1.84,1.6-3.1,3.87-3.1s3.78,1.26,3.83,3.1h-1.6c-.1-1.07-1-1.71-2.26-1.71s-2.15.65-2.15,1.59c0,.76.56,1.2,1.93,1.54L70,14.2c2.18.52,3.08,1.4,3.08,2.95,0,2-1.58,3.24-4.1,3.24-2.36,0-4-1.22-4.05-3.14Z"/><path class="cls-2" d="M76.55,10.62v1.84H78v1.26H76.55V18c0,.66.29,1,.94,1l.52,0v1.25a4.7,4.7,0,0,1-.88.07c-1.57,0-2.18-.59-2.18-2.09V13.72H73.82V12.46H75V10.62Z"/><path class="cls-2" d="M78.87,16.33c0-2.43,1.44-4,3.68-4s3.68,1.54,3.68,4-1.43,4-3.68,4S78.87,18.78,78.87,16.33Zm5.73,0c0-1.67-.76-2.66-2-2.66s-2.06,1-2.06,2.66S81.26,19,82.55,19,84.6,18,84.6,16.33Z"/><path class="cls-2" d="M87.54,12.46h1.51v1.32h0A1.84,1.84,0,0,1,91,12.38a2.47,2.47,0,0,1,.55.06v1.48a2.35,2.35,0,0,0-.71-.09,1.6,1.6,0,0,0-1.66,1.78v4.6H87.54Z"/><path class="cls-2" d="M98.83,17.93A3.1,3.1,0,0,1,95.5,20.3c-2.26,0-3.66-1.51-3.66-3.93s1.41-4,3.59-4,3.49,1.48,3.49,3.83v.54H93.45v.1A2,2,0,0,0,95.53,19a1.75,1.75,0,0,0,1.79-1.09Zm-5.37-2.31h3.87a1.86,1.86,0,0,0-1.9-2A2,2,0,0,0,93.46,15.62Z"/><path class="cls-2" d="M34.68,24.82h7.46v.78H38.59v1.1c.51.24,1,.5,1.54.78s1,.59,1.56.91l-.46.72-1.46-.91a12.59,12.59,0,0,0-1.18-.66v4.61H37.8V25.6H34.68Z"/><path class="cls-2" d="M44.25,24.9h1.44v-.44h.76v.44h1.39v.63H46.45V26h2c0-.23,0-.48,0-.73v-.79h.74c0,.27,0,.53,0,.79s0,.5,0,.73h2v.65h-2c0,.47,0,.88.08,1.24s.08.67.13.93c0,.08,0,.16,0,.22l0,.2a9.2,9.2,0,0,0,.37-1,10.77,10.77,0,0,0,.28-1.15l.67.3a10.29,10.29,0,0,1-1,2.92c.05.14.11.27.16.38.18.38.32.57.44.57s.19-.43.3-1.28l.64.36c-.19,1.21-.47,1.81-.83,1.81s-.58-.25-.93-.76a1.62,1.62,0,0,1-.22-.41,4,4,0,0,1-1,1l-.36-.5H46.42v.7h-.73v-.7H43.81v-.64h1.88v-.36H44.22V28h1.47v-.33H43.92v-.59h1.77v-.32h.73v.32h1.76v.59H46.42V28h1.5v2.43h-1.5v.36h1.75v.34a4,4,0,0,0,.85-1c-.06-.17-.1-.35-.15-.53s-.08-.38-.12-.59a15.17,15.17,0,0,1-.3-2.39H43.73V26h2v-.45H44.25Zm.63,4h.86v-.41h-.86Zm.86.93v-.44h-.86v.44Zm.65-1.34v.41h.86v-.41Zm.86,1.34v-.44h-.86v.44Zm2.21-5,.56-.36a7.48,7.48,0,0,1,.88,1.07l-.57.42c-.11-.17-.23-.35-.37-.54S49.65,25.05,49.46,24.84Z"/><path class="cls-2" d="M25,21.08a4.94,4.94,0,0,1,2.35-4.15,5.07,5.07,0,0,0-4-2.16c-1.68-.18-3.31,1-4.16,1s-2.19-1-3.61-1a5.29,5.29,0,0,0-4.47,2.73c-1.94,3.34-.49,8.27,1.36,11,.93,1.33,2,2.81,3.43,2.76s1.9-.89,3.58-.89,2.14.89,3.59.85,2.42-1.33,3.32-2.67a11.09,11.09,0,0,0,1.52-3.09A4.76,4.76,0,0,1,25,21.08Z"/><path class="cls-2" d="M22.28,13A4.86,4.86,0,0,0,23.4,9.5a5,5,0,0,0-3.21,1.66,4.61,4.61,0,0,0-1.14,3.36A4.07,4.07,0,0,0,22.28,13Z"/></g></g></svg>
