<svg xmlns="http://www.w3.org/2000/svg" xmlns:xlink="http://www.w3.org/1999/xlink" viewBox="0 0 600 332.43"><defs><style>.cls-1{fill:#1a428a;}.cls-2{fill:#fff;}.cls-3{fill:#ce0e2d;}.cls-4{fill:#231815;}.cls-5{fill:url(#linear-gradient);}.cls-6{fill:url(#linear-gradient-2);}.cls-7{fill:#008f43;}</style><linearGradient id="linear-gradient" x1="285.14" y1="94.42" x2="238.99" y2="151.41" gradientUnits="userSpaceOnUse"><stop offset="0" stop-color="#6fb92c"/><stop offset="0.36" stop-color="#42a835"/><stop offset="0.79" stop-color="#12963f"/><stop offset="1" stop-color="#008f43"/></linearGradient><linearGradient id="linear-gradient-2" x1="299.61" y1="92.66" x2="244.57" y2="160.63" gradientUnits="userSpaceOnUse"><stop offset="0" stop-color="#44af35"/><stop offset="0.22" stop-color="#2da43a"/><stop offset="0.51" stop-color="#14983f"/><stop offset="0.78" stop-color="#059142"/><stop offset="1" stop-color="#008f43"/></linearGradient></defs><g id="圖層_2" data-name="圖層 2"><g id="Layer_1" data-name="Layer 1"><path class="cls-1" d="M22.11,313.43A15.14,15.14,0,0,1,20.8,320,9.88,9.88,0,0,1,17,324.34a10.46,10.46,0,0,1-5.64,1.54,10.62,10.62,0,0,1-5.62-1.5,10,10,0,0,1-3.83-4.32,14.85,14.85,0,0,1-1.39-6.45v-1.26a15.19,15.19,0,0,1,1.33-6.58,10,10,0,0,1,3.8-4.37,10.45,10.45,0,0,1,5.63-1.53,10.4,10.4,0,0,1,5.62,1.51,10,10,0,0,1,3.82,4.35,15.15,15.15,0,0,1,1.36,6.57Zm-5.28-1.14a10.72,10.72,0,0,0-1.44-6.05,4.64,4.64,0,0,0-4.08-2.06,4.63,4.63,0,0,0-4,2.05,10.45,10.45,0,0,0-1.43,6v1.24a10.68,10.68,0,0,0,1.44,6,4.62,4.62,0,0,0,4.1,2.13,4.57,4.57,0,0,0,4-2.07,10.71,10.71,0,0,0,1.42-6Z"/><path class="cls-1" d="M27,325.5l0-15.13h-2.8v-3.69h2.8v-1.6a6.52,6.52,0,0,1,1.81-4.92,7,7,0,0,1,5.08-1.76,11.89,11.89,0,0,1,2.56.35l-.05,3.89a6.58,6.58,0,0,0-1.53-.15c-1.89,0-2.83.89-2.83,2.66v1.52h6.19v-.87a7,7,0,0,1,2.17-5.48,8.77,8.77,0,0,1,6-1.93,20.53,20.53,0,0,1,5.73,1l-.73,4.16a20.92,20.92,0,0,0-2.65-.64,13,13,0,0,0-2-.15q-3.53,0-3.51,3.12v.77h3.7v3.68h-3.7l0,15.13h-5l0-15.13H32l0,15.13Zm27.53-.05h-5l0-18.82h5Z"/><path class="cls-1" d="M66.47,321.72a3.29,3.29,0,0,0,2.26-.77,2.67,2.67,0,0,0,.9-2h4.71a6.45,6.45,0,0,1-1,3.5,6.92,6.92,0,0,1-2.81,2.48,8.85,8.85,0,0,1-3.93.88,8.13,8.13,0,0,1-6.37-2.55,10.16,10.16,0,0,1-2.35-7.08v-.33a10,10,0,0,1,2.3-6.94,8.09,8.09,0,0,1,6.34-2.61,7.92,7.92,0,0,1,5.67,2,7.1,7.1,0,0,1,2.17,5.34H69.62a3.47,3.47,0,0,0-.91-2.38,3.35,3.35,0,0,0-4.95.37,7.49,7.49,0,0,0-.88,4.15v.53a7.52,7.52,0,0,0,.89,4.18A3.1,3.1,0,0,0,66.47,321.72Z"/><path class="cls-1" d="M77.14,301.72a2.47,2.47,0,0,1,.76-1.86,3.24,3.24,0,0,1,4.11,0,2.66,2.66,0,0,1,0,3.74,3.25,3.25,0,0,1-4.09,0A2.49,2.49,0,0,1,77.14,301.72Zm5.39,23.67h-5l0-18.81h5Z"/><path class="cls-1" d="M97.57,325.36a5.75,5.75,0,0,1-.51-1.68,6,6,0,0,1-4.74,2,6.65,6.65,0,0,1-4.59-1.59,5.14,5.14,0,0,1-1.82-4,5.31,5.31,0,0,1,2.21-4.59,10.86,10.86,0,0,1,6.4-1.63h2.31v-1.08a3.06,3.06,0,0,0-.67-2.08,2.65,2.65,0,0,0-2.12-.78,3,3,0,0,0-2,.61,2,2,0,0,0-.71,1.67h-5a5,5,0,0,1,1-3A6.71,6.71,0,0,1,90.16,307a10.36,10.36,0,0,1,4.14-.8A8.12,8.12,0,0,1,99.82,308a6.1,6.1,0,0,1,2.06,4.9V321a9,9,0,0,0,.76,4.05v.3Zm-4.16-3.48a4.35,4.35,0,0,0,2-.5,3.31,3.31,0,0,0,1.39-1.33v-3.24H95q-3.76,0-4,2.62l0,.3a2,2,0,0,0,.67,1.54A2.54,2.54,0,0,0,93.41,321.88Z"/><path class="cls-1" d="M111.06,325.34h-5l0-26.71h5Z"/><path class="cls-1" d="M131.17,300l6.54,18.35L144.14,300l6.85,0,0,25.32H145.8v-6.92l.5-12-6.8,18.88h-3.58l-6.85-18.84.54,11.93,0,6.92H124.4L124.35,300Z"/><path class="cls-1" d="M166.17,325.23a5.46,5.46,0,0,1-.51-1.68,6.06,6.06,0,0,1-4.74,2,6.71,6.71,0,0,1-4.59-1.59,5.15,5.15,0,0,1-1.82-4,5.32,5.32,0,0,1,2.2-4.6,11,11,0,0,1,6.41-1.63h2.31v-1.08a3.11,3.11,0,0,0-.67-2.08,2.66,2.66,0,0,0-2.12-.78,3,3,0,0,0-2,.61,2.07,2.07,0,0,0-.72,1.67h-5a5.07,5.07,0,0,1,1-3,6.64,6.64,0,0,1,2.85-2.18,10.36,10.36,0,0,1,4.14-.8,8.19,8.19,0,0,1,5.52,1.73,6.13,6.13,0,0,1,2.05,4.91l0,8.16a9,9,0,0,0,.75,4.05v.29ZM162,321.75a4.4,4.4,0,0,0,2-.5,3.28,3.28,0,0,0,1.39-1.34v-3.23h-1.88c-2.52,0-3.85.88-4,2.62l0,.29a2,2,0,0,0,.67,1.55A2.54,2.54,0,0,0,162,321.75Z"/><path class="cls-1" d="M184.9,311.09a14,14,0,0,0-1.81-.13c-1.9,0-3.14.65-3.73,1.94l0,12.31h-5l0-18.82h4.75l.14,2.25a4.66,4.66,0,0,1,4.19-2.6,5.25,5.25,0,0,1,1.56.22Z"/><path class="cls-1" d="M194.16,317.63l-1.8,1.81v5.74h-5l-.06-26.71h5l0,14.8,1-1.25,4.8-5.66,6,0-6.79,7.86,7.42,11H199Z"/><path class="cls-1" d="M214.68,325.49a9.24,9.24,0,0,1-6.74-2.53,9,9,0,0,1-2.62-6.76v-.49a11.43,11.43,0,0,1,1.09-5.07,8,8,0,0,1,3.1-3.44,8.64,8.64,0,0,1,4.58-1.22,7.79,7.79,0,0,1,6.08,2.42q2.22,2.43,2.23,6.9v2.05l-12,0a4.71,4.71,0,0,0,1.48,3,4.39,4.39,0,0,0,3.1,1.1,5.41,5.41,0,0,0,4.54-2.11l2.47,2.76a7.54,7.54,0,0,1-3,2.5A10.16,10.16,0,0,1,214.68,325.49Zm-.6-15.46a3.13,3.13,0,0,0-2.43,1,5.19,5.19,0,0,0-1.18,2.9h7v-.41a3.78,3.78,0,0,0-.91-2.59A3.25,3.25,0,0,0,214.08,310Z"/><path class="cls-1" d="M231.24,301.67v4.62h3.22V310h-3.22l0,9.39a2.21,2.21,0,0,0,.41,1.49,2,2,0,0,0,1.53.45,8,8,0,0,0,1.47-.12V325a10.36,10.36,0,0,1-3,.45c-3.52,0-5.32-1.77-5.4-5.32l0-10.14h-2.75v-3.68h2.74v-4.62Z"/><path class="cls-1" d="M237.22,301.41a2.49,2.49,0,0,1,.75-1.86,3.27,3.27,0,0,1,4.11,0,2.66,2.66,0,0,1,0,3.74,3.23,3.23,0,0,1-4.08,0A2.46,2.46,0,0,1,237.22,301.41Zm5.38,23.67h-5l0-18.81h5Z"/><path class="cls-1" d="M251.33,306.25l.16,2.18a6.55,6.55,0,0,1,5.41-2.53,5.43,5.43,0,0,1,4.45,1.74,8.19,8.19,0,0,1,1.51,5.25l0,12.16h-5l0-12a3.24,3.24,0,0,0-.7-2.32,3.06,3.06,0,0,0-2.31-.71,3.43,3.43,0,0,0-3.18,1.81l0,13.27h-5l0-18.82Z"/><path class="cls-1" d="M265.94,315.49a11,11,0,0,1,2.05-7,6.68,6.68,0,0,1,5.55-2.66,5.87,5.87,0,0,1,4.82,2.11l.2-1.77h4.56l0,18.19a8,8,0,0,1-1.12,4.3,7.14,7.14,0,0,1-3.15,2.79,11,11,0,0,1-4.76,1,10.35,10.35,0,0,1-4-.82,7,7,0,0,1-3-2.12l2.22-3.07a5.88,5.88,0,0,0,4.55,2.1,4.3,4.3,0,0,0,3.12-1.08,4,4,0,0,0,1.1-3v-1a5.81,5.81,0,0,1-4.57,2,6.63,6.63,0,0,1-5.49-2.64,11,11,0,0,1-2.11-7Zm5,.37a6.82,6.82,0,0,0,1,4,3.28,3.28,0,0,0,2.82,1.45,3.48,3.48,0,0,0,3.28-1.73v-7.93a3.49,3.49,0,0,0-3.26-1.71,3.28,3.28,0,0,0-2.84,1.48A7.78,7.78,0,0,0,271,315.86Z"/><path class="cls-1" d="M301.41,316.05l0,8.92h-5.22l0-25.32,9.87,0a11.51,11.51,0,0,1,5,1,7.66,7.66,0,0,1,3.34,3,8.21,8.21,0,0,1,1.17,4.37,7.26,7.26,0,0,1-2.54,5.87,10.53,10.53,0,0,1-7,2.16Zm0-4.22h4.66a4.62,4.62,0,0,0,3.15-1,3.57,3.57,0,0,0,1.08-2.79,4.15,4.15,0,0,0-1.1-3,4.06,4.06,0,0,0-3-1.18h-4.78Z"/><path class="cls-1" d="M329.57,324.92a5.27,5.27,0,0,1-.51-1.69,6.08,6.08,0,0,1-4.75,2,6.61,6.61,0,0,1-4.58-1.59,5.17,5.17,0,0,1-1.83-4,5.34,5.34,0,0,1,2.21-4.59,11,11,0,0,1,6.41-1.63h2.31v-1.07a3.09,3.09,0,0,0-.68-2.09,2.63,2.63,0,0,0-2.11-.78,3,3,0,0,0-2,.62,2.06,2.06,0,0,0-.72,1.67h-5a5,5,0,0,1,1-3,6.65,6.65,0,0,1,2.85-2.19,10.31,10.31,0,0,1,4.13-.8,8.27,8.27,0,0,1,5.53,1.74,6.11,6.11,0,0,1,2.05,4.91l0,8.15a8.89,8.89,0,0,0,.75,4.05v.3Zm-4.17-3.49a4.32,4.32,0,0,0,2.05-.5,3.26,3.26,0,0,0,1.39-1.33v-3.24H327q-3.78,0-4,2.61l0,.3a2,2,0,0,0,.66,1.54A2.56,2.56,0,0,0,325.4,321.43Z"/><path class="cls-1" d="M348.3,310.78a14.14,14.14,0,0,0-1.81-.14c-1.9,0-3.14.65-3.73,1.94l0,12.31h-5l0-18.81h4.75l.14,2.24a4.66,4.66,0,0,1,4.19-2.6,5.6,5.6,0,0,1,1.56.22Z"/><path class="cls-1" d="M357.59,301.42v4.63h3.22v3.69H357.6l0,9.39a2.28,2.28,0,0,0,.4,1.5,2,2,0,0,0,1.53.45,7.27,7.27,0,0,0,1.48-.13v3.81a10,10,0,0,1-3,.46q-5.29,0-5.4-5.33l0-10.14h-2.75v-3.69h2.75v-4.63Z"/><path class="cls-1" d="M368.24,306l.16,2.17a6.56,6.56,0,0,1,5.4-2.53,5.46,5.46,0,0,1,4.45,1.75,8.19,8.19,0,0,1,1.51,5.25l0,12.15h-5l0-12a3.31,3.31,0,0,0-.7-2.32,3.14,3.14,0,0,0-2.32-.72,3.47,3.47,0,0,0-3.18,1.81l0,13.27h-5l0-18.81Z"/><path class="cls-1" d="M392.25,325.14a9.22,9.22,0,0,1-6.74-2.52,9,9,0,0,1-2.61-6.76v-.49A11.24,11.24,0,0,1,384,310.3a8.06,8.06,0,0,1,3.1-3.45,8.76,8.76,0,0,1,4.58-1.22,7.83,7.83,0,0,1,6.08,2.43c1.48,1.62,2.23,3.92,2.23,6.9V317l-12,0a4.68,4.68,0,0,0,1.48,3,4.46,4.46,0,0,0,3.11,1.11,5.43,5.43,0,0,0,4.53-2.11l2.48,2.76a7.64,7.64,0,0,1-3.06,2.5A10,10,0,0,1,392.25,325.14Zm-.6-15.45a3.12,3.12,0,0,0-2.42,1,5.26,5.26,0,0,0-1.19,2.91l7,0v-.4a3.71,3.71,0,0,0-.91-2.59A3.2,3.2,0,0,0,391.65,309.69Z"/><path class="cls-1" d="M413.39,310.65a14.09,14.09,0,0,0-1.81-.13c-1.9,0-3.15.65-3.73,1.93l0,12.32h-5l0-18.82h4.74l.15,2.24a4.65,4.65,0,0,1,4.18-2.59,5,5,0,0,1,1.57.22Z"/><path class="cls-1" d="M423.9,315.15a11.15,11.15,0,0,1,1.07-5,8,8,0,0,1,3.09-3.4,9.06,9.06,0,0,1,4.71-1.2,8.54,8.54,0,0,1,6.22,2.31,9.3,9.3,0,0,1,2.69,6.33l0,1.28a9.82,9.82,0,0,1-2.4,7,9.36,9.36,0,0,1-13,0,10,10,0,0,1-2.44-7.09Zm5,.35a7,7,0,0,0,1,4.1,3.63,3.63,0,0,0,5.74,0,7.77,7.77,0,0,0,1-4.49,7,7,0,0,0-1-4.07,3.58,3.58,0,0,0-5.74,0A7.78,7.78,0,0,0,428.93,315.5Z"/><path class="cls-1" d="M446.21,324.69l0-15.13h-2.8v-3.69h2.81v-1.6a6.52,6.52,0,0,1,1.81-4.92,7,7,0,0,1,5.08-1.76,11.89,11.89,0,0,1,2.56.35l0,3.89a6.7,6.7,0,0,0-1.53-.15c-1.89,0-2.84.89-2.83,2.66v1.52H455v3.69h-3.73l0,15.13Z"/><path class="cls-1" d="M472.44,301.2v4.63h3.22v3.69h-3.21v9.39a2.22,2.22,0,0,0,.41,1.5,2,2,0,0,0,1.53.45,8.15,8.15,0,0,0,1.48-.13v3.81a10.37,10.37,0,0,1-3,.46c-3.52,0-5.32-1.77-5.4-5.33l0-10.14h-2.75v-3.69h2.74v-4.63Z"/><path class="cls-1" d="M483.37,307.86a6.25,6.25,0,0,1,5-2.41q6.14,0,6.23,7.1l0,12.05h-5l0-11.91a3.45,3.45,0,0,0-.7-2.39,3,3,0,0,0-2.32-.77,3.4,3.4,0,0,0-3.19,1.71l0,13.37h-5l-.05-26.71h5Z"/><path class="cls-1" d="M507.09,324.92a9.23,9.23,0,0,1-6.75-2.52,9.08,9.08,0,0,1-2.61-6.76v-.49a11.37,11.37,0,0,1,1.09-5.07,8,8,0,0,1,3.09-3.45,8.78,8.78,0,0,1,4.58-1.22,7.81,7.81,0,0,1,6.08,2.43c1.49,1.62,2.23,3.92,2.24,6.89v2.06l-12,0a4.62,4.62,0,0,0,1.47,2.95,4.47,4.47,0,0,0,3.11,1.11,5.4,5.4,0,0,0,4.53-2.11l2.48,2.76a7.5,7.5,0,0,1-3.06,2.5A10,10,0,0,1,507.09,324.92Zm-.61-15.46a3.2,3.2,0,0,0-2.42,1,5.33,5.33,0,0,0-1.19,2.9h7V313a3.71,3.71,0,0,0-.91-2.59A3.24,3.24,0,0,0,506.48,309.46Z"/><path class="cls-1" d="M547.46,324.5h-5.21l-10.19-16.64,0,16.66h-5.22l0-25.32H532l10.21,16.67,0-16.69h5.2Z"/><path class="cls-1" d="M552,324.49l0-25.32,8.87,0q4.6,0,7,1.75a6.07,6.07,0,0,1,2.4,5.17,5.7,5.7,0,0,1-1,3.28,5.54,5.54,0,0,1-2.65,2.09,5.33,5.33,0,0,1,3.07,1.95,5.81,5.81,0,0,1,1.13,3.62,6.69,6.69,0,0,1-2.32,5.53q-2.32,1.89-6.64,1.93Zm5.19-14.72h3.86q3.95-.08,3.94-3.16a2.91,2.91,0,0,0-1-2.47,5.31,5.31,0,0,0-3.16-.75H557.2Zm0,3.68,0,6.84h4.47a4.27,4.27,0,0,0,2.87-.89,3,3,0,0,0,1-2.42q0-3.48-3.6-3.53Z"/><path class="cls-1" d="M589,319.2l-9.15,0-1.72,5.22h-5.55L582,299.11h4.84l9.52,25.3H590.8ZM581.29,315h6.33l-3.21-9.47Z"/><path class="cls-1" d="M168.11,155.7A18.71,18.71,0,1,1,186.78,137a18.71,18.71,0,0,1-18.67,18.74"/><path class="cls-2" d="M90.12,0,27.59.12A27.67,27.67,0,0,0,0,27.82L.41,239.55A27.69,27.69,0,0,0,28.1,267.18l62.49-.12a27.74,27.74,0,0,0,27.65-27.73l-.41-211.74A27.68,27.68,0,0,0,90.12,0"/><path class="cls-1" d="M87.89,235.33c-3.4-3-1.14-4.31-1.28-5.51C84.36,220.58,77,215,80.79,211.94c-.94-3.06-2.86-6.89-2.79-6.88-11.46-6.55-21.23-17.22-22.89-18.78-2-2.18-5.43-4.36-6.08-6.13-2.76-2.52-16.29-21.64-19.45-28.69l-5.47-.76C21.59,140.53,13.26,132,13,121.81,13,118,14.76,109.68,15.44,108s3.84-4.42,3.84-4.42v-2.73c-12,.36-8.52-.86-10.59-5.5-1.45-3.22-.41-3.93.1-6.16,1.59-6.59,6.9-16.75,9.09-21.37.67-2.33,3-7.95,3-7.95C29.72,41.75,33,43.08,43.62,42l.52-.75C54.73,40.81,53,40,54.47,29.8c-1.54.66-2-3.2-2-3.2-.85-5.8,1.6-4.71,2.76-4.83.23-9.55,1.21-12.55,8.09-15.2l-35.7.07A21.13,21.13,0,0,0,6.52,27.81l.41,211.73a21.14,21.14,0,0,0,21.18,21.11l62.52-.12c-7.17-3.85-3-11.23-2.74-25.2"/><path class="cls-3" d="M74.7,49l.07.9c1.91,1.11,2.88,2,4.8,3.25C84.68,56.34,91,62,90.22,81.69,91.66,86,92.3,94.4,93.63,97.1c2.67,5.26,4.44,8.68,5.23,13.65,0,0,.78,7.74,1.78,8.3,5.27,1.18,3.75,1.7,4.53,2.6.82,1.06,3.86,1,3.87,3.84a18.82,18.82,0,0,1,2.44,4.41l-.2-102.3A21.13,21.13,0,0,0,90.13,6.52l-20.2,0c3.25,1.14,5.08,2.5,6.16,4.66,2.6.22,5.72,6.06.9,14.71,2.15,1.42.48,3.55-1,6-.45.79-.94,2.2-2.37,2.11-1.82,3.86-4,7.6-5.71,7.85-.5.62-.87,2.28-.1,3.06,2.46,1.1,5.46,2.6,6.94,4"/><path class="cls-3" d="M111.5,143.76a18.86,18.86,0,1,1-22-25.25c-2.19-5.43-6.79-14.23-8.16-17.12s-4.43-20.77-5.11-24.32c-.15-.77-8.12,4.65-8.13,5-.47.45-6,14.88-6.19,15.65a22.45,22.45,0,0,0-.12,2.42s2.72.33,4.29,5.06,6.3,22,6.3,22A12,12,0,0,1,71,128.4c6,19.91,3.92,28.49,6.61,34.32,3.37,8.23,4.27,7.15,7.16,14.06,2.08,5,4.42,24.87,5.19,25.75,3.22,4.07,5,7.25,5,9.55s-2.7,9.14-1.7,13.12c.61,2.34.93,7.59,2,8.58,0,0,1,2,.52,2.85-.14.3-.43.76-.3,1.12,1.78,6.25,7.52,16.91-1.73,22.51H94a21,21,0,0,0,17.73-20.92Z"/><path class="cls-2" d="M24.71,247.35H20.25L20.17,209h7.07L33,240.41c-.5-7.52-1.15-16.59-1.17-24.32V209h4.46l.08,38.34H29.86l-5.74-30.7c.39,7.08.56,12.73.57,18.63ZM64,213.24h-.27c-.31,4.61-.93,12.72-1.14,15.3l-.57,6.6h4l-.6-6.61c-.22-2.62-1-10.62-1.41-15.29m2.33,26.24H61.67l-.62,7.79H55.89L60.44,209l7.33,0,4.54,38.33H67ZM44.94,213.81l0,12.67h1.92c1.8,0,2.28-.66,2.28-2.75l0-7.35c0-1.78-.54-2.58-2.24-2.58Zm0,16.86,0,11.81h2c1.75,0,2.23-.91,2.23-2.74v-6.5c0-1.88-.6-2.57-2.29-2.57Zm-5.06,16.65L39.83,209l7.44,0c4.3,0,7,2.3,7,7.67v5.69c0,3.48-1,5.26-2.54,6.12,1.5,1,2.56,2.74,2.57,5.64v5.58c0,5.26-2.8,7.63-6.95,7.64Z"/><path class="cls-4" d="M378.22,143.94v-2.5a.3.3,0,0,0-.4-.32,81.17,81.17,0,0,1-18.28,2.67h0a.56.56,0,0,0-.55.55v4a.55.55,0,0,0,.55.55h.05a63.22,63.22,0,0,0,18.32-4.45A.55.55,0,0,0,378.22,143.94Zm-16.35-5.35h13.45a2.9,2.9,0,0,0,2.9-2.91v-8.31a2.91,2.91,0,0,0-2.9-2.91H361.87a2.9,2.9,0,0,0-2.9,2.9v8.32A2.91,2.91,0,0,0,361.87,138.59Zm3.52-11.08h6.41v8h-6.42Zm34.68-18.12h-47.3a2.91,2.91,0,0,0-2.92,2.91v42.43a2.92,2.92,0,0,0,2.9,2.92h47.3a2.9,2.9,0,0,0,2.91-2.9V112.31A2.9,2.9,0,0,0,400.07,109.39Zm-15.68,3.55h4.07c.21,1.08.51,2.75.81,4.83h-4.79C384.36,115.54,384.36,113.85,384.39,112.94Zm-27.92,0h22.75c0,.91.1,2.6.32,4.83H356.47Zm39.88,41.16H356.46V121.34H380A71.57,71.57,0,0,0,384.9,140a34.61,34.61,0,0,1-8.64,8.95.35.35,0,0,0-.08.5l1.07,2.06s.17.4.5.15a33.45,33.45,0,0,0,9.06-7.78,32.86,32.86,0,0,0,6.45,8.34.35.35,0,0,0,.53.06l1.61-1.9s.22-.17,0-.4a39.67,39.67,0,0,1-5.89-9.63,63.53,63.53,0,0,0,4.75-8.23c.23-.45-.17-.59-.17-.59l-3.4-1.37a.39.39,0,0,0-.53.24c-.72,1.71-1.55,3.45-2.48,5.16a69,69,0,0,1-2.9-14.18h8.59s1.22,0,1.17-1.5c-.49-2.7-1-5.38-1.27-6.9h3.13Z"/><path class="cls-4" d="M597,121.81H550.56a.68.68,0,0,0-.69.65v2.12a.69.69,0,0,0,.69.68H595l-1.16,4.56a.69.69,0,0,0,.67.7h3.18c.48,0,.48-.3.65-.7,0,0,1.21-3.7,1.54-5S600,121.81,597,121.81ZM567.75,143H554.44a2.9,2.9,0,0,0-2.91,2.9v6.27a2.9,2.9,0,0,0,2.91,2.9h13.31a2.89,2.89,0,0,0,2.9-2.89v-6.28A2.9,2.9,0,0,0,567.75,143Zm-3.51,9H558v-6h6.29ZM550.5,114.73h19.38v1.81H554.6a.54.54,0,0,0-.54.54v2.37a.54.54,0,0,0,.54.54H592a.54.54,0,0,0,.54-.54v-2.37a.54.54,0,0,0-.54-.54H576.75v-1.81h19.38a.55.55,0,0,0,.54-.55v-2.36a.54.54,0,0,0-.54-.54H576.75v-1.67a.68.68,0,0,0-.66-.7h-5.55a.68.68,0,0,0-.66.7v1.67H550.5a.54.54,0,0,0-.54.54v2.36A.55.55,0,0,0,550.5,114.73Zm1.57,17.59a.55.55,0,0,0-.54.55v2.36a.55.55,0,0,0,.54.55h42.49a.55.55,0,0,0,.54-.55v-2.36a.55.55,0,0,0-.54-.55H576.75v-1.8H592a.55.55,0,0,0,.54-.55v-2.36a.55.55,0,0,0-.54-.55H554.6a.55.55,0,0,0-.54.55V130a.55.55,0,0,0,.54.55h15.27v1.8Zm47.06,5.27H547.47a.55.55,0,0,0-.54.55v2.36a.54.54,0,0,0,.54.54H586V143H573.11a.54.54,0,0,0-.54.54v2.36a.54.54,0,0,0,.54.54H577l.75,5.09a.53.53,0,0,0,.56.5h4a.3.3,0,0,0,.32-.29h0l-1.42-5.3H586v5.4c0,1.47-.28,2.26-2.69,2.26h-1.36c-.17,0-.2.11-.2.17v2.58a.83.83,0,0,0,.83.82h2.51c5.7,0,7.51-.79,7.52-5.74v-5.5h3.54a.55.55,0,0,0,.55-.54v-2.36a.55.55,0,0,0-.55-.54h-3.54V141h6.56a.54.54,0,0,0,.54-.54v-2.36A.55.55,0,0,0,599.13,137.59Z"/><path class="cls-4" d="M534.93,155l-1.77,2.26a.74.74,0,0,1-.93.3l0,0h0c-14.23-5.8-20.86-18-23.94-28.64-3.08,10.65-9.71,22.84-23.94,28.64h0l0,0a.73.73,0,0,1-.92-.3L481.57,155s-.31-.46.11-.71c1-.52,2.27-1.2,3.29-1.84,19-12.18,19.58-38.53,19.55-42.32h0a.46.46,0,0,1,.46-.45h6.54a.46.46,0,0,1,.46.45h0c0,3.79.51,30.14,19.56,42.32,1,.64,2.28,1.32,3.29,1.84C535.25,154.55,534.93,155,534.93,155Z"/><path class="cls-4" d="M443,135.39h-3a.66.66,0,0,0-.67.66v15.77c0,1.46-.28,2.25-2.67,2.25h-1.38a.17.17,0,0,0-.19.2v2.55a.83.83,0,0,0,.82.83h2.51c5.71,0,7.52-.78,7.53-5.74V138.3A2.91,2.91,0,0,0,443,135.39Zm25.8,4A37.32,37.32,0,0,1,459,132.7h9.85a.54.54,0,0,0,.54-.54v-2.91a.54.54,0,0,0-.54-.54H435.16c1.19-1.52,2.29-3.07,3.28-4.6h24a.54.54,0,0,0,.54-.54v-2.9a.54.54,0,0,0-.54-.54h-21.6c.93-1.65,1.74-3.21,2.41-4.6h23.62a.54.54,0,0,0,.54-.54v-2.91a.54.54,0,0,0-.54-.54H445c.24-.58.42-1.08.55-1.45.18-.54.15-.94-.45-1.09-1.29-.27-3.9-.81-4.67-1a.94.94,0,0,0-1.2.77l-.42,1.38c-.14.42-.3.89-.49,1.4H418.86a.55.55,0,0,0-.55.54V115a.55.55,0,0,0,.55.54h17.86c-.64,1.44-1.39,3-2.25,4.6H423.19a.54.54,0,0,0-.53.54v2.9a.54.54,0,0,0,.53.54h9c-1,1.55-2,3.1-3.18,4.6H416.75a.54.54,0,0,0-.54.54v2.91a.54.54,0,0,0,.54.54h8.83a30.91,30.91,0,0,1-8.87,6.65.71.71,0,0,0-.45,1.05l.63,1.55a.7.7,0,0,0,1,.35,30.16,30.16,0,0,0,5.89-2.91,80.17,80.17,0,0,1,10.73,3.93.39.39,0,0,0,.57-.11l1.56-3.28a.41.41,0,0,0-.17-.61,63.21,63.21,0,0,0-9-2.63,46,46,0,0,0,4.26-4h21.09a36,36,0,0,0,4.24,3.76,33.71,33.71,0,0,1-8.83,2.34c-.29,0-.41.23-.32.56.43,1.3.57,2.32,1,3.61.14.44.35.43.63.36a44.09,44.09,0,0,0,10.85-4.57,40,40,0,0,0,7.23,3.56.69.69,0,0,0,1-.35l.64-1.56A.71.71,0,0,0,468.81,139.36ZM437.2,148.3a22.25,22.25,0,0,0-.43-2.19.37.37,0,0,0-.53-.29c-5.38,2.79-10.72,4.18-16.54,5.79a.45.45,0,0,0-.31.68c.48,1,1.28,2.79,1.62,3.54a.72.72,0,0,0,.9.31A93.93,93.93,0,0,0,437,149,.61.61,0,0,0,437.2,148.3ZM465,151.85a80,80,0,0,0-15.55-5.41c-.48-.16-.56.2-.56.2l-1,2.13a.43.43,0,0,0,.22.61,112.68,112.68,0,0,1,13.67,6.53,1.07,1.07,0,0,0,1.35-.25c.85-1.24,1.2-1.81,2.05-3.06A.52.52,0,0,0,465,151.85Z"/><path class="cls-5" d="M254.12,119.07c18-8.06,36.21-10.39,50.21-7.51a8.92,8.92,0,0,1-4.11-3.67,13.35,13.35,0,0,0-13.43-6.78,9.65,9.65,0,0,1-6.29-1.4,13.27,13.27,0,0,0-15.22,0,9.68,9.68,0,0,1-6.29,1.4,13.36,13.36,0,0,0-13.44,6.78,9.06,9.06,0,0,1-5,4,13.24,13.24,0,0,0-8.92,11.26,9.69,9.69,0,0,1-2.89,5.75,14.35,14.35,0,0,0-4.39,10.42v.19A95.88,95.88,0,0,1,254.12,119.07Z"/><path class="cls-6" d="M270,129.64c15.36-6.9,30.91-9.6,43.85-8.44a13.26,13.26,0,0,0-8.58-9.28h0a7.59,7.59,0,0,1-.92-.36c-14-2.88-32.24-.55-50.21,7.51a95.88,95.88,0,0,0-29.8,20.47,14.56,14.56,0,0,0,12.56,14.24C244.67,144.47,256.1,135.86,270,129.64Z"/><path class="cls-7" d="M317.06,128.93a9.75,9.75,0,0,1-2.89-5.75,12.79,12.79,0,0,0-.34-2c-12.94-1.16-28.49,1.54-43.85,8.44-13.88,6.22-25.31,14.83-33.1,24.14a14.61,14.61,0,0,0,2,.13h20.9a3.63,3.63,0,0,1,3.59,3.63v.85a3.83,3.83,0,0,1-3.3,3.79l-17,2.92a1.2,1.2,0,0,0-1.13,1.11v2.08h61.87v-2.08a1.2,1.2,0,0,0-1.12-1.11l-17-2.92a3.83,3.83,0,0,1-3.3-3.79v-.85a3.63,3.63,0,0,1,3.59-3.63H306.9a14.55,14.55,0,0,0,14.55-14.56A14.35,14.35,0,0,0,317.06,128.93Z"/></g></g></svg>
