<?xml version="1.0" encoding="utf-8"?>
<!-- Generator: Adobe Illustrator 25.2.1, SVG Export Plug-In . SVG Version: 6.00 Build 0)  -->
<svg version="1.1" id="Bold" xmlns="http://www.w3.org/2000/svg" xmlns:xlink="http://www.w3.org/1999/xlink" x="0px" y="0px"
	 viewBox="0 0 512 512" style="enable-background:new 0 0 512 512;" xml:space="preserve">
<style type="text/css">
	.st0{fill:#87CB82;}
	.st1{fill:#F7F7F7;}
</style>
<path class="st0" d="M416,512H96c-53.02,0-96-42.98-96-96V96C0,42.98,42.98,0,96,0h320c53.02,0,96,42.98,96,96v320
	C512,469.02,469.02,512,416,512z"/>
<path class="st1" d="M312.92,142.56h31V88.54c-5.33-0.74-23.74-2.4-45.16-2.4c-44.71,0-75.33,28.13-75.33,79.81v47.58h-49.34v60.38
	h49.34v151.94l60.49,0.02V273.94h47.35l7.52-60.38h-54.88v-41.59C283.92,154.51,288.61,142.56,312.92,142.56L312.92,142.56z"/>
</svg>
