<?xml version="1.0" encoding="utf-8"?>
<!-- Generator: Adobe Illustrator 25.2.1, SVG Export Plug-In . SVG Version: 6.00 Build 0)  -->
<svg version="1.1" id="Bold" xmlns="http://www.w3.org/2000/svg" xmlns:xlink="http://www.w3.org/1999/xlink" x="0px" y="0px"
	 viewBox="0 0 512 512" style="enable-background:new 0 0 512 512;" xml:space="preserve">
<style type="text/css">
	.st0{fill:#87CB82;}
	.st1{fill:#FFFFFF;}
</style>
<path class="st0" d="M416,512H96c-53.02,0-96-42.98-96-96V96C0,42.98,42.98,0,96,0h320c53.02,0,96,42.98,96,96v320
	C512,469.02,469.02,512,416,512z"/>
<path class="st1" d="M256.06,179.49c-42.26,0-76.45,34.25-76.45,76.45c0,42.24,34.25,76.45,76.45,76.45
	c42.26,0,76.45-34.25,76.45-76.45C332.51,213.69,298.26,179.49,256.06,179.49z M256.06,305.58c-27.41,0-49.63-22.22-49.63-49.63
	s22.22-49.63,49.63-49.63s49.63,22.2,49.63,49.63C305.69,283.36,283.47,305.58,256.06,305.58L256.06,305.58z"/>
<path class="st1" d="M317.44,107.94c-27.41-1.29-95.32-1.23-122.77,0c-24.12,1.14-45.39,6.97-62.52,24.1
	c-28.66,28.66-24.99,67.27-24.99,123.9c0,57.96-3.22,95.69,24.99,123.9c28.75,28.75,67.94,24.99,123.9,24.99
	c68.59,0,143.64,6.57,148-87.51c1.29-27.43,1.23-95.32,0-122.75C401.6,142.27,373.51,110.55,317.44,107.94L317.44,107.94z
	 M360.81,360.89C342.02,379.68,315.97,378,255.66,378c-62.07,0-86.97,0.91-105.15-17.3c-20.93-20.82-17.13-54.27-17.13-104.94
	c0-123.85,7.1-122.26,122.1-122.26l0.56,0.37c123.33,0,122.06,7.99,122.06,122.08C378.11,317.29,379.29,342.34,360.81,360.89z"/>
<circle class="st1" cx="335.54" cy="176.48" r="17.86"/>
</svg>
