<?xml version="1.0" encoding="utf-8"?>
<!-- Generator: Adobe Illustrator 25.2.1, SVG Export Plug-In . SVG Version: 6.00 Build 0)  -->
<svg version="1.1" id="Bold" xmlns="http://www.w3.org/2000/svg" xmlns:xlink="http://www.w3.org/1999/xlink" x="0px" y="0px"
	 viewBox="0 0 512 512" style="enable-background:new 0 0 512 512;" xml:space="preserve">
<style type="text/css">
	.st0{fill:#87CB82;}
	.st1{fill:#F7F7F7;}
</style>
<path class="st0" d="M416,512H96c-53.02,0-96-42.98-96-96V96C0,42.98,42.98,0,96,0h320c53.02,0,96,42.98,96,96v320
	C512,469.02,469.02,512,416,512z"/>
<path class="st1" d="M256,99.79c-89.85,0-163,59.74-163,133.15c0,65.75,58.01,120.86,136.31,131.34c5.32,1.12,12.53,3.52,14.36,8.07
	c1.63,4.12,1.08,10.47,0.51,14.75l-2.22,13.94c-0.61,4.12-3.26,16.22,14.24,8.82c17.54-7.38,93.95-55.75,128.18-95.33
	C407.81,288.7,419,262.26,419,232.96C419,159.55,345.85,99.79,256,99.79L256,99.79z M192.21,276.6h-32.42
	c-4.69,0-8.56-3.89-8.56-8.6v-65.22c0-4.71,3.87-8.62,8.56-8.62c4.73,0,8.56,3.89,8.56,8.62v56.6h23.86c4.73,0,8.54,3.87,8.54,8.62
	C200.74,272.71,196.91,276.6,192.21,276.6z M225.7,268.02c0,4.71-3.83,8.6-8.58,8.6c-4.69,0-8.52-3.89-8.52-8.6V202.8
	c0-4.71,3.83-8.62,8.56-8.62c4.71,0,8.54,3.89,8.54,8.62L225.7,268.02z M303.68,268.02c0,3.69-2.36,6.97-5.87,8.15
	c-0.88,0.29-1.81,0.43-2.71,0.43c-2.87,0-5.32-1.22-6.93-3.42l-33.19-45.33v40.18c0,4.71-3.79,8.6-8.58,8.6
	c-4.71,0-8.5-3.89-8.5-8.6V202.8c0-3.69,2.34-6.97,5.85-8.13c0.81-0.31,1.85-0.45,2.63-0.45c2.65,0,5.09,1.43,6.72,3.46l33.44,45.52
	v-40.4c0-4.71,3.83-8.62,8.56-8.62c4.69,0,8.56,3.89,8.56,8.62v65.22H303.68z M356.04,226.78c4.75,0,8.56,3.89,8.56,8.62
	c0,4.71-3.81,8.62-8.56,8.62H332.2v15.38h23.84c4.75,0,8.56,3.87,8.56,8.62c0,4.71-3.81,8.6-8.56,8.6h-32.42
	c-4.69,0-8.52-3.89-8.52-8.6V202.8c0-4.71,3.83-8.62,8.56-8.62h32.42c4.71,0,8.52,3.89,8.52,8.62c0,4.77-3.81,8.62-8.56,8.62H332.2
	v15.38h23.84V226.78z"/>
</svg>
