<?xml version="1.0" encoding="UTF-8"?>
<svg width="64px" height="64px" viewBox="0 0 64 64" version="1.1" xmlns="http://www.w3.org/2000/svg" xmlns:xlink="http://www.w3.org/1999/xlink">
    <title>7EDB5F61-8DA2-4669-8D19-1935123C1A5D</title>
    <g id="欄位雙行" stroke="none" stroke-width="1" fill="none" fill-rule="evenodd">
        <g id="spec" transform="translate(-56.000000, -6516.000000)">
            <g id="icon" transform="translate(56.000000, 6516.000000)">
                <rect id="Rectangle" x="0" y="0" width="64" height="64"></rect>
                <path d="M35.5555556,8 C36.5373951,8 37.3333333,8.79593822 37.3333333,9.77777778 L37.3340086,19.3586093 C34.6578893,21.1031648 32.8888889,24.1227741 32.8888889,27.5555556 C32.8888889,30.3576784 34.067607,32.8844969 35.9562616,34.6672293 L16,34.6666667 C15.0627895,34.6666667 14.2949643,35.3918914 14.2270984,36.3117668 L14.2222222,36.4444444 L14.2222222,40 L7.11111111,40 C6.12927156,40 5.33333333,39.2040618 5.33333333,38.2222222 L5.33333333,9.77777778 C5.33333333,8.79593822 6.12927156,8 7.11111111,8 L35.5555556,8 Z M35.6592188,8.89486909 L35.5555556,8.88888889 L7.11111111,8.88888889 C6.65525703,8.88888889 6.27954919,9.23203572 6.22820243,9.67411456 L6.22222222,9.77777778 L6.22222222,38.2222222 C6.22222222,38.6780763 6.56536906,39.0537841 7.00744789,39.1051309 L7.11111111,39.1111111 L13.3333333,39.1111111 L13.3339331,36.4117978 L13.3406189,36.2463648 C13.439237,34.9096644 14.5168393,33.858235 15.8456298,33.7821849 L16.0000251,33.7777778 L34.0026667,33.7777778 L33.9285327,33.6752141 C32.7482064,31.9930845 32.0668847,29.9880523 32.0046734,27.8735286 L32,27.5555556 C32,24.1144197 33.6429588,20.9522245 36.3456379,18.9626021 L36.4444444,18.8906667 L36.4444444,9.77777778 C36.4444444,9.3569894 36.152059,9.0044913 35.7593696,8.91236508 L35.6592188,8.89486909 Z" id="Combined-Shape" fill="#333333"></path>
                <path d="M35.1240759,33.7780588 C35.3826808,34.0911689 35.6604062,34.3879041 35.9554641,34.6664764 L15.1111111,34.6666667 C14.655257,34.6666667 14.2795492,35.0098135 14.2282024,35.4518923 L14.2222222,35.5555556 L14.2222222,52.4444444 C14.2222222,52.9002985 14.5653691,53.2760064 15.0074479,53.3273531 L15.1111111,53.3333333 L43.5555556,53.3333333 C44.0114096,53.3333333 44.3871175,52.9901865 44.4384642,52.5481077 L44.4444444,52.4444444 L44.4452206,37.1719674 C44.746586,37.1165857 45.0431161,37.0473863 45.3341298,36.9650503 L45.3333333,52.4444444 C45.3333333,53.426284 44.5373951,54.2222222 43.5555556,54.2222222 L15.1111111,54.2222222 C14.1292716,54.2222222 13.3333333,53.426284 13.3333333,52.4444444 L13.3328849,39.9993333 L6.79677384,40 C6.30585406,40 5.90788495,39.6020309 5.90788495,39.1111111 C5.90788495,38.7972639 6.07339007,38.5066779 6.34333034,38.346577 L9.31530044,36.5839081 L14.2222222,33.7777778 L14.2217468,34.0158879 C14.4833417,33.8644555 14.7871041,33.7777778 15.1111111,33.7777778 L35.1240759,33.7780588 Z M38.6666667,46.2222222 L38.6666667,47.1111111 L20.8888889,47.1111111 L20.8888889,46.2222222 L38.6666667,46.2222222 Z M38.6666667,42.6666667 L38.6666667,43.5555556 L20.8888889,43.5555556 L20.8888889,42.6666667 L38.6666667,42.6666667 Z M38.6666667,39.1111111 L38.6666667,40 L20.8888889,40 L20.8888889,39.1111111 L38.6666667,39.1111111 Z M13.3333333,35.3093333 L9.76874393,37.3484422 L6.79677384,39.1111111 L13.3333333,39.1111111 L13.3333333,35.3093333 Z M30.6666667,27.5555556 L30.6666667,28.4444444 L12.8888889,28.4444444 L12.8888889,27.5555556 L30.6666667,27.5555556 Z M30.6666667,24 L30.6666667,24.8888889 L12.8888889,24.8888889 L12.8888889,24 L30.6666667,24 Z M21.3333333,13.3333333 C23.2970124,13.3333333 24.8888889,14.9252098 24.8888889,16.8888889 C24.8888889,18.852568 23.2970124,20.4444444 21.3333333,20.4444444 C19.3696542,20.4444444 17.7777778,18.852568 17.7777778,16.8888889 C17.7777778,14.9252098 19.3696542,13.3333333 21.3333333,13.3333333 Z M21.3333333,14.2222222 C19.860574,14.2222222 18.6666667,15.4161296 18.6666667,16.8888889 C18.6666667,18.3616482 19.860574,19.5555556 21.3333333,19.5555556 C22.8060927,19.5555556 24,18.3616482 24,16.8888889 C24,15.4161296 22.8060927,14.2222222 21.3333333,14.2222222 Z" id="Combined-Shape" fill="#333333"></path>
                <path d="M42.6666667,16.8888889 C48.557704,16.8888889 53.3333333,21.6645182 53.3333333,27.5555556 C53.3333333,30.0007729 52.5105566,32.2538204 51.1267519,34.0529495 L59.3807119,42.3077281 L58.7521725,42.9362674 L50.5532741,34.7375288 C48.6023952,36.8785754 45.7914437,38.2222222 42.6666667,38.2222222 C36.7756293,38.2222222 32,33.4465929 32,27.5555556 C32,21.6645182 36.7756293,16.8888889 42.6666667,16.8888889 Z M42.6666667,17.7777778 C37.2665491,17.7777778 32.8888889,22.155438 32.8888889,27.5555556 C32.8888889,32.9556731 37.2665491,37.3333333 42.6666667,37.3333333 C48.0667842,37.3333333 52.4444444,32.9556731 52.4444444,27.5555556 C52.4444444,22.155438 48.0667842,17.7777778 42.6666667,17.7777778 Z" id="Combined-Shape" fill="#00A94F"></path>
            </g>
        </g>
    </g>
</svg>
