<?xml version="1.0" encoding="UTF-8"?>
<svg width="56px" height="48px" viewBox="0 0 56 48" version="1.1" xmlns="http://www.w3.org/2000/svg" xmlns:xlink="http://www.w3.org/1999/xlink">
    <title>9F85E71D-98E5-438F-A8D7-FFD542C8CE3D</title>
    <g id="欄位雙行" stroke="none" stroke-width="1" fill="none" fill-rule="evenodd">
        <g id="spec" transform="translate(-699.000000, -4685.000000)">
            <g id="table" transform="translate(511.000000, 4613.000000)">
                <g id="info" transform="translate(0.000000, 40.000000)">
                    <g id="Group" transform="translate(40.000000, 32.000000)">
                        <g id="phone" transform="translate(148.000000, 0.000000)">
                            <rect id="Rectangle" x="0" y="0" width="56" height="48"></rect>
                            <path d="M34,18 C36.209139,18 38,19.790861 38,22 L38,41 C38,43.209139 36.209139,45 34,45 L22,45 C19.790861,45 18,43.209139 18,41 L18,22 C18,19.790861 19.790861,18 22,18 L34,18 Z M36,41 L20,41 C20,42.0543618 20.8158778,42.9181651 21.8507377,42.9945143 L22,43 L34,43 C35.0543618,43 35.9181651,42.1841222 35.9945143,41.1492623 L36,41 Z M20,25.999 L20,38.999 L36,39 L36,26 L20,25.999 Z M34,20 L22,20 C20.9456382,20 20.0818349,20.8158778 20.0054857,21.8507377 L20,22 L20,24 L36,24 L36,22 C36,20.9456382 35.1841222,20.0818349 34.1492623,20.0054857 L34,20 Z M24,21 C24.5522847,21 25,21.4477153 25,22 C25,22.5522847 24.5522847,23 24,23 C23.4477153,23 23,22.5522847 23,22 C23,21.4477153 23.4477153,21 24,21 Z M31,21 C31.5522847,21 32,21.4477153 32,22 C32,22.5522847 31.5522847,23 31,23 L27,23 C26.4477153,23 26,22.5522847 26,22 C26,21.4477153 26.4477153,21 27,21 L31,21 Z M23.3957797,3.92650873 L24.1590156,7.85301747 C24.5805392,10.0215684 23.1642938,12.1212386 20.9957429,12.5427622 L17.0692341,13.3059982 L17.4508521,15.2692525 L14.4512344,13.8148858 L9.21621668,14.8324701 C7.04766578,15.2539937 4.94799556,13.8377483 4.52647196,11.6691974 L3.76323598,7.74268864 C3.34171239,5.57413775 4.75795784,3.47446752 6.92650873,3.05294393 L18.7060349,0.763235982 C20.8745858,0.341712388 22.9742561,1.75795784 23.3957797,3.92650873 Z M19.2352196,2.7033947 L19.0876529,2.72649035 L7.30812672,5.01619829 C6.27313653,5.21738001 5.58088052,6.18308927 5.7033947,7.21350395 L5.72649035,7.36107065 L6.48972633,11.2875794 C6.69090804,12.3225696 7.65661731,13.0148256 8.68703198,12.8923114 L8.83459869,12.8692158 L20.6141249,10.5795078 C21.6491151,10.3783261 22.3413711,9.41261684 22.2188569,8.38220216 L22.1957613,8.23463546 L21.4325253,4.30812672 C21.2313436,3.27313653 20.2656343,2.58088052 19.2352196,2.7033947 Z M11.0162443,8.37028004 C11.1216252,8.91241776 10.7675638,9.43733532 10.2254261,9.54271622 C9.68328834,9.64809712 9.15837079,9.29403575 9.05298989,8.75189803 C8.94760899,8.20976031 9.30167035,7.68484275 9.84380808,7.57946185 C10.3859458,7.47408095 10.9108634,7.82814232 11.0162443,8.37028004 Z M14.942753,7.60704406 C15.0481339,8.14918178 14.6940725,8.67409934 14.1519348,8.77948024 C13.6097971,8.88486114 13.0848795,8.53079977 12.9794986,7.98866205 C12.8741177,7.44652433 13.2281791,6.92160677 13.7703168,6.81622587 C14.3124545,6.71084497 14.8373721,7.06490634 14.942753,7.60704406 Z M18.8692617,6.84380808 C18.9746426,7.3859458 18.6205813,7.91086336 18.0784435,8.01624426 C17.5363058,8.12162515 17.0113883,7.76756379 16.9060074,7.22542607 C16.8006265,6.68328834 17.1546878,6.15837079 17.6968255,6.05298989 C18.2389633,5.94760899 18.7638808,6.30167035 18.8692617,6.84380808 Z" id="Combined-Shape" fill="#434343" fill-rule="nonzero"></path>
                        </g>
                    </g>
                </g>
            </g>
        </g>
    </g>
</svg>
