<?xml version="1.0" encoding="UTF-8"?>
<svg width="23px" height="16px" viewBox="0 0 23 16" version="1.1" xmlns="http://www.w3.org/2000/svg" xmlns:xlink="http://www.w3.org/1999/xlink">
    <title>2730A0DE-4F60-4343-BE22-5C44F2A14AB1</title>
    <g id="欄位雙行" stroke="none" stroke-width="1" fill="none" fill-rule="evenodd">
        <g id="spec" transform="translate(-144.000000, -5163.000000)" fill="#FFFFFF">
            <g id="tree" transform="translate(144.326693, 5163.000000)">
                <path d="M21.0052328,7.128536 C20.7477381,6.8726 20.4039027,6.413112 20.3497186,5.831296 C20.3354893,5.67824 20.3096835,5.528632 20.2737484,5.38592 L20.2734269,5.38592 L20.27407,5.38592 C20.0218812,4.374104 19.2604107,3.619472 18.3297157,3.295784 C18.2613023,3.272576 18.1925674,3.245288 18.1223051,3.213928 C17.7676971,3.0524 17.4084265,2.776704 17.1909669,2.385904 C16.6065994,1.33644 15.4599722,0.7110344 14.1491047,0.855624 C13.6083096,0.916472 13.0746693,0.7800368 12.7232771,0.5426064 C12.2296719,0.208888 11.6730395,0 10.9995176,0 C10.3263173,0 9.76936344,0.208888 9.27543667,0.5426064 C8.92468757,0.7800368 8.39016298,0.916472 7.85053351,0.855624 C6.53874954,0.7110344 5.39212234,1.33644 4.8071439,2.385904 C4.54775195,2.854176 4.08916539,3.153704 3.66839509,3.295784 C2.62451655,3.64864 1.76375429,4.597416 1.64902726,5.831296 C1.59450559,6.4128 1.25095155,6.872288 0.993770372,7.128536 C0.292173281,7.826088 0,8.64248 0,9.47744 L0,9.51824 L0,9.51848 C0.0189108675,11.15952 1.25001096,12.50976 2.84419499,12.72744 C2.99169773,12.74784 3.14235986,12.75784 3.29616531,12.75784 L8.03019294,12.75784 C8.4793174,12.7588 8.84493898,13.1292 8.84493898,13.5768 L8.84493898,13.76744 C8.84493898,14.51992 8.09697435,14.62088 8.09697435,14.62088 L4.24738435,15.27928 C4.11091135,15.30216 3.99366002,15.39432 3.99366002,15.5292 L3.99366002,16 L18.0056567,16 L18.0056567,15.5292 C18.0056567,15.39432 17.8881239,15.30216 17.7516188,15.27928 L13.9019806,14.62088 C13.9019806,14.62088 13.155061,14.51992 13.155061,13.76744 L13.155061,13.5768 C13.155061,13.1292 13.5190748,12.7588 13.9688665,12.75784 L18.7032157,12.75784 C20.5243295,12.75784 22,11.28904 22,9.47712 C22,8.64216 21.7068918,7.825768 21.0052328,7.128536 Z" id="Path"></path>
            </g>
        </g>
    </g>
</svg>
