<?xml version="1.0" encoding="UTF-8"?>
<svg width="24px" height="24px" viewBox="0 0 24 24" version="1.1" xmlns="http://www.w3.org/2000/svg" xmlns:xlink="http://www.w3.org/1999/xlink">
    <title>4C9F554D-2F98-4C27-A89B-7EE699AF8C0E</title>
    <g id="guideline" stroke="none" stroke-width="1" fill="none" fill-rule="evenodd">
        <g id="icon" transform="translate(-54.000000, -119.000000)">
            <g id="icon/24/arrow_icon.css" transform="translate(54.000000, 119.000000)">
                <polygon id="Path" points="0 0 24 0 24 24 0 24"></polygon>
                <path d="M20,3 L19,3 L19,1 L17,1 L17,3 L7,3 L7,1 L5,1 L5,3 L4,3 C2.9,3 2,3.9 2,5 L2,21 C2,22.1 2.9,23 4,23 L20,23 C21.1,23 22,22.1 22,21 L22,5 C22,3.9 21.1,3 20,3 Z M20,21 L4,21 L4,10 L20,10 L20,21 Z M20,8 L4,8 L4,5 L20,5 L20,8 Z" id="Shape" fill="#00A94F"></path>
            </g>
        </g>
    </g>
</svg>
