<?xml version="1.0" encoding="UTF-8"?>
<svg width="40px" height="40px" viewBox="0 0 40 40" version="1.1" xmlns="http://www.w3.org/2000/svg" xmlns:xlink="http://www.w3.org/1999/xlink">
<g id="icon" stroke="none" stroke-width="1" fill="none" fill-rule="evenodd">
        <rect id="Rectangle" x="0" y="0" width="40" height="40"></rect>
        <path d="M35.979975,37.3507791 C35.7694733,37.3902212 35.5518696,37.3610409 35.3591961,37.2675338 L18.2885261,28.9829035 C17.7916632,28.7417692 17.5843543,28.1435043 17.8254887,27.6466414 C17.8998368,27.4934455 18.0120735,27.3617726 18.151562,27.2641017 L31.8700739,17.6582962 C32.3224791,17.3415187 32.9460249,17.4514667 33.2628024,17.9038718 C33.3444903,18.0205342 33.4003167,18.1532994 33.4265454,18.2932817 L36.7787035,36.1837175 C36.8804159,36.7265555 36.5228129,37.2490668 35.979975,37.3507791 Z M34.8975313,35.1900416 L31.9796476,19.6163712 L20.0370935,27.9786376 L34.8975313,35.1900416 Z M21.25,4.16666667 C24.7017797,4.16666667 27.5,6.96488698 27.5,10.4166667 C27.5,10.5534465 27.4956062,10.6892001 27.4869521,10.8237941 C28.506679,11.5833134 29.1666667,12.7979158 29.1666667,14.1666667 C29.1666667,16.4678531 27.3011865,18.3333333 25,18.3333333 C24.7722573,18.3333333 24.5487821,18.3150618 24.3309605,18.2799046 L24.7635143,20.5859643 C24.8652267,21.1288023 24.5076237,21.6513135 23.9647858,21.7530259 C23.754284,21.7924679 23.5366804,21.7632877 23.3440069,21.6697806 L20.4274729,20.2536379 C19.1509041,22.1134848 17.0095742,23.3333333 14.5833333,23.3333333 C10.6713164,23.3333333 7.5,20.162017 7.5,16.25 C7.5,15.010202 7.81852238,13.8447989 8.37819817,12.8311597 C7.82430014,12.0263426 7.5,11.0510435 7.5,10 C7.5,7.23857625 9.73857625,5 12.5,5 C13.9877251,5 15.3236912,5.64975728 16.2396004,6.68097379 C17.3782401,5.15487222 19.1987161,4.16666667 21.25,4.16666667 Z M21.25,5.83333333 C19.8570812,5.83333333 18.5708869,6.45711518 17.7080902,7.50816736 L17.5754238,7.67764504 L16.3520318,9.31733887 L14.9934816,7.78775551 C14.3634142,7.07836652 13.4668672,6.66666667 12.5,6.66666667 C10.6590508,6.66666667 9.16666667,8.15905083 9.16666667,10 C9.16666667,10.6167391 9.33305369,11.2051043 9.64265969,11.718117 L9.75113431,11.886266 L10.3351902,12.7349026 L9.83723453,13.6367593 C9.39934733,14.4298249 9.16666667,15.3211481 9.16666667,16.25 C9.16666667,19.2415424 11.5917909,21.6666667 14.5833333,21.6666667 C16.3169048,21.6666667 17.9097423,20.8479409 18.9243316,19.490548 L19.0533541,19.3104649 L19.8650996,18.127824 L22.8808333,19.5916667 L22.2557334,16.256719 L24.5965296,16.634532 C24.7285867,16.6558465 24.8632745,16.6666667 25,16.6666667 C26.3807119,16.6666667 27.5,15.5473785 27.5,14.1666667 C27.5,13.4228179 27.1746746,12.7359889 26.6227326,12.2651806 L26.4913835,12.1604396 L25.7656556,11.6198984 L25.82372,10.7168512 C25.8301177,10.6173504 25.8333333,10.5172621 25.8333333,10.4166667 C25.8333333,7.88536156 23.7813051,5.83333333 21.25,5.83333333 Z" id="Combined-Shape" fill="#00A94F" fill-rule="nonzero"></path>
        <polygon id="Path" fill="#00A94F" fill-rule="nonzero" points="32.6871125 23.4992152 33.6850163 24.8341181 24.2095925 31.9174514 23.2116887 30.5825486"></polygon>
        <polygon id="Path" fill="#00A94F" fill-rule="nonzero" points="34.5256584 29.3148398 35.4743416 30.6851602 30.057675 34.4351602 29.1089917 33.0648398"></polygon>
        <path d="M35,9.58333333 C35.4602373,9.58333333 35.8333333,9.95642938 35.8333333,10.4166667 C35.8333333,10.8440299 35.5116332,11.196256 35.0971843,11.2443936 L35,11.25 L31.25,11.25 C30.7897627,11.25 30.4166667,10.876904 30.4166667,10.4166667 C30.4166667,9.98930347 30.7383668,9.63707737 31.1528157,9.58893978 L31.25,9.58333333 L35,9.58333333 Z" id="Path" fill="#00A94F" fill-rule="nonzero"></path>
        <path d="M35,9.58333333 C35.4602373,9.58333333 35.8333333,9.95642938 35.8333333,10.4166667 C35.8333333,10.8440299 35.5116332,11.196256 35.0971843,11.2443936 L35,11.25 L31.25,11.25 C30.7897627,11.25 30.4166667,10.876904 30.4166667,10.4166667 C30.4166667,9.98930347 30.7383668,9.63707737 31.1528157,9.58893978 L31.25,9.58333333 L35,9.58333333 Z" id="Path" fill="#00A94F" fill-rule="nonzero" transform="translate(33.125000, 10.416667) rotate(-90.000000) translate(-33.125000, -10.416667) "></path>
        <path d="M14.1666667,31.25 C14.626904,31.25 15,31.623096 15,32.0833333 C15,32.5106965 14.6782998,32.8629226 14.2638509,32.9110602 L14.1666667,32.9166667 L10.4166667,32.9166667 C9.95642938,32.9166667 9.58333333,32.5435706 9.58333333,32.0833333 C9.58333333,31.6559701 9.90503349,31.303744 10.3194824,31.2556064 L10.4166667,31.25 L14.1666667,31.25 Z" id="Path" fill="#00A94F" fill-rule="nonzero"></path>
        <path d="M14.1666667,31.25 C14.626904,31.25 15,31.623096 15,32.0833333 C15,32.5106965 14.6782998,32.8629226 14.2638509,32.9110602 L14.1666667,32.9166667 L10.4166667,32.9166667 C9.95642938,32.9166667 9.58333333,32.5435706 9.58333333,32.0833333 C9.58333333,31.6559701 9.90503349,31.303744 10.3194824,31.2556064 L10.4166667,31.25 L14.1666667,31.25 Z" id="Path" fill="#00A94F" fill-rule="nonzero" transform="translate(12.291667, 32.083333) rotate(-90.000000) translate(-12.291667, -32.083333) "></path>
        <path d="M6.66666667,22.9166667 C7.12690396,22.9166667 7.5,23.2897627 7.5,23.75 C7.5,24.1773632 7.17829984,24.5295893 6.76385094,24.5777269 L6.66666667,24.5833333 L2.91666667,24.5833333 C2.45642938,24.5833333 2.08333333,24.2102373 2.08333333,23.75 C2.08333333,23.3226368 2.40503349,22.9704107 2.8194824,22.9222731 L2.91666667,22.9166667 L6.66666667,22.9166667 Z" id="Path" fill="#00A94F" fill-rule="nonzero"></path>
        <path d="M6.66666667,22.9166667 C7.12690396,22.9166667 7.5,23.2897627 7.5,23.75 C7.5,24.1773632 7.17829984,24.5295893 6.76385094,24.5777269 L6.66666667,24.5833333 L2.91666667,24.5833333 C2.45642938,24.5833333 2.08333333,24.2102373 2.08333333,23.75 C2.08333333,23.3226368 2.40503349,22.9704107 2.8194824,22.9222731 L2.91666667,22.9166667 L6.66666667,22.9166667 Z" id="Path" fill="#00A94F" fill-rule="nonzero" transform="translate(4.791667, 23.750000) rotate(-90.000000) translate(-4.791667, -23.750000) "></path>
    </g>
</svg>
