<svg width="40" height="40" viewBox="0 0 40 40" version="1.1" xmlns="http://www.w3.org/2000/svg" xmlns:xlink="http://www.w3.org/1999/xlink">
    <g id="icon" stroke="none" stroke-width="1" fill="none" fill-rule="evenodd">
        <path d="M37.5,7.5 C38.4204746,7.5 39.1666667,8.24619208 39.1666667,9.16666667 L39.1666667,30.8333333 C39.1666667,31.7538079 38.4204746,32.5 37.5,32.5 L2.5,32.5 C1.57952542,32.5 0.833333333,31.7538079 0.833333333,30.8333333 L0.833333333,9.16666667 C0.833333333,8.24619208 1.57952542,7.5 2.5,7.5 L37.5,7.5 Z M37.5,9.16666667 L2.5,9.16666667 L2.5,30.8333333 L37.5,30.8333333 L37.5,9.16666667 Z M12.5,12.5 C16.6421356,12.5 20,15.8578644 20,20 C20,24.1421356 16.6421356,27.5 12.5,27.5 C8.35786438,27.5 5,24.1421356 5,20 C5,15.8578644 8.35786438,12.5 12.5,12.5 Z M12.5,14.1666667 C9.27833896,14.1666667 6.66666667,16.778339 6.66666667,20 C6.66666667,23.221661 9.27833896,25.8333333 12.5,25.8333333 C15.721661,25.8333333 18.3333333,23.221661 18.3333333,20 C18.3333333,16.778339 15.721661,14.1666667 12.5,14.1666667 Z M32.3468752,23.4265838 C32.8071125,23.4265838 33.1802086,23.7996798 33.1802086,24.2599171 C33.1802086,24.6872803 32.8585084,25.0395064 32.4440595,25.087644 L32.3468752,25.0932504 L24.0135419,25.0932504 C23.5533046,25.0932504 23.1802086,24.7201544 23.1802086,24.2599171 C23.1802086,23.8325539 23.5019087,23.4803278 23.9163576,23.4321902 L24.0135419,23.4265838 L32.3468752,23.4265838 Z M10,20.5067809 C10,19.7552912 11.234926,19.8632733 12.5,19.872449 C13.7345533,19.8814034 15,19.7734213 15,20.5067809 C15,21.9916301 13.8807119,23.1953382 12.5,23.1953382 C11.1192881,23.1953382 10,21.9916301 10,20.5067809 Z M32.3468752,19.2599171 C32.8071125,19.2599171 33.1802086,19.6330131 33.1802086,20.0932504 C33.1802086,20.5206136 32.8585084,20.8728397 32.4440595,20.9209773 L32.3468752,20.9265838 L24.0135419,20.9265838 C23.5533046,20.9265838 23.1802086,20.5534877 23.1802086,20.0932504 C23.1802086,19.6658872 23.5019087,19.3136611 23.9163576,19.2655235 L24.0135419,19.2599171 L32.3468752,19.2599171 Z M10,17.5 C10.4602373,17.5 10.8333333,17.873096 10.8333333,18.3333333 C10.8333333,18.7935706 10.4602373,19.1666667 10,19.1666667 C9.53976271,19.1666667 9.16666667,18.7935706 9.16666667,18.3333333 C9.16666667,17.873096 9.53976271,17.5 10,17.5 Z M15,17.5 C15.4602373,17.5 15.8333333,17.873096 15.8333333,18.3333333 C15.8333333,18.7935706 15.4602373,19.1666667 15,19.1666667 C14.5397627,19.1666667 14.1666667,18.7935706 14.1666667,18.3333333 C14.1666667,17.873096 14.5397627,17.5 15,17.5 Z M32.3468752,15.0932504 C32.8071125,15.0932504 33.1802086,15.4663465 33.1802086,15.9265838 C33.1802086,16.353947 32.8585084,16.7061731 32.4440595,16.7543106 L32.3468752,16.7599171 L24.0135419,16.7599171 C23.5533046,16.7599171 23.1802086,16.386821 23.1802086,15.9265838 C23.1802086,15.4992206 23.5019087,15.1469945 23.9163576,15.0988569 L24.0135419,15.0932504 L32.3468752,15.0932504 Z" id="Combined-Shape" fill="#000000" fill-rule="nonzero"></path>
    </g>
</svg>
