<?xml version="1.0" encoding="UTF-8"?>
<svg width="40px" height="40px" viewBox="0 0 40 40" version="1.1" xmlns="http://www.w3.org/2000/svg" xmlns:xlink="http://www.w3.org/1999/xlink">

    <g id="Icon.svg" stroke="none" stroke-width="1" fill="none" fill-rule="evenodd">
        <g id="icon/48/takemoney">
            <rect id="Rectangle" x="0" y="0" width="40" height="40"></rect>
            <path d="M24.2064829,25.0030666 L24.2305498,25.0771164 C24.6382465,26.3985631 24.0037457,27.7986007 22.7841886,28.3798575 C23.584389,28.5615357 24.4371371,28.7720255 25.2132207,29.0698074 L32.6708403,26.6147182 C34.109799,26.1409627 35.6782691,26.7962842 36.3524665,28.1529361 C36.9595369,29.3745118 36.4613819,30.8569223 35.2398062,31.4639926 L35.1658813,31.4992143 L27.8332113,34.5569014 C27.5729163,34.6653909 27.3064502,34.7414176 27.0385679,34.7865996 L26.9825142,35 L5.46463765,35 C4.62306089,35 3.93324031,34.3502545 3.86945145,33.5250391 L3.86463765,33.4 L3.86463765,28.7067782 C3.86463765,27.8652014 4.51438314,27.1753808 5.33959859,27.111592 L5.46463765,27.1067782 L7.82695557,27.1062781 C8.0738726,26.4605182 8.46505158,25.9344701 9.00049252,25.5281338 C10.8509783,24.1238341 14.341113,24.0067598 16.8199313,24.7807657 L20.9075415,23.3843011 C22.2655288,22.9203333 23.7425151,23.6450794 24.2064829,25.0030666 Z M21.5441997,24.9338169 L21.4463548,24.9614688 L16.8432049,26.5340591 L16.3231717,26.3716798 C14.1221608,25.6844187 11.2636585,25.9029071 10.0080232,26.8557857 C9.76311957,27.0416386 9.57973451,27.2677522 9.44630616,27.5535584 L9.38370152,27.7015258 L8.9741195,28.772702 L5.53083333,28.7716667 L5.53,33.3325 L25.6933333,33.3325 L25.6959758,33.3228397 L26.7613765,33.1431451 C26.8589346,33.1266906 26.9555005,33.1027528 27.0505787,33.0713086 L27.1920181,33.0185097 L34.4496363,29.9935744 C34.4660261,29.9867432 34.4821849,29.9793704 34.4980861,29.9714682 C34.8953633,29.7740386 35.0573718,29.2919335 34.8599422,28.8946563 C34.5735981,28.3184611 33.9311782,28.0215172 33.3148139,28.1635085 L33.1920016,28.1978066 L25.1704589,30.8385423 L24.6161659,30.6258611 C24.3541172,30.5253135 24.0772974,30.4337349 23.7615715,30.342925 L23.3624808,30.2337973 L22.9167725,30.1222587 L22.4151786,30.0051604 L17.7314615,28.9417657 L22.0671144,26.8753369 C22.5192634,26.6598368 22.7641276,26.1601976 22.6646047,25.6726495 L22.6293272,25.5419151 C22.4740486,25.0874301 22.0023396,24.8307467 21.5441997,24.9338169 Z M20,5 C24.6023729,5 28.3333333,8.73096042 28.3333333,13.3333333 C28.3333333,17.9357062 24.6023729,21.6666667 20,21.6666667 C15.3976271,21.6666667 11.6666667,17.9357062 11.6666667,13.3333333 C11.6666667,8.73096042 15.3976271,5 20,5 Z M20,6.66666667 C16.3181017,6.66666667 13.3333333,9.651435 13.3333333,13.3333333 C13.3333333,17.0152317 16.3181017,20 20,20 C23.6818983,20 26.6666667,17.0152317 26.6666667,13.3333333 C26.6666667,9.651435 23.6818983,6.66666667 20,6.66666667 Z M20.406901,7.86783854 C20.5664063,7.86783854 20.703125,7.92480469 20.8170573,8.03873698 C20.9309896,8.15266927 20.9879557,8.28776042 20.9879557,8.44401042 L20.9879557,8.44401042 L20.9879557,9.06901042 L20.9934489,9.11295573 C21.0044352,9.15201823 21.031901,9.17643229 21.0758464,9.18619792 C21.6292318,9.27083333 22.1370443,9.46940104 22.5992839,9.78190104 C22.7555339,9.88606771 22.8434245,10.0358073 22.8629557,10.2311198 L22.8629557,10.2311198 L22.8629557,10.2994792 L22.8567057,10.3951823 C22.8400391,10.5201823 22.7900391,10.6347656 22.7067057,10.7389323 C22.5830078,10.8821615 22.4235026,10.9667969 22.2281901,10.9928385 C22.1891276,10.999349 22.1500651,11.0026042 22.1110026,11.0026042 C21.961263,11.0026042 21.8212891,10.9635417 21.6910807,10.8854167 C21.2809245,10.6770833 20.8707682,10.5729167 20.460612,10.5729167 C19.7314453,10.5729167 19.366862,10.8040365 19.366862,11.266276 C19.366862,11.389974 19.4205729,11.5022786 19.5279948,11.6031901 C19.6354167,11.7041016 19.7786458,11.7871094 19.9576823,11.8522135 C20.1367188,11.9173177 20.3417969,11.9873047 20.5729167,12.0621745 C20.8040365,12.1370443 21.0384115,12.2119141 21.2760417,12.2867839 C21.5136719,12.3616536 21.7464193,12.4593099 21.9742839,12.5797526 C22.2021484,12.7001953 22.405599,12.8336589 22.5846354,12.9801432 C22.7636719,13.1266276 22.9085286,13.3154297 23.0192057,13.5465495 C23.1298828,13.7776693 23.1852214,14.0397135 23.1852214,14.3326823 C23.1852214,14.905599 23.0045573,15.3922526 22.6432292,15.7926432 C22.281901,16.1930339 21.7594401,16.4583333 21.0758464,16.5885417 C21.0172526,16.6015625 20.9879557,16.640625 20.9879557,16.7057292 L20.9879557,16.7057292 L20.9879557,17.3502604 L20.9811198,17.4414714 C20.9628906,17.5597005 20.9082031,17.664388 20.8170573,17.7555339 C20.703125,17.8694661 20.5664063,17.9264323 20.406901,17.9264323 C20.2473958,17.9264323 20.1106771,17.8694661 19.9967448,17.7555339 C19.8828125,17.6416016 19.8258464,17.5065104 19.8258464,17.3502604 L19.8258464,17.3502604 L19.8258464,16.7447917 L19.8197428,16.7014567 C19.8075358,16.6636149 19.7770182,16.6422526 19.7281901,16.6373698 C19.0641276,16.5657552 18.4749349,16.3834635 17.960612,16.0904948 C17.7848307,15.9928385 17.6806641,15.8398438 17.648112,15.6315104 C17.6416016,15.5859375 17.6383464,15.5436198 17.6383464,15.5045573 C17.6383464,15.3483073 17.6839193,15.2018229 17.7750651,15.0651042 C17.8727214,14.9088542 18.0192057,14.8144531 18.2145182,14.781901 C18.2666016,14.7753906 18.3154297,14.7721354 18.3610026,14.7721354 C18.4977214,14.7721354 18.6279297,14.8079427 18.7516276,14.8795573 C19.1878255,15.1139323 19.6663411,15.2311198 20.1871745,15.2311198 C21.0530599,15.2311198 21.4860026,14.983724 21.4860026,14.4889323 C21.4860026,14.3457031 21.4160156,14.21875 21.2760417,14.1080729 C21.1360677,13.9973958 20.953776,13.9029948 20.7291667,13.8248698 C20.5045573,13.7467448 20.2555339,13.6669922 19.9820964,13.585612 C19.7086589,13.5042318 19.436849,13.4049479 19.1666667,13.2877604 C18.8964844,13.1705729 18.6490885,13.0338542 18.4244792,12.8776042 C18.1998698,12.7213542 18.0175781,12.516276 17.8776042,12.2623698 C17.7376302,12.0084635 17.6676432,11.7154948 17.6676432,11.3834635 C17.6676432,10.7910156 17.8499349,10.3011068 18.2145182,9.91373698 C18.5791016,9.52636719 19.0836589,9.28385417 19.7281901,9.18619792 C19.7932943,9.17317708 19.8258464,9.13411458 19.8258464,9.06901042 L19.8258464,9.06901042 L19.8258464,8.44401042 L19.8326823,8.35279948 C19.8509115,8.23457031 19.905599,8.12988281 19.9967448,8.03873698 C20.1106771,7.92480469 20.2473958,7.86783854 20.406901,7.86783854 Z" id="Combined-Shape" fill="#000000" fill-rule="nonzero"></path>
        </g>
    </g>
</svg>
