<?xml version="1.0" encoding="UTF-8"?>
<svg width="24px" height="24px" viewBox="0 0 24 24" version="1.1" xmlns="http://www.w3.org/2000/svg" xmlns:xlink="http://www.w3.org/1999/xlink">
    <g stroke="none" stroke-width="1" fill="none" fill-rule="evenodd">
        <g id="copy">
            <circle id="Oval" fill="#F4921E" cx="12" cy="12" r="12"></circle>
            <polygon id="Path" points="4.5 4.5 19.5 4.5 19.5 19.5 4.5 19.5"></polygon>
            <path d="M16.375,7.625 C17.0625,7.625 17.625,8.1875 17.625,8.875 L17.625,8.875 L17.625,17.625 C17.625,18.3125 17.0625,18.875 16.375,18.875 L16.375,18.875 L9.5,18.875 C8.8125,18.875 8.25,18.3125 8.25,17.625 L8.25,17.625 L8.25,8.875 C8.25,8.1875 8.8125,7.625 9.5,7.625 L9.5,7.625 Z M15.8174595,14.0625 L10.125,14.0625 L10.125,15.1875 L15.8174595,15.1875 L15.8174595,14.0625 Z M14.5,5.125 L14.5,6.375 L7,6.375 L7,15.125 L5.75,15.125 L5.75,6.375 C5.75,5.6875 6.3125,5.125 7,5.125 L7,5.125 L14.5,5.125 Z M15.8174595,11.0625 L10.125,11.0625 L10.125,12.1875 L15.8174595,12.1875 L15.8174595,11.0625 Z" id="Combined-Shape" fill="#FFFFFF"></path>
        </g>
    </g>
</svg>
