<?xml version="1.0" encoding="UTF-8"?>
<svg width="593px" height="383px" viewBox="0 0 593 383" version="1.1" xmlns="http://www.w3.org/2000/svg" xmlns:xlink="http://www.w3.org/1999/xlink">
    <title>Icon.svg</title>
    <defs>
        <polygon id="path-1" points="0.00140625 0.0009375 24 0.0009375 24 23.8542187 0.00140625 23.8542187"></polygon>
    </defs>
    <g id="Icon.svg" stroke="none" stroke-width="1" fill="none" fill-rule="evenodd">
        <g id="icon" transform="translate(24.000000, 72.000000)">
            <rect id="Rectangle" x="0" y="0" width="40" height="40"></rect>
            <path d="M16.6666667,4.16666667 C22.1895142,4.16666667 26.6666667,8.64381917 26.6666667,14.1666667 C26.6666667,14.3730544 26.6604029,14.5786645 26.6479394,14.7832924 L26.6696496,14.7832012 L26.6696496,14.7832012 L26.8073139,14.7942004 C26.996829,14.8166787 27.1878322,14.8224062 27.3781103,14.811381 L27.5680646,14.7947716 C28.4962242,14.6860958 29.6130943,15.2677452 30.9186748,16.5397197 C31.9217699,17.5169949 33.3778895,17.8827926 35.2870338,17.6371128 L35.5501799,17.5998224 C36.7327701,17.4171468 37.8395368,18.2277378 38.0222124,19.410328 C38.0530802,19.6101577 38.0558237,19.8133246 38.030363,20.0139149 L37.9161958,20.8861106 L37.7987361,21.7297219 L37.6779839,22.5447487 L37.5539392,23.3311911 L37.4266019,24.0890491 L37.2959721,24.8183227 C37.2739261,24.9374862 37.2517429,25.0554588 37.2294225,25.1722403 L37.0938539,25.8586372 C37.0709848,25.9706546 37.0479784,26.0814811 37.0248349,26.1911165 L36.8843276,26.8346368 C36.8606353,26.9395081 36.8368058,27.0431884 36.8128392,27.1456777 L36.667393,27.7463213 C36.6428776,27.8440466 36.618225,27.9405808 36.5934353,28.035924 L36.4430503,28.593691 C35.9109411,30.4958526 35.3183319,31.8727753 34.6652225,32.7244592 C33.6679506,34.0249463 32.3367927,35.192311 30.6717488,36.2265533 L30.3098464,36.4461445 C28.5100665,37.512961 26.2568216,37.4478899 24.5216066,36.278987 C24.2654175,36.1064088 24.0180748,35.9359563 23.7795785,35.7676296 C23.089223,35.9729579 22.3656033,36.14405 21.621175,36.2818341 L21.0824434,36.3751828 C18.6434346,36.7695247 16.0153548,36.8172704 13.5871457,36.5476344 L13.0509919,36.4825027 C12.5184442,36.4121704 11.9971894,36.3262719 11.4914958,36.2251276 L10.9911473,36.1189133 C7.27980735,35.2843698 4.52380952,33.5982669 4.52380952,31.1958574 C4.52380952,27.2044524 6.50355221,23.5599698 9.70075872,21.3410042 L9.70103975,21.3416355 L9.50418011,21.1451258 C7.74833436,19.3432696 6.66666667,16.8812866 6.66666667,14.1666667 C6.66666667,8.64381917 11.1438192,4.16666667 16.6666667,4.16666667 Z M26.3982458,16.4744143 L26.3761568,16.5684945 L26.2344236,16.5327234 C25.8925845,16.6769441 25.3958265,17.0097469 24.775613,17.5806509 L24.6118694,17.7342224 C23.2210164,19.0624794 21.3783438,19.5655576 19.2360077,19.2717031 C19.19305,19.2658108 19.1495083,19.2655313 19.1064785,19.2708715 C18.8598389,19.3014811 18.6775606,19.5068214 18.6681573,19.7456975 L18.6715746,19.8263712 L18.8253954,21.0252396 L18.9793983,22.1459214 L19.0833278,22.8598974 L19.1881418,23.5471529 L19.2937337,24.2075129 L19.4533473,25.1472408 L19.6141122,26.0254687 L19.721751,26.5764955 L19.8296352,27.0997512 L19.9376584,27.5950609 L20.0997208,28.2852432 L20.2076254,28.7099214 L20.3690108,29.2933358 L20.4761312,29.6462881 L20.5827517,29.9702437 C20.6181967,30.0733766 20.6535405,30.1716476 20.6887656,30.2650274 L20.7940665,30.5304642 C20.9339449,30.8647374 21.0716379,31.1202851 21.2060095,31.2952395 C21.9730569,32.2939503 23.393382,33.5094241 25.4527655,34.8966987 C26.6040145,35.6722212 28.0846361,35.745908 29.2897018,35.1084438 L29.4452718,35.0212626 L29.79234,34.8107786 C31.2937048,33.8782056 32.4737371,32.8433711 33.342659,31.7102581 C33.806123,31.1058804 34.2551461,30.0975747 34.6787901,28.6981586 L34.8190498,28.2172185 C34.8422648,28.1346535 34.8653977,28.0508857 34.8884466,27.9659173 L35.0257176,27.4417184 C35.0484231,27.3519567 35.071041,27.2609988 35.0935693,27.1688471 L35.227649,26.6016266 L35.3594887,26.005857 L35.4889983,25.3816437 L35.6160878,24.7290922 L35.7406672,24.0483081 L35.8626464,23.3393967 L35.9819354,22.6024637 L36.0984442,21.8376146 L36.2120828,21.0449547 L36.3769621,19.8040506 C36.3828376,19.7577606 36.3822045,19.710876 36.3750811,19.6647616 C36.3371409,19.4191473 36.1264672,19.2430681 35.8707565,19.2432623 L35.7840268,19.2500022 L35.499756,19.2901485 C33.1236057,19.5959253 31.1612747,19.1029602 29.7556277,17.7334949 C28.7743481,16.7774737 28.0753207,16.4134306 27.7618861,16.4501298 C27.3795489,16.4948967 26.993277,16.4946067 26.6110068,16.4492658 C26.5548195,16.4426014 26.4836233,16.4505502 26.3982458,16.4744143 Z M11.0553324,22.4451144 L10.902876,22.5407672 C7.99880744,24.4345573 6.19047619,27.6574178 6.19047619,31.1958574 C6.19047619,32.3968709 7.58899953,33.3839159 9.69204518,34.0543438 L10.1076973,34.1801229 L10.5398259,34.2978295 C10.6864906,34.3357012 10.8357151,34.3721999 10.9873129,34.407298 L11.44904,34.5083632 L11.9238891,34.6008597 L12.410742,34.684622 L12.9084804,34.7594848 C13.0760833,34.7829374 13.245314,34.8048792 13.4159863,34.8252826 L13.9321413,34.8818502 L14.4558273,34.9290221 C14.5436738,34.9360919 14.6317874,34.9427633 14.720145,34.949033 L15.253031,34.9818012 L15.5213196,34.9945172 L15.5213196,34.9945172 L16.0608895,35.0125097 C18.0914415,35.061245 20.1865497,34.8976822 22.0805748,34.482531 C21.1313851,33.7056324 20.4001179,32.9821582 19.8842077,32.3104329 C19.6172889,31.9628994 19.3573848,31.4464886 19.1044955,30.7612006 L18.9786354,30.4044834 C18.9577561,30.3426851 18.9369256,30.2797139 18.9161438,30.21557 L18.7920373,29.8166336 L18.6691,29.3895509 L18.5473319,28.9343221 L18.4267328,28.450947 L18.3073029,27.9394257 L18.189042,27.3997582 C18.1694293,27.3074681 18.1498653,27.2140053 18.13035,27.1193696 L18.0138429,26.5374828 L17.8985049,25.9274498 L17.72769,24.9596261 L17.6152748,24.2792276 L17.5908532,24.1244752 C17.2849548,24.1525358 16.9766652,24.1666667 16.6666667,24.1666667 C14.5868367,24.1666667 12.6553046,23.5317285 11.0553324,22.4451144 Z M27.5,20.8333333 C27.9602373,20.8333333 28.3333333,21.2064294 28.3333333,21.6666667 L28.3328095,24.1666667 L30.8333333,24.1666667 C31.2935706,24.1666667 31.6666667,24.5397627 31.6666667,25 C31.6666667,25.4602373 31.2935706,25.8333333 30.8333333,25.8333333 L28.3328095,25.8326667 L28.3333333,30.8333333 C28.3333333,31.2935706 27.9602373,31.6666667 27.5,31.6666667 C27.0397627,31.6666667 26.6666667,31.2935706 26.6666667,30.8333333 L26.6658095,25.8326667 L24.1666667,25.8333333 C23.7064294,25.8333333 23.3333333,25.4602373 23.3333333,25 C23.3333333,24.5397627 23.7064294,24.1666667 24.1666667,24.1666667 L26.6658095,24.1666667 L26.6666667,21.6666667 C26.6666667,21.2064294 27.0397627,20.8333333 27.5,20.8333333 Z M16.6666667,5.83333333 C12.0642938,5.83333333 8.33333333,9.56429375 8.33333333,14.1666667 C8.33333333,18.7690396 12.0642938,22.5 16.6666667,22.5 C16.8933393,22.5 17.1187716,22.4909694 17.3426124,22.4730266 L17.3393516,22.4550915 L17.2310283,21.6761813 L17.0707355,20.4550417 L17.0178817,20.033923 C16.8705041,18.8464122 17.7136987,17.7642714 18.9012095,17.6168938 C19.0876698,17.5937529 19.2763482,17.5949642 19.4624961,17.6204973 C21.1269378,17.8488011 22.4597036,17.4849355 23.4607933,16.5289003 C23.9770682,16.0358605 24.4616772,15.6471585 24.9146204,15.3627943 C24.971372,14.9698225 25,14.5702426 25,14.1666667 C25,9.56429375 21.2690396,5.83333333 16.6666667,5.83333333 Z M14.1666667,14.8114427 C14.1666667,14.1252999 15.1961608,14.1556545 16.3381234,14.1731059 L16.6666667,14.1771109 C17.90122,14.1860652 19.1666667,14.0780831 19.1666667,14.8114427 C19.1666667,16.2962919 18.0473785,17.5 16.6666667,17.5 C15.2859548,17.5 14.1666667,16.2962919 14.1666667,14.8114427 Z M13.6904762,11.6666667 C14.1507135,11.6666667 14.5238095,12.0397627 14.5238095,12.5 C14.5238095,12.9602373 14.1507135,13.3333333 13.6904762,13.3333333 C13.2302389,13.3333333 12.8571429,12.9602373 12.8571429,12.5 C12.8571429,12.0397627 13.2302389,11.6666667 13.6904762,11.6666667 Z M19.5238095,11.6666667 C19.9840468,11.6666667 20.3571429,12.0397627 20.3571429,12.5 C20.3571429,12.9602373 19.9840468,13.3333333 19.5238095,13.3333333 C19.0635722,13.3333333 18.6904762,12.9602373 18.6904762,12.5 C18.6904762,12.0397627 19.0635722,11.6666667 19.5238095,11.6666667 Z" id="Combined-Shape" fill="#000000" fill-rule="nonzero"></path>
        </g>
        <g id="icon/48/takemoney" transform="translate(152.000000, 72.000000)">
            <rect id="Rectangle" x="0" y="0" width="40" height="40"></rect>
            <path d="M24.2064829,25.0030666 L24.2305498,25.0771164 C24.6382465,26.3985631 24.0037457,27.7986007 22.7841886,28.3798575 C23.584389,28.5615357 24.4371371,28.7720255 25.2132207,29.0698074 L32.6708403,26.6147182 C34.109799,26.1409627 35.6782691,26.7962842 36.3524665,28.1529361 C36.9595369,29.3745118 36.4613819,30.8569223 35.2398062,31.4639926 L35.1658813,31.4992143 L27.8332113,34.5569014 C27.5729163,34.6653909 27.3064502,34.7414176 27.0385679,34.7865996 L26.9825142,35 L5.46463765,35 C4.62306089,35 3.93324031,34.3502545 3.86945145,33.5250391 L3.86463765,33.4 L3.86463765,28.7067782 C3.86463765,27.8652014 4.51438314,27.1753808 5.33959859,27.111592 L5.46463765,27.1067782 L7.82695557,27.1062781 C8.0738726,26.4605182 8.46505158,25.9344701 9.00049252,25.5281338 C10.8509783,24.1238341 14.341113,24.0067598 16.8199313,24.7807657 L20.9075415,23.3843011 C22.2655288,22.9203333 23.7425151,23.6450794 24.2064829,25.0030666 Z M21.5441997,24.9338169 L21.4463548,24.9614688 L16.8432049,26.5340591 L16.3231717,26.3716798 C14.1221608,25.6844187 11.2636585,25.9029071 10.0080232,26.8557857 C9.76311957,27.0416386 9.57973451,27.2677522 9.44630616,27.5535584 L9.38370152,27.7015258 L8.9741195,28.772702 L5.53083333,28.7716667 L5.53,33.3325 L25.6933333,33.3325 L25.6959758,33.3228397 L26.7613765,33.1431451 C26.8589346,33.1266906 26.9555005,33.1027528 27.0505787,33.0713086 L27.1920181,33.0185097 L34.4496363,29.9935744 C34.4660261,29.9867432 34.4821849,29.9793704 34.4980861,29.9714682 C34.8953633,29.7740386 35.0573718,29.2919335 34.8599422,28.8946563 C34.5735981,28.3184611 33.9311782,28.0215172 33.3148139,28.1635085 L33.1920016,28.1978066 L25.1704589,30.8385423 L24.6161659,30.6258611 C24.3541172,30.5253135 24.0772974,30.4337349 23.7615715,30.342925 L23.3624808,30.2337973 L22.9167725,30.1222587 L22.4151786,30.0051604 L17.7314615,28.9417657 L22.0671144,26.8753369 C22.5192634,26.6598368 22.7641276,26.1601976 22.6646047,25.6726495 L22.6293272,25.5419151 C22.4740486,25.0874301 22.0023396,24.8307467 21.5441997,24.9338169 Z M20,5 C24.6023729,5 28.3333333,8.73096042 28.3333333,13.3333333 C28.3333333,17.9357062 24.6023729,21.6666667 20,21.6666667 C15.3976271,21.6666667 11.6666667,17.9357062 11.6666667,13.3333333 C11.6666667,8.73096042 15.3976271,5 20,5 Z M20,6.66666667 C16.3181017,6.66666667 13.3333333,9.651435 13.3333333,13.3333333 C13.3333333,17.0152317 16.3181017,20 20,20 C23.6818983,20 26.6666667,17.0152317 26.6666667,13.3333333 C26.6666667,9.651435 23.6818983,6.66666667 20,6.66666667 Z M20.406901,7.86783854 C20.5664063,7.86783854 20.703125,7.92480469 20.8170573,8.03873698 C20.9309896,8.15266927 20.9879557,8.28776042 20.9879557,8.44401042 L20.9879557,8.44401042 L20.9879557,9.06901042 L20.9934489,9.11295573 C21.0044352,9.15201823 21.031901,9.17643229 21.0758464,9.18619792 C21.6292318,9.27083333 22.1370443,9.46940104 22.5992839,9.78190104 C22.7555339,9.88606771 22.8434245,10.0358073 22.8629557,10.2311198 L22.8629557,10.2311198 L22.8629557,10.2994792 L22.8567057,10.3951823 C22.8400391,10.5201823 22.7900391,10.6347656 22.7067057,10.7389323 C22.5830078,10.8821615 22.4235026,10.9667969 22.2281901,10.9928385 C22.1891276,10.999349 22.1500651,11.0026042 22.1110026,11.0026042 C21.961263,11.0026042 21.8212891,10.9635417 21.6910807,10.8854167 C21.2809245,10.6770833 20.8707682,10.5729167 20.460612,10.5729167 C19.7314453,10.5729167 19.366862,10.8040365 19.366862,11.266276 C19.366862,11.389974 19.4205729,11.5022786 19.5279948,11.6031901 C19.6354167,11.7041016 19.7786458,11.7871094 19.9576823,11.8522135 C20.1367188,11.9173177 20.3417969,11.9873047 20.5729167,12.0621745 C20.8040365,12.1370443 21.0384115,12.2119141 21.2760417,12.2867839 C21.5136719,12.3616536 21.7464193,12.4593099 21.9742839,12.5797526 C22.2021484,12.7001953 22.405599,12.8336589 22.5846354,12.9801432 C22.7636719,13.1266276 22.9085286,13.3154297 23.0192057,13.5465495 C23.1298828,13.7776693 23.1852214,14.0397135 23.1852214,14.3326823 C23.1852214,14.905599 23.0045573,15.3922526 22.6432292,15.7926432 C22.281901,16.1930339 21.7594401,16.4583333 21.0758464,16.5885417 C21.0172526,16.6015625 20.9879557,16.640625 20.9879557,16.7057292 L20.9879557,16.7057292 L20.9879557,17.3502604 L20.9811198,17.4414714 C20.9628906,17.5597005 20.9082031,17.664388 20.8170573,17.7555339 C20.703125,17.8694661 20.5664063,17.9264323 20.406901,17.9264323 C20.2473958,17.9264323 20.1106771,17.8694661 19.9967448,17.7555339 C19.8828125,17.6416016 19.8258464,17.5065104 19.8258464,17.3502604 L19.8258464,17.3502604 L19.8258464,16.7447917 L19.8197428,16.7014567 C19.8075358,16.6636149 19.7770182,16.6422526 19.7281901,16.6373698 C19.0641276,16.5657552 18.4749349,16.3834635 17.960612,16.0904948 C17.7848307,15.9928385 17.6806641,15.8398438 17.648112,15.6315104 C17.6416016,15.5859375 17.6383464,15.5436198 17.6383464,15.5045573 C17.6383464,15.3483073 17.6839193,15.2018229 17.7750651,15.0651042 C17.8727214,14.9088542 18.0192057,14.8144531 18.2145182,14.781901 C18.2666016,14.7753906 18.3154297,14.7721354 18.3610026,14.7721354 C18.4977214,14.7721354 18.6279297,14.8079427 18.7516276,14.8795573 C19.1878255,15.1139323 19.6663411,15.2311198 20.1871745,15.2311198 C21.0530599,15.2311198 21.4860026,14.983724 21.4860026,14.4889323 C21.4860026,14.3457031 21.4160156,14.21875 21.2760417,14.1080729 C21.1360677,13.9973958 20.953776,13.9029948 20.7291667,13.8248698 C20.5045573,13.7467448 20.2555339,13.6669922 19.9820964,13.585612 C19.7086589,13.5042318 19.436849,13.4049479 19.1666667,13.2877604 C18.8964844,13.1705729 18.6490885,13.0338542 18.4244792,12.8776042 C18.1998698,12.7213542 18.0175781,12.516276 17.8776042,12.2623698 C17.7376302,12.0084635 17.6676432,11.7154948 17.6676432,11.3834635 C17.6676432,10.7910156 17.8499349,10.3011068 18.2145182,9.91373698 C18.5791016,9.52636719 19.0836589,9.28385417 19.7281901,9.18619792 C19.7932943,9.17317708 19.8258464,9.13411458 19.8258464,9.06901042 L19.8258464,9.06901042 L19.8258464,8.44401042 L19.8326823,8.35279948 C19.8509115,8.23457031 19.905599,8.12988281 19.9967448,8.03873698 C20.1106771,7.92480469 20.2473958,7.86783854 20.406901,7.86783854 Z" id="Combined-Shape" fill="#000000" fill-rule="nonzero"></path>
        </g>
        <g id="icon/48/insurancecard" transform="translate(280.000000, 72.000000)">
            <rect id="Rectangle" x="0" y="0" width="40" height="40"></rect>
            <path d="M37.5,7.5 C38.4204746,7.5 39.1666667,8.24619208 39.1666667,9.16666667 L39.1666667,30.8333333 C39.1666667,31.7538079 38.4204746,32.5 37.5,32.5 L2.5,32.5 C1.57952542,32.5 0.833333333,31.7538079 0.833333333,30.8333333 L0.833333333,9.16666667 C0.833333333,8.24619208 1.57952542,7.5 2.5,7.5 L37.5,7.5 Z M37.5,9.16666667 L2.5,9.16666667 L2.5,30.8333333 L37.5,30.8333333 L37.5,9.16666667 Z M12.5,12.5 C16.6421356,12.5 20,15.8578644 20,20 C20,24.1421356 16.6421356,27.5 12.5,27.5 C8.35786438,27.5 5,24.1421356 5,20 C5,15.8578644 8.35786438,12.5 12.5,12.5 Z M12.5,14.1666667 C9.27833896,14.1666667 6.66666667,16.778339 6.66666667,20 C6.66666667,23.221661 9.27833896,25.8333333 12.5,25.8333333 C15.721661,25.8333333 18.3333333,23.221661 18.3333333,20 C18.3333333,16.778339 15.721661,14.1666667 12.5,14.1666667 Z M32.3468752,23.4265838 C32.8071125,23.4265838 33.1802086,23.7996798 33.1802086,24.2599171 C33.1802086,24.6872803 32.8585084,25.0395064 32.4440595,25.087644 L32.3468752,25.0932504 L24.0135419,25.0932504 C23.5533046,25.0932504 23.1802086,24.7201544 23.1802086,24.2599171 C23.1802086,23.8325539 23.5019087,23.4803278 23.9163576,23.4321902 L24.0135419,23.4265838 L32.3468752,23.4265838 Z M10,20.5067809 C10,19.7552912 11.234926,19.8632733 12.5,19.872449 C13.7345533,19.8814034 15,19.7734213 15,20.5067809 C15,21.9916301 13.8807119,23.1953382 12.5,23.1953382 C11.1192881,23.1953382 10,21.9916301 10,20.5067809 Z M32.3468752,19.2599171 C32.8071125,19.2599171 33.1802086,19.6330131 33.1802086,20.0932504 C33.1802086,20.5206136 32.8585084,20.8728397 32.4440595,20.9209773 L32.3468752,20.9265838 L24.0135419,20.9265838 C23.5533046,20.9265838 23.1802086,20.5534877 23.1802086,20.0932504 C23.1802086,19.6658872 23.5019087,19.3136611 23.9163576,19.2655235 L24.0135419,19.2599171 L32.3468752,19.2599171 Z M10,17.5 C10.4602373,17.5 10.8333333,17.873096 10.8333333,18.3333333 C10.8333333,18.7935706 10.4602373,19.1666667 10,19.1666667 C9.53976271,19.1666667 9.16666667,18.7935706 9.16666667,18.3333333 C9.16666667,17.873096 9.53976271,17.5 10,17.5 Z M15,17.5 C15.4602373,17.5 15.8333333,17.873096 15.8333333,18.3333333 C15.8333333,18.7935706 15.4602373,19.1666667 15,19.1666667 C14.5397627,19.1666667 14.1666667,18.7935706 14.1666667,18.3333333 C14.1666667,17.873096 14.5397627,17.5 15,17.5 Z M32.3468752,15.0932504 C32.8071125,15.0932504 33.1802086,15.4663465 33.1802086,15.9265838 C33.1802086,16.353947 32.8585084,16.7061731 32.4440595,16.7543106 L32.3468752,16.7599171 L24.0135419,16.7599171 C23.5533046,16.7599171 23.1802086,16.386821 23.1802086,15.9265838 C23.1802086,15.4992206 23.5019087,15.1469945 23.9163576,15.0988569 L24.0135419,15.0932504 L32.3468752,15.0932504 Z" id="Combined-Shape" fill="#000000" fill-rule="nonzero"></path>
        </g>
        <g id="icon/48/paper" transform="translate(216.000000, 72.000000)">
            <rect id="Rectangle" x="0" y="0" width="40" height="40"></rect>
            <path d="M22.5,2.91666667 C23.3720286,2.91666667 24.0876374,3.58637923 24.160549,4.43952695 L24.1666667,4.58333333 L26.6666667,4.58333333 C27.2831006,4.58333333 27.8213712,4.91799053 28.1097067,5.41553321 L32.5,5.41666667 C33.4204746,5.41666667 34.1666667,6.16285875 34.1666667,7.08333333 L34.1666667,34.5833333 C34.1666667,35.5038079 33.4204746,36.25 32.5,36.25 L8.33333333,36.25 C7.41285875,36.25 6.66666667,35.5038079 6.66666667,34.5833333 L6.66666667,7.08333333 C6.66666667,6.16285875 7.41285875,5.41666667 8.33333333,5.41666667 L12.7236266,5.41553321 C12.9893016,4.9570928 13.4671702,4.63694134 14.0228603,4.58945099 L14.1666667,4.58333333 L16.6666667,4.58333333 C16.6666667,3.71130478 17.3363792,2.99569598 18.189527,2.92278433 L18.3333333,2.91666667 L22.5,2.91666667 Z M32.5,7.08333333 L28.1102924,7.0834553 C27.8447345,7.54243624 27.3665717,7.86302374 26.810473,7.91054901 L26.6666667,7.91666667 L14.1666667,7.91666667 C13.5498151,7.91666667 13.0112328,7.58155585 12.7230409,7.0834553 L8.33333333,7.08333333 L8.33333333,34.5833333 L32.5,34.5833333 L32.5,7.08333333 Z M28.1840741,22.9166667 C28.6443114,22.9166667 29.0174074,23.2897627 29.0174074,23.75 C29.0174074,24.1773632 28.6957072,24.5295893 28.2812583,24.5777269 L28.1840741,24.5833333 L13.1840741,24.5833333 C12.7238368,24.5833333 12.3507407,24.2102373 12.3507407,23.75 C12.3507407,23.3226368 12.6724409,22.9704107 13.0868898,22.9222731 L13.1840741,22.9166667 L28.1840741,22.9166667 Z M28.1840741,18.75 C28.6443114,18.75 29.0174074,19.123096 29.0174074,19.5833333 C29.0174074,20.0106965 28.6957072,20.3629226 28.2812583,20.4110602 L28.1840741,20.4166667 L13.1840741,20.4166667 C12.7238368,20.4166667 12.3507407,20.0435706 12.3507407,19.5833333 C12.3507407,19.1559701 12.6724409,18.803744 13.0868898,18.7556064 L13.1840741,18.75 L28.1840741,18.75 Z M28.1840741,14.5833333 C28.6443114,14.5833333 29.0174074,14.9564294 29.0174074,15.4166667 C29.0174074,15.8440299 28.6957072,16.196256 28.2812583,16.2443936 L28.1840741,16.25 L13.1840741,16.25 C12.7238368,16.25 12.3507407,15.876904 12.3507407,15.4166667 C12.3507407,14.9893035 12.6724409,14.6370774 13.0868898,14.5889398 L13.1840741,14.5833333 L28.1840741,14.5833333 Z" id="Combined-Shape" fill="#000000" fill-rule="nonzero"></path>
        </g>
        <g id="icon/48/insurancecard" transform="translate(344.000000, 72.000000)">
            <g id="icon">
                <rect id="Rectangle" x="0" y="0" width="40" height="40"></rect>
            </g>
            <g id="icon">
                <rect id="Rectangle" x="0" y="0" width="40" height="40"></rect>
                <path d="M35.979975,37.3507791 C35.7694733,37.3902212 35.5518696,37.3610409 35.3591961,37.2675338 L18.2885261,28.9829035 C17.7916632,28.7417692 17.5843543,28.1435043 17.8254887,27.6466414 C17.8998368,27.4934455 18.0120735,27.3617726 18.151562,27.2641017 L31.8700739,17.6582962 C32.3224791,17.3415187 32.9460249,17.4514667 33.2628024,17.9038718 C33.3444903,18.0205342 33.4003167,18.1532994 33.4265454,18.2932817 L36.7787035,36.1837175 C36.8804159,36.7265555 36.5228129,37.2490668 35.979975,37.3507791 Z M34.8975313,35.1900416 L31.9796476,19.6163712 L20.0370935,27.9786376 L34.8975313,35.1900416 Z M21.25,4.16666667 C24.7017797,4.16666667 27.5,6.96488698 27.5,10.4166667 C27.5,10.5534465 27.4956062,10.6892001 27.4869521,10.8237941 C28.506679,11.5833134 29.1666667,12.7979158 29.1666667,14.1666667 C29.1666667,16.4678531 27.3011865,18.3333333 25,18.3333333 C24.7722573,18.3333333 24.5487821,18.3150618 24.3309605,18.2799046 L24.7635143,20.5859643 C24.8652267,21.1288023 24.5076237,21.6513135 23.9647858,21.7530259 C23.754284,21.7924679 23.5366804,21.7632877 23.3440069,21.6697806 L20.4274729,20.2536379 C19.1509041,22.1134848 17.0095742,23.3333333 14.5833333,23.3333333 C10.6713164,23.3333333 7.5,20.162017 7.5,16.25 C7.5,15.010202 7.81852238,13.8447989 8.37819817,12.8311597 C7.82430014,12.0263426 7.5,11.0510435 7.5,10 C7.5,7.23857625 9.73857625,5 12.5,5 C13.9877251,5 15.3236912,5.64975728 16.2396004,6.68097379 C17.3782401,5.15487222 19.1987161,4.16666667 21.25,4.16666667 Z M21.25,5.83333333 C19.8570812,5.83333333 18.5708869,6.45711518 17.7080902,7.50816736 L17.5754238,7.67764504 L16.3520318,9.31733887 L14.9934816,7.78775551 C14.3634142,7.07836652 13.4668672,6.66666667 12.5,6.66666667 C10.6590508,6.66666667 9.16666667,8.15905083 9.16666667,10 C9.16666667,10.6167391 9.33305369,11.2051043 9.64265969,11.718117 L9.75113431,11.886266 L10.3351902,12.7349026 L9.83723453,13.6367593 C9.39934733,14.4298249 9.16666667,15.3211481 9.16666667,16.25 C9.16666667,19.2415424 11.5917909,21.6666667 14.5833333,21.6666667 C16.3169048,21.6666667 17.9097423,20.8479409 18.9243316,19.490548 L19.0533541,19.3104649 L19.8650996,18.127824 L22.8808333,19.5916667 L22.2557334,16.256719 L24.5965296,16.634532 C24.7285867,16.6558465 24.8632745,16.6666667 25,16.6666667 C26.3807119,16.6666667 27.5,15.5473785 27.5,14.1666667 C27.5,13.4228179 27.1746746,12.7359889 26.6227326,12.2651806 L26.4913835,12.1604396 L25.7656556,11.6198984 L25.82372,10.7168512 C25.8301177,10.6173504 25.8333333,10.5172621 25.8333333,10.4166667 C25.8333333,7.88536156 23.7813051,5.83333333 21.25,5.83333333 Z" id="Combined-Shape" fill="#000000" fill-rule="nonzero"></path>
                <polygon id="Path" fill="#000000" fill-rule="nonzero" points="32.6871125 23.4992152 33.6850163 24.8341181 24.2095925 31.9174514 23.2116887 30.5825486"></polygon>
                <polygon id="Path" fill="#000000" fill-rule="nonzero" points="34.5256584 29.3148398 35.4743416 30.6851602 30.057675 34.4351602 29.1089917 33.0648398"></polygon>
                <path d="M35,9.58333333 C35.4602373,9.58333333 35.8333333,9.95642938 35.8333333,10.4166667 C35.8333333,10.8440299 35.5116332,11.196256 35.0971843,11.2443936 L35,11.25 L31.25,11.25 C30.7897627,11.25 30.4166667,10.876904 30.4166667,10.4166667 C30.4166667,9.98930347 30.7383668,9.63707737 31.1528157,9.58893978 L31.25,9.58333333 L35,9.58333333 Z" id="Path" fill="#000000" fill-rule="nonzero"></path>
                <path d="M35,9.58333333 C35.4602373,9.58333333 35.8333333,9.95642938 35.8333333,10.4166667 C35.8333333,10.8440299 35.5116332,11.196256 35.0971843,11.2443936 L35,11.25 L31.25,11.25 C30.7897627,11.25 30.4166667,10.876904 30.4166667,10.4166667 C30.4166667,9.98930347 30.7383668,9.63707737 31.1528157,9.58893978 L31.25,9.58333333 L35,9.58333333 Z" id="Path" fill="#000000" fill-rule="nonzero" transform="translate(33.125000, 10.416667) rotate(-90.000000) translate(-33.125000, -10.416667) "></path>
                <path d="M14.1666667,31.25 C14.626904,31.25 15,31.623096 15,32.0833333 C15,32.5106965 14.6782998,32.8629226 14.2638509,32.9110602 L14.1666667,32.9166667 L10.4166667,32.9166667 C9.95642938,32.9166667 9.58333333,32.5435706 9.58333333,32.0833333 C9.58333333,31.6559701 9.90503349,31.303744 10.3194824,31.2556064 L10.4166667,31.25 L14.1666667,31.25 Z" id="Path" fill="#000000" fill-rule="nonzero"></path>
                <path d="M14.1666667,31.25 C14.626904,31.25 15,31.623096 15,32.0833333 C15,32.5106965 14.6782998,32.8629226 14.2638509,32.9110602 L14.1666667,32.9166667 L10.4166667,32.9166667 C9.95642938,32.9166667 9.58333333,32.5435706 9.58333333,32.0833333 C9.58333333,31.6559701 9.90503349,31.303744 10.3194824,31.2556064 L10.4166667,31.25 L14.1666667,31.25 Z" id="Path" fill="#000000" fill-rule="nonzero" transform="translate(12.291667, 32.083333) rotate(-90.000000) translate(-12.291667, -32.083333) "></path>
                <path d="M6.66666667,22.9166667 C7.12690396,22.9166667 7.5,23.2897627 7.5,23.75 C7.5,24.1773632 7.17829984,24.5295893 6.76385094,24.5777269 L6.66666667,24.5833333 L2.91666667,24.5833333 C2.45642938,24.5833333 2.08333333,24.2102373 2.08333333,23.75 C2.08333333,23.3226368 2.40503349,22.9704107 2.8194824,22.9222731 L2.91666667,22.9166667 L6.66666667,22.9166667 Z" id="Path" fill="#000000" fill-rule="nonzero"></path>
                <path d="M6.66666667,22.9166667 C7.12690396,22.9166667 7.5,23.2897627 7.5,23.75 C7.5,24.1773632 7.17829984,24.5295893 6.76385094,24.5777269 L6.66666667,24.5833333 L2.91666667,24.5833333 C2.45642938,24.5833333 2.08333333,24.2102373 2.08333333,23.75 C2.08333333,23.3226368 2.40503349,22.9704107 2.8194824,22.9222731 L2.91666667,22.9166667 L6.66666667,22.9166667 Z" id="Path" fill="#000000" fill-rule="nonzero" transform="translate(4.791667, 23.750000) rotate(-90.000000) translate(-4.791667, -23.750000) "></path>
            </g>
        </g>
        <g id="icon" transform="translate(88.000000, 72.000000)">
            <rect id="Rectangle" x="0" y="0" width="40" height="40"></rect>
            <path d="M28.9112903,5.83333333 C30.1760653,5.83333333 31.1762734,6.89069636 31.2461036,8.18821753 L31.25,8.33333333 L31.25,14.7581728 C31.25,14.8485239 31.2356212,14.9355166 31.209027,15.0169875 L34.8055945,16.1858839 C35.9086279,16.5442812 36.5122747,17.7290049 36.1538775,18.8320383 L34.9487112,22.5411587 L34.933,22.5353333 L31.8733477,31.9546517 C31.8041089,32.1677467 31.6787966,32.3469539 31.519054,32.4812455 C31.5455166,33.213582 31.165006,33.9332746 30.4765772,34.3054629 L26.2068111,36.6127503 C26.1987718,36.6167482 26.1890929,36.6214833 26.1745745,36.6285859 C25.2321547,37.0801749 24.1111604,36.7233519 23.5959853,35.8343022 L8.58870968,35.8333333 C7.32393468,35.8333333 6.32372657,34.7759703 6.25389637,33.4784491 L6.25,33.3333333 L6.25,8.33333333 C6.25,7.01914367 7.20503757,5.9148453 8.4493017,5.8376431 L8.58870968,5.83333333 L28.9112903,5.83333333 Z M22.938557,30.414379 C22.9130333,30.4929329 22.9187052,30.5782949 22.9543976,30.6527814 L25.0252731,34.9744864 C25.1020417,35.1346946 25.2941494,35.2023358 25.4543576,35.1255672 L29.6839423,32.839343 C29.8057997,32.7734627 29.8680217,32.6402802 29.8494612,32.5107192 L23.0124956,30.290845 C22.9798037,30.3248145 22.9541044,30.3665291 22.938557,30.414379 Z M28.9859722,7.50535276 L28.9112903,7.5 L8.58870968,7.5 C8.26261928,7.5 7.96265968,7.80631037 7.92147203,8.23285125 L7.91666667,8.33333333 L7.91666667,33.3333333 C7.91666667,33.7772702 8.19333409,34.1152903 8.5140278,34.1613139 L8.58870968,34.1666667 L22.79,34.1663333 L21.4513788,31.3729982 C21.2307516,30.9125718 21.1956919,30.3849196 21.3534628,29.8993507 C21.4530086,29.5929805 21.6198826,29.3272997 21.8323815,29.113367 C21.825953,28.9804521 21.8436692,28.8441144 21.8872543,28.7099733 L22.686,26.2493333 L11.5174074,26.25 C11.0571701,26.25 10.6840741,25.876904 10.6840741,25.4166667 C10.6840741,24.9893035 11.0057742,24.6370774 11.4202231,24.5889398 L11.5174074,24.5833333 L23.1840741,24.5833333 L23.227,24.5853333 L24.04,22.0833333 L11.5174074,22.0833333 C11.0571701,22.0833333 10.6840741,21.7102373 10.6840741,21.25 C10.6840741,20.8226368 11.0057742,20.4704107 11.4202231,20.4222731 L11.5174074,20.4166667 L24.582,20.4163333 L25.4703063,17.682473 L25.485,17.6873333 L26.167784,15.5873599 C26.5261813,14.4843265 27.710905,13.8806796 28.8139384,14.2390769 L29.583,14.4883333 L29.5833333,8.33333333 C29.5833333,7.88939651 29.3066659,7.55137637 28.9859722,7.50535276 Z M26.532,19.8063333 L23.6832766,28.5743367 C23.7419622,28.5876859 23.8005563,28.6038022 23.858909,28.6227621 L30.1453926,30.6653645 C30.2659476,30.7045352 30.3816147,30.7548468 30.4911058,30.8152261 L33.347,22.0203333 L26.532,19.8063333 Z M27.7835881,16.0304657 L27.7528557,16.1023809 L27.07,18.2023333 L33.886,20.4163333 L34.5687833,18.31701 C34.634521,18.1146899 34.5434058,17.899051 34.3624886,17.801688 L34.2905661,17.7709781 L28.2989101,15.8241711 C28.09659,15.7584333 27.8809511,15.8495485 27.7835881,16.0304657 Z M14.8507407,12.0833333 C15.310978,12.0833333 15.6840741,12.4564294 15.6840741,12.9166667 C15.6840741,13.3440299 15.3623739,13.696256 14.947925,13.7443936 L14.8507407,13.75 L11.5174074,13.75 C11.0571701,13.75 10.6840741,13.376904 10.6840741,12.9166667 C10.6840741,12.4893035 11.0057742,12.1370774 11.4202231,12.0889398 L11.5174074,12.0833333 L14.8507407,12.0833333 Z" id="Combined-Shape" fill="#000000" fill-rule="nonzero"></path>
        </g>
        <g id="icon/24/fb" transform="translate(24.000000, 24.000000)">
            <mask id="mask-2" fill="white">
                <use xlink:href="#path-1"></use>
            </mask>
            <g id="Clip-2"></g>
            <path d="M24,12 C24,5.37257813 18.6274219,0 12,0 C5.37257813,0 0,5.37257813 0,12 C0,17.9895469 4.38822656,22.9539844 10.125,23.8542188 L10.125,15.46875 L7.078125,15.46875 L7.078125,12 L10.125,12 L10.125,9.35625 C10.125,6.34875 11.9165156,4.6875 14.6575781,4.6875 C15.9704766,4.6875 17.34375,4.921875 17.34375,4.921875 L17.34375,7.875 L15.8305781,7.875 C14.3398828,7.875 13.875,8.80000781 13.875,9.74899219 L13.875,12 L17.203125,12 L16.6710938,15.46875 L13.875,15.46875 L13.875,23.8542188 C19.6117734,22.9539844 24,17.9895469 24,12" id="Fill-1" fill="#1877F2" mask="url(#mask-2)"></path>
            <path d="M16.6710938,15.46875 L17.203125,12 L13.875,12 L13.875,9.74899219 C13.875,8.80000781 14.3398828,7.875 15.8305781,7.875 L17.34375,7.875 L17.34375,4.921875 C17.34375,4.921875 15.9704766,4.6875 14.6575781,4.6875 C11.9165156,4.6875 10.125,6.34875 10.125,9.35625 L10.125,12 L7.078125,12 L7.078125,15.46875 L10.125,15.46875 L10.125,23.8542187 C10.7359453,23.9500781 11.362125,24 12,24 C12.637875,24 13.2640547,23.9500781 13.875,23.8542187 L13.875,15.46875 L16.6710938,15.46875" id="Fill-4" fill="#FFFFFF" mask="url(#mask-2)"></path>
        </g>
        <g id="icon/24/line" transform="translate(72.000000, 24.000000)" fill-rule="nonzero">
            <circle id="Oval" fill="#00B900" cx="12.0872727" cy="12.0277686" r="11.9008264"></circle>
            <path d="M20.0033058,11.313719 C20.0033058,7.77123967 16.4528926,4.8892562 12.0872727,4.8892562 C7.72363636,4.8892562 4.17123967,7.77123967 4.17123967,11.313719 C4.17123967,14.4892562 6.9877686,17.1490909 10.7920661,17.6509091 C11.0499174,17.7064463 11.4009917,17.8214876 11.4902479,18.0416529 C11.5695868,18.2419835 11.5418182,18.5553719 11.5160331,18.757686 C11.5160331,18.757686 11.4228099,19.3170248 11.4029752,19.4360331 C11.3692562,19.6363636 11.2442975,20.2195041 12.0892562,19.8624793 C12.9342149,19.507438 16.6472727,17.178843 18.3094215,15.2667769 L18.3094215,15.2667769 C19.4538843,14.0072727 20.0033058,12.7299174 20.0033058,11.313719" id="Path" fill="#FFFFFF"></path>
            <path d="M10.4806612,9.60198347 L9.92528926,9.60198347 C9.84,9.60198347 9.77057851,9.67140496 9.77057851,9.75669421 L9.77057851,13.2059504 C9.77057851,13.2912397 9.84,13.3606612 9.92528926,13.3606612 L10.4806612,13.3606612 C10.5659504,13.3606612 10.6353719,13.2912397 10.6353719,13.2059504 L10.6353719,9.75669421 C10.6333884,9.66942149 10.5639669,9.60198347 10.4806612,9.60198347" id="Path" fill="#00B900"></path>
            <path d="M14.3008264,9.60198347 L13.7454545,9.60198347 C13.6601653,9.60198347 13.5907438,9.67140496 13.5907438,9.75669421 L13.5907438,11.8056198 L12.0099174,9.67140496 C12.0059504,9.66545455 12.0019835,9.6614876 11.9980165,9.65553719 C11.9980165,9.65553719 11.9980165,9.65553719 11.9960331,9.65355372 C11.9920661,9.64958678 11.9900826,9.64760331 11.9861157,9.64363636 C11.9841322,9.64363636 11.9841322,9.64165289 11.9841322,9.64165289 C11.9821488,9.63966942 11.9781818,9.63768595 11.9761983,9.63570248 C11.9742149,9.63371901 11.9742149,9.63371901 11.9722314,9.63173554 C11.9702479,9.62975207 11.966281,9.6277686 11.9642975,9.62578512 C11.962314,9.62380165 11.9603306,9.62380165 11.9603306,9.62380165 C11.9583471,9.62181818 11.9543802,9.61983471 11.9523967,9.61983471 C11.9504132,9.61983471 11.9484298,9.61785124 11.9484298,9.61785124 C11.9464463,9.61586777 11.9424793,9.61586777 11.9404959,9.6138843 C11.9385124,9.6138843 11.9365289,9.61190083 11.9345455,9.61190083 C11.9305785,9.60991736 11.928595,9.60991736 11.9246281,9.60793388 C11.9226446,9.60793388 11.9206612,9.60793388 11.9186777,9.60595041 C11.9147107,9.60595041 11.9127273,9.60396694 11.9107438,9.60396694 C11.9087603,9.60396694 11.9067769,9.60396694 11.9047934,9.60396694 C11.9028099,9.60396694 11.898843,9.60396694 11.8968595,9.60198347 C11.894876,9.60198347 11.8909091,9.60198347 11.8889256,9.60198347 C11.8869421,9.60198347 11.8849587,9.60198347 11.8829752,9.60198347 L11.3276033,9.60198347 C11.242314,9.60198347 11.1728926,9.67140496 11.1728926,9.75669421 L11.1728926,13.2059504 C11.1728926,13.2912397 11.242314,13.3606612 11.3276033,13.3606612 L11.8829752,13.3606612 C11.9682645,13.3606612 12.037686,13.2912397 12.037686,13.2059504 L12.037686,11.1570248 L13.6204959,13.2952066 C13.6304132,13.3110744 13.6442975,13.3229752 13.6601653,13.3328926 C13.6601653,13.3328926 13.6621488,13.3328926 13.6621488,13.334876 C13.6661157,13.3368595 13.6680992,13.338843 13.6720661,13.3408264 C13.6740496,13.3408264 13.6740496,13.3428099 13.6760331,13.3428099 C13.6780165,13.3447934 13.68,13.3447934 13.6839669,13.3467769 C13.6859504,13.3487603 13.6879339,13.3487603 13.6919008,13.3507438 C13.6938843,13.3507438 13.6958678,13.3527273 13.6958678,13.3527273 C13.6998347,13.3547107 13.7038017,13.3547107 13.7057851,13.3566942 C13.7057851,13.3566942 13.7077686,13.3566942 13.7077686,13.3566942 C13.7196694,13.3606612 13.7335537,13.3626446 13.747438,13.3626446 L14.3028099,13.3626446 C14.3880992,13.3626446 14.4575207,13.2932231 14.4575207,13.2079339 L14.4575207,9.75867769 C14.4555372,9.66942149 14.3861157,9.60198347 14.3008264,9.60198347" id="Path" fill="#00B900"></path>
            <path d="M9.14181818,12.4938843 L7.63239669,12.4938843 L7.63239669,9.75471074 C7.63239669,9.66942149 7.56297521,9.6 7.47768595,9.6 L6.92231405,9.6 C6.83702479,9.6 6.76760331,9.66942149 6.76760331,9.75471074 L6.76760331,13.2039669 L6.76760331,13.2039669 C6.76760331,13.2456198 6.78347107,13.2833058 6.81123967,13.3110744 C6.81123967,13.3110744 6.81322314,13.3130579 6.81322314,13.3130579 C6.81322314,13.3130579 6.81520661,13.3150413 6.81520661,13.3150413 C6.84297521,13.3408264 6.88066116,13.3586777 6.92231405,13.3586777 L6.92231405,13.3586777 L9.13983471,13.3586777 C9.22512397,13.3586777 9.29454545,13.2892562 9.29454545,13.2039669 L9.29454545,12.648595 C9.29454545,12.5633058 9.22710744,12.4938843 9.14181818,12.4938843" id="Path" fill="#00B900"></path>
            <path d="M17.3672727,10.4647934 C17.452562,10.4647934 17.5219835,10.3953719 17.5219835,10.3100826 L17.5219835,9.75471074 C17.5219835,9.66942149 17.452562,9.6 17.3672727,9.6 L15.1497521,9.6 L15.1497521,9.6 C15.1080992,9.6 15.0704132,9.61586777 15.0426446,9.64363636 C15.0426446,9.64363636 15.0406612,9.64561983 15.0406612,9.64561983 C15.0406612,9.64760331 15.0386777,9.64760331 15.0386777,9.64760331 C15.0128926,9.6753719 14.9950413,9.71305785 14.9950413,9.75471074 L14.9950413,9.75471074 L14.9950413,13.2039669 L14.9950413,13.2039669 C14.9950413,13.2456198 15.0109091,13.2833058 15.0386777,13.3110744 C15.0386777,13.3110744 15.0406612,13.3130579 15.0406612,13.3130579 C15.0406612,13.3130579 15.0426446,13.3150413 15.0426446,13.3150413 C15.0704132,13.3408264 15.1080992,13.3586777 15.1497521,13.3586777 L15.1497521,13.3586777 L17.3672727,13.3586777 C17.452562,13.3586777 17.5219835,13.2892562 17.5219835,13.2039669 L17.5219835,12.648595 C17.5219835,12.5633058 17.452562,12.4938843 17.3672727,12.4938843 L15.8578512,12.4938843 L15.8578512,11.9107438 L17.3672727,11.9107438 C17.452562,11.9107438 17.5219835,11.8413223 17.5219835,11.7560331 L17.5219835,11.2006612 C17.5219835,11.1153719 17.452562,11.0459504 17.3672727,11.0459504 L15.8578512,11.0459504 L15.8578512,10.4628099 L17.3672727,10.4628099 L17.3672727,10.4647934 Z" id="Path" fill="#00B900"></path>
        </g>
    </g>
</svg>