<?xml version="1.0" encoding="UTF-8"?>
<svg width="24px" height="24px" viewBox="0 0 24 24" version="1.1" xmlns="http://www.w3.org/2000/svg" xmlns:xlink="http://www.w3.org/1999/xlink">
<g id="icon/24/line" fill-rule="nonzero">
        <circle id="Oval" fill="#00B900" cx="12.0872727" cy="12.0277686" r="11.9008264"></circle>
        <path d="M20.0033058,11.313719 C20.0033058,7.77123967 16.4528926,4.8892562 12.0872727,4.8892562 C7.72363636,4.8892562 4.17123967,7.77123967 4.17123967,11.313719 C4.17123967,14.4892562 6.9877686,17.1490909 10.7920661,17.6509091 C11.0499174,17.7064463 11.4009917,17.8214876 11.4902479,18.0416529 C11.5695868,18.2419835 11.5418182,18.5553719 11.5160331,18.757686 C11.5160331,18.757686 11.4228099,19.3170248 11.4029752,19.4360331 C11.3692562,19.6363636 11.2442975,20.2195041 12.0892562,19.8624793 C12.9342149,19.507438 16.6472727,17.178843 18.3094215,15.2667769 L18.3094215,15.2667769 C19.4538843,14.0072727 20.0033058,12.7299174 20.0033058,11.313719" id="Path" fill="#FFFFFF"></path>
        <path d="M10.4806612,9.60198347 L9.92528926,9.60198347 C9.84,9.60198347 9.77057851,9.67140496 9.77057851,9.75669421 L9.77057851,13.2059504 C9.77057851,13.2912397 9.84,13.3606612 9.92528926,13.3606612 L10.4806612,13.3606612 C10.5659504,13.3606612 10.6353719,13.2912397 10.6353719,13.2059504 L10.6353719,9.75669421 C10.6333884,9.66942149 10.5639669,9.60198347 10.4806612,9.60198347" id="Path" fill="#00B900"></path>
        <path d="M14.3008264,9.60198347 L13.7454545,9.60198347 C13.6601653,9.60198347 13.5907438,9.67140496 13.5907438,9.75669421 L13.5907438,11.8056198 L12.0099174,9.67140496 C12.0059504,9.66545455 12.0019835,9.6614876 11.9980165,9.65553719 C11.9980165,9.65553719 11.9980165,9.65553719 11.9960331,9.65355372 C11.9920661,9.64958678 11.9900826,9.64760331 11.9861157,9.64363636 C11.9841322,9.64363636 11.9841322,9.64165289 11.9841322,9.64165289 C11.9821488,9.63966942 11.9781818,9.63768595 11.9761983,9.63570248 C11.9742149,9.63371901 11.9742149,9.63371901 11.9722314,9.63173554 C11.9702479,9.62975207 11.966281,9.6277686 11.9642975,9.62578512 C11.962314,9.62380165 11.9603306,9.62380165 11.9603306,9.62380165 C11.9583471,9.62181818 11.9543802,9.61983471 11.9523967,9.61983471 C11.9504132,9.61983471 11.9484298,9.61785124 11.9484298,9.61785124 C11.9464463,9.61586777 11.9424793,9.61586777 11.9404959,9.6138843 C11.9385124,9.6138843 11.9365289,9.61190083 11.9345455,9.61190083 C11.9305785,9.60991736 11.928595,9.60991736 11.9246281,9.60793388 C11.9226446,9.60793388 11.9206612,9.60793388 11.9186777,9.60595041 C11.9147107,9.60595041 11.9127273,9.60396694 11.9107438,9.60396694 C11.9087603,9.60396694 11.9067769,9.60396694 11.9047934,9.60396694 C11.9028099,9.60396694 11.898843,9.60396694 11.8968595,9.60198347 C11.894876,9.60198347 11.8909091,9.60198347 11.8889256,9.60198347 C11.8869421,9.60198347 11.8849587,9.60198347 11.8829752,9.60198347 L11.3276033,9.60198347 C11.242314,9.60198347 11.1728926,9.67140496 11.1728926,9.75669421 L11.1728926,13.2059504 C11.1728926,13.2912397 11.242314,13.3606612 11.3276033,13.3606612 L11.8829752,13.3606612 C11.9682645,13.3606612 12.037686,13.2912397 12.037686,13.2059504 L12.037686,11.1570248 L13.6204959,13.2952066 C13.6304132,13.3110744 13.6442975,13.3229752 13.6601653,13.3328926 C13.6601653,13.3328926 13.6621488,13.3328926 13.6621488,13.334876 C13.6661157,13.3368595 13.6680992,13.338843 13.6720661,13.3408264 C13.6740496,13.3408264 13.6740496,13.3428099 13.6760331,13.3428099 C13.6780165,13.3447934 13.68,13.3447934 13.6839669,13.3467769 C13.6859504,13.3487603 13.6879339,13.3487603 13.6919008,13.3507438 C13.6938843,13.3507438 13.6958678,13.3527273 13.6958678,13.3527273 C13.6998347,13.3547107 13.7038017,13.3547107 13.7057851,13.3566942 C13.7057851,13.3566942 13.7077686,13.3566942 13.7077686,13.3566942 C13.7196694,13.3606612 13.7335537,13.3626446 13.747438,13.3626446 L14.3028099,13.3626446 C14.3880992,13.3626446 14.4575207,13.2932231 14.4575207,13.2079339 L14.4575207,9.75867769 C14.4555372,9.66942149 14.3861157,9.60198347 14.3008264,9.60198347" id="Path" fill="#00B900"></path>
        <path d="M9.14181818,12.4938843 L7.63239669,12.4938843 L7.63239669,9.75471074 C7.63239669,9.66942149 7.56297521,9.6 7.47768595,9.6 L6.92231405,9.6 C6.83702479,9.6 6.76760331,9.66942149 6.76760331,9.75471074 L6.76760331,13.2039669 L6.76760331,13.2039669 C6.76760331,13.2456198 6.78347107,13.2833058 6.81123967,13.3110744 C6.81123967,13.3110744 6.81322314,13.3130579 6.81322314,13.3130579 C6.81322314,13.3130579 6.81520661,13.3150413 6.81520661,13.3150413 C6.84297521,13.3408264 6.88066116,13.3586777 6.92231405,13.3586777 L6.92231405,13.3586777 L9.13983471,13.3586777 C9.22512397,13.3586777 9.29454545,13.2892562 9.29454545,13.2039669 L9.29454545,12.648595 C9.29454545,12.5633058 9.22710744,12.4938843 9.14181818,12.4938843" id="Path" fill="#00B900"></path>
        <path d="M17.3672727,10.4647934 C17.452562,10.4647934 17.5219835,10.3953719 17.5219835,10.3100826 L17.5219835,9.75471074 C17.5219835,9.66942149 17.452562,9.6 17.3672727,9.6 L15.1497521,9.6 L15.1497521,9.6 C15.1080992,9.6 15.0704132,9.61586777 15.0426446,9.64363636 C15.0426446,9.64363636 15.0406612,9.64561983 15.0406612,9.64561983 C15.0406612,9.64760331 15.0386777,9.64760331 15.0386777,9.64760331 C15.0128926,9.6753719 14.9950413,9.71305785 14.9950413,9.75471074 L14.9950413,9.75471074 L14.9950413,13.2039669 L14.9950413,13.2039669 C14.9950413,13.2456198 15.0109091,13.2833058 15.0386777,13.3110744 C15.0386777,13.3110744 15.0406612,13.3130579 15.0406612,13.3130579 C15.0406612,13.3130579 15.0426446,13.3150413 15.0426446,13.3150413 C15.0704132,13.3408264 15.1080992,13.3586777 15.1497521,13.3586777 L15.1497521,13.3586777 L17.3672727,13.3586777 C17.452562,13.3586777 17.5219835,13.2892562 17.5219835,13.2039669 L17.5219835,12.648595 C17.5219835,12.5633058 17.452562,12.4938843 17.3672727,12.4938843 L15.8578512,12.4938843 L15.8578512,11.9107438 L17.3672727,11.9107438 C17.452562,11.9107438 17.5219835,11.8413223 17.5219835,11.7560331 L17.5219835,11.2006612 C17.5219835,11.1153719 17.452562,11.0459504 17.3672727,11.0459504 L15.8578512,11.0459504 L15.8578512,10.4628099 L17.3672727,10.4628099 L17.3672727,10.4647934 Z" id="Path" fill="#00B900"></path>
    </g>
</svg>
