<?xml version="1.0" encoding="UTF-8"?>
<svg width="40px" height="40px" viewBox="0 0 40 40" version="1.1" xmlns="http://www.w3.org/2000/svg" xmlns:xlink="http://www.w3.org/1999/xlink">
    <g id="Icon.svg" stroke="none" stroke-width="1" fill="none" fill-rule="evenodd">
        <g id="icon">
            <rect id="Rectangle" x="0" y="0" width="40" height="40"></rect>
            <path d="M28.9112903,5.83333333 C30.1760653,5.83333333 31.1762734,6.89069636 31.2461036,8.18821753 L31.25,8.33333333 L31.25,14.7581728 C31.25,14.8485239 31.2356212,14.9355166 31.209027,15.0169875 L34.8055945,16.1858839 C35.9086279,16.5442812 36.5122747,17.7290049 36.1538775,18.8320383 L34.9487112,22.5411587 L34.933,22.5353333 L31.8733477,31.9546517 C31.8041089,32.1677467 31.6787966,32.3469539 31.519054,32.4812455 C31.5455166,33.213582 31.165006,33.9332746 30.4765772,34.3054629 L26.2068111,36.6127503 C26.1987718,36.6167482 26.1890929,36.6214833 26.1745745,36.6285859 C25.2321547,37.0801749 24.1111604,36.7233519 23.5959853,35.8343022 L8.58870968,35.8333333 C7.32393468,35.8333333 6.32372657,34.7759703 6.25389637,33.4784491 L6.25,33.3333333 L6.25,8.33333333 C6.25,7.01914367 7.20503757,5.9148453 8.4493017,5.8376431 L8.58870968,5.83333333 L28.9112903,5.83333333 Z M22.938557,30.414379 C22.9130333,30.4929329 22.9187052,30.5782949 22.9543976,30.6527814 L25.0252731,34.9744864 C25.1020417,35.1346946 25.2941494,35.2023358 25.4543576,35.1255672 L29.6839423,32.839343 C29.8057997,32.7734627 29.8680217,32.6402802 29.8494612,32.5107192 L23.0124956,30.290845 C22.9798037,30.3248145 22.9541044,30.3665291 22.938557,30.414379 Z M28.9859722,7.50535276 L28.9112903,7.5 L8.58870968,7.5 C8.26261928,7.5 7.96265968,7.80631037 7.92147203,8.23285125 L7.91666667,8.33333333 L7.91666667,33.3333333 C7.91666667,33.7772702 8.19333409,34.1152903 8.5140278,34.1613139 L8.58870968,34.1666667 L22.79,34.1663333 L21.4513788,31.3729982 C21.2307516,30.9125718 21.1956919,30.3849196 21.3534628,29.8993507 C21.4530086,29.5929805 21.6198826,29.3272997 21.8323815,29.113367 C21.825953,28.9804521 21.8436692,28.8441144 21.8872543,28.7099733 L22.686,26.2493333 L11.5174074,26.25 C11.0571701,26.25 10.6840741,25.876904 10.6840741,25.4166667 C10.6840741,24.9893035 11.0057742,24.6370774 11.4202231,24.5889398 L11.5174074,24.5833333 L23.1840741,24.5833333 L23.227,24.5853333 L24.04,22.0833333 L11.5174074,22.0833333 C11.0571701,22.0833333 10.6840741,21.7102373 10.6840741,21.25 C10.6840741,20.8226368 11.0057742,20.4704107 11.4202231,20.4222731 L11.5174074,20.4166667 L24.582,20.4163333 L25.4703063,17.682473 L25.485,17.6873333 L26.167784,15.5873599 C26.5261813,14.4843265 27.710905,13.8806796 28.8139384,14.2390769 L29.583,14.4883333 L29.5833333,8.33333333 C29.5833333,7.88939651 29.3066659,7.55137637 28.9859722,7.50535276 Z M26.532,19.8063333 L23.6832766,28.5743367 C23.7419622,28.5876859 23.8005563,28.6038022 23.858909,28.6227621 L30.1453926,30.6653645 C30.2659476,30.7045352 30.3816147,30.7548468 30.4911058,30.8152261 L33.347,22.0203333 L26.532,19.8063333 Z M27.7835881,16.0304657 L27.7528557,16.1023809 L27.07,18.2023333 L33.886,20.4163333 L34.5687833,18.31701 C34.634521,18.1146899 34.5434058,17.899051 34.3624886,17.801688 L34.2905661,17.7709781 L28.2989101,15.8241711 C28.09659,15.7584333 27.8809511,15.8495485 27.7835881,16.0304657 Z M14.8507407,12.0833333 C15.310978,12.0833333 15.6840741,12.4564294 15.6840741,12.9166667 C15.6840741,13.3440299 15.3623739,13.696256 14.947925,13.7443936 L14.8507407,13.75 L11.5174074,13.75 C11.0571701,13.75 10.6840741,13.376904 10.6840741,12.9166667 C10.6840741,12.4893035 11.0057742,12.1370774 11.4202231,12.0889398 L11.5174074,12.0833333 L14.8507407,12.0833333 Z" id="Combined-Shape" fill="#00A94F" fill-rule="nonzero"></path>
        </g>
    </g>
</svg>
