<svg width="40" height="40" viewBox="0 0 40 40" version="1.1" xmlns="http://www.w3.org/2000/svg" xmlns:xlink="http://www.w3.org/1999/xlink">
    <g id="icon" stroke="none" stroke-width="1" fill="none" fill-rule="evenodd">
        <path d="M22.5,2.91666667 C23.3720286,2.91666667 24.0876374,3.58637923 24.160549,4.43952695 L24.1666667,4.58333333 L26.6666667,4.58333333 C27.2831006,4.58333333 27.8213712,4.91799053 28.1097067,5.41553321 L32.5,5.41666667 C33.4204746,5.41666667 34.1666667,6.16285875 34.1666667,7.08333333 L34.1666667,34.5833333 C34.1666667,35.5038079 33.4204746,36.25 32.5,36.25 L8.33333333,36.25 C7.41285875,36.25 6.66666667,35.5038079 6.66666667,34.5833333 L6.66666667,7.08333333 C6.66666667,6.16285875 7.41285875,5.41666667 8.33333333,5.41666667 L12.7236266,5.41553321 C12.9893016,4.9570928 13.4671702,4.63694134 14.0228603,4.58945099 L14.1666667,4.58333333 L16.6666667,4.58333333 C16.6666667,3.71130478 17.3363792,2.99569598 18.189527,2.92278433 L18.3333333,2.91666667 L22.5,2.91666667 Z M32.5,7.08333333 L28.1102924,7.0834553 C27.8447345,7.54243624 27.3665717,7.86302374 26.810473,7.91054901 L26.6666667,7.91666667 L14.1666667,7.91666667 C13.5498151,7.91666667 13.0112328,7.58155585 12.7230409,7.0834553 L8.33333333,7.08333333 L8.33333333,34.5833333 L32.5,34.5833333 L32.5,7.08333333 Z M28.1840741,22.9166667 C28.6443114,22.9166667 29.0174074,23.2897627 29.0174074,23.75 C29.0174074,24.1773632 28.6957072,24.5295893 28.2812583,24.5777269 L28.1840741,24.5833333 L13.1840741,24.5833333 C12.7238368,24.5833333 12.3507407,24.2102373 12.3507407,23.75 C12.3507407,23.3226368 12.6724409,22.9704107 13.0868898,22.9222731 L13.1840741,22.9166667 L28.1840741,22.9166667 Z M28.1840741,18.75 C28.6443114,18.75 29.0174074,19.123096 29.0174074,19.5833333 C29.0174074,20.0106965 28.6957072,20.3629226 28.2812583,20.4110602 L28.1840741,20.4166667 L13.1840741,20.4166667 C12.7238368,20.4166667 12.3507407,20.0435706 12.3507407,19.5833333 C12.3507407,19.1559701 12.6724409,18.803744 13.0868898,18.7556064 L13.1840741,18.75 L28.1840741,18.75 Z M28.1840741,14.5833333 C28.6443114,14.5833333 29.0174074,14.9564294 29.0174074,15.4166667 C29.0174074,15.8440299 28.6957072,16.196256 28.2812583,16.2443936 L28.1840741,16.25 L13.1840741,16.25 C12.7238368,16.25 12.3507407,15.876904 12.3507407,15.4166667 C12.3507407,14.9893035 12.6724409,14.6370774 13.0868898,14.5889398 L13.1840741,14.5833333 L28.1840741,14.5833333 Z" id="Combined-Shape" fill="#00A94F" fill-rule="nonzero"></path>
    </g>
</svg>
