<?xml version="1.0" encoding="UTF-8"?>
<svg width="40px" height="40px" viewBox="0 0 40 40" version="1.1" xmlns="http://www.w3.org/2000/svg" xmlns:xlink="http://www.w3.org/1999/xlink">
    <g id="Icon.svg" stroke="none" stroke-width="1" fill="none">
        <g id="icon">
            <rect id="Rectangle" x="0" y="0" width="40" height="40"></rect>
            <path d="M32.3535767,3.94915499 L33.2761144,4.54825793 C36.2096191,6.45329821 37.0433544,10.375714 35.1383141,13.3092187 L34.6844482,14.0081109 L29.8922458,10.8954684 L29.3742596,11.3681018 C32.4180762,13.8637087 34.3865581,17.6223576 34.4790446,21.8433878 L34.4824524,22.1547301 C34.4824524,25.8589438 33.037834,29.2257487 30.6812548,31.7224873 C30.8278411,31.8197967 30.9622432,31.9419706 31.0792759,32.0864939 L32.3484053,33.6537382 C32.9885025,34.4441924 32.8666141,35.6038833 32.0761599,36.2439804 L31.2925377,36.8785452 C30.5020836,37.5186423 29.3423927,37.3967539 28.7022955,36.6062997 L27.4331661,35.0390554 C27.2874359,34.8590936 27.1812018,34.6599931 27.1133614,34.4522429 C25.1566816,35.5013086 22.9182288,36.0963968 20.5407857,36.0963968 C17.9655248,36.0963968 15.5533462,35.3981587 13.4832378,34.1806704 C13.4343749,34.4853516 13.3067561,34.7817637 13.0984053,35.0390554 L13.0984053,35.0390554 L11.8292759,36.6062997 C11.1891788,37.3967539 10.0294878,37.5186423 9.23903369,36.8785452 L9.23903369,36.8785452 L8.45541151,36.2439804 C7.66495738,35.6038833 7.54306895,34.4441924 8.18316609,33.6537382 L8.18316609,33.6537382 L9.45229554,32.0864939 C9.66249487,31.8269193 9.92872603,31.6394414 10.2195133,31.5273684 C7.97033075,29.0522143 6.59911905,25.7636041 6.59911905,22.1547301 C6.59911905,17.9394791 8.46983556,14.1611573 11.4263395,11.6046938 L10.7562458,10.9364684 L5.64660867,14.2559179 L5.19274281,13.5570258 C3.28770253,10.623521 4.12143774,6.70110524 7.05494252,4.79606496 L7.05494252,4.79606496 L7.97748014,4.19696203 C10.8415928,2.33698551 14.6620448,3.08444229 16.6225678,5.88706648 L16.6225678,5.88706648 L17.2044492,6.75016855 L12.1852458,10.0084684 L12.6508747,10.4738078 C12.6879092,10.5108423 12.7207292,10.5504954 12.7493347,10.592171 C14.6020614,9.340641 16.7729881,8.52292064 19.1153313,8.28504273 C19.0590171,8.14754783 19.0282857,7.99556117 19.0282857,7.83639681 L19.0282857,7.23139681 C19.0282857,6.56313226 19.5700212,6.02139681 20.2382857,6.02139681 L20.8432857,6.02139681 C21.5115503,6.02139681 22.0532857,6.56313226 22.0532857,7.23139681 L22.0532857,7.83639681 C22.0532857,7.99556117 22.0225543,8.14754783 21.9667015,8.28674688 C24.1666227,8.50850375 26.2157368,9.24365287 27.9927167,10.3696241 L28.4472458,9.95646844 L23.1266077,6.50236152 L23.7084891,5.63925944 C25.6690121,2.83663525 29.4894641,2.08917847 32.3535767,3.94915499 Z M10.9936704,33.1094917 C10.9185594,33.048668 10.8083625,33.0602502 10.7475388,33.1353612 L10.7475388,33.1353612 L9.47840936,34.7026056 C9.41758565,34.7777166 9.42916781,34.8879135 9.50427883,34.9487372 L9.50427883,34.9487372 L10.287901,35.5833019 C10.363012,35.6441256 10.4732089,35.6325434 10.5340326,35.5574324 L10.5340326,35.5574324 L11.8031621,33.9901881 C11.8639858,33.915077 11.8524036,33.8048802 11.7772926,33.7440565 L11.7772926,33.7440565 Z M29.537901,33.1094917 L28.7542788,33.7440565 C28.6791678,33.8048802 28.6675856,33.915077 28.7284094,33.9901881 L29.9975388,35.5574324 C30.0583625,35.6325434 30.1685594,35.6441256 30.2436704,35.5833019 L31.0272926,34.9487372 C31.1024036,34.8879135 31.1139858,34.7777166 31.0531621,34.7026056 L29.7840326,33.1353612 C29.7232089,33.0602502 29.613012,33.048668 29.537901,33.1094917 Z M20.5407857,9.87973015 C13.7614904,9.87973015 8.26578572,15.3754348 8.26578572,22.1547301 C8.26578572,28.9340254 13.7614904,34.4297301 20.5407857,34.4297301 C27.320081,34.4297301 32.8157857,28.9340254 32.8157857,22.1547301 C32.8157857,15.3754348 27.320081,9.87973015 20.5407857,9.87973015 Z M21.0449524,14.4883761 C21.4723156,14.4883761 21.8245417,14.8100763 21.8726793,15.2245252 L21.8782857,15.3217095 L21.8775,21.6091667 L27.4940206,24.6734766 C27.8691939,24.8781331 28.0243496,25.3292217 27.8681365,25.7161101 L27.8265185,25.804111 C27.6218621,26.1792843 27.1707735,26.33444 26.7838851,26.178227 L26.6958842,26.136609 L20.2116191,22.5994527 L20.2116191,15.3217095 C20.2116191,14.8614722 20.5847151,14.4883761 21.0449524,14.4883761 Z M14.7781387,6.25951167 C13.2970953,4.72793436 10.9209663,4.3802627 9.04477168,5.4955601 L9.04477168,5.4955601 L8.88521186,5.59474631 L7.96267424,6.19384924 C6.05846938,7.43045434 5.35500995,9.8206881 6.17420753,11.8500756 L6.17420753,11.8500756 L6.1986954,11.9097504 L14.8237233,6.30859175 Z M25.5529182,6.01170464 L25.5070927,6.06099436 L34.1321206,11.662153 L34.1568494,11.6022685 C34.9760469,9.57288107 34.2725875,7.1826473 32.3683826,5.94604221 L31.445845,5.34693927 L31.2862852,5.24775306 C29.4100906,4.13245566 27.0339616,4.48012733 25.5529182,6.01170464 Z" id="Combined-Shape" fill="#000000" fill-rule="nonzero"></path>
        </g>
    </g>
</svg>
