<svg width="40" height="40" viewBox="0 0 40 40" version="1.1" xmlns="http://www.w3.org/2000/svg" xmlns:xlink="http://www.w3.org/1999/xlink">
    <g id="icon" stroke="none" stroke-width="1" fill="none" fill-rule="evenodd">
        <path d="M16.6666667,4.16666667 C22.1895142,4.16666667 26.6666667,8.64381917 26.6666667,14.1666667 C26.6666667,14.3730544 26.6604029,14.5786645 26.6479394,14.7832924 L26.6696496,14.7832012 L26.6696496,14.7832012 L26.8073139,14.7942004 C26.996829,14.8166787 27.1878322,14.8224062 27.3781103,14.811381 L27.5680646,14.7947716 C28.4962242,14.6860958 29.6130943,15.2677452 30.9186748,16.5397197 C31.9217699,17.5169949 33.3778895,17.8827926 35.2870338,17.6371128 L35.5501799,17.5998224 C36.7327701,17.4171468 37.8395368,18.2277378 38.0222124,19.410328 C38.0530802,19.6101577 38.0558237,19.8133246 38.030363,20.0139149 L37.9161958,20.8861106 L37.7987361,21.7297219 L37.6779839,22.5447487 L37.5539392,23.3311911 L37.4266019,24.0890491 L37.2959721,24.8183227 C37.2739261,24.9374862 37.2517429,25.0554588 37.2294225,25.1722403 L37.0938539,25.8586372 C37.0709848,25.9706546 37.0479784,26.0814811 37.0248349,26.1911165 L36.8843276,26.8346368 C36.8606353,26.9395081 36.8368058,27.0431884 36.8128392,27.1456777 L36.667393,27.7463213 C36.6428776,27.8440466 36.618225,27.9405808 36.5934353,28.035924 L36.4430503,28.593691 C35.9109411,30.4958526 35.3183319,31.8727753 34.6652225,32.7244592 C33.6679506,34.0249463 32.3367927,35.192311 30.6717488,36.2265533 L30.3098464,36.4461445 C28.5100665,37.512961 26.2568216,37.4478899 24.5216066,36.278987 C24.2654175,36.1064088 24.0180748,35.9359563 23.7795785,35.7676296 C23.089223,35.9729579 22.3656033,36.14405 21.621175,36.2818341 L21.0824434,36.3751828 C18.6434346,36.7695247 16.0153548,36.8172704 13.5871457,36.5476344 L13.0509919,36.4825027 C12.5184442,36.4121704 11.9971894,36.3262719 11.4914958,36.2251276 L10.9911473,36.1189133 C7.27980735,35.2843698 4.52380952,33.5982669 4.52380952,31.1958574 C4.52380952,27.2044524 6.50355221,23.5599698 9.70075872,21.3410042 L9.70103975,21.3416355 L9.50418011,21.1451258 C7.74833436,19.3432696 6.66666667,16.8812866 6.66666667,14.1666667 C6.66666667,8.64381917 11.1438192,4.16666667 16.6666667,4.16666667 Z M26.3982458,16.4744143 L26.3761568,16.5684945 L26.2344236,16.5327234 C25.8925845,16.6769441 25.3958265,17.0097469 24.775613,17.5806509 L24.6118694,17.7342224 C23.2210164,19.0624794 21.3783438,19.5655576 19.2360077,19.2717031 C19.19305,19.2658108 19.1495083,19.2655313 19.1064785,19.2708715 C18.8598389,19.3014811 18.6775606,19.5068214 18.6681573,19.7456975 L18.6715746,19.8263712 L18.8253954,21.0252396 L18.9793983,22.1459214 L19.0833278,22.8598974 L19.1881418,23.5471529 L19.2937337,24.2075129 L19.4533473,25.1472408 L19.6141122,26.0254687 L19.721751,26.5764955 L19.8296352,27.0997512 L19.9376584,27.5950609 L20.0997208,28.2852432 L20.2076254,28.7099214 L20.3690108,29.2933358 L20.4761312,29.6462881 L20.5827517,29.9702437 C20.6181967,30.0733766 20.6535405,30.1716476 20.6887656,30.2650274 L20.7940665,30.5304642 C20.9339449,30.8647374 21.0716379,31.1202851 21.2060095,31.2952395 C21.9730569,32.2939503 23.393382,33.5094241 25.4527655,34.8966987 C26.6040145,35.6722212 28.0846361,35.745908 29.2897018,35.1084438 L29.4452718,35.0212626 L29.79234,34.8107786 C31.2937048,33.8782056 32.4737371,32.8433711 33.342659,31.7102581 C33.806123,31.1058804 34.2551461,30.0975747 34.6787901,28.6981586 L34.8190498,28.2172185 C34.8422648,28.1346535 34.8653977,28.0508857 34.8884466,27.9659173 L35.0257176,27.4417184 C35.0484231,27.3519567 35.071041,27.2609988 35.0935693,27.1688471 L35.227649,26.6016266 L35.3594887,26.005857 L35.4889983,25.3816437 L35.6160878,24.7290922 L35.7406672,24.0483081 L35.8626464,23.3393967 L35.9819354,22.6024637 L36.0984442,21.8376146 L36.2120828,21.0449547 L36.3769621,19.8040506 C36.3828376,19.7577606 36.3822045,19.710876 36.3750811,19.6647616 C36.3371409,19.4191473 36.1264672,19.2430681 35.8707565,19.2432623 L35.7840268,19.2500022 L35.499756,19.2901485 C33.1236057,19.5959253 31.1612747,19.1029602 29.7556277,17.7334949 C28.7743481,16.7774737 28.0753207,16.4134306 27.7618861,16.4501298 C27.3795489,16.4948967 26.993277,16.4946067 26.6110068,16.4492658 C26.5548195,16.4426014 26.4836233,16.4505502 26.3982458,16.4744143 Z M11.0553324,22.4451144 L10.902876,22.5407672 C7.99880744,24.4345573 6.19047619,27.6574178 6.19047619,31.1958574 C6.19047619,32.3968709 7.58899953,33.3839159 9.69204518,34.0543438 L10.1076973,34.1801229 L10.5398259,34.2978295 C10.6864906,34.3357012 10.8357151,34.3721999 10.9873129,34.407298 L11.44904,34.5083632 L11.9238891,34.6008597 L12.410742,34.684622 L12.9084804,34.7594848 C13.0760833,34.7829374 13.245314,34.8048792 13.4159863,34.8252826 L13.9321413,34.8818502 L14.4558273,34.9290221 C14.5436738,34.9360919 14.6317874,34.9427633 14.720145,34.949033 L15.253031,34.9818012 L15.5213196,34.9945172 L15.5213196,34.9945172 L16.0608895,35.0125097 C18.0914415,35.061245 20.1865497,34.8976822 22.0805748,34.482531 C21.1313851,33.7056324 20.4001179,32.9821582 19.8842077,32.3104329 C19.6172889,31.9628994 19.3573848,31.4464886 19.1044955,30.7612006 L18.9786354,30.4044834 C18.9577561,30.3426851 18.9369256,30.2797139 18.9161438,30.21557 L18.7920373,29.8166336 L18.6691,29.3895509 L18.5473319,28.9343221 L18.4267328,28.450947 L18.3073029,27.9394257 L18.189042,27.3997582 C18.1694293,27.3074681 18.1498653,27.2140053 18.13035,27.1193696 L18.0138429,26.5374828 L17.8985049,25.9274498 L17.72769,24.9596261 L17.6152748,24.2792276 L17.5908532,24.1244752 C17.2849548,24.1525358 16.9766652,24.1666667 16.6666667,24.1666667 C14.5868367,24.1666667 12.6553046,23.5317285 11.0553324,22.4451144 Z M27.5,20.8333333 C27.9602373,20.8333333 28.3333333,21.2064294 28.3333333,21.6666667 L28.3328095,24.1666667 L30.8333333,24.1666667 C31.2935706,24.1666667 31.6666667,24.5397627 31.6666667,25 C31.6666667,25.4602373 31.2935706,25.8333333 30.8333333,25.8333333 L28.3328095,25.8326667 L28.3333333,30.8333333 C28.3333333,31.2935706 27.9602373,31.6666667 27.5,31.6666667 C27.0397627,31.6666667 26.6666667,31.2935706 26.6666667,30.8333333 L26.6658095,25.8326667 L24.1666667,25.8333333 C23.7064294,25.8333333 23.3333333,25.4602373 23.3333333,25 C23.3333333,24.5397627 23.7064294,24.1666667 24.1666667,24.1666667 L26.6658095,24.1666667 L26.6666667,21.6666667 C26.6666667,21.2064294 27.0397627,20.8333333 27.5,20.8333333 Z M16.6666667,5.83333333 C12.0642938,5.83333333 8.33333333,9.56429375 8.33333333,14.1666667 C8.33333333,18.7690396 12.0642938,22.5 16.6666667,22.5 C16.8933393,22.5 17.1187716,22.4909694 17.3426124,22.4730266 L17.3393516,22.4550915 L17.2310283,21.6761813 L17.0707355,20.4550417 L17.0178817,20.033923 C16.8705041,18.8464122 17.7136987,17.7642714 18.9012095,17.6168938 C19.0876698,17.5937529 19.2763482,17.5949642 19.4624961,17.6204973 C21.1269378,17.8488011 22.4597036,17.4849355 23.4607933,16.5289003 C23.9770682,16.0358605 24.4616772,15.6471585 24.9146204,15.3627943 C24.971372,14.9698225 25,14.5702426 25,14.1666667 C25,9.56429375 21.2690396,5.83333333 16.6666667,5.83333333 Z M14.1666667,14.8114427 C14.1666667,14.1252999 15.1961608,14.1556545 16.3381234,14.1731059 L16.6666667,14.1771109 C17.90122,14.1860652 19.1666667,14.0780831 19.1666667,14.8114427 C19.1666667,16.2962919 18.0473785,17.5 16.6666667,17.5 C15.2859548,17.5 14.1666667,16.2962919 14.1666667,14.8114427 Z M13.6904762,11.6666667 C14.1507135,11.6666667 14.5238095,12.0397627 14.5238095,12.5 C14.5238095,12.9602373 14.1507135,13.3333333 13.6904762,13.3333333 C13.2302389,13.3333333 12.8571429,12.9602373 12.8571429,12.5 C12.8571429,12.0397627 13.2302389,11.6666667 13.6904762,11.6666667 Z M19.5238095,11.6666667 C19.9840468,11.6666667 20.3571429,12.0397627 20.3571429,12.5 C20.3571429,12.9602373 19.9840468,13.3333333 19.5238095,13.3333333 C19.0635722,13.3333333 18.6904762,12.9602373 18.6904762,12.5 C18.6904762,12.0397627 19.0635722,11.6666667 19.5238095,11.6666667 Z" id="Combined-Shape" fill="#000000" fill-rule="nonzero"></path>
    </g>
</svg>