<?xml version="1.0" encoding="utf-8"?>
<!-- Generator: Adobe Illustrator 25.2.1, SVG Export Plug-In . SVG Version: 6.00 Build 0)  -->
<svg version="1.1" id="Bold" xmlns="http://www.w3.org/2000/svg" xmlns:xlink="http://www.w3.org/1999/xlink" x="0px" y="0px"
	 viewBox="0 0 512 512" style="enable-background:new 0 0 512 512;" xml:space="preserve">
<style type="text/css">
	.st0{fill:#87CB82;}
	.st1{fill:#F7F7F7;}
</style>
<path class="st0" d="M416,512H96c-53.02,0-96-42.98-96-96V96C0,42.98,42.98,0,96,0h320c53.02,0,96,42.98,96,96v320
	C512,469.02,469.02,512,416,512z"/>
<path class="st1" d="M105.54,244.88c0,43.71,21.81,82.69,55.89,108.15V406l51.07-28.03c13.63,3.77,28.07,5.81,43.03,5.81
	c82.84,0,150-62.17,150-138.88S338.38,106,255.54,106S105.54,168.17,105.54,244.88z M239.72,205.99l39.13,40.74l73.59-40.74
	l-81.99,87.04l-38.18-40.73l-74.55,40.74L239.72,205.99z"/>
</svg>
