<svg xmlns="http://www.w3.org/2000/svg" xmlns:xlink="http://www.w3.org/1999/xlink" viewBox="0 0 135 40"><defs><style>.cls-1{fill:#a6a6a6;}.cls-10,.cls-2,.cls-9{fill:#fff;}.cls-3{fill:url(#linear-gradient);}.cls-4{fill:url(#linear-gradient-2);}.cls-5{fill:url(#linear-gradient-3);}.cls-6{fill:url(#linear-gradient-4);}.cls-7{opacity:0.2;}.cls-7,.cls-8,.cls-9{isolation:isolate;}.cls-8{opacity:0.12;}.cls-9{opacity:0.25;}.cls-10{stroke:#fff;stroke-miterlimit:10;stroke-width:0.2px;}</style><linearGradient id="linear-gradient" x1="21.8" y1="33.29" x2="5.02" y2="16.51" gradientTransform="matrix(1, 0, 0, -1, 0, 42)" gradientUnits="userSpaceOnUse"><stop offset="0" stop-color="#00a0ff"/><stop offset="0.01" stop-color="#00a1ff"/><stop offset="0.26" stop-color="#00beff"/><stop offset="0.51" stop-color="#00d2ff"/><stop offset="0.76" stop-color="#00dfff"/><stop offset="1" stop-color="#00e3ff"/></linearGradient><linearGradient id="linear-gradient-2" x1="33.83" y1="22" x2="9.64" y2="22" gradientTransform="matrix(1, 0, 0, -1, 0, 42)" gradientUnits="userSpaceOnUse"><stop offset="0" stop-color="#ffe000"/><stop offset="0.41" stop-color="#ffbd00"/><stop offset="0.78" stop-color="orange"/><stop offset="1" stop-color="#ff9c00"/></linearGradient><linearGradient id="linear-gradient-3" x1="24.83" y1="19.7" x2="2.07" y2="-3.05" gradientTransform="matrix(1, 0, 0, -1, 0, 42)" gradientUnits="userSpaceOnUse"><stop offset="0" stop-color="#ff3a44"/><stop offset="1" stop-color="#c31162"/></linearGradient><linearGradient id="linear-gradient-4" x1="7.3" y1="41.82" x2="17.46" y2="31.66" gradientTransform="matrix(1, 0, 0, -1, 0, 42)" gradientUnits="userSpaceOnUse"><stop offset="0" stop-color="#32a071"/><stop offset="0.07" stop-color="#2da771"/><stop offset="0.48" stop-color="#15cf74"/><stop offset="0.8" stop-color="#06e775"/><stop offset="1" stop-color="#00f076"/></linearGradient></defs><g id="圖層_2" data-name="圖層 2"><g id="artwork"><rect width="135" height="40" rx="5"/><path class="cls-1" d="M130,.8A4.2,4.2,0,0,1,134.2,5V35a4.2,4.2,0,0,1-4.2,4.2H5A4.2,4.2,0,0,1,.8,35V5A4.2,4.2,0,0,1,5,.8H130m0-.8H5A5,5,0,0,0,0,5V35a5,5,0,0,0,5,5H130a5,5,0,0,0,5-5V5a5,5,0,0,0-5-5Z"/><path class="cls-2" d="M64.72,12.79a3.72,3.72,0,1,0,3.74,3.72A3.67,3.67,0,0,0,64.72,12.79Zm0,6a2.15,2.15,0,0,1-2.09-2.25,2.1,2.1,0,1,1,4.19,0A2.15,2.15,0,0,1,64.72,18.76Zm-8.14-6a3.72,3.72,0,1,0,3.74,3.72A3.67,3.67,0,0,0,56.58,12.79Zm0,6a2.15,2.15,0,0,1-2.09-2.25,2.1,2.1,0,1,1,4.19,0A2.15,2.15,0,0,1,56.58,18.76ZM46.9,13.93v1.58h3.77a3.2,3.2,0,0,1-.86,2,3.83,3.83,0,0,1-2.91,1.16,4.2,4.2,0,0,1,0-8.39,4,4,0,0,1,2.84,1.12l1.12-1.11a5.53,5.53,0,0,0-4-1.59A5.86,5.86,0,0,0,41,14.45a5.86,5.86,0,0,0,5.86,5.78,5.31,5.31,0,0,0,4-1.62,5.23,5.23,0,0,0,1.36-3.69,4.9,4.9,0,0,0-.08-1Zm39.6,1.23a3.46,3.46,0,0,0-3.18-2.37,3.54,3.54,0,0,0-3.51,3.72,3.64,3.64,0,0,0,3.69,3.72,3.71,3.71,0,0,0,3.1-1.65l-1.27-.85a2.12,2.12,0,0,1-1.83,1,1.89,1.89,0,0,1-1.8-1.13l5-2ZM81.43,16.4a2,2,0,0,1,1.95-2.17,1.44,1.44,0,0,1,1.38.79Zm-4,3.6H79V9.07H77.39Zm-2.67-6.38h-.06a2.57,2.57,0,0,0-2-.83,3.72,3.72,0,0,0,0,7.44,2.55,2.55,0,0,0,2-.85h.06v.54a1.9,1.9,0,0,1-2,2.18,2,2,0,0,1-1.87-1.33l-1.42.6a3.53,3.53,0,0,0,3.29,2.19c1.92,0,3.54-1.12,3.54-3.87V13H74.72Zm-1.88,5.14a2.14,2.14,0,0,1-2.07-2.24,2.16,2.16,0,0,1,2.07-2.27,2.1,2.1,0,0,1,2,2.27A2.07,2.07,0,0,1,72.84,18.76ZM94.16,9.07H90.25V20h1.63V15.86h2.28a3.46,3.46,0,0,0,3.58-3.39A3.47,3.47,0,0,0,94.16,9.07Zm0,5.27H91.88V10.59H94.2a1.88,1.88,0,1,1,0,3.75Zm10.08-1.57a3.06,3.06,0,0,0-2.91,1.67l1.44.61a1.77,1.77,0,0,1,3.21.6v.11a3.74,3.74,0,0,0-1.7-.42c-1.56,0-3.15.86-3.15,2.46a2.52,2.52,0,0,0,2.71,2.41A2.31,2.31,0,0,0,106,19.14H106V20h1.57V15.79C107.59,13.85,106.15,12.77,104.28,12.77Zm-.2,6c-.53,0-1.28-.27-1.28-.93,0-.84.93-1.17,1.73-1.17A2.91,2.91,0,0,1,106,17,2,2,0,0,1,104.08,18.76ZM113.33,13l-1.87,4.74h-.06L109.46,13h-1.75l2.91,6.62L109,23.31h1.7L115.14,13ZM98.64,20h1.63V9.07H98.64Z"/><path class="cls-3" d="M10.44,7.54A2,2,0,0,0,10,8.94V31.06a1.94,1.94,0,0,0,.47,1.4l.07.08L22.9,20.15v-.3L10.51,7.47Z"/><path class="cls-4" d="M27,24.28,22.9,20.15v-.3L27,15.72l.09.06L32,18.56c1.4.79,1.4,2.09,0,2.89l-4.89,2.78Z"/><path class="cls-5" d="M27.12,24.22,22.9,20,10.44,32.46a1.62,1.62,0,0,0,2.07.07l14.61-8.31"/><path class="cls-6" d="M27.12,15.78,12.51,7.48a1.61,1.61,0,0,0-2.07.06L22.9,20Z"/><path class="cls-7" d="M27,24.13,12.51,32.38a1.66,1.66,0,0,1-2,0h0l-.07.07h0l.07.08h0a1.66,1.66,0,0,0,2,0l14.61-8.31Z"/><path class="cls-8" d="M10.44,32.32A2,2,0,0,1,10,30.91v.15a1.94,1.94,0,0,0,.47,1.4l.07-.07Z"/><path class="cls-8" d="M32,21.3l-5,2.83.09.09L32,21.44A1.75,1.75,0,0,0,33.06,20h0A1.86,1.86,0,0,1,32,21.3Z"/><path class="cls-9" d="M12.51,7.62,32,18.7A1.86,1.86,0,0,1,33.06,20h0A1.75,1.75,0,0,0,32,18.56L12.51,7.48C11.12,6.68,10,7.34,10,8.94v.15C10,7.49,11.12,6.83,12.51,7.62Z"/></g><g id="Layer_3" data-name="Layer 3"><path class="cls-10" d="M41.44,32.38h6.8v.5h-6.8Zm6.6-4.6v.49H41.7v-.49h2.86V26.25l.67,0c0,.05,0,.09-.15.11v1.38Zm-4.85.91a11.71,11.71,0,0,1,.71,3.17,2.06,2.06,0,0,0-.52.11,11.56,11.56,0,0,0-.67-3.16Zm4,.1a.22.22,0,0,1-.19.1,21.73,21.73,0,0,1-1,3.28L45.51,32a22.23,22.23,0,0,0,.91-3.41Z"/><path class="cls-10" d="M51.51,31.55a7.52,7.52,0,0,0-.72-.92l.39-.22a9.39,9.39,0,0,1,1.41,2l-.42.25a7.64,7.64,0,0,0-.39-.71c-.92.29-1.86.59-2.47.77,0,.06,0,.09-.09.12l-.23-.6.53-.13V26.67h2.7v3.47H50V32Zm.24-4.4H50v1h1.75ZM50,29.67h1.75v-1H50Zm5.64-3v4.64c0,.65-.33.67-1.4.67a2.07,2.07,0,0,0-.18-.53h.65c.37,0,.41,0,.41-.15V27.17H53.44v6h-.52V26.67Z"/><path class="cls-10" d="M63.35,27.31H60.17l-.08,0v1.3l0,0a19,19,0,0,1,2.8,1.64l-.35.45a19.29,19.29,0,0,0-2.49-1.55v4.07h-.53v-5.9h-3v-.5h6.76Z"/><path class="cls-10" d="M68.68,28.38A16.49,16.49,0,0,0,69,30.92a9,9,0,0,0,1-2.11l.59.16c0,.06-.07.08-.16.08a9.1,9.1,0,0,1-1.23,2.5c.25.73.56,1.18,1,1.18.22,0,.31-.39.36-1.33a1.13,1.13,0,0,0,.4.27c-.09,1.19-.27,1.55-.8,1.55s-1-.46-1.27-1.21a5.83,5.83,0,0,1-1.32,1.21,1.44,1.44,0,0,0-.37-.37,5.52,5.52,0,0,0,.55-.4H66.23v.78h-.46v-.78H64.11V32h1.66V31.6H64.44V29.74h1.33V29.3H64.23v-.39h1.54v-.5l.62.05s0,.08-.15.09v.36h1.58v.39H66.24v.44h1.37V31.6H66.23V32h1.62v.3a6.85,6.85,0,0,0,.81-.89,16,16,0,0,1-.48-3.07H64v-.44h1.75v-.65H64.36v-.42h1.41v-.63l.64,0s0,.09-.15.1v.49h1.4v.42h-1.4v.65h1.9c0-.54,0-1.11,0-1.68l.66,0q0,.09-.15.12,0,.78,0,1.53h2.18v.44Zm-3.85,1.67v.46h1v-.46Zm0,.77v.47h1v-.47Zm2.38-.31v-.46h-1v.46Zm0,.78v-.47h-1v.47Zm2.32-4.93a6,6,0,0,1,1.08,1l-.38.29a5.64,5.64,0,0,0-1.06-1.08Z"/></g></g></svg>
