<?xml version="1.0" encoding="utf-8"?>
<!-- Generator: Adobe Illustrator 25.2.1, SVG Export Plug-In . SVG Version: 6.00 Build 0)  -->
<svg version="1.1" id="Bold" xmlns="http://www.w3.org/2000/svg" xmlns:xlink="http://www.w3.org/1999/xlink" x="0px" y="0px"
	 viewBox="0 0 512 512" style="enable-background:new 0 0 512 512;" xml:space="preserve">
<style type="text/css">
	.st0{fill:#87CB82;}
	.st1{fill:#F7F7F7;}
</style>
<path class="st0" d="M416,512H96c-53.02,0-96-42.98-96-96V96C0,42.98,42.98,0,96,0h320c53.02,0,96,42.98,96,96v320
	C512,469.02,469.02,512,416,512z"/>
<path class="st1" d="M407.96,175.57l0.4,2.58c-3.84-13.63-14.23-24.15-27.41-27.98l-0.28-0.06c-24.78-6.74-124.54-6.74-124.54-6.74
	s-99.52-0.12-124.54,6.74c-13.46,3.9-23.83,14.41-27.61,27.77l-0.06,0.28c-9.26,48.38-9.32,106.49,0.42,158.31l-0.42-2.62
	c3.84,13.63,14.23,24.15,27.41,27.98l0.28,0.06c24.76,6.74,124.54,6.74,124.54,6.74s99.5,0,124.54-6.74
	c13.46-3.9,23.83-14.41,27.61-27.77l0.06-0.28c4.23-22.5,6.64-48.38,6.64-74.83c0-0.97,0-1.95-0.02-2.92
	c0.02-0.91,0.02-1.99,0.02-3.06C415,226.55,412.6,200.67,407.96,175.57L407.96,175.57z M224.3,304.38v-96.63l83.04,48.4
	L224.3,304.38z"/>
</svg>
