<svg width="28" height="28" viewBox="0 0 28 28" fill="none" xmlns="http://www.w3.org/2000/svg">
<g clip-path="url(#clip0)">
<path d="M5.46904 17.9899H3.18285C1.92605 17.9899 0.897461 16.9613 0.897461 15.7045V3.13329C0.897461 1.87648 1.92605 0.8479 3.18285 0.8479H5.46823C4.21143 0.8479 3.18285 1.87648 3.18285 3.13329V15.7045C3.18285 16.9613 4.21143 17.9899 5.46904 17.9899Z" fill="#EFEFEF"/>
<path d="M15.1951 12.0698C14.864 12.1952 14.4751 12.2755 14.0411 12.2755C10.2812 12.2755 10.2579 6.56128 14.0411 6.56128C14.4638 6.56128 14.8415 6.62958 15.1726 6.767C12.9201 7.67022 12.9434 11.1899 15.1951 12.0698Z" fill="#FFBBAB"/>
<path d="M22.0406 26.5392C21.3664 26.9393 20.8979 27.1338 20.8979 27.1338C20.8979 27.1338 14.6123 24.482 14.6123 19.1791C14.6123 15.9905 14.6123 14.4018 14.6123 14.4018L20.8979 12.2764L22.0406 12.6653L16.8977 14.4026V19.1799C16.8977 23.042 20.235 25.4985 22.0406 26.5392Z" fill="#FFBBAB"/>
<path d="M11.1433 18.8577H3.14281C1.40948 18.8577 0 17.4482 0 15.7148V3.14281C0 1.40948 1.40948 0 3.14281 0H24.8572C26.5913 0 28 1.40948 28 3.14281V11.1433H26.6789V3.14281C26.6789 2.3553 25.6809 1.30903 24.8934 1.30903L2.77477 1.37654C1.98726 1.37654 1.346 2.01779 1.346 2.8053V15.792C1.346 16.5795 2.3553 17.5558 3.14281 17.5558H11.1433V18.8577Z" fill="#FF956E"/>
<path d="M11.8888 12.4885C10.8843 11.7926 10.2856 10.6499 10.2856 9.42924C10.2856 7.38091 11.9523 5.71509 13.9998 5.71509C16.0473 5.71509 17.714 7.38171 17.714 9.42924L16.4435 9.32638C16.4435 8.22387 15.1457 6.9751 13.9998 6.9751C12.8893 6.9751 11.6871 7.64288 11.5802 9.10218C11.532 9.75871 11.7409 10.9303 12.5156 11.4302L11.8888 12.4885Z" fill="#FF956E"/>
<path d="M3.42871 3.84766H7.42894V5.14302H3.42871V3.84766Z" fill="#FF956E"/>
<path d="M20.8579 28.0001C20.7438 28.0001 20.6313 27.9776 20.5244 27.9326C20.2464 27.8152 13.7148 24.9923 13.7148 19.184V14.4083C13.7148 14.0402 13.9495 13.7148 14.2974 13.5967L20.5831 11.4744C20.7615 11.4141 20.9535 11.4141 21.1319 11.4744L27.4175 13.5967C27.7663 13.714 28.0001 14.041 28.0001 14.4083V19.184C28.0001 24.9923 21.4686 27.8161 21.1906 27.9326C21.0837 27.9776 20.972 28.0001 20.8579 28.0001ZM15.0576 14.7048V19.5544C15.0576 23.5731 19.5167 26.0835 20.7462 26.6951C21.9749 26.0803 26.7321 23.5579 26.7321 19.5544V14.7771L20.8571 12.7465L15.0576 14.7048Z" fill="#FF956E"/>
<path d="M20.2853 22.2858C20.2693 22.2858 20.2548 22.2858 20.2387 22.285C19.9944 22.2713 19.7686 22.1548 19.6159 21.9651L17.3306 19.1076L18.3286 18.3089L20.3456 20.71L23.9963 17.1396L24.8931 18.0364L20.8928 22.0359C20.7313 22.1958 20.5119 22.2858 20.2853 22.2858Z" fill="#FF956E"/>
</g>
<defs>
<clipPath id="clip0">
<rect width="28" height="28" fill="white"/>
</clipPath>
</defs>
</svg>
