<svg width="14" height="18" viewBox="0 0 14 18" fill="none" xmlns="http://www.w3.org/2000/svg">
<path d="M10.7116 1.48939C9.18982 0.237592 7.17713 -0.26149 5.24625 0.13123C2.64448 0.654857 0.623608 2.70027 0.116344 5.30205C-0.251831 7.23292 0.263615 9.22925 1.52359 10.7429C2.09631 11.3974 2.43176 12.2237 2.4563 13.091V15.5455C2.4563 16.9037 3.55265 18 4.9108 18H8.18347C9.54163 18 10.638 16.9037 10.638 15.5455V13.2464C10.6625 12.2892 11.0143 11.3647 11.6361 10.6365C13.8943 7.84655 13.477 3.75571 10.7116 1.47302V1.48939ZM9.00164 15.5455C9.00164 15.9955 8.63346 16.3637 8.18347 16.3637H4.9108C4.46081 16.3637 4.09264 15.9955 4.09264 15.5455V14.7273H9.00164V15.5455ZM10.368 9.62197C9.54163 10.5956 9.06709 11.8147 9.00164 13.091H7.36531V10.6365C7.36531 10.1865 6.99713 9.81833 6.54714 9.81833C6.09715 9.81833 5.72897 10.1865 5.72897 10.6365V13.091H4.09264C4.06809 11.8392 3.60992 10.6365 2.78357 9.68742C1.04906 7.60928 1.32723 4.50842 3.40538 2.77391C4.02718 2.25846 4.76353 1.89847 5.55716 1.73484C8.2162 1.18667 10.8098 2.89664 11.358 5.55568C11.4234 5.88295 11.4561 6.21021 11.4561 6.54566C11.4643 7.66655 11.0798 8.75471 10.368 9.62197Z" fill="#888888"/>
</svg>
