<svg width="14" height="13" viewBox="0 0 14 13" fill="none" xmlns="http://www.w3.org/2000/svg">
<path fill-rule="evenodd" clip-rule="evenodd" d="M5.74875 10.9258C5.49792 11.7688 4.71625 12.3842 3.79167 12.3842C2.86708 12.3842 2.08542 11.7688 1.83458 10.9258H0.583333C0.259583 10.9258 0 10.6663 0 10.3425C0 10.0217 0.259583 9.75917 0.583333 9.75917H1.83458C2.08542 8.91625 2.86708 8.30083 3.79167 8.30083C4.71625 8.30083 5.49792 8.91625 5.74875 9.75917H13.4167C13.7404 9.75917 14 10.0188 14 10.3425C14 10.6633 13.7404 10.9258 13.4167 10.9258H5.74875ZM8.25125 1.45833C8.50208 0.615417 9.28375 0 10.2083 0C11.1329 0 11.9146 0.615417 12.1654 1.45833H13.4167C13.7404 1.45833 14 1.71792 14 2.04167C14 2.3625 13.7404 2.625 13.4167 2.625H12.1654C11.9146 3.46792 11.1329 4.08333 10.2083 4.08333C9.28375 4.08333 8.50208 3.46792 8.25125 2.625H0.583333C0.2625 2.625 0 2.36542 0 2.04167C0 1.72083 0.259583 1.45833 0.583333 1.45833H8.25125ZM10.2083 2.91667C10.6925 2.91667 11.0833 2.52583 11.0833 2.04167C11.0833 1.5575 10.6925 1.16667 10.2083 1.16667C9.72417 1.16667 9.33333 1.5575 9.33333 2.04167C9.33333 2.52583 9.72417 2.91667 10.2083 2.91667ZM3.79167 9.4675C3.3075 9.4675 2.91667 9.85833 2.91667 10.3425C2.91667 10.8267 3.3075 11.2175 3.79167 11.2175C4.27583 11.2175 4.66667 10.8267 4.66667 10.3425C4.66667 9.85833 4.27583 9.4675 3.79167 9.4675Z" fill="#67B77E"/>
</svg>
