<svg width="18" height="18" viewBox="0 0 18 18" fill="none" xmlns="http://www.w3.org/2000/svg">
<g clip-path="url(#clip0)">
<path d="M17.298 9C17.748 8.48056 18 7.81 18 7.11111C18 5.54333 16.794 4.27778 15.3 4.27778H10.638C11.133 2.80444 10.395 1.18 8.991 0.660556C8.703 0.556667 8.406 0.5 8.1 0.5H2.7C1.206 0.5 0 1.76556 0 3.33333C0 4.03222 0.252 4.70278 0.702 5.22222C-0.216 6.29889 -0.216 7.92333 0.702 9C-0.216 10.0767 -0.216 11.7011 0.702 12.7778C0.252 13.2972 0 13.9678 0 14.6667C0 16.2344 1.206 17.5 2.7 17.5H15.3C16.794 17.4906 17.991 16.2156 17.982 14.6478C17.982 13.9583 17.73 13.2878 17.298 12.7778C18.216 11.7011 18.216 10.0767 17.298 9ZM8.1 15.6111H2.7C2.205 15.6111 1.8 15.1861 1.8 14.6667C1.8 14.1472 2.205 13.7222 2.7 13.7222H8.1C8.595 13.7222 9 14.1472 9 14.6667C9 15.1861 8.595 15.6111 8.1 15.6111ZM8.1 11.8333H2.7C2.205 11.8333 1.8 11.4083 1.8 10.8889C1.8 10.3694 2.205 9.94444 2.7 9.94444H8.1C8.595 9.94444 9 10.3694 9 10.8889C9 11.4083 8.595 11.8333 8.1 11.8333ZM8.1 8.05556H2.7C2.205 8.05556 1.8 7.63056 1.8 7.11111C1.8 6.59167 2.205 6.16667 2.7 6.16667H8.1C8.595 6.16667 9 6.59167 9 7.11111C9 7.63056 8.595 8.05556 8.1 8.05556ZM8.1 4.27778H2.7C2.205 4.27778 1.8 3.85278 1.8 3.33333C1.8 2.81389 2.205 2.38889 2.7 2.38889H8.1C8.595 2.38889 9 2.81389 9 3.33333C9 3.85278 8.595 4.27778 8.1 4.27778ZM15.921 15.3372C15.759 15.5167 15.534 15.6111 15.3 15.6111H10.638C10.854 14.9972 10.854 14.3361 10.638 13.7222H15.3C15.795 13.7222 16.2 14.1472 16.2 14.6667C16.2 14.9217 16.092 15.1578 15.921 15.3372ZM15.921 11.5594C15.759 11.7389 15.534 11.8333 15.3 11.8333H10.638C10.854 11.2194 10.854 10.5583 10.638 9.94444H15.3C15.795 9.94444 16.2 10.3694 16.2 10.8889C16.2 11.1439 16.092 11.38 15.921 11.5594ZM15.921 7.78167C15.759 7.96111 15.534 8.05556 15.3 8.05556H10.638C10.854 7.44167 10.854 6.77111 10.638 6.16667H15.3C15.795 6.16667 16.2 6.59167 16.2 7.11111C16.2 7.36611 16.092 7.60222 15.921 7.78167Z" fill="#888888"/>
</g>
<defs>
<clipPath id="clip0">
<rect width="18" height="17" fill="white" transform="translate(0 0.5)"/>
</clipPath>
</defs>
</svg>
