<svg width="27" height="28" viewBox="0 0 27 28" fill="none" xmlns="http://www.w3.org/2000/svg">
<g clip-path="url(#clip0)">
<path d="M10.3003 20.4877H14.6409V24.8283H10.3003V20.4877Z" fill="#FFD5CA"/>
<path d="M16.8862 5.92605L17.8621 4.95019C18.3435 4.46875 19.1225 4.46875 19.6024 4.95019L21.5549 6.90267C22.0364 7.38411 22.0364 8.16312 21.5549 8.64304L20.5791 9.6189L16.8862 5.92605Z" fill="#FFD5CA"/>
<path d="M10.3003 20.4877H12.4702V24.8283H10.3003V20.4877Z" fill="#FFBBAB"/>
<path d="M10.3003 26.999H8.13037C7.53372 26.999 7.04541 26.5107 7.04541 25.9141C7.04541 25.3174 7.53372 24.8291 8.13037 24.8291H10.3003C9.70365 24.8291 9.21534 25.3174 9.21534 25.9141C9.21534 26.5107 9.70365 26.999 10.3003 26.999Z" fill="#EFEFEF"/>
<path d="M8.02135 20.4877H5.85143L0.98969 15.7351C0.577679 15.3231 0.425082 14.715 0.609724 14.1618C0.837857 13.4889 1.46732 13.1089 2.10746 13.1089C2.48743 13.1089 2.86739 13.2394 3.17106 13.543C2.9971 13.7055 2.86739 13.9123 2.78041 14.1618C2.59577 14.715 2.74761 15.3231 3.16038 15.7351L8.02135 20.4877Z" fill="#EFEFEF"/>
<path d="M24.9064 22.3219C24.6134 22.5714 24.2228 22.7125 23.8322 22.7125C23.485 22.7125 23.1378 22.6149 22.8342 22.3867L20.2515 20.4877H22.4214L24.9064 22.3219Z" fill="#EFEFEF"/>
<path d="M14.6079 20.6754H15.7356V25.016H14.6079V20.6754Z" fill="#FF956E"/>
<path d="M9.76709 20.6754H10.8864V25.016H9.76709V20.6754Z" fill="#FF956E"/>
<path d="M17.0917 28H8.41127C7.36446 28 6.51221 27.1485 6.51221 26.101C6.51221 25.0542 7.3637 24.2019 8.41127 24.2019H17.0925C18.1393 24.2019 18.9916 25.0534 18.9916 26.101C18.9908 27.1478 18.1393 28 17.0917 28ZM8.41127 25.2243C8.26173 25.2243 7.65592 25.3647 7.65592 26.1002C7.65592 26.9204 8.26097 27.0219 8.37694 27.0219H17.0582C17.2421 27.0219 17.8662 27.0242 17.8723 26.1002C17.8769 25.3983 17.2413 25.2243 17.0917 25.2243H8.41127Z" fill="#FF956E"/>
<path d="M24.1144 23.7143C23.5871 23.7143 23.0653 23.5495 22.6334 23.2313L20.2613 21.4887H6.12777C5.9149 21.4887 5.70966 21.4047 5.55935 21.2567L0.705245 16.5018C0.0567082 15.8662 -0.16532 14.9415 0.12614 14.0877C0.387843 13.3171 1.02265 12.7433 1.82225 12.5526C2.63483 12.3618 3.4703 12.5907 4.06009 13.1676L7.56829 16.6056H21.637C21.8109 16.6056 21.9788 16.6613 22.1184 16.7643L25.5907 19.3164C26.4514 19.9482 26.7993 21.0469 26.4575 22.0517C26.2049 22.7972 25.6228 23.3618 24.8636 23.6006C24.6195 23.6769 24.3661 23.7143 24.1144 23.7143ZM6.18423 20.3076L20.5795 20.3694C20.7534 20.3694 20.9213 20.425 21.0609 20.5281L23.5726 22.4729C23.7985 22.6377 24.3166 22.5889 24.5874 22.5057C25.1627 22.3211 25.2642 21.7572 25.3489 21.5085C25.4618 21.1796 25.3634 20.5166 25.078 20.3076L21.6102 17.6859L7.537 17.7043C7.32413 17.7043 7.11889 17.6203 6.96858 17.4723L2.80116 13.6269C2.6211 13.4895 2.37694 13.446 2.16941 13.4575C1.40109 13.5185 1.1287 13.9649 1.02722 14.5547C0.995179 14.8598 1.04935 15.0926 1.17677 15.2841L6.18423 20.3076Z" fill="#FF956E"/>
<path d="M26.5875 0.879721L25.7078 0L20.0938 5.61404L20.9735 6.49376L26.5875 0.879721Z" fill="#FF956E"/>
<path d="M21.221 10.3971L22.1968 9.42126C23.0376 8.58045 23.0376 7.21547 22.1968 6.37466L20.2444 4.42219C19.4051 3.5829 18.037 3.5829 17.1978 4.42219L16.2227 5.39957L17.1237 6.30065L18.5269 4.97382C18.6474 4.85327 18.842 4.85327 18.9625 4.97382L21.604 7.61527C21.7245 7.73582 21.7245 7.93038 21.604 8.05094L20.2009 9.37777L21.221 10.3971Z" fill="#FF956E"/>
<path d="M22.1756 10.7329L15.9466 4.50391L14.9585 5.43627L21.1875 11.6653L22.1756 10.7329Z" fill="#FF956E"/>
</g>
<defs>
<clipPath id="clip0">
<rect width="26.5877" height="28" fill="white"/>
</clipPath>
</defs>
</svg>
