<svg width="20" height="20" viewBox="0 0 20 20" fill="none" xmlns="http://www.w3.org/2000/svg">
<path d="M3.67188 5.625H4.45312V6.40625C4.45312 6.72969 4.71563 6.99219 5.03906 6.99219C5.3625 6.99219 5.625 6.72969 5.625 6.40625V5.625H6.40625C6.72969 5.625 6.99219 5.3625 6.99219 5.03906C6.99219 4.71563 6.72969 4.45312 6.40625 4.45312H5.625V3.67188C5.625 3.34844 5.3625 3.08594 5.03906 3.08594C4.71563 3.08594 4.45312 3.34844 4.45312 3.67188V4.45312H3.67188C3.34844 4.45312 3.08594 4.71563 3.08594 5.03906C3.08594 5.3625 3.34844 5.625 3.67188 5.625Z" fill="white"/>
<path d="M12.7734 5.625H15.1172C15.4406 5.625 15.7031 5.3625 15.7031 5.03906C15.7031 4.71563 15.4406 4.45312 15.1172 4.45312H12.7734C12.45 4.45312 12.1875 4.71563 12.1875 5.03906C12.1875 5.3625 12.45 5.625 12.7734 5.625Z" fill="white"/>
<path d="M15.3125 14.3359H12.5781C12.2547 14.3359 11.9922 14.5984 11.9922 14.9219C11.9922 15.2453 12.2547 15.5078 12.5781 15.5078H15.3125C15.6359 15.5078 15.8984 15.2453 15.8984 14.9219C15.8984 14.5984 15.6359 14.3359 15.3125 14.3359Z" fill="white"/>
<path d="M15.3125 12.3828H12.5781C12.2547 12.3828 11.9922 12.6453 11.9922 12.9688C11.9922 13.2922 12.2547 13.5547 12.5781 13.5547H15.3125C15.6359 13.5547 15.8984 13.2922 15.8984 12.9688C15.8984 12.6453 15.6359 12.3828 15.3125 12.3828Z" fill="white"/>
<path d="M6.43013 12.5542C6.20122 12.3253 5.83013 12.3253 5.60161 12.5542L5.03911 13.1167L4.477 12.5546C4.2481 12.3257 3.877 12.3257 3.64849 12.5546C3.41958 12.7835 3.41958 13.1546 3.64849 13.3832L4.2106 13.9453L3.64849 14.5074C3.41958 14.7363 3.41958 15.107 3.64849 15.3359C3.76294 15.4503 3.91294 15.5074 4.06294 15.5074C4.21294 15.5074 4.36294 15.4503 4.47739 15.3359L5.03911 14.7738L5.60122 15.3363C5.71567 15.4507 5.86567 15.5078 6.01567 15.5078C6.16567 15.5078 6.31567 15.4507 6.43013 15.3363C6.65903 15.1074 6.65903 14.7363 6.43013 14.5078L5.86763 13.9453L6.42974 13.3832C6.65864 13.1542 6.65864 12.7832 6.43013 12.5542Z" fill="white"/>
<path d="M18.9844 10.5926V1.75781C18.9844 0.788672 18.1957 0 17.2266 0H1.75781C0.788672 0 0 0.788672 0 1.75781V17.2266C0 18.1957 0.788672 18.9844 1.75781 18.9844H10.5926C11.5531 19.6258 12.7063 20 13.9453 20C17.284 20 20 17.284 20 13.9453C20 12.7063 19.6258 11.5531 18.9844 10.5926ZM17.8125 1.75781V9.29023C16.7629 8.4168 15.4145 7.89062 13.9453 7.89062C12.4762 7.89062 11.1277 8.4168 10.0781 9.29023V1.17188H17.2266C17.5496 1.17188 17.8125 1.43477 17.8125 1.75781ZM1.75781 1.17188H8.90625V8.90625H1.17188V1.75781C1.17188 1.43477 1.43477 1.17188 1.75781 1.17188ZM1.17188 17.2266V10.0781H8.90625V10.5926C8.26484 11.5531 7.89062 12.7063 7.89062 13.9453C7.89062 15.4145 8.4168 16.7629 9.29023 17.8125H1.75781C1.43477 17.8125 1.17188 17.5496 1.17188 17.2266ZM13.9453 18.8281C11.2527 18.8281 9.0625 16.6375 9.0625 13.9453C9.0625 11.2531 11.2527 9.0625 13.9453 9.0625C16.6379 9.0625 18.8281 11.2531 18.8281 13.9453C18.8281 16.6375 16.6375 18.8281 13.9453 18.8281Z" fill="white"/>
</svg>
