<svg width="16" height="8" viewBox="0 0 16 8" fill="none" xmlns="http://www.w3.org/2000/svg">
<path d="M4.8 4C4.8 4.44 5.16 4.8 5.6 4.8H10.4C10.84 4.8 11.2 4.44 11.2 4C11.2 3.56 10.84 3.2 10.4 3.2H5.6C5.16 3.2 4.8 3.56 4.8 4ZM6.4 6.4H4C2.672 6.4 1.6 5.328 1.6 4C1.6 2.672 2.672 1.6 4 1.6H6.4C6.84 1.6 7.2 1.24 7.2 0.8C7.2 0.36 6.84 0 6.4 0H4C1.792 0 0 1.792 0 4C0 6.208 1.792 8 4 8H6.4C6.84 8 7.2 7.64 7.2 7.2C7.2 6.76 6.84 6.4 6.4 6.4ZM12 0H9.6C9.16 0 8.8 0.36 8.8 0.8C8.8 1.24 9.16 1.6 9.6 1.6H12C13.328 1.6 14.4 2.672 14.4 4C14.4 5.328 13.328 6.4 12 6.4H9.6C9.16 6.4 8.8 6.76 8.8 7.2C8.8 7.64 9.16 8 9.6 8H12C14.208 8 16 6.208 16 4C16 1.792 14.208 0 12 0Z" fill="#67B77E"/>
</svg>
