<svg width="17" height="15" viewBox="0 0 17 15" fill="none" xmlns="http://www.w3.org/2000/svg">
<path fill-rule="evenodd" clip-rule="evenodd" d="M10.3124 10.5933L6.7894 13.9267C6.51461 14.1867 6.0707 14.1867 5.79591 13.9233C5.52111 13.6633 5.52111 13.24 5.79238 12.9833L9.31542 9.65C8.82572 8.99667 8.53683 8.19667 8.53683 7.33333C8.53683 5.12333 10.4287 3.33333 12.7645 3.33333C15.1002 3.33333 16.9921 5.12333 16.9921 7.33333C16.9921 9.54333 15.1002 11.3333 12.7645 11.3333C11.852 11.3333 11.003 11.06 10.3124 10.5933ZM10.862 9.3C11.3623 9.73333 12.0317 10 12.7645 10C14.3217 10 15.5829 8.80667 15.5829 7.33333C15.5829 5.86 14.3217 4.66667 12.7645 4.66667C11.2073 4.66667 9.94604 5.86 9.94604 7.33333C9.94604 8.02667 10.2244 8.65667 10.6824 9.13C10.7176 9.15333 10.7493 9.17667 10.7775 9.20667C10.8092 9.23667 10.8374 9.26667 10.862 9.3ZM0.081543 4C0.081543 3.63333 0.398616 3.33333 0.782627 3.33333H6.42653C6.81406 3.33333 7.12761 3.63 7.12761 4C7.12761 4.36667 6.81054 4.66667 6.42653 4.66667H0.782627C0.395093 4.66667 0.081543 4.37 0.081543 4ZM0.081543 0.666667C0.081543 0.3 0.398616 0 0.78615 0H14.8783C15.2693 0 15.5829 0.296667 15.5829 0.666667C15.5829 1.03333 15.2658 1.33333 14.8783 1.33333H0.78615C0.398616 1.33333 0.081543 1.03667 0.081543 0.666667Z" fill="#67B77E"/>
</svg>
