<svg xmlns="http://www.w3.org/2000/svg" width="512px" height="362px" viewBox="0 0 750 530"><g fill="none" fill-rule="evenodd"><path fill="#B3E5E6" fill-rule="nonzero" d="M0 0h750v530H0z"/><path d="M0 0h750v530H0z"/><path d="M353 379.53C329.42 402 297.61 396 269.34 395.12c-3.3-.1-6.596667-.23-9.89-.39-6.58-.33-13.13-.78-19.64-1.29-2.564246-.670828-5.069277-1.550431-7.49-2.63-5.09199-2.277183-9.634695-5.622823-13.32-9.81 5.486225-2.978941 11.311591-5.285585 17.35-6.87 3.07-.85 6.2-1.56 9.38-2.19 2.853333-.5 5.696667-1.01 8.53-1.53l8.51-1.56c27.35-4.85 54.49 2.15 81.89 4.07 5.34 1.69 8.34 4 8.34 6.61z" fill="#A2DDDB" fill-rule="nonzero"/><path d="M650.22 490.41c-5.61 15.26-17.17 20.75-30.27 23.33-3.27.64-6.64 1.1-10 1.48-19.95 1.42-38.95 7.84-58.58 6.78-3.59 0-7.06-.11-10.35-.42-16.46-1.55-28.59-7.74-30.76-23.28-1.51-10.77 3.71-17.05 12.94-20.54 3.384887-1.232714 6.89653-2.084631 10.47-2.54 28.33 1.84 55.33-.3 83.33-9.92 4-1.07 8 1.07 12.5 1.35a36.25003301 36.25003301 0 016.06 2c5.81 2.59 10.68 6.95 12.91 14.08.996613 2.447952 1.587691 5.04194 1.75 7.68z" fill="#8CD1D1" fill-rule="nonzero"/><path d="M226.66 499.13c-13.73 10.58-32.29 12.81-49.54 11.28-3.37-.19-6.74-.4-10.09-.61-3.35-.21-6.69-.42-10-.6-3.64-.08-7.25-.1-10.85 0-3.57-.19-7.08-.48-10.43-.89-16.76-2.06-29.61-7.24-27.47-19.73 3.18-12.93 16.83-14.86 33.46-13.35 4.16.38 8.5 1 12.91 1.65 3.776563.844342 7.622743 1.339759 11.49 1.48 2.87-.17 5.86-.4 8.92-.62 3.06-.22 6.19-.42 9.34-.54 15.6-.8 36.22-.07 41.25 16.51 1.095195 1.579546 1.462756 3.551998 1.01 5.42z" fill="#8BD6D2" fill-rule="nonzero"/><g transform="translate(31.5 40)"><path d="M344.56 205.08c-3.61-15.85-15.94-26.66-30.76-32.57-39-15.5-83.29-12.68-123.48-.74-6.850072 1.896543-13.506167 4.43443-19.88 7.58-6.74 3.44-13.68 10.6-17.85 19.23-1.33 2.75-3.41 7.6-3.57 11.51-.32 8.5 4 22 11.06 29.9.33.38.67.74 1 1.09 3.34 2.93 5.8 5 13.85 8.43 26.78 11.49 56.57 13.68 85.65 13.17 19.41-.35 39.28-1.95 56.95-9.94 6.380494-2.702676 12.179763-6.610732 17.08-11.51 1.60096-1.684068 3.043699-3.51176 4.31-5.46 5.904724-9.065641 7.935729-20.117335 5.64-30.69zm-132.13 2.38c-2.623523-.716737-4.91071-2.334762-6.46-4.57a4.20999941 4.20999941 0 01-.38-.59c-.8214-1.342378-1.327442-2.853666-1.48-4.42-.16-1.65.11-3 1.3-3.09 19.77-6 52 2.8 72.29 7.25 3.49.77 7.07 1.63 9.87 3.8 1.15.87 2.22 2.27 1.53 3.57l-1.9 1.41-.45.33a41.93004361 41.93004361 0 01-6.41 1.74h-.22a75.00001615 75.00001615 0 01-10.5.87l-1.22.08c-19.38 1.38-44.37-3.15-55.97-6.38z" fill="#ED9974" fill-rule="nonzero"/><path d="M286.19 211.26c.72-.81-.37-2-1.36-2.43-5.69-2.56-17.09-3.55-23.31-4-15.31-1-20.14-2-29.48-1.59-6.93.32-18.87 2.81-26.06-.71-2.2-1.07-3.24-6.46-.46-9.19 1.94-1.89 5.92-2.23 8.44-2.79 19.336084-4.370756 39.403916-4.370756 58.74 0 6.14 1.4 12.46 3.44 16.72 8 4.87 5.25 2.31 10.52-3.23 12.63v.08z" fill="#D67756" fill-rule="nonzero"/><path d="M198.23 241.8c-.97496-2.026928-2.183132-3.933154-3.6-5.68-.240732-.32577-.681452-.43019-1.042758-.247062-.361306.183127-.537652.600308-.417242.987062.33 1 2.19 5.1 3.22 6.2.85.91 2.14-.26 1.84-1.26zM211.9 221.52c-.670749.854212-1.120678 1.860542-1.31 2.93-.39838 1.111119-.565135 2.292016-.49 3.47.19 1.06 1.75 1.64 2.27.44.327018-1.041891.525161-2.119921.59-3.21.280432-1.031794.385228-2.103425.31-3.17-.028796-.311471-.238655-.57662-.535186-.676185-.296531-.099565-.623882-.014794-.834814.216185zM235.16 246.31c-.83-.46-1.85.66-1.23 1.42.62.76 1.24 1.45 1.83 2.2.59.75 1 1.61 1.83 2 .338243.159335.734837.132389 1.048418-.071236.313582-.203624.499536-.554955.491582-.928764 0-1.58-2.58-3.84-4-4.61l.03-.01zM243.75 223.68c-1.31-.29-2.4 1.56-3 2.45-.987585 1.351617-1.756943 2.849842-2.28 4.44-.43 1.52 1.86 2.17 2.55.86.83-1.59 1.45-3.28 2.34-4.85.26-.45 1.61-2.62.41-2.9h-.02zM266.14 240.62c-1.16-1.9-4.68-4.09-6.82-4.94-.354855-.139302-.758572-.005323-.959734.318499-.201162.323821-.142382.745108.139734 1.001501 4.56 3.89 4.35 4.34 5.74 5.36.502898.395805 1.217272.373851 1.694915-.052089.477644-.42594.580942-1.133147.245085-1.677911l-.04-.01zM285.21 218.09c-.136056-.361575-.533222-.551332-.9-.43-1.48.52-2 2.46-2.48 3.81s-1.35 3.61-.37 5c.195124.274789.504525.446046.840983.465495.336458.019448.663531-.115019.889017-.365495 1.07-1 1-3 1.31-4.3.31-1.3 1.17-2.86.71-4.18zM290.24 244.76c-.052092-.156811-.16557-.28578-.314476-.357406-.148905-.071625-.320498-.079778-.475524-.022594-.910638.611211-1.523579 1.575959-1.69 2.66-.5 1.59-1.2 5 .54 5.25.404107.083267.823829-.028715 1.13275-.302218.30892-.273503.470936-.676563.43725-1.087782-.041985-1.138318.001471-2.278182.13-3.41.296928-.877763.379225-1.813894.24-2.73zM308.23 236.8c-2.516058-1.457281-5.172875-2.656702-7.93-3.58-.77-.29-1.59.68-.85 1.28 2.292939 1.925094 4.874509 3.477411 7.65 4.6.635127.312041 1.402959.050127 1.715-.585s.050127-1.402959-.585-1.715zM306 209.19c-.207619-1.350756-.501554-2.686826-.88-4-.31-1-1.62-.54-1.67.35-.038444 1.462142.018343 2.925236.17 4.38-.033887 1.281885.215366 2.555467.73 3.73.51.9 1.78.43 2-.4.35-1.32-.12-2.77-.35-4.09v.03zM327.6 225.92c-.089841-1.706249-.426681-3.390447-1-5-.17-.36-.76-.5-.93-.06-.474483 1.590688-.617433 3.261836-.42 4.91.06 1.48-.17 3.44 1.08 4.45.330973.277215.8222.241811 1.11-.08.91-1.28.35-2.73.14-4.21l.02-.01zM323.15 193c-.794167 1.288812-1.35602 2.706984-1.66 4.19-.41 1.39-1.2 3.13-.64 4.51.11274.313476.363837.557381.680456.660966.316618.103585.663322.055257.939544-.130966 1.16-1 1.28-2.52 1.6-3.94.480771-1.545385.683911-3.163734.6-4.78-.1-.68-1-1.16-1.52-.51zM299.67 189.41c-1.12-1.08-3-.7-4.44-.56-1.26.11-2.79.1-3.55 1.24-.08794.192697-.039177.420257.12.56.9.86 2.45.56 3.6.58 1.37 0 3 .49 4.19-.39.229295-.159942.372347-.416403.387962-.695534.015616-.27913-.097938-.549947-.307962-.734466zM287.87 169.57c-.024541-.273314-.208706-.506108-.469038-.592886-.260332-.086777-.547341-.011041-.730962.192886-.897709 1.205701-1.365925 2.677234-1.33 4.18-.09 1.47-.25 3.24.91 4.32.231872.18316.532877.254396.822249.194592.289372-.059803.53748-.244522.677751-.504592.56-1.16.12-2.42.08-3.66a23.77006709 23.77006709 0 000-4.13h.04zM259.66 179.9c-.5-1.39-2-2.51-2.94-3.57s-2.74.73-1.65 1.91c.91 1 1.85 2.42 3.11 3 .390872.181624.852309.113456 1.173968-.173429.32166-.286886.441948-.737554.306032-1.146571v-.02zM199.12 175.22c-.93 1.26-2.86 4.82-2.92 6.38 0 .88 1.14 1.07 1.65.55.690189-.918934 1.19924-1.960792 1.5-3.07.446575-1.052101.781737-2.148079 1-3.27.11-.64-.77-1.17-1.2-.59h-.03zM224.65 179.22c-.41-.33-2.14-2-2.23-2.11.015795-.2944-.171568-.561501-.453762-.646871-.282193-.085369-.586195.033083-.736238.286871-.79 1.12 2.68 6.42 5 5.61.359954-.128207.59215-.478538.57-.86-.14-1.12-1.3-1.62-2.1-2.28h-.05zM243.17 167c-1.39 1.12-3.61 3.66-3.34 5.42.08.53.63 1.07 1.2.79.886215-.489559 1.588437-1.254981 2-2.18a26.36011433 26.36011433 0 001.48-2.9c.32-.76-.56-1.72-1.31-1.13h-.03zM177.3 220.6a31.75003846 31.75003846 0 00-.88-4c-.32-1-1.62-.54-1.67.36a35.70013876 35.70013876 0 00.16 4.38c-.025389 1.278935.227088 2.548146.74 3.72.5.9 1.77.43 2-.4.36-1.32-.12-2.76-.34-4.08l-.01.02zM194.5 204.45c-.798832 1.283938-1.364212 2.69908-1.67 4.18-.4 1.39-1.2 3.13-.63 4.52.11491.311749.366918.553257.683273.654803.316355.101546.661843.051827.936727-.134803 1.16-1 1.28-2.52 1.59-3.94.488997-1.543715.695636-3.162953.61-4.78-.1-.68-1-1.15-1.52-.5zM170.97 200.81c-1.12-1.08-3-.69-4.44-.56-1.26.12-2.8.1-3.55 1.24-.091941.193609-.047393.424506.11.57.9.86 2.46.55 3.61.58 1.36 0 3 .49 4.18-.4.227312-.160683.369646-.415647.387132-.693467.017485-.27782-.09176-.548618-.297132-.736533z" fill="#FFF" fill-rule="nonzero"/><path d="M286.19 211.26c.72-.81-.37-2-1.36-2.43-5.69-2.56-17.09-3.55-23.31-4l-1.2-.08c-9.61-.65-19.45-1.28-27.67-1.54-4.56-.15-8.62-.17-11.87 0l-13.58-1c-.372024-.020134-.735231.117885-1 .38-.080465.073951-.151048.157978-.21.25-.216628.321758-.291138.718547-.205992 1.096973.085146.378426.322426.705062.655992.903027 1.875101 1.135281 3.892764 2.016328 6 2.62 11.6 3.23 36.59 7.76 56 6.42l1.22-.08c3.36-.2 7-.33 10.5-.87h.22c2.201334-.308148 4.355002-.892763 6.41-1.74m57.81-6.07c-3.61-15.85-15.94-26.66-30.76-32.57-39-15.5-83.29-12.68-123.48-.74-6.850072 1.896543-13.506167 4.43443-19.88 7.58-6.74 3.44-13.68 10.6-17.85 19.23-1.33 2.75-3.41 7.6-3.57 11.51-.32 8.5 4 22 11.06 29.9.33.38.67.74 1 1.09 3.34 2.93 5.8 5 13.85 8.43 26.74 11.45 56.53 13.64 85.61 13.13 19.41-.35 39.28-1.95 56.95-9.94 6.380494-2.702676 12.179763-6.610732 17.08-11.51 1.60096-1.684068 3.043699-3.51176 4.31-5.46 5.904724-9.065641 7.935729-20.117335 5.64-30.69l.04.04zm-64.22 7.81a41.93004361 41.93004361 0 006.41-1.74c-2.069579.836784-4.236834 1.407999-6.45 1.7l.04.04zm-20-8.12c-9.61-.65-19.45-1.28-27.67-1.54 8.64-.39 13.56.51 27.61 1.5l.06.04z" stroke="#534741" stroke-width="4" stroke-linecap="round"/><path d="M338.92 235.77c-1.266301 1.94824-2.70904 3.775932-4.31 5.46-4.909103 4.902464-10.718819 8.810695-17.11 11.51-17.67 8-37.54 9.59-56.95 9.94-29.1.51-58.87-1.73-85.63-13.17-8-3.45-10.51-5.5-13.85-8.43-.35-.35-.69-.71-1-1.09 19.29 3.82 49.48 9 75.93 10.27 1 .06 2 .1 3 .13 5.51.2 10.83.22 15.82 0 11.160997-.599192 22.261776-2.029825 33.21-4.28.76-.14 1.52-.29 2.27-.45 16.83-3.36 32.99-7.61 48.62-9.89z" fill="#A7E8E3" fill-rule="nonzero" opacity=".8" style="mix-blend-mode:darken"/><path d="M140.39 235.13c-.14.06-.12.27.23.3l.32-.27-.55-.03zM142.5 236.21c.44-.07 1-.25.77-.6-.46.23-.53.08-1 .36-.35 0-.57-.23-.48-.34-.14.06-.51-.18-.74 0 .437784.360026 1.014634.50332 1.57.39.1.08-.04.14-.12.19zM175.68 243.38l-.21-.08c.066772.034472.137217.061308.21.08zM196.41 246.89h-.24c.15.04.27.03.24 0zM199.91 247.75l-.2-.05c.057429.042464.129344.060442.2.05zM175.68 243.38l.54.2c.05-.1-.27-.13-.54-.2zM147.28 236.4a1.57993075 1.57993075 0 00-.32 0H147.28zM166.5 242h-.17c-.060822.025705-.117982.059329-.17.1l.34-.1zM159.5 240.67c.16.05.27-.22.35-.32-.107228.085299-.243788.124829-.38.11-.007276.071399.003023.143494.03.21zM171.5 243c.006073.040615.023393.078719.05.11-.003494-.041332-.021157-.08019-.05-.11zM368.5 233.28v.05c0 .05.09-.04 0-.05zM376.55 235.85h-.12a.6600328.6600328 0 00-.05.15l.17-.15zM206.39 249c-.2 0-.11 0 0 0zM266.77 250.62c-.71-.17 1.07-.44 0-.6.13.09-.87.53 0 .6zM147.5 236.48l.29.06a1.06002662 1.06002662 0 00-.29-.06zM266.79 250h-.11.11zM221.5 250.44c-.039999-.056347-.091032-.103977-.15-.14 0 0 .03.07.15.14zM210.3 248.87l.27.07c-.087342-.032593-.177824-.056052-.27-.07zM227.36 250.53c.131698.045017.271343.062047.41.05h-.06c-.118926.024724-.242754.007034-.35-.05zM233.5 250.92l-.11-.06h-.19zM349.84 233.35c.11846.048996.221929.128322.3.23-.11-.2.79-.34-.3-.23zM147.25 236.56c.046871-.061431.123692-.09216.2-.08h-.2s-.04.05 0 .08zM227.78 248.33l1 .11-1-.11zM306.7 241l.21-.09c-.076577.011434-.148908.042434-.21.09zM231.59 248.6c.162461.103727.341839.178186.53.22 0 0 .09 0 .11-.06l-.64-.16z" fill="#E7F5F5" fill-rule="nonzero"/><path d="M356.5 232.59c-.93 0-.43.37-.62.59-1.11.14-.52-.25-.91-.43a14.00006285 14.00006285 0 01-1.72.49c0-.06-.15-.07 0-.15-.72.34-2.17.13-3 .57-.042893-.016843-.080761-.044383-.11-.08.123113.13167.181686.311049.16.49-.41 0-.75.3-.92.07.25 0 .27-.11.38-.2l-.42.14c-.42-.32.58-.17.56-.42-.80189.247943-1.625631.418718-2.46.51-.16-.32 1.51-.26.62-.48l1 .05c-.81-.48.62 0-.14-.53-1.33 0-1.46.31-2.79.33-.28.22.12.27-.15.49-1.83.55-1.57-.69-2.89-.08-.33.27-.41.72-1.42.61l.29-.42c-1.28.12-.66.64-2 .57.21-.19 1-.27.78-.29-.9-.18-.58.3-1.24.4l-.18-.32c-1.35.25-2.8.71-4.28 1 .07-.11.31-.26-.06-.3-1.928386.421696-3.888449.682592-5.86.78l-.63.42c-.16 0-.33-.08-.16-.17-.73 0 0 .19-.32.37s-.56-.06-.32-.2c-1.520601.654993-3.139152 1.053718-4.79 1.18l.24-.14c-1 .09-1 .82-2 .75l.17-.09c-2.23.34-4.59 1.12-6.36 1.05-.23.48-2.21.29-2.22.9a12.18995133 12.18995133 0 00-2.78 0c-.48.07-.62.51-1.19.7l-.08-.3-.72.49-.5-.26-.53.19c.23 0 .5 0 .48.13-.692467.271941-1.455457.307102-2.17.1l-2 .7c0-.13.35-.25.6-.38-1 .54-.27-.28-1.19.22.15 0 0 .2 0 .26-.838285.004659-1.669841.150012-2.46.43l.11-.24c-1.5.27-3.12.78-4.8 1.13.62 0 .56.36.08.5l-.27-.28c-.27.26.54 0-.06.39-.63.09-.5-.27-.16-.45l-.74.27c-.06-.09.11-.18.13-.31-.27.27-1.38 0-1.76.39l-.07-.08c-1.68.34-2.42.61-3.77.89 0 .28-.52.32-.88.63-1.138732.056373-2.273665.173204-3.4.35-.82.3-.2.28-.56.52-.1-.24-1.31 0-.72-.29-1.234542.237423-2.456137.537815-3.66.9.22.07.45.07.35.18-.33.1-.78 0-.75-.11h.08c-2 .74-4.9 0-6.47.78h.09l-1.68.51c-.8.06.45-.26-.16-.34-1.8.67-2.93.31-4.43.77-1.26-.61-4.2.48-5.84.13l.11.17c-.4.2-.51-.07-.82-.09.05.14.46.13.21.25-3.605432.320262-7.231244.340331-10.84.06-1.32 0-.74.93-2.41.51l.47-.34c-2.66.4-5.43-.06-8.05.19.15-.08.16-.17.42-.16-.55-.26-2-.1-2.05.1-.41 0-.09-.18-.34-.29-.54-.17-1.39.25-1.67 0-.05 0 .16-.07.26-.08-.37.1-1.68-.12-1.35.17-1-.19-1.88 0-2.65-.19-.53.29-1.67-.25-1.86.17.1-.44-1.69-.48-2.32-.31.22-.13-.53-.18-.27-.36-.71 0-1.36 0-1.26.24-1.25-.64-2.64.21-3.32-.54-2.11.07-4.06 0-6 0 .11-.44 2.09.16 2.05-.32-1.539183.160073-3.090817.160073-4.63 0-.45-.11.28-.16.44-.22-1.8 0-3.44-.42-5.05-.37 0 0 .18-.06.35-.08-.32 0-.72-.15-.71.06h.31c.47.35-1.31.46-1.39.61.6-.52-1.55-.34-.61-1-.21 0-.48.08-.45.22-.3-.08-.39-.17-.06-.28-1.13 0-.76.23-1.78.11 0-.1.23-.12.35-.22-.62729.18675-1.292321.207425-1.93.06.06-.06 0-.15.23-.11-1.47-.17-2.57.18-4.16-.22.53-.36-.53-.22-.57-.6h-.88l.33.23c-.706138.004137-1.411549-.046011-2.11-.15l.59-.07-1.43-.13.78.25c-.79.08 0 .48-1 .23.21 0-.76-.11-1.12-.39-.443266.101729-.905547.08448-1.34-.05-.13-.14.18-.39.09-.48-.41.25-1.79-.18-2.3.08.16-.06.2-.25.16-.29l-.35.2c-.34-.13-.39-.18-.31-.33-1-.21.27.53-1 .13.1 0 .06-.05.27-.06-1.25-.3-2.46-.22-3.6-.53-.28-.42 1 .07.69-.31-1.713432-.065335-3.422362-.218871-5.12-.46l.29.09c-.31.48-1.15-.46-2-.35.21 0 .31-.25.25-.2a25.2799908 25.2799908 0 00-4-.38l.23-.1c-.63-.23-1.7-.37-2.39-.56-.23.1-.63 0-.42.24-2-1.14-4.19-.34-6-1.33.23.05.56 0 .38-.05l-1.65-.18c.09.25.19.18.5.42-.368064.08871-.751936.08871-1.12 0 .76 0 .06-.37-.23-.56 0 .08-.08.14-.07.21-.77-.56-.23.43-1.34-.06l.08-.11c-.447514.029319-.896897.009198-1.34-.06-.14-.3.49 0 .56-.25-.66-.11-1.39.25-1.94-.13.29 0 .7.06 1 0-.33192-.267999-.728545-.443894-1.15-.51h.05l-1.09-.36.27.14c-1 .53-1.7-.22-2.9 0 1.16-.2.23-.21.37-.49-.26-.14-.68-.33-.54-.38-.57.13-.83-.38-1.64-.18 0-.11-.56-.13-.39-.35-.69-.07.13.2.05.31-1.12.11-2.38-.92-4-.79-1.34-.09-1.65.18-2.89.08-.38-.23.41-.27.41-.27-.556445-.250545-1.159751-.380068-1.77-.38.14-.06 0-.16-.13-.3-.51-.08-.41.27-1 0 .1751-.124875.371718-.216404.58-.27h-1.84c-.13-.2.42-.17.66-.23-.7-.07-1.8-.23-2.07 0l.42.19c-.26 0-.08-.26.11-.27.63-.08.82.27.83.38h-.44c.32.65 1.75.27 2.61.49l-.45.33 1-.15c.16.15.24.4-.2.37.58.33.58 0 1.07.31.05.05 0 .06 0 .07h.64c-.14.06 0 .3-.33.17 1 .46 1.83.06 2.18.46h-.1c1.55.18.21-.27 1.42-.38l.61.9.22-.27c.15.05.45.13.37.24.63-.08-.07-.15.31-.27.69.43 2.1.31 2.17.82.32-.17-.68-.32.15-.31.13.56 1 .11 1.59.49-.26.22-.89-.06-.25.32.51-.36 1.32.38 1.92.42.1-.34 1.3.11 2.3.18a21.3301131 21.3301131 0 002.68.86v.05c.25-.32 1.17-.08 1.87 0-.07.21-.21.27-.59.3l.64.12c.25727-.102358.538984-.126704.81-.07l-.21.23c.960925.031158 1.916031.161856 2.85.39.11-.24-.75-.86.45-.81 0 .14 0 .38-.3.38.191239-.02994.386894-.012777.57.05l-.51.14c.48.19.3-.14.69-.05 0 .2.27.2.19.34-.08.14-.34-.14-.5-.1.38996.069332.761188.219186 1.09.44 0-.12.05-.26.38-.23.86.14.26.29.74.48.23-.1.75.14.82-.15.25.05.27.19.35.29.47-.05 2.08.33 1.64-.07h-.11.07c1.5 0 3 .69 4.46.81v.1c.854662.118331 1.717383.168489 2.58.15.26 0 .57.28.45.38.574899-.042925 1.152151.042467 1.69.25-.7.06.2.19-.7 0 .625871.283791 1.31841.387672 2 .3-.35.2.6.42 1 .41l-.57-.28c.423713.045534.844422.115652 1.26.21l-.27.3c1.69.67 3.27-.18 4.51.68.5-.16-.93-.3-.47-.51a12.0800666 12.0800666 0 011.82.81c1.08.34 1.11-.33 2.25 0-.13-.14-.23-.47.66-.46.8.16.92.63.4.65-.2 0-.29-.07-.27-.1-.27 0-.62 0-.32.18l.12-.11c.39.18 1.5.33 1.22.48.62 0 .28-.15-.16-.28 1 .32 1.62.24 2.68.5-.16-.09-.3-.25-.13-.22 1.55.36.72-.13 1.79 0 .58.26-.27.4.82.39.64.21.1.33-.18.39.811957.018239 1.612965.191338 2.36.51h-.52a4.25000962 4.25000962 0 01.82.05l-.26-.27c.29.08.55.11.53.21.33-.11-.19-.42.46-.55.39.17 1.24 0 1.34.35-1.25-.26.1.33-1 .25.260275-.006326.519975.027401.77.1 0 0-.05.06-.14.06 1.18.43.6-.28 1.86-.12-.18.16.25.37.46.36-.51-.07-.21-.33.28-.4.79.23.88 0 1.31.07l-.48-.13c.19-.15.59-.08 1.15-.07 0 .14-.52 0-.32.12.66-.24 1.37.48 2.27.37.39.16 0 .33.35.45 1-.12 1 .36 2.08.29-.27-.27-.33-.22.42-.37h-1.71l1.12-.23c-.51-.06-1.09 0-1.39 0 .54-.14.48-.09.25-.31.66.43 1.41-.05 2.19.27l-.09.59c1.19.38 2.19-.09 3.75.21l-.5-.15c.24-.21 1 .07 1.5 0-.07.19.25.29.45.43 0-.15 1.16.11 1.33-.27l.69.32c1.26.22 1.5-.43 2.72-.26-.39.18.16.37-.68.45.41 0 .78.1.79 0 .23.14 1.16-.19 1.52 0 .18-.08.25-.28.71-.23.05.05 0 .1 0 .1s.73-.08.34-.33c1.22.72 3.53.2 4.59.78h2.79c-.05.05 0 .1-.16.07 1.12.23.72-.54 2-.28.64.35-.69.15-.29.28.15.66 1.55 0 2.39.39h-.21c.65.24 1.61-.2 2.68-.13v.1c1.02864-.293706 2.090543-.455007 3.16-.48-.32.25-.47.13-.28.39.47 0-.13-.42.79-.48.3.14 1 .26 1.06.54h-.87c.44.36 1.12 0 1.58.05l-.05.15c1.33-.05 1.35-.44 2.78-.44l-.15-.11c.78-.41.67.2 1.44-.11l.25.39c.52-.11 1.8-.43 2.72-.55-.725704.314643-1.4835.549358-2.26.7.679053.017277 1.355901-.08425 2-.3-.212101.086515-.441881.12081-.67.1.768939-.366214 1.608359-.560713 2.46-.57-.14.78 2.67 0 3.45.57 1.79-.41 3.6-.18 5.7-.43-.81-.51.61-.08.42-.68.23279-.071816.477736-.09563.72-.07l1.52.2c.37.13-.45.19-.39.32 1.07-.08.48.2 1.21.28-.18-.2.33-.35.95-.35l-.89-.18c1.45-.5 1.35.35 2.82-.16l-.45.25c.75-.21 2.85-.39 3.53-1 .15.05.35.19 0 .28 1.85-.2 4-1.15 5.48-1.1l-.12.17c.34-.1.55-.38 1-.3 0 .06-.11.17 0 .15.414914-.215916.865533-.354829 1.33-.41l-.36.23c1.82-.12 2.67-.89 4.14-1.28.08.43 1.49.31 2.21.24v.07c1.808694-.420395 3.586244-.965021 5.32-1.63 1.28.22 4.05-.65 6-.8-.31 0 0-.35.3-.46.3-.11 1.17-.57 1.19-.16h-.17c.43.31 1.32 0 2-.14v-.54c2 .34 4.84-1.36 6-.92.43-.22 1-.35 1.4-.57v.28c1.153438-.171025 2.295512-.411462 3.42-.72l-.27.27c.88-.17.93-1 1.73-1.23l.33.36c1.52-.34 3.13-.3 4.55-1 0 .06 0 .19-.27.26.72-.14 2.82-.29 2.45-.81.09.37 1.57-.29 2.36-.61l-.07.3c.434119-.435172.981468-.740025 1.58-.88.23 0 .24.18-.08.17.8 0 .55-.37 1.51-.41l-.32.24c.420468-.009093.819961-.185446 1.11-.49.48-.21 1.51-.22 1.68 0 .224526-.296868.577872-.467962.95-.46.08.08-.08.17-.16.22 1.35-.05 1.91-.67 2.87-.55.029245.076547.098609.130497.18.14-1.06.16-1.9.29-1.83.26.05.26.9.15.29.62.796975-.472499 1.675492-.791343 2.59-.94l.12.07h-.08c.176804-.009965.35-.054113.51-.13.233073.015603.466927.015603.7 0 .13.19 1 0 1.42-.09-.08-.27.48-.31-.07-.46.07 0-.08 0-.36.1h-.17l-1 .18c.329051-.238199.738038-.338652 1.14-.28.19-.21.4-.43.52-.54.64.29 1.79.35 2 .57 1.27-.35 3-.5 3.79-1.13.37-.11.45.11.59.17-.2.08-.46.1-.56.19.72-.22 2.18-.3 2.32-.68.95.07-.49.39.78.2l-.16.13c2.57.34 4-1.3 6.89-.69-.19 0-.29-.05-.33-.11 3.2.17 6.6-.5 9.75.16.527833.099697 1.073861.018674 1.55-.23l.18.31.95-.28c1.36-.17 2.23.92 3.95.62l-.2-.23c.6.11 1.92.12 1.79.34.119403-.112284.298448-.13263.44-.05v.16h1.5c1.12.29-.27.57 1.37.89.62 0 1.82-.13 1.62-.28-.2-.15-.62-.21-.61-.37h.58c.19-.44.73-.83-.62-1.41l-1 .1-.28-.28.83.14c-.336479-.210364-.754247-.243935-1.12-.09-.076393-.149072-.209854-.260891-.37-.31l-1 .29c-.09-.2.48-.29-.15-.49-.48.14.37.47-.39.49-.44-.28-.28-.42-.86-.32-.06-.13.06-.19.29-.21-.51.08-1.31-.1-1.6.11-.46-.33-1.67-.1-1.58-.54-.433532.154482-.889788.235594-1.35.24.87-.47-1.7-.15-1.44-.7-.65.42-2.24.09-3.35.31.07 0 .19-.11.28-.08-.402488-.05973-.797857-.160247-1.18-.3-.08.39-1 .44-1.56.69-.74-.38.46-.46.23-.82 0 .32-1.31.32-1.05.58-.58-.23-.5-.11-.8-.44-.09.49-.53.09-1 .4-.83-.22-.22-.45-1.13-.29-.41-.14.36-.33.36-.33zm-21.49 3l.44-.09-.44.09zm-1.78.3l.77-.12c.08.08 0 .19-.15.22.13-.05-.3.01-.58-.07l-.04-.03zm4.08 1.31c-.27.08-.38 0-.42 0l.48-.11c.002397.047519-.004394.095053-.02.14l-.04-.03z" fill="#E7F5F5" fill-rule="nonzero"/><path fill="#E7F5F5" fill-rule="nonzero" d="M337.8 236.79h.12-.18l-.09.1zM175.44 243.29c-.027031-.010764-.051051-.027921-.07-.05l.07.05zM308.64 240.41l.02.07.14-.09zM165.81 240.54s-.05-.06-.11-.09.05.05.11.09zM161.6 239.67l-.58-.22c.189477.083122.383061.156551.58.22zM158.39 238.87c-.037957.025205-.068918.059607-.09.1l.09-.1zM210.29 247h0zM194.7 245.56c.172178-.027045.345823-.043742.52-.05-.27-.07-.49-.1-.52.05zM227.67 248.32l.1.01zM195.94 245.61c-.231443-.078876-.475822-.112817-.72-.1.234726.064037.476707.097646.72.1zM144.4 235.77h-.15.15zM144.22 235.76h-.18c.08.02.15.03.18 0zM143.66 235.75h.38c-.122644-.045147-.257356-.045147-.38 0zM148.65 236.8l.08-.09c-.036208.019926-.064456.051705-.08.09z"/><path d="M149.96 237.05c-.374273-.186349-.770815-.324131-1.18-.41l-.05.07c.23-.1.9.44 1.23.34zM155.13 239.44l-1.07-.32c.17.15.39.35-.11.27 1.31.61-.24-.3 1.18.05zM158.5 240.31c-.6-.08 0 .15-.07.21.39-.02.48-.03.07-.21zM183.1 244.83l-.1.24c.5.04.02-.07.1-.24zM188.03 244.28l-.42-.22-.25.19zM190.54 246.52l-.21.01.78.02zM232.35 251.11l-.12-.32c-.31.04-.4.39.12.32zM250.5 251.25c.302087.182807.672692.212455 1 .08-.331808-.043166-.66555-.069865-1-.08zM304.5 243.92l-.34.18.65-.23z" fill="#E7F5F5" fill-rule="nonzero"/><path d="M542.8 175.82c14.47-20.81 50.68-8.6 67.28 1.82 21.79 13.66 29.36 25.36 17.42 62.22l-84.7-64.04z" fill="#D87D07" fill-rule="nonzero"/><path d="M483.5 176.9c-4.55 13.1-.58 27.54 4.79 40.38 4.83 11.56-6.49 35.89.71 46.23 6.38 9.16 10.72 19.53 17.2 28.85 13.29 19.11 33.53 17.81 54 29.74 10.79 6.32 42.24 3.07 55.14-1.25 8.404722-2.8253 15.310942-8.927297 19.15-16.92 6.01-12.93 6.62-40.24-6.23-63.93-8.16-15-16.85-29-32.07-37.35-9.2-5.05-15.18-9.41-24.7-14.4-8.93-4.68-17.3-11-25.23-17.06-8.24-6.25-14.91-10.22-25.45-11.41-23.1-2.61-31.74 6.85-35.61 13.27l-1.7 3.85z" fill="#F2AA36" fill-rule="nonzero"/><path d="M509.64 149.17c.882119 1.446615 1.925453 2.788523 3.11 4 1.1 1.18 2.21 2.32 3.4 3.44.275041.298251.565434.581969.87.85.3.29.59.57.88.87.6.57 3.2-.85 3.78-.24.58.61 1.19 1.23 1.77 1.88a16.720057 16.720057 0 011.7 2.13c-.93-.13-3.81 1.63-4.68 1.36-.847417-.310339-1.675557-.67098-2.48-1.08a23.54985296 23.54985296 0 01-2.29-1.42c-.733952-.540532-1.428998-1.13199-2.08-1.77-1.35084-1.275845-2.452875-2.791566-3.25-4.47-.412518-.862815-.705224-1.777944-.87-2.72-.19447-.939912-.146289-1.913872.14-2.83zM495.88 152.52a41.00003368 41.00003368 0 005.13 2.77c1.7.81 3.4 1.6 5.13 2.36.42.21.85.41 1.29.59l1.29.61c.87.4 1.75.8 2.61 1.25.86.45 1.74.88 2.61 1.37.902141.480865 1.770784 1.022096 2.6 1.62-1.026135.109676-2.059221.139765-3.09.09-1-.07-2-.22-3-.38s-2-.46-2.95-.75c-.95-.29-2.92.34-3.85-.11-1.86-.83-2.63-2.93-4.2-4.3-.79448-.686356-1.51506-1.453858-2.15-2.29-.657149-.839308-1.139936-1.801483-1.42-2.83zM562.41 174.5c-.596469 1.581448-1.012438 3.225196-1.24 4.9-.26 1.59-.47 3.17-.63 4.79-.06.4-.11.81-.13 1.22-.02.41-.09.81-.15 1.22-.08.82-.17 1.65-.3 2.49-.13.84-.24 1.69-.4 2.55-.143179.897896-.353774 1.783734-.63 2.65-.453093-.801504-.834573-1.641428-1.14-2.51-.276966-.8595-.504012-1.734292-.68-2.62-.144267-.890632-.237752-1.788749-.28-2.69-.019705-.908317.020381-1.816947.12-2.72.182609-1.849607.704669-3.649695 1.54-5.31.429202-.846321.967082-1.632972 1.6-2.34.627693-.725664 1.424509-1.285496 2.32-1.63z" fill="#F2AA36" fill-rule="nonzero"/><path d="M552.73 165.87a40.19991376 40.19991376 0 00.95 5.74c.41 1.85.83 3.67 1.28 5.51.1.46.2.92.33 1.38l.32 1.39c.21.93.43 1.87.61 2.83s.38 1.91.52 2.9c.169374.99207.272934 1.994258.31 3-.727635-.743598-1.396319-1.542675-2-2.39a30.1399303 30.1399303 0 01-1.56-2.62c-.45-.91-.85-1.84-1.21-2.79a26.55008157 26.55008157 0 01-.88-2.92c-.492703-2.007341-.691441-4.075567-.59-6.14.062317-1.047483.229827-2.086042.5-3.1.278352-1.017015.761567-1.966432 1.42-2.79zM627.83 251.88c1.646136.325051 3.322394.472562 5 .44 1.61 0 3.21-.05 4.83-.15.41 0 .82 0 1.22-.06s.82-.05 1.24-.05c.82-.05 1.66-.09 2.5-.1.84-.01 1.71 0 2.59 0 .90737-.010302 1.813972.056606 2.71.2-.719009.570468-1.485086 1.078955-2.29 1.52-.804282.412272-1.632416.776251-2.48 1.09-.857133.278906-1.728335.512562-2.61.7a18.90993533 18.90993533 0 01-2.71.32c-1.855588.114738-3.716468-.112364-5.49-.67-.900323-.290952-1.760423-.694124-2.56-1.2-.807256-.510045-1.476873-1.210568-1.95-2.04zM627.96 256.91c1.69537.953973 3.456486 1.786075 5.27 2.49 1.74.71 3.48 1.41 5.25 2.08.43.18.87.36 1.32.52l1.33.53c.88.35 1.78.7 2.66 1.11.88.41 1.8.78 2.69 1.22.928522.43308 1.827177.927507 2.69 1.48a20.21995011 20.21995011 0 01-3.09.25c-1.003036-.016304-2.004475-.086405-3-.21-1-.15-2-.35-3-.59-.98656-.27258-1.955115-.606564-2.9-1-1.934003-.723739-3.747748-1.73512-5.38-3-.832841-.6392-1.593951-1.366782-2.27-2.17-.699166-.789346-1.233015-1.71083-1.57-2.71z" fill="#F2AA36" fill-rule="nonzero"/><path d="M520.33 157.68c-.29-.3-4-2.68-4.31-3-.304566-.268031-.594959-.551749-.87-.85-1.19-1.12-2.3-2.26-3.4-3.44-1.184547-1.211477-2.227881-2.553385-3.11-4-.290054 2.191446-.337006 4.408238-.14 6.61.16335.934725.45265 1.842994.86 2.7.639422 1.33451 1.471663 2.567709 2.47 3.66-.63 0-1.24-1-1.84-.92l-1.28-.59-1.29-.61c-.44-.18-.87-.38-1.29-.59-1.73-.76-3.94-1.84-5.64-2.65-2.061977-.870923-4.066076-1.872972-6-3-1 1 .46 3.48 1 4.35.577372.947312 1.247321 1.834995 2 2.65 1.218216 1.144932 2.559765 2.151093 4 3-10.53 2.33-13.61 7.59-16.3 12.05l-1.69 3.85c-4.55 13.1-.58 27.54 4.79 40.38 4.83 11.56-6.49 35.89.71 46.23 6.38 9.16 10.72 19.53 17.2 28.85 13.29 19.11 33.53 17.81 54 29.74 10.79 6.32 42.24 3.07 55.14-1.25 8.404722-2.8253 15.310942-8.927297 19.15-16.92 4.16-8.85 5.77-21 2.26-37.51l.82.24c1 .24 2 .44 3 .59 1 .15 2 .2 3 .21 1 .01 9-.93 10-1.12-.88-.6-8.71-3.63-9.6-4.07-.89-.44-1.79-.86-2.69-1.23-.9-.37-1.78-.75-2.67-1.1l-1.32-.54c-.45-.15-.89-.33-1.33-.52l-.23-.09c-.27-1-.57-2.1-.88-3.15 1.022606.151136 2.057916.198044 3.09.14a18.90993533 18.90993533 0 002.71-.32c.881665-.187438 1.752867-.421094 2.61-.7.84-.33 6.87-2.39 7.67-2.82.803498-.443384 1.569385-.951746 2.29-1.52-.95-.16-6.16-.19-7-.2-.84-.01-1.74 0-2.58 0-.84 0-1.68 0-2.51.1-.41 0-.82 0-1.23.05-.41.05-.82.06-1.22.06-1.35.09-2.69.12-4 .13-1.45-4.14-4.1-6.54-6.28-10.57l-.49-.89c11.56-36.31 4-47.91-17.69-61.48-13.5-8.47-40-18.13-57.19-10.23-.07-.5-.13-1-.16-1.53-.52656.652122-.923679 1.398842-1.17 2.2-1.768394.938155-3.417 2.086471-4.91 3.42l-.39-.3c-8.24-6.25-14.23-12-24.76-13.19" stroke="#534741" stroke-width="4" stroke-linecap="round"/><path d="M548.06 440.79l-.63 8.69c-.047699.448877-.330081.838701-.741727 1.023941-.411645.18524-.890681.138055-1.258273-.123941-3.06-2.42-8.91-7.46-10.24-11.52v-.11c-.42-1.41.28-1.93 1.54-1.94.674437.017811 1.344983.108335 2 .27 2.517061.683979 4.967054 1.594359 7.32 2.72 1.18.57 2.01.99 2.01.99z" stroke="#534741" stroke-width="4" fill="#F1E7D7" fill-rule="nonzero" stroke-linecap="round"/><path d="M573.57 411.86c-10.22 17.87-21.05 25.07-27.59 27.94-1.935937.914447-3.993877 1.544291-6.11 1.87-.733592-.890698-1.401992-1.833143-2-2.82-.38-.6-.78-1.28-1.17-2-1.953644-3.46614-2.840707-7.431834-2.55-11.4.370079-3.173037 1.72726-6.149739 3.88-8.51 2.131359-2.355023 4.048922-4.895041 5.73-7.59 1.044183-1.655387 1.858314-3.445131 2.42-5.32l.09-.37c.300093-1.092069.461364-2.217603.48-3.35.09-3.78-1.38-7.6-4.41-12.12 0 0-8.13-11.41-8.88-18.12a2.91992918 2.91992918 0 010-.5c-.127622-1.019218.102091-2.051157.65-2.92l3.56-4.92s.46-.52 1.28-1.33c3-3 11.09-9.81 19.15-7.82 1.898001.485148 3.664101 1.386986 5.17 2.64a57.67000169 57.67000169 0 014.88 6.32c6.69 9.93 16.91 30.23 5.42 50.32z" stroke="#534741" stroke-width="4" fill="#39B44A" fill-rule="nonzero" stroke-linecap="round"/><path d="M543.71 409.31c-.3.86-.633333 1.71-1 2.55-1.998114 4.415875-4.555753 8.556493-7.61 12.32-.35.44-.69.85-1 1.23-2 2.37-3.42 3.76-3.42 3.76-.313204.290898-.647445.558291-1 .8-.163711.122494-.333963.235995-.51.34-3.135038 1.933224-6.780947 2.874329-10.46 2.7-4.544646-.260053-8.961026-1.604169-12.88-3.92-14.48-8-20.72-16.47-20-33.85h0v-.87c.07-1.4.19-2.87.36-4.39.289208-2.76329.869083-5.488366 1.73-8.13a32.68999484 32.68999484 0 011.66-4v-.08c1.587938-3.259205 3.783977-6.184995 6.47-8.62 2.307777-2.16247 5.028964-3.836 8-4.92l3.78 3.29 1.81 1.58c1.341686 1.412034 2.845433 2.660681 4.48 3.72 5.69 3.6 10.54 2.62 13.24 1.49h.08a11.16006697 11.16006697 0 001.61-.82c.39-.24.6-.4.6-.4l8.87 11.68c8.07 7.59 7.98 16.63 5.19 24.54z" stroke="#534741" stroke-width="4" fill="#C6B198" fill-rule="nonzero" stroke-linecap="round"/><path d="M529.73 373c2.191709-1.415906 4.12326-3.198615 5.71-5.27 2.53-3.25 9.49-10.69 23-15.35 17.68-6.1 64.83-68.19 38.09-110.29-26.87-42.31-71.22-46.82-104-40.09-32.78 6.73-72.74 44.94-68 71.4 0 0-5.17 27 41.54 45.15 0 0 28.87 9.49 38.9 44.21.01 0 9.42 19.97 24.76 10.24z" stroke="#534741" stroke-width="4" fill="#FAF2E6" fill-rule="nonzero" stroke-linecap="round"/><path d="M523.12 306.45s-3.44 10.09 7 16.27M464.84 244.31l-3.75 4.16M484.24 257.06l-3.06 4.7M486.4 215.59s4.32-1.91 7.16-.22M549.59 257.64s-.39-4.72-3.23-6.4M522.03 314.74s-7.89 6.82-17.33 1.2c-9.44-5.62-10.39-6.17-21.3-1.8s-31.39-2.24-31.39-2.24" stroke="#534741" stroke-width="4" stroke-linecap="round"/><path d="M535.15 386.63c-2.534142 3.529366-5.652276 6.600153-9.22 9.08-4 2.63-5.53 6.78-3.35 8.74 1.35 1.22 6 6.36 19.47-9.24M531.55 434.16l-.17.25c-3.88 5.5-12.74 15.66-16.06 9.28-1.58-3 .51-7.09 3.37-10.68 2.55719-3.092271 5.421896-5.91677 8.55-8.43l.7 1.56 1.72 3.83 1.89 4.19z" stroke="#534741" stroke-width="4" fill="#F1E7D7" fill-rule="nonzero" stroke-linecap="round"/><path d="M546.7 400.27c-.074374 1.127269-.234842 2.247201-.48 3.35l-.09.37c-.682695 2.797543-1.835772 5.45875-3.41 7.87a32.00009267 32.00009267 0 01-2.39 3.24c-2.359628 2.625573-4.138408 5.719697-5.22 9.08-2 7 2.56 10.43 2.56 10.43.585877.69703.935947 1.561705 1 2.47-.014196.682929-.319927 1.327148-.84 1.77l-.23.19c-.68.53-1.55.35-2.48-.29-1.498398-1.206267-2.762675-2.677304-3.73-4.34-.83814-1.312929-1.583297-2.682948-2.23-4.1-.16-.35-.31-.69-.45-1-.410942-1.002121-.667201-2.060876-.76-3.14-.39-4.5 1.92-9.8 7.28-15.35 3.59-3.72 5.51-8.06 4.85-13.36-.38955-2.768903-1.266425-5.446929-2.59-7.91-1.495746-2.83657-3.271236-5.516554-5.3-8 0 0-3.67-3.9-3-8.1.180458-1.149138.663682-2.22949 1.4-3.13.679752-.834465 1.828925-1.119721 2.82-.7.123708.049402.24118.113173.35.19.539954.344968.904526.906409 1 1.54.761349 4.234232 2.758512 8.148532 5.74 11.25 4.37406 4.807486 6.611244 11.18346 6.2 17.67zM500.09 365.61c-1.403938 1.079842-2.739816 2.245396-4 3.49-2.571574 2.537134-4.752033 5.442165-6.47 8.62v.08a32.17001787 32.17001787 0 00-1.82 4.05h0c-1.532768 3.979923-2.191005 8.243118-1.93 12.5 0 .46.07.7.07.7l-.11.17h0c-1.25 1.9-12.09 18.06-5.26-8.64.38-1.48.78-2.88 1.19-4.22.83508-2.725636 1.836971-5.397344 3-8 1.421731-3.212119 3.199527-6.2545 5.3-9.07 6.29-8.27 12.43-9.16 12.43-9.16 2.58 5.41-2.4 9.48-2.4 9.48z" stroke="#534741" stroke-width="4" fill="#006837" fill-rule="nonzero" stroke-linecap="round"/><path d="M495.22 369.16c-3.28635-2.017271-6.244036-4.526414-8.77-7.44-3.14-3.6-7.45-4.57-9.1-2.19-1 1.48-5.49 6.68 11.76 17.91M485.3 413.06c-5.13 4-10.55 8.43-13.76 2.68-3.21-5.75 12.15-15.74 12.15-15.74l1.61 13.06z" stroke="#534741" stroke-width="4" fill="#F1E7D7" fill-rule="nonzero" stroke-linecap="round"/><ellipse fill="#FFC2A8" fill-rule="nonzero" transform="rotate(-59.8 452.408559 229.019849)" cx="452.408559" cy="229.019849" rx="7.12" ry="13.24"/><ellipse fill="#FFC2A8" fill-rule="nonzero" transform="rotate(-59.826 520.712 276.1236)" cx="520.712" cy="276.1236" rx="7.08287923" ry="15.6181466"/><rect stroke="#534741" stroke-width="4" fill="#7C7C7C" fill-rule="nonzero" stroke-linecap="round" transform="rotate(-23.51 456.169909 339.018457)" x="435.784909" y="306.233457" width="40.77" height="65.57" rx="5.52"/><rect fill="#F2EFED" fill-rule="nonzero" transform="rotate(-23.51 454.46528 335.120339)" x="438.25028" y="311.395339" width="32.43" height="47.45" rx="3.18"/><circle fill="#534741" fill-rule="nonzero" cx="466.87" cy="362.28" r="3.4"/><circle fill="#39B44A" fill-rule="nonzero" cx="454.65" cy="334.8" r="11.1"/><path stroke="#FFF" stroke-width="3" stroke-linecap="round" d="M449.9 337.22l4.57 2.33 3.41-9.68"/><path d="M483.69 400l1.61 13.1c-5.13 4-10.55 8.43-13.76 2.68-3.21-5.75 12.15-15.78 12.15-15.78z" fill="#A7E8E3" fill-rule="nonzero" style="mix-blend-mode:darken"/><path d="M573.57 411.86c-10.22 17.87-21.05 25.07-27.59 27.94 1.25.57 2.08 1 2.08 1l-.63 8.69c-.047699.448877-.330081.838701-.741727 1.023941-.411645.18524-.890681.138055-1.258273-.123941-3.06-2.42-8.91-7.46-10.24-11.52v-.11c-1.498398-1.206267-2.762675-2.677304-3.73-4.34-3.88 5.5-12.74 15.66-16.06 9.28-1.58-3 .51-7.09 3.37-10.68-4.544646-.260053-8.961026-1.604169-12.88-3.92-14.48-8-20.72-16.47-20-33.85-1.25 1.9-12.09 18.06-5.26-8.64.38-1.48.78-2.88 1.19-4.22 2.06-.13 4.08-.3 6-.52a.42999418.42999418 0 00.16 0c10.84-1.23 19.95-3.9 25.75-8.67l.48-.4.68-.62c6.592749-6.310936 14.975592-10.429008 24-11.79 1.686667-.28 3.386667-.48 5.1-.6 8-.61 16.25.36 24.1 1.74 6.75 9.94 16.97 30.24 5.48 50.33z" fill="#A7E8E3" fill-rule="nonzero" style="mix-blend-mode:darken"/><path d="M376.66 368.71c-.17.05-.13.26.3.33l.37-.25-.67-.08zM379.36 370c.53-.05 1.17-.19.92-.56-.57.2-.66 0-1.27.28-.44-.06-.72-.28-.62-.38-.17.05-.64-.23-.91-.08.582725.408243 1.291577.596089 2 .53.1.11-.07.15-.12.21zM421.02 378.63l-.27-.08.27.08zM447.18 382.11h-.3c.18.04.34.03.3 0zM451.64 382.83l-.26-.05c.079894.041787.170306.059174.26.05zM421.02 378.63l.68.21c.07-.1-.35-.13-.68-.21zM385.25 370.52a1.69002913 1.69002913 0 00-.39 0l.36.05c.006085-.018723.016343-.03582.03-.05zM409.5 377h-.21l-.2.1zM400.72 375.4c.19.05.31-.22.41-.32-.140892.085418-.306537.120662-.47.1-.002994.077746.017949.154538.06.22zM386.95 372.07h-.25.25zM415.79 378.11c.011071.043165.035587.081689.07.11-.006658-.044942-.032108-.084935-.07-.11zM668.5 356.42h-.13a.42999418.42999418 0 000 .16l.13-.16zM459.87 383.72c-.25.01-.13.01 0 0zM530.85 363.61c-.87.05 1.18-.77-.1-.6.14.06-.93.8.1.6zM385.5 370.61l.35.07c-.113976-.035201-.231252-.058656-.35-.07zM530.75 363h-.14zM478.96 383.68c-.059285-.048728-.1271-.086027-.2-.11 0 0 .05.06.2.11zM464.75 383.38l.35.05a2.92992 2.92992 0 00-.35-.05zM486.3 382.8c.172497.024087.347503.024087.52 0h-.08c-.144061.039095-.295939.039095-.44 0zM493.93 381.8h-.15l-.24.06zM635.3 361.27c.141417.036562.274044.101175.39.19-.19-.18.95-.46-.39-.19zM385.22 370.67c.070721-.055242.16191-.077128.25-.06h-.25s-.05.03 0 .06zM486.39 380.56l1.2-.06c-.34 0-.77.03-1.2.06zM581.43 363h.28c-.092408-.018586-.187592-.018586-.28 0zM491.1 380c.22702.06815.462979.101858.7.1.043495-.025033.08379-.055254.12-.09l-.82-.01z" fill="#E7F5F5" fill-rule="nonzero"/><path d="M643.5 359.46c-1.14.19-.47.45-.68.7-1.34.34-.67-.16-1.17-.27-.83.25-1.42.69-2.06.79 0-.06-.18-.06 0-.16-.85.45-2.66.48-3.64 1-.059095-.00695-.114789-.031316-.16-.07.158821.107715.252781.288117.25.48-.51.09-.91.38-1.14.18.31-.05.32-.15.45-.25l-.51.2c-.54-.27.71-.24.67-.5-.972523.36071-1.977002.628571-3 .8-.22-.3 1.86-.42.74-.54l1.26-.07c-1-.38.76-.09-.21-.51-1.64.17-1.79.47-3.43.63-.34.25.17.26-.17.5-2.26.7-2-.56-3.58.15-.422962.527054-1.089715.796028-1.76.71l.36-.44c-1.59.19-.82.67-2.52.66.28-.19 1.23-.31 1-.32-1.11-.14-.73.33-1.55.45l-.22-.31c-1.67.3-3.49.79-5.35 1.1.09-.12.39-.26-.06-.31-2.416542.426259-4.866162.637087-7.32.63l-.83.37c-.21 0-.39-.1-.18-.17-.89 0 0 .19-.44.34-.44.15-.68-.1-.37-.22a26.35014956 26.35014956 0 01-3 .59c-1.023754.141179-2.059764.171354-3.09.09l.32-.11c-1.28 0-1.41.66-2.59.41l.22-.05c-2.73-.14-5.82-.26-7.86-1-.46.37-2.68-.62-3-.08-1.03771-.489762-2.114857-.891183-3.22-1.2-.59-.15-1 .19-1.69.1v-.31l-1.06.12-.45-.47-.7-.06c.27.07.55.25.49.33-.918798-.071579-1.802169-.38559-2.56-.91l-2.58-.27c.08-.11.51-.07.86-.07-1.42 0-.18-.37-1.48-.35.15.11-.12.16-.17.22-.962156-.378609-1.971459-.624206-3-.73l.24-.17c-1.88-.43-4-.68-6.14-1.05.75.23.51.56-.13.49l-.19-.36c-.44.13.63.23-.24.33-.79-.17-.48-.45 0-.48l-1-.05c0-.1.2-.12.28-.23-.43.13-1.64-.59-2.27-.33v-.11c-2.15-.31-3.15-.32-4.91-.5-.07.27-.75.14-1.3.31a32.86001687 32.86001687 0 00-4.28-.61c-1.11.09-.34.22-.84.37-.07-.27-1.64-.3-.82-.45-1.60736-.039234-3.215369.044342-4.81.25.27.09.56.14.41.23-.43 0-1-.08-.93-.2h.11c-1.450731.16161-2.910717.225088-4.37.19-1.349765-.10271-2.706795.049956-4 .45h.11c-.72.21-1.43.45-2.13.7-1 .17.56-.32-.22-.31-2.25 1-3.72.88-5.52 1.8-1.211328.046151-2.392705.389574-3.44 1-1.172316.640971-2.384845 1.205482-3.63 1.69l.19.09c-.39.42-.63.22-1 .4.12.08.59-.16.35.09-1.93 1.23-3.9 2.5-5.81 3.91-1 .7-1.9 1.43-2.81 2.2-.47.38-.84.7-1.28 1l-1.32.92c-1.31.83-.21 1.3-2.17 2 .12-.19.22-.38.33-.58-1.330248.964891-2.783003 1.748437-4.32 2.33-1.54.61-3.12 1.11-4.61 1.74.16-.13.14-.23.44-.32-.860153.05584-1.687749.350174-2.39.85-.49.1-.16-.14-.48-.17-.69 0-1.6.7-2 .53-.07 0 .17-.11.29-.16-.41.22-2 .4-1.57.58-1.21.11-2.27.53-3.25.53-.59.4-2.09.15-2.23.61 0-.3-.89-.26-1.74-.1h-.14.12s.06-.06.08.15c.060339.300333.060339.609667 0 .91l-1.27.18 1.09-1.22c-.339141.048768-.673631.125701-1 .23.24-.15-.68-.08-.4-.29-.88.08-1.67.23-1.5.45-1.66-.41-3.23.74-4.19 0-2.61.33-5 .61-7.4.77.08-.42 2.61-.13 2.5-.59-1.896952.369634-3.827729.537236-5.76.5-.58-.07.33-.19.52-.27-2.24.15-4.33-.05-6.34.11 0 0 .23-.08.43-.1-.39 0-.91-.11-.87.09h.38c.62.32-1.59.54-1.66.7.69-.56-2-.24-.88-.94-.26 0-.59.11-.54.25-.38-.06-.5-.14-.1-.28-1.41.05-.93.29-2.2.22 0-.1.27-.12.4-.23-.775267.22624-1.588726.290908-2.39.19.07-.06-.05-.14.27-.13-1.85-.07-3.19.28-5.22-.06.64-.38-.68-.19-.75-.57h-1.11l.43.22c-.880588.03374-1.762437.010358-2.64-.07l.72-.09c-.6 0-1.2-.03-1.8-.09l1 .24c-1 .1.06.48-1.21.25a9.70006399 9.70006399 0 01-1.43-.38c-.554115.114817-1.125885.114817-1.68 0-.17-.14.19-.4.08-.49-.5.26-2.25-.15-2.88.12.21-.06.24-.25.18-.3l-.42.21c-.43-.12-.5-.17-.41-.32-1.32-.18.37.52-1.18.15.12 0 .07 0 .33-.06-1.57-.29-3.08-.23-4.52-.53-.39-.43 1.28.07.83-.31-2.11-.2-4.41-.08-6.42-.47l.37.1c-.35.48-1.47-.48-2.53-.38.25 0 .37-.25.29-.2-1.656082-.247352-3.326003-.390965-5-.43l.28-.09c-.8-.23-2.14-.41-3-.61-.28.09-.79 0-.51.23-2.59-1.22-5.26-.41-7.55-1.5.29.05.7 0 .47 0l-2.07-.24c.13.25.25.18.65.44-.458909.090555-.931091.090555-1.39 0 .95 0 .06-.36-.32-.56.06.08-.09.13-.07.21-1-.59-.27.43-1.68-.11l.1-.1c-.558819.012534-1.117653-.024275-1.67-.11-.2-.31.6 0 .68-.23-.83-.13-1.73.19-2.43-.21.37 0 .87.09 1.24.08-.443208-.286592-.93985-.480487-1.46-.57h.06l-1.38-.41.34.15c-1.16.49-2.13-.27-3.61-.09 1.44-.17.27-.2.44-.48-.34-.15-.86-.35-.69-.41-.71.11-1.06-.41-2.06-.25 0-.1-.7-.15-.5-.36-.87-.1.17.21.07.32-1.38.05-3-1-5-1-1.66-.16-2 .09-3.58-.07-.48-.26.49-.26.49-.26-.705203-.282153-1.451628-.447649-2.21-.49.17 0 0-.16-.19-.32-.62-.11-.49.26-1.28-.06.219304-.126232.459988-.21098.71-.25-.75-.07-1.52-.06-2.29-.14-.17-.21.51-.15.8-.2-.838307-.197192-1.7044-.24794-2.56-.15l.52.22c-.31-.06-.1-.27.14-.26.77 0 1 .33 1 .44l-.56-.06c.43.69 2.19.39 3.27.67l-.54.31 1.19-.09c.21.16.32.42-.23.36.74.37.73 0 1.35.38.06.05 0 .07-.05.07h.79c-.16.05.07.31-.39.15 1.32.53 2.28.17 2.73.59h-.12c1.93.27.25-.26 1.75-.3l.8.93.25-.26c.2 0 .58.16.48.26.78-.06-.09-.15.37-.26.89.46 2.64.4 2.75.92.39-.16-.87-.36.18-.31.18.57 1.18.15 2 .56-.32.21-1.11-.1-.29.32.61-.35 1.67.42 2.41.47.11-.35 1.62.16 2.87.27a28.64996108 28.64996108 0 003.4 1l-.05.05c.29-.32 1.46 0 2.33 0-.07.21-.24.27-.73.28l.81.14c.329263-.073669.670737-.073669 1 0l-.25.23a21.4800005 21.4800005 0 013.57.49c.12-.24-1-.89.51-.81 0 .14.05.38-.34.38.238325-.02569.479366-.005321.71.06l-.63.13c.62.2.37-.14.87 0-.05.19.35.2.25.34-.1.14-.43-.15-.63-.11.504521.09519.98849.277947 1.43.54 0-.12 0-.26.47-.22 1.08.16.33.3.94.5.28-.09.95.16 1-.13.32.05.36.2.47.3.57 0 2.61.39 2 0h-.14.09c1.88 0 3.78.73 5.62.87v.1c1.075092.129597 2.157129.19305 3.24.19.32.05.73.28.58.38.71918-.042688 1.44025.041944 2.13.25-.86.06.27.19-.88 0 .80346.27232 1.655536.371161 2.5.29-.43.2.77.41 1.29.41l-.73-.28c.536689.041488 1.070782.111588 1.6.21l-.32.29c2.17.7 4.07-.2 5.69.65.61-.17-1.19-.29-.63-.51a17.33014022 17.33014022 0 012.35.78c1.38.33 1.35-.35 2.81-.07-.18-.14-.33-.47.78-.47s1.21.6.55.65c-.24 0-.36-.06-.34-.1-.34 0-.78 0-.38.18l.14-.1c.49.18 1.91.27 1.56.44.79-.05.35-.17-.22-.27 1.3.27 2 .16 3.4.38-.21-.08-.4-.23-.18-.21 2 .3.89-.16 2.24-.11.75.24-.31.41 1.06.37.81.19.15.33-.19.4 1.01293-.00457 2.021906.126597 3 .39l-.66.06a6.0000368 6.0000368 0 011 0l-.36-.26c.38.06.71.08.69.18.41-.14-.28-.41.52-.59.5.15 1.56-.05 1.72.27-1.6-.18.16.33-1.2.31.334131-.023655.669895-.006866 1 .05.06 0 0 .07-.16.08 1.53.35.72-.32 2.32-.24-.21.17.35.35.61.33-.64 0-.29-.31.3-.42.547079.080169 1.102921.080169 1.65 0l-.61-.09c.21-.18.72-.11 1.43-.17.06.14-.64.09-.39.15.8-.3 1.78.34 2.88.15.51.12.05.33.5.42 1.24-.22 1.34.25 2.64.07-.38-.24-.44-.18.47-.4l-2.13.14 1.37-.33c-.64 0-1.36.14-1.75.09.66-.19.59-.13.28-.33.88.37 1.75-.19 2.77.06v.59c1.54.31 2.72-.35 4.72-.26l-.65-.08c.26-.24 1.23-.07 1.87-.19-.05.2.36.25.64.37 0-.15 1.46 0 1.62-.44l.9.23c1.62 0 1.8-.71 3.34-.76-.45.25.27.33-.75.57.51 0 1 0 1-.18.31.1 1.4-.39 1.89-.24.225525-.218905.525762-.344004.84-.35.06 0 0 .09 0 .09s.14-.08.28-.12l.53-.19-.08-.32-.61.5a1.57994576 1.57994576 0 00.35-.06c.09-.05.12-.1 0-.15h-.11.08c1.66.4 4.35-.63 5.78-.36l3.42-.82c-.05.07 0 .1-.17.12 1.43-.12.72-.75 2.33-.92.87.11-.79.37-.26.37.38.58 1.86-.57 3-.54l-.25.11c.87 0 1.88-.84 3.17-1.27v.09c1.119479-.750511 2.277754-1.441471 3.47-2.07-.26.4-.48.38-.14.5.51-.29-.33-.29.68-.88.39-.05 1.19-.35 1.43-.16l-1 .54c.67.05 1.26-.7 1.79-1v.18c1.43-1 1.23-1.31 2.69-2.41h-.22c.53-.92.8-.37 1.34-1.26l.49.09 1-1.18c.41-.48.88-1 1.3-1.39a28.29012146 28.29012146 0 01-1.73 2.31c.637891-.531088 1.214767-1.131442 1.72-1.79-.159223.227514-.35524.426911-.58.59.523229-.906044 1.244546-1.682059 2.11-2.27.14.37.83-.07 1.63-.6.671439-.527136 1.45487-.893193 2.29-1.07 1.76-1.38 3.9-2 6.25-3-1.06-.21.69-.3.33-.8.264074-.13997.547002-.241016.84-.3.62-.1 1.24-.15 1.86-.23.46 0-.51.31-.41.42 1.26-.36.6.08 1.47 0-.23-.15.35-.43 1.09-.54h-1.09c1.7-.79 1.65.07 3.38-.63l-.53.31c.45-.16 1.3-.34 2.15-.53.74413-.103729 1.466709-.32658 2.14-.66.18.05.42.19 0 .28 1.13-.08 2.36-.39 3.56-.6 1.067047-.205888 2.157859-.259755 3.24-.16l-.17.15c.42-.05.74-.3 1.27-.15 0 .06-.17.15 0 .16.553301-.150414 1.128351-.204536 1.7-.16l-.49.15c2.22.24 3.44-.29 5.33-.26 0 .43 1.71.72 2.57.88v.06c2.58.33 4.44.16 6.87.36 1.41.7 5 1 7.33 1.79-.35-.15.13-.33.56-.29.54.2 1.61 0 1.44.39h-.2c.34.47 1.51.6 2.41.79l.21-.61c2.19 1.24 6.22 1 7.37 1.93.6 0 1.3.13 1.89.11l-.08.27c1.432028.363717 2.884657.640885 4.35.83l-.44.13c1.12.2 1.54-.59 2.57-.44l.25.46c2 .27 3.94.84 6 .54 0 .06-.1.18-.43.18.93.09 3.7.31 3.32-.27 0 .38 2-.09 3.08-.32l-.14.29c.649706-.383078 1.371378-.628174 2.12-.72.3 0 .28.2-.12.17 1 .05.75-.34 2-.3l-.43.22c.518452.014839 1.028684-.13194 1.46-.42.690892-.177396 1.419201-.142549 2.09.1.344967-.300307.793289-.454529 1.25-.43.09.08-.12.17-.23.21 1.71 0 2.47-.6 3.65-.49.04126.084246.126209.138304.22.14-.76879.119083-1.543113.199185-2.32.24 0 .26 1.12.18.3.63 1.066125-.457672 2.189895-.767214 3.34-.92.055575.008805.107554.033061.15.07h-.1c.222104-.00931.441401-.053169.65-.13.292979.020382.587021.020382.88 0 .16.19 1.26 0 1.79-.11-.08-.27.63-.33-.06-.47.09 0-.1.06-.45.11l-.23.06-1.34.2c.438888-.252295.947031-.357428 1.45-.3.25-.22.53-.44.69-.56.78.29 2.22.29 2.46.5 1.61-.39 3.83-.67 4.78-1.36.45-.14.56.07.74.12-.243008.059847-.48052.140133-.71.24.91-.28 2.74-.48 2.9-.88 1.2 0-.6.44 1 .12l-.2.15c3.25.06 5-1.77 8.59-1.63-.25 0-.37 0-.43-.05 4-.35 8.14-1.75 12.16-1.95.668218-.048028 1.310963-.276098 1.86-.66l.29.25 1.1-.56c1.6-.56 3 .18 5-.69l-.31-.15c.76-.1 2.35-.57 2.27-.32.123272-.158.321578-.238085.52-.21l.05.15 1.79-.62c1.44-.17-.11.66 2 .27.76-.21 2.11-.89 1.8-.94-.31-.05-.82.07-.87-.08l.69-.23c0-.48.48-1-1.31-1l-1.15.52-.44-.15 1-.21c-.47158-.055605-.946028.077384-1.32.37-.164028-.112553-.361674-.165494-.56-.15l-1.1.67c-.18-.15.46-.46-.35-.4-.52.31.61.3-.28.61-.62-.09-.49-.3-1.13 0-.12-.1 0-.2.27-.3-.58.26-1.58.37-1.85.67-.65-.14-2 .46-2 0-.479247.301505-1.002029.527482-1.55.67.92-.71-2.08.36-1.92-.25-.66.61-2.67.72-4 1.22.092929-.08125.20768-.133409.33-.15a7.38994099 7.38994099 0 01-1.5 0c0 .4-1.18.7-1.76 1.05-1-.2.47-.55.12-.85.1.3-1.54.59-1.18.8-.74-.11-.63 0-1-.26 0 .5-.64.2-1.17.6-1.06-.06-.35-.41-1.44-.06-.69-.08.31-.42.31-.42zm-26.5 5l.55-.09-.55.09zm-2.25.3c.28 0 .62-.07 1-.12.09.09 0 .2-.21.23.04-.08-.49-.06-.84-.1l.05-.01zm5 1.3c-.36.09-.48.05-.54 0l.62-.12c-.02636.051097-.063971.095546-.11.13l.03-.01z" fill="#E7F5F5" fill-rule="nonzero"/><path d="M620.31 365.62a1.27006652 1.27006652 0 01.14 0h-.22l-.11.1.19-.1zM420.71 378.53l-.09-.06zM583.93 363.37l-.01.07.21-.02zM408.5 375.5c-.040091-.046223-.091913-.080771-.15-.1.042743.04311.093767.077126.15.1zM403.25 374.46l-.73-.24c.238519.093962.482257.174095.73.24zM399.2 373.55c-.042621.022533-.077467.057379-.1.1l.1-.1zM464.5 381.49h.16c.4-.05.14-.04-.16 0zM444.93 380.8c.21 0 .42-.06.64-.07-.34-.05-.61-.09-.64.07zM486.26 380.57h.13zM446.5 380.83c-.296431-.079692-.603337-.113418-.91-.1.298507.06805.603839.101603.91.1zM381.65 369.68l-.19-.06.19.06zM381.43 369.66h-.23c.1.01.19.03.23 0zM380.73 369.61h.47c-.153628-.043641-.316372-.043641-.47 0zM386.98 371l.08-.08c-.039388.009858-.070142.040612-.08.08zM388.61 371.33c-.477122-.20376-.972737-.361152-1.48-.47l-.07.07c.29-.1 1.15.49 1.55.4zM395.18 374l-1.36-.36c.22.16.51.37-.12.26 1.66.66-.31-.32 1.48.1zM399.41 375c-.75-.09 0 .16-.08.21.49-.01.61-.01.08-.21zM430.38 380.17l-.11.24c.58.04.02-.09.11-.24zM436.49 379.61l-.54-.23-.29.2zM439.8 381.84l-.26.01.98.01zM492.61 382.27l-.22-.29c-.38.12-.41.49.22.29zM513.97 373.9c.45211-.100053.842877-.382273 1.08-.78-.4.35-.9.59-1.08.78zM577.52 364.63l-.47.01.86.09z" fill="#E7F5F5" fill-rule="nonzero"/><circle fill="#CCF2EF" fill-rule="nonzero" cx="477.96" cy="451.52" r="5.36"/><circle fill="#CCF2EF" fill-rule="nonzero" cx="436.98" cy="441.97" r="6.34"/><circle fill="#CCF2EF" fill-rule="nonzero" cx="605.32" cy="435.58" r="6.58"/><circle fill="#B9EFEC" fill-rule="nonzero" cx="654.68" cy="411.55" r="8.94"/><text fill="#056777" fill-rule="nonzero" font-family="MicrosoftJhengHeiBold, Microsoft JhengHei" font-size="40" font-weight="bold"><tspan x="49.5" y="43">國泰產險會員服務</tspan></text><text fill="#056777" fill-rule="nonzero" font-family="MicrosoftJhengHeiRegular, Microsoft JhengHei" font-size="36"><tspan x="48.96" y="94.51">看保單、理賠進度，快速又方便</tspan></text><path d="M718.5 128.9v25.86c-1.781718-11.012269-2.93691-22.116797-3.46-33.26.875223.386432 1.485501 1.201398 1.61 2.15.64 1.74 1.256667 3.49 1.85 5.25zM718.5 200.39v3.74l-4.48-2.25c-.083405-.058414-.174199-.105493-.27-.14-.89-.34-2.15.08-2.52-1.28l-15.44-7.88c-1.43.36-2.17-.53-2.85-1.54l-16.56-8.33c-.72-.4-1.87 0-2.17-1.19l-16.09-8.13c-1.209777.347738-2.47788-.323871-2.87-1.52-5.213333-2.626667-10.426667-5.256667-15.64-7.89a9.40003126 9.40003126 0 00-.88-.34c-1.231794.092585-2.439907-.373769-3.29-1.27-.09-.8-.8-.89-1.35-1.17l-18.17-9.32c-2.442213.054508-4.747243-1.126208-6.13-3.14-1.71-.86-3.5-1.6-5.13-2.59-4.06-2.47-8.74-3.25-13.08-4.94-11-4.27-21.38-9.51-30.65-16.84-.379359-.289904-.695775-.653952-.93-1.07 2.961711.494891 5.868589 1.275193 8.68 2.33 10.610004 3.978555 20.686642 9.255354 30 15.71 4.18 2.87 9 4.75 13.71 6.83.3.13.66.69.82-.12-9.47-7.64-16.44-17-20.09-29 1.591469.576395 3.057866 1.452159 4.32 2.58 9.23 7.41 16.07 16.51 19.61 27.92.153572.753028.643663 1.3942 1.33 1.74 6.16 3 12.3 6 18.45 9 .557509.217396 1.128749.397788 1.71.54-10.18-12.26-17.12-25.76-19.57-41.35 5.5 5.05 9.52 11.13 12.92 17.63 4 7.6 7.15 15.5 8.49 24 .011478.514957.302845.982677.76 1.22l17 8.4c-10.51-16.37-17.5-33.47-19.85-52.29 5.06 6 8.6 12.79 11.73 19.84 4.57 10.3 8.16 20.91 9.65 32.14-.012276.652309.35422 1.252738.94 1.54 5.07 2.46 10.11 5 15.18 7.43.419364.161253.855386.27529 1.3.34.67.13.76 1 1.42 1.15 5 2.41 10 4.81 15 7.24.678764.408824 1.448513.642498 2.24.68-10.25-21.3-17.19-43.44-19.46-66.92 3.330044 5.234644 6.09233 10.809502 8.24 16.63 6.39 16.31 11.19 33.05 13.13 50.52-.014474.697286.375157 1.340178 1 1.65l14.31 7c.242022.061567.490317.09512.74.1-10.18-25-16.84-50.68-18.77-77.55.955773.86831 1.648707 1.987399 2 3.23 9.820257 23.476544 15.972143 48.323553 18.24 73.67-.05673 1.089219.604831 2.087649 1.63 2.46.6.3 1.14.55 1.69.8zM677.5 231.79c13.208013-7.15359 26.909444-13.355994 41-18.56v5.06c-18.374266 11.067659-37.874036 20.148779-58.17 27.09-2.41.84-4.88 1.51-7.36 2.26-.26-1 .49-1.09.88-1.38 7.538013-5.366276 15.440448-10.201297 23.65-14.47z" fill="#30B24F" fill-rule="nonzero"/><path d="M711.21 200.46l2.81 1.42c-.756935-.19315-1.560463-.002546-2.15.51-21.021096 12.805952-43.797446 22.477731-67.61 28.71-1.59.42-3.2.72-5.08 1.13.636052-.841883 1.45722-1.52619 2.4-2 10.065924-6.299363 20.619575-11.783517 31.56-16.4 11.858551-5.255505 24.121636-9.54608 36.67-12.83.478903-.146511.946755-.326968 1.4-.54zM692.92 191l2.85 1.54c-8.085583 4.858164-16.597527 8.968532-25.43 12.28-12.008408 4.893009-24.501486 8.499811-37.27 10.76-1.046206.300993-2.146765.362515-3.22.18 1.21961-1.143088 2.601142-2.100052 4.1-2.84 18.091848-9.896638 37.564812-17.025826 57.77-21.15.43-.05 1.32.31 1.2-.77zM678.42 257.19c12.574051-9.693896 25.987122-18.24774 40.08-25.56v8.08c-4 2.35-8 4.68-12.1 6.83-9.426902 5.107559-19.204865 9.538721-29.26 13.26-.676516.279251-1.412776.382465-2.14.3 1.14-.97 2.24-2 3.42-2.91zM678.5 180.93c-.76 0-1.08-.61-1.42-1.15-9.77-16.45-20.48-50.43-18.08-57.42.8.21 1 1 1.31 1.55 9.6017 16.831359 15.518928 35.510165 17.36 54.8.08.85.07 1.65.83 2.22zM674.19 181.52l2.17 1.19c-.92-.08-1.54.56-2.24 1-16.26563 9.642292-34.345937 15.824525-53.11 18.16-.735894.230982-1.531669.177454-2.23-.15 3.831389-2.614617 7.871729-4.909048 12.08-6.86 13.313195-6.407956 27.527131-10.744639 42.15-12.86.49 0 .9 0 1.18-.48zM655.23 171.87l2.87 1.52c-12.82 7-26.61 11.06-41 13.35-4.529121.781976-9.12655 1.09696-13.72.94 3.072115-1.981996 6.318954-3.679055 9.7-5.07 12.869971-5.547902 26.534603-9.030712 40.49-10.32.6-.05 1.2.04 1.66-.42zM635.42 162.37c1.38-.32 2.27.64 3.29 1.27-4.326012 2.387123-8.949716 4.189527-13.75 5.36-9.384723 2.678967-19.162798 3.710909-28.9 3.05-.950703-.036367-1.889363-.22545-2.78-.56.961729-.917741 2.121616-1.60204 3.39-2 11.911304-5.212836 24.834327-7.706573 37.83-7.3.310752.03681.618289.09698.92.18zM609.77 148.74l6.13 3.14c-12.44 4.25-29 4-38.29-.55.458171-.531189 1.088-.885026 1.78-1 8.44-2.86 17.08-3.17 25.85-2.07 1.480364.369698 3.005032.531252 4.53.48zM718.5 253.53v7.66c-6.38 3.23-12.67 6.63-19.34 9.27-.661543.384267-1.405809.603774-2.17.64-.15-.62.37-.8.66-1.07 6.545072-5.993179 13.513079-11.50743 20.85-16.5zM613.19 148.05c.28.22.7.28.78.77-.615558.125232-1.246178-.130957-1.6-.65l.82-.12zM615.41 149.73c.179011-.060095.374586-.046405.543479.038042.168894.084446.29719.232693.356521.411958-.44.11-.81.06-.9-.45z" fill="#30B24F" fill-rule="nonzero"/><circle fill="#B9EFEC" fill-rule="nonzero" cx="9.47" cy="404.25" r="9.47"/><circle fill="#CCF2EF" fill-rule="nonzero" cx="261.9" cy="408.34" r="6.34"/><path d="M125.5 361.36c-.037275.112291-.080674.222456-.13.33-.736555 1.661702-2.617177 2.489349-4.34 1.91-4.02761-1.151242-8.252027-1.444225-12.4-.86-.47.07-.94.16-1.42.26-.862961.183252-1.714425.416987-2.55.7-.42.13-.83.28-1.24.45-2.674423 1.07844-5.0881036 2.714834-7.08 4.8h0s0 0 0 0c-.34.35-.67.71-1 1.1-3.72 4.45-7.08 7.22-10.06 8.81-1.3685092.763136-2.8455352 1.312806-4.38 1.63-2.9041712.612996-5.9326792.009463-8.38-1.67-1.0197885-.702718-1.9012023-1.587521-2.6-2.61-1.7794214-2.46005-2.5877869-5.49053-2.27-8.51.31-2.51 1.84-7.08 8.65-9.5 1.1988988-.453573 2.5493316-.223604 3.5305283.601223.9811966.824827 1.4398503 2.115638 1.1990896 3.374653-.2407608 1.259016-1.1433185 2.289523-2.3596179 2.694124-2.46.87-3.8 2.12-4 3.69-.1066458 1.643295.5368226 3.246451 1.75 4.36 3.87 2.57 9.47-2.62 13.49-7.42 1.6110603-1.942965 3.478057-3.658584 5.55-5.1h0a26.42993074 26.42993074 0 013.62-2.12c3.449911-1.648337 7.184121-2.619231 11-2.86 2.977398-.196414 5.967542-.045397 8.91.45 1.44894.229558 2.879349.563766 4.28 1 .893553.296302 1.631735.937246 2.050487 1.780382.418751.843136.483377 1.818608.179513 2.709618h0zM149.31 309.41s21.51 11.43 19.56 19.54c-2.09 8.67-23.45-2.32-23.45-2.32" stroke="#534741" stroke-width="4" fill="#A57C52" fill-rule="nonzero" stroke-linecap="round"/><path d="M91.13 340.73c4.22 21.47 21.53 32.35 39.55 28.81 19.71-3.88 29.94-20.17 25.72-41.64-4.22-21.47-22.25-36-40.28-32.45-18.03 3.55-29.21 23.81-24.99 45.28z" stroke="#534741" stroke-width="4" fill="#A57C52" fill-rule="nonzero" stroke-linecap="round"/><path d="M117.29 367.43s1.62 18.09-8.26 17.74c-9.88-.35-5-24.92-5-24.92M143.97 362.09s6.17 17.08 15 12.6c8.83-4.48-4.68-26.63-4.68-26.63" stroke="#534741" stroke-width="4" fill="#A57C52" fill-rule="nonzero" stroke-linecap="round"/><path d="M148.87 344.91s-3.47-14.17-3.35-17.13c.18-4.46-.51-7.46-9.22-3-8.73 3.37-17.41-1-19.26 6.23-1 9-2.23 12.22 1.34 22.76 1.25 6.6 6.78 10.2 16.83 7.34 11.58-3.27 13.86-10.83 13.66-16.2z" fill="#E8D7C5" fill-rule="nonzero"/><path d="M179.91 223.18c2.1-4.08 6.7-8.64 10.87-9.46 10.81-2.12 16.06 6.89 16.62 18.43.54 11.24-7.93 24.47-16.52 26.16-2.385915.589229-4.856741.755079-7.3.49" stroke="#534741" stroke-width="4" fill="#A57C52" fill-rule="nonzero" stroke-linecap="round"/><path d="M191.22 226.35s4.95-1 6.7 4.76-4.52 11.32-4.52 11.32" stroke="#534741" stroke-width="4" fill="#754C24" fill-rule="nonzero" stroke-linecap="round"/><path d="M192.96 222.16s-6.58 8.93 2.6 24.4" stroke="#534741" stroke-width="4" stroke-linecap="round"/><circle stroke="#534741" stroke-width="4" fill="#A57C52" fill-rule="nonzero" stroke-linecap="round" cx="111.75" cy="245.71" r="76.43"/><path d="M86.06 283.44c-13.88-9.45-37.44-39.49-6.1-64.87 31.34-25.38 58.34-5.84 58.34-5.84 3.19-23.12 29.47-19 29.47-19h0c9.693467 10.398567 16.276094 23.307443 19 37.26 5.58 28.36 3.53 48-7.59 62.63-9.53 12.58-25.39 21.74-52.66 27.1-15.341259 3.043707-31.2479969 1.280172-45.55-5.05-18.61-22.8 5.09-32.23 5.09-32.23z" stroke="#534741" stroke-width="4" fill="#E8D7C5" fill-rule="nonzero" stroke-linecap="round"/><path d="M48.02 253.64c-3.49-3-9.46-5.46-13.64-4.64-10.8 2.12-12.25 12.45-8.4 23.34C29.73 283 42.57 292 51.17 290.3c2.4307444-.351923 4.780191-1.130558 6.94-2.3" stroke="#534741" stroke-width="4" fill="#A57C52" fill-rule="nonzero" stroke-linecap="round"/><path d="M46.63 260.2s-4.84 1.44-3.68 7.35c1.16 5.91 9.31 7.86 9.31 7.86" stroke="#534741" stroke-width="4" fill="#754C24" fill-rule="nonzero" stroke-linecap="round"/><path d="M43.12 257.31s10 4.81 9.16 22.78" stroke="#534741" stroke-width="4" stroke-linecap="round"/><path d="M118.34 183.85s13.84-13 6.62-37.85c0 0-11.91 19.69-28 24.71" stroke="#534741" stroke-width="4" fill="#A57C52" fill-rule="nonzero" stroke-linecap="round"/><path d="M93.5 180.3s8.66-9.67 3.85-27c0 0-15 20-30.81 30.77" stroke="#534741" stroke-width="4" fill="#A57C52" fill-rule="nonzero" stroke-linecap="round"/><path d="M170.42 232.14s-7.48-2.7-14.06 0M104.14 255.69s3.89-6.95 10.61-9.23" stroke="#534741" stroke-width="4" stroke-linecap="round"/><path fill="#534741" fill-rule="nonzero" d="M150.15 262l-8.73 2.96 6.89 2.88z"/><path d="M150.08 281c.438788 1.584213-.046416 3.280735-1.256503 4.39337s-2.941289 1.454027-4.48318.884081c-1.541891-.569947-2.634832-1.955258-2.830317-3.587451" stroke="#534741" stroke-width="4" stroke-linecap="round"/><path d="M150.08 281c.189319 1.63595 1.2803 3.027437 2.823824 3.601637 1.543525.574199 3.278683.234052 4.491173-.880417 1.212491-1.114469 1.697359-2.814874 1.255003-4.40122" stroke="#534741" stroke-width="4" stroke-linecap="round"/><ellipse fill="#FAA5A5" fill-rule="nonzero" transform="rotate(-10.58 183.652301 255.755289)" cx="183.652301" cy="255.755289" rx="14.66" ry="5.51"/><ellipse fill="#FAA5A5" fill-rule="nonzero" transform="rotate(-10.58 104.078206 272.765818)" cx="104.078206" cy="272.765818" rx="14.66" ry="5.51"/><path d="M226.63 372c-2.297911 7.054015-5.803318 13.655414-10.36 19.51-.92 1.18-1.87 2.313333-2.85 3.4-.44.49-.88 1-1.33 1.43-.45.43-.74.77-1.11 1.14l-.48.52c-1 .94-2 1.85-3 2.72-.46.41-.93.8-1.41 1.19l-.42.34-1.37 1.07-1.27.94c-2.164248 1.562737-4.42177 2.992056-6.76 4.28l-.77.46c-1.16.62-2.34 1.21-3.53 1.77-.49.23-1 .46-1.49.67-.67.3-1.33.58-2 .86-.67.28-1.22.48-1.83.7-.103194.04871-.210222.088846-.32.12l-1.47.53-2.09.68c-4.405333 1.362001-8.923162 2.329151-13.5 2.89h-1.2l-.66.06-.89.08-1.11.1c-5.689459.437599-11.409605.256539-17.06-.54-2.066667-.293333-4.11-.66-6.13-1.1-1-.22-2-.47-3-.73-2-.53-3.93-1.13-5.83-1.81-.95-.34-1.88-.69-2.8-1.07-5.839132-2.316408-11.270865-5.550466-16.09-9.58-.7-.59-1.38-1.2-2-1.83-.33-.31-.66-.63-1-1-.34-.37-.63-.64-.94-1-.31-.36-.62-.66-.92-1-.3-.34-.6-.68-.89-1-1.458754-1.72471-2.795336-3.549144-4-5.46-.49-.77-1-1.56-1.41-2.36-.22-.37-.43-.75-.64-1.14l-.09-.16c-.29-.55-.58-1.1-.85-1.66l-.16-.32c-.06-.13-.13-.25-.19-.37-.16-.34-.32-.69-.47-1l-.12-.25-.46-1.08c-.09-.2-.17-.41-.26-.62l-.23-.57c-.1133333-.246667-.2133333-.496667-.3-.75a2.30997937 2.30997937 0 01-.1-.28l-.07-.18a.5800093.5800093 0 00-.05-.14s0-.09-.05-.13l-.36-1-.12-.34-.12-.4a3.52003105 3.52003105 0 01-.15-.42 1.53999576 1.53999576 0 000-.17c-.13-.41-.26-.82-.38-1.24a2.50000906 2.50000906 0 01-.07-.26c-.11-.35-.21-.71-.31-1.06v-.16c-.16-.57-.3-1.14-.43-1.71 0-.19-.1-.38-.14-.57a1.17001152 1.17001152 0 01-.05-.2c-.09-.37-.17-.74-.25-1.12a1.41999125 1.41999125 0 000-.2 2.21000166 2.21000166 0 00-.05-.25c-.07-.33-.13-.66-.19-1-.06-.34-.16-.8-.22-1.2a.27999832.27999832 0 010-.09c-.07-.44-.14-.87-.2-1.3v-.14c-.06-.39-.11-.78-.16-1.17 0-.23-.06-.45-.08-.68a5.31997957 5.31997957 0 01-.06-.56v-.38c0-.31-.07-.61-.09-.92a2.639977 2.639977 0 000-.29l-.06-.74v-.47V361.7l-.06-1.22v-.77-1.88V355.51v-.6-.57c0-.19 0-.51.05-.77s0-.31 0-.46c0-.36 0-.73.08-1.1.08-.37.07-.74.11-1.11.11-1.18.25-2.37.44-3.55l.18-1.16c.6376819-3.834034 1.5977546-7.60742 2.87-11.28 1.511911-4.410819 3.482713-8.650723 5.88-12.65l.18-.3c.84-1.386667 1.736667-2.74 2.69-4.06.17-.25.35-.49.53-.73l.18-.24.65-.85.28-.35.08-.1.06-.07c.081108-.111065.16789-.217874.26-.32.29-.37.59-.74.9-1.1.413333-.493333.833333-.973333 1.26-1.44.38-.43.76-.85 1.16-1.26 1-1.06 2.046667-2.083333 3.14-3.07.42-.39.84-.76 1.28-1.13.93-.81 1.9-1.59 2.9-2.34.23-.18.47-.36.72-.53.25-.17.73-.54 1.1-.79.54-.39 1.1-.76 1.66-1.12 1.08-.71 2.19-1.38 3.33-2l.29-.16c.48-.27 1-.53 1.46-.79l.41-.21c.48-.24 1-.49 1.47-.72l.46-.22 1.52-.69.28-.12h.08c.58-.25 1.17-.5 1.77-.73l1.5-.57 1.36-.46c.87-.29 1.79-.56 2.73-.82l.87-.23c.59-.16 1.18-.3 1.79-.45l1.68-.37.93-.19.93-.18 1.91-.34c2.51-.43 5.12-.76 7.78-1l.54-.05 1.68-.12c.92-.06 1.86-.11 2.79-.14.93-.03 1.79-.06 2.68-.07h5.38c.96.04 1.91.1 2.85.18 2.386946.170099 4.763468.463827 7.12.88 1 .17 1.93.36 2.86.58.31.06.61.13.91.21l1.39.37.36.1 1.2.36c.526667.16 1.056667.33 1.59.51.64.22 1.27.44 1.9.68.63.24 1.07.41 1.6.63.92.38 1.82.78 2.71 1.2l1.26.61c.42.21.84.42 1.25.64.83.43 1.65.88 2.45 1.37 2.036109 1.176273 3.996607 2.478819 5.87 3.9.222161.147879.435831.308132.64.48l.47.38.33.26c.33.26.66.51 1 .78.59.48 1.17 1 1.74 1.49.57.49 1 .88 1.46 1.34l.47.44c.44.42.87.85 1.3 1.29.16.16.33.32.47.49.14.17.54.55.79.82a.68999765.68999765 0 01.11.13c.28.3.55.61.82.92l.45.51c.27.32.55.64.82 1l.14.16c.32.38.63.77.93 1.16.446667.566667.886667 1.146667 1.32 1.74l.46.66c.29.42.59.83.88 1.26.17.26.35.52.51.79.069021.089345.132474.182855.19.28.055814.079704.105938.163245.15.25.28.43.56.87.82 1.31.26.44.43.72.63 1.09.075809.109641.145902.223126.21.34l.21.39c.23.41.45.82.67 1.23l.1.2c.21.4.42.81.61 1.21.09.16.16.32.23.47.19.39.37.78.55 1.18.030801.058076.057532.118221.08.18.012345.041667.029106.081895.05.12.06.12.11.23.16.35.16.37.32.74.47 1.12.05.09.08.18.12.27l.1.24v.13l.37.93.31.82c.16.44.31.88.46 1.33 3.977576 12.51091 3.872511 25.962746-.3 38.41z" fill="#24A0D1" fill-rule="nonzero"/><path d="M175.92 312.48c-11.69-.54-19.95-.2-36.55 10.37-15 9.38-26.14 20.72-32.57 41.33-2.356945 7.642469-3.770765 15.544413-4.21 23.53-13.23-24.62-8.3-60.68 15-80.24 6.13-2.22 13-2.65 19.58-3 11.55-.6 23.7-1 34 4.41 1.58.84 4.09 1.93 4.81 3.6h-.06zM193.88 379.08c-.168155 3.224374-.522076 6.43637-1.06 9.62-1.477161 9.140552-4.886284 17.861088-10 25.58l-.05.07c-1.2.38-2.41.73-3.64 1-.46.12-.93.24-1.39.34l-1.66.37h-.24c-1.08.22-2.17.42-3.27.58l-1.61.24h-.34l-1.3.16h-1.2l-.66.06-.89.08c-9.986649.793623-20.034538-.222684-29.66-3 2.05-9.91 4.1-19.9 6.49-29.7 1.28-5.27 2.66-10.47 4.18-15.58 1.3-4.35 2.7-8.62 4.24-12.79.94-2.52 1.93-5 3-7.46.58-1.36 1.18-2.71 1.81-4 1.997077-4.34085 4.25797-8.555396 6.77-12.62 1.54-2.486667 3.18-4.893333 4.92-7.22 1.746463-2.335095 3.608796-4.581243 5.58-6.73 1.880178-2.061707 3.866187-4.024352 5.95-5.88 1.997181 1.493306 3.656683 3.39134 4.87 5.57 1.52432 2.730073 2.70336 5.639043 3.51 8.66 3.58 12.69 6.7 34.82 5.65 52.65zM226.84 333.62c-5.306377-8.562106-13.40596-15.029763-22.93-18.31-5.87-1.93-12.06-2.6-18.23-3.23 5.990134-4.051383 12.834354-6.665875 20-7.64 9.774186 7.418497 17.122135 17.575443 21.11 29.18h.05zM186.5 294.42c-4.54 9.43-5.64 11.73-7.14 12.53-2.68 1.47-3.69-2-4.93-3.57-3.91-4.84-9.9-8.68-15.46-11.46 9.18-.65 18.85-.25 27.53 2.5z" fill="#F1F7F4" fill-rule="nonzero"/><path d="M173.99 318.38c3.247319.85521 6.663285.834508 9.9-.06 6-2 7.19-8.13 4-10.95-.762624-.608995-1.630245-1.073308-2.56-1.37-19.94-7.31-20.93 9.34-11.3 12.38h-.04z" fill="#F2F2F2" fill-rule="nonzero"/><path d="M226.63 372c-2.297911 7.054015-5.803318 13.655414-10.36 19.51-.92 1.18-1.87 2.313333-2.85 3.4-.44.49-.88 1-1.33 1.43-.45.43-.74.77-1.11 1.14l-.48.52c-1 .94-2 1.85-3 2.72-.46.41-.93.8-1.41 1.19l-.42.34-1.37 1.07-1.27.94c-2.164248 1.562737-4.42177 2.992056-6.76 4.28l-.77.46c-1.16.62-2.34 1.21-3.53 1.77-.49.23-1 .46-1.49.67-.67.3-1.33.58-2 .86-.67.28-1.22.48-1.83.7-.103194.04871-.210222.088846-.32.12l-1.47.53-2.09.68-.05.07c-1.2.38-2.41.73-3.64 1-.46.12-.93.24-1.39.34l-1.66.37h-.24c-1.08.22-2.18.41-3.27.58l-1.61.24h-.34l-1.3.16h-1.2l-.66.06-.89.08-1.11.1c-5.689889.417764-11.407921.236772-17.06-.54-2.066667-.293333-4.11-.66-6.13-1.1-1-.22-2-.47-3-.73-2-.53-3.93-1.13-5.83-1.81-.95-.34-1.88-.69-2.8-1.07-5.830655-2.27656-11.261899-5.466445-16.09-9.45-.7-.59-1.38-1.2-2-1.83-.33-.31-.66-.63-1-1-.34-.37-.63-.64-.94-1-.31-.36-.62-.66-.92-1-.3-.34-.6-.68-.89-1-1.452442-1.729672-2.788701-3.553666-4-5.46-.76-1.19-1.47-2.41-2.14-3.66h0c-.29-.55-.58-1.1-.85-1.66l-.29-.58-.06-.11c-.16-.34-.32-.69-.47-1l-.12-.25-.46-1.08c-.09-.2-.17-.41-.26-.62l-.23-.57c-.1-.25-.2-.5-.29-.75 0-.09-.08-.19-.11-.28l-.07-.18a.5800093.5800093 0 00-.05-.14s0-.09-.05-.13l-.36-1-.12-.34c0-.11-.07-.22-.1-.33-.03-.11-.12-.33-.17-.49a1.53999576 1.53999576 0 000-.17c-.13-.41-.26-.82-.38-1.24-.12-.42-.29-1-.42-1.48s-.3-1.14-.43-1.71c0-.19-.1-.38-.14-.57a1.17001152 1.17001152 0 01-.05-.2c-.09-.37-.17-.74-.25-1.12a1.41999125 1.41999125 0 000-.2 2.21000166 2.21000166 0 00-.05-.25c-.07-.33-.13-.66-.19-1-.06-.34-.09-.46-.12-.69a5.1600109 5.1600109 0 01-.09-.52v-.08c-.07-.44-.14-.87-.2-1.3v-.14c-.06-.39-.11-.78-.16-1.17 0-.15 0-.31-.05-.46v-.22-.5-.06-.38-.43c0-.14-.05-.52-.07-.78l-.06-.74v-.47-.13-.82-.87-.61-1-1.26c0-.89 0-1.79.06-2.68 0-.45 0-.89.07-1.34a3.25000151 3.25000151 0 010-.44c0-.75.1-1.49.18-2.24.11-1.18.25-2.37.44-3.55l.18-1.16a71.24000191 71.24000191 0 011.94-8.51c.28-.93.58-1.86.89-2.78h0c1.153168-3.345818 2.567523-6.595826 4.23-9.72.53-1 1.08-2 1.66-2.91l.18-.3h0l.18-.3c.24-.39.49-.77.73-1.15.58-.88 1.18-1.76 1.81-2.61.17-.25.35-.49.53-.73l.18-.24.93-1.2.08-.1s0 0 0 0l.06-.07c.081108-.111065.16789-.217874.26-.32.29-.37.59-.74.9-1.1h0c.413333-.493333.833333-.973333 1.26-1.44.38-.43.76-.85 1.16-1.26 1-1.06 2.046667-2.083333 3.14-3.07.42-.39.84-.76 1.28-1.13.93-.81 1.9-1.59 2.9-2.34.23-.18.47-.36.72-.53.25-.17.73-.54 1.1-.79.54-.39 1.1-.76 1.66-1.12 1.08-.71 2.19-1.38 3.33-2l.29-.16c.48-.27 1-.53 1.46-.79l.41-.21c.48-.24 1-.49 1.47-.72l.46-.22 1.52-.69.28-.12h.08c.58-.25 1.17-.5 1.77-.73l1.5-.57 1.36-.46c.87-.29 1.79-.56 2.73-.82l.87-.23c.59-.16 1.18-.3 1.79-.45l1.68-.37.93-.19.93-.18 1.91-.34c2.51-.42 5.12-.75 7.78-1l.54-.05 1.68-.12c1.84-.12 3.7-.19 5.55-.21h5.3c1 0 1.92.08 2.87.16 2.384655.164752 4.758313.461877 7.11.89.6.1 1.2.22 1.79.34h.05c.34.08.68.15 1 .24.32.09.61.13.91.21l1.39.37.36.1 1.2.36c.526667.16 1.056667.33 1.59.51.64.22 1.27.44 1.9.68.63.24 1.07.41 1.6.63.92.38 1.82.78 2.71 1.2l1.26.61c.42.21.84.42 1.25.64.83.44 1.65.89 2.45 1.37a64.92979705 64.92979705 0 015.87 3.9l.63.48.46.36h0l.93.74.91.76.77.66c.38.34.77.67 1.14 1 .37.33.76.68 1.12 1l.35.34 1.06 1.05c.15.17.31.33.47.49l.56.59.34.36c.29.31.57.63.85.94l.45.51c.27.32.55.64.82 1h0l.33.41c.35.43.7.87 1 1.31 1.02 1.333333 1.986667 2.693333 2.9 4.08l.34.53c.5.79 1 1.59 1.45 2.4l.1.15.11.19h0l.21.39c.48.873333.94 1.753333 1.38 2.64l.23.47h0c.21.44.42.88.62 1.33.012345.041667.029106.081895.05.12.21.49.43 1 .63 1.47.09.21.17.42.26.64l.37.93.31.82c.16.44.31.88.46 1.33 3.920501 12.548583 3.741866 26.019787-.51 38.46z" stroke="#534741" stroke-width="4" stroke-linecap="round"/><path d="M69.88 376.23c4.79.88 10 1.78 15.36 2.65-1.3685092.763136-2.8455352 1.312806-4.38 1.63-2.9041712.612996-5.9326792.009463-8.38-1.67-1.0197885-.702718-1.9012023-1.587521-2.6-2.61zM226.63 372c-2.297911 7.054015-5.803318 13.655414-10.36 19.51-.92 1.18-1.87 2.313333-2.85 3.4-.44.49-.88 1-1.33 1.43-.45.43-.74.77-1.11 1.14l-.48.52c-1 .94-2 1.85-3 2.72-.46.41-.93.8-1.41 1.19l-.42.34-1.37 1.07-1.27.94c-2.164248 1.562737-4.42177 2.992056-6.76 4.28l-.77.46c-1.16.62-2.34 1.21-3.53 1.77-.49.23-1 .46-1.49.67-.67.3-1.33.58-2 .86-.67.28-1.22.48-1.83.7-.103194.04871-.210222.088846-.32.12l-1.47.53-2.09.68-.05.07c-1.2.38-2.41.73-3.64 1-.46.12-.93.24-1.39.34l-1.66.37h-.24c-1.08.22-2.17.42-3.27.58l-1.61.24h-.34l-1.3.16h-1.2l-.66.06-.89.08-1.11.1c-5.689459.437599-11.409605.256539-17.06-.54-2.066667-.293333-4.11-.66-6.13-1.1-1-.22-2-.47-3-.73-2-.53-3.93-1.13-5.83-1.81-.95-.34-1.88-.69-2.8-1.07-5.830655-2.27656-11.261899-5.466445-16.09-9.45-.7-.59-1.38-1.2-2-1.83-.33-.31-.66-.63-1-1-.34-.37-.63-.64-.94-1-.31-.36-.62-.66-.92-1-.3-.34-.6-.68-.89-1-1.458754-1.72471-2.795336-3.549144-4-5.46-.49-.77-1-1.56-1.41-2.36-.22-.37-.43-.75-.64-1.14l-.09-.16c-.29-.55-.58-1.1-.85-1.66l-.16-.32c-.06-.13-.13-.25-.19-.37-.16-.34-.32-.69-.47-1l-.12-.25-.46-1.08c-.09-.2-.17-.41-.26-.62l-.23-.57c-.1133333-.246667-.2133333-.496667-.3-.75l3.6.48 1.16.15c3.3.43 6.64.82 10 1.18 9.92 1.07 19.86 1.8 29.11 1.94 3.76.06 7.4 0 10.88-.13 13.59-.59 26.78-2.88 39.62-5.56 11.12-2.38 22.03-5.02 32.69-7.12z" fill="#A7E8E3" fill-rule="nonzero" opacity=".95" style="mix-blend-mode:darken"/><path d="M39.79 369.39c-.14.06-.12.26.23.3l.31-.26-.54-.04zM41.93 370.51c.43-.07.95-.24.76-.59-.47.22-.53.07-1 .34-.35 0-.57-.24-.48-.34-.14.05-.51-.19-.74 0 .4418944.352361 1.0122436.501306 1.57.41.07.07-.07.13-.11.18zM75.09 377.6l-.21-.08c.0661009.035952.1367328.062859.21.08zM95.81 381.12h-.24c.15.03.28.03.24 0zM99.31 382l-.2-.05c.0574293.042464.1293442.060442.2.05zM75.09 377.6l.53.2c.06-.1-.27-.13-.53-.2zM46.66 370.74a1.10000662 1.10000662 0 00-.32 0H46.66zM65.92 376.24h-.17a.75003236.75003236 0 00-.17.1l.34-.1zM58.92 374.94c.16 0 .27-.22.35-.33-.1062337.087909-.2425459.130955-.38.12-.0072763.071399.003023.143494.03.21zM70.91 377.21c-.0088972.036127-.0088972.073873 0 .11 0 0 .04-.07 0-.11zM267.94 367.54s.05.01 0 0zM275.95 370.11h-.12c-.021134.048398-.037868.098601-.05.15l.17-.15zM105.79 383.21c-.2 0-.11 0 0 0zM166.17 384.88c-.71-.18 1.07-.44 0-.61.13.1-.87.53 0 .61zM46.83 370.81l.29.06a1.06002585 1.06002585 0 00-.29-.06zM166.19 384.27h-.11zM120.88 384.7c-.030694-.060293-.079707-.109306-.14-.14 0 0 .04.07.14.14zM109.7 383.1l.27.07a1.20003255 1.20003255 0 00-.27-.07zM126.76 384.79c.1352.028317.2748.028317.41 0h-.06c-.111109.050927-.238891.050927-.35 0zM132.85 385.19c-.033193-.025798-.070339-.046059-.11-.06h-.19l.3.06zM249.24 367.6c.114543.055561.216607.133809.3.23-.11-.19.79-.32-.3-.23z" fill="#E7F5F5" fill-rule="nonzero"/><path d="M46.63 370.89c.0492871-.058166.1241946-.088129.2-.08h-.2s-.04.05 0 .08zM127.17 382.6l1 .11c-.330595-.058314-.664634-.095058-1-.11zM206.11 375.25l.21-.08c-.077204.001277-.151515.029586-.21.08zM130.99 382.86c.160374.107672.340519.18245.53.22.039661-.013941.076807-.034202.11-.06l-.64-.16z" fill="#E7F5F5" fill-rule="nonzero"/><path d="M255.94 366.85c-.93 0-.43.37-.62.59-1.11.13-.52-.26-.91-.43-.563344.199284-1.137613.366222-1.72.5 0-.06-.14-.08 0-.16-.72.31-2.17.14-3 .57-.042893-.016843-.080761-.044383-.11-.08.123113.13167.181686.311049.16.49-.41 0-.75.29-.92.06.25 0 .27-.11.38-.19l-.43.13c-.41-.32.59-.16.57-.41-.798763.246856-1.619082.417616-2.45.51-.17-.33 1.5-.25.61-.47h1c-.81-.46.62 0-.14-.52-1.33 0-1.46.31-2.79.33-.28.22.12.27-.15.49-1.83.54-1.57-.69-2.89-.08-.33.26-.41.71-1.41.61l.28-.42c-1.28.13-.66.64-2 .56.21-.18 1-.26.78-.28-.9-.18-.58.3-1.24.39l-.18-.31c-1.35.25-2.8.71-4.28 1 .07-.11.31-.26-.06-.3-1.928386.421696-3.888449.682592-5.86.78l-.63.42c-.16 0-.32-.08-.16-.16-.73 0 0 .19-.32.36-.32.17-.56-.06-.32-.2-1.520601.654993-3.139152 1.053718-4.79 1.18l.24-.14c-1 .09-1 .82-2 .75l.17-.09c-2.22.33-4.59 1.12-6.36 1.05-.22.48-2.21.29-2.22.9a12.18995133 12.18995133 0 00-2.78 0c-.48.08-.62.51-1.19.7l-.08-.3-.72.5-.5-.27-.52.2c.22 0 .49 0 .47.12-.693055.267326-1.453465.305872-2.17.11l-2 .7c0-.14.35-.25.6-.39-1 .55-.27-.27-1.19.23.15 0 0 .19 0 .26-.838734-.000441-1.671149.145062-2.46.43l.11-.25c-1.5.28-3.12.79-4.8 1.14.63 0 .56.36.08.49l-.26-.27c-.28.26.53 0-.07.39-.63.09-.49-.28-.16-.46l-.73.28c-.07-.09.1-.18.12-.31-.27.27-1.38-.05-1.76.39l-.06-.09c-1.68.35-2.42.61-3.78.89 0 .28-.52.33-.88.63-1.13545.055911-2.267078.172746-3.39.35-.83.29-.21.28-.56.52-.11-.24-1.32 0-.72-.3-1.237916.24116-2.46282.544883-3.67.91.22.07.45.07.35.18-.33.1-.78 0-.75-.11h.08c-2 .73-4.9 0-6.47.78h.09l-1.68.51c-.8.06.45-.25-.16-.33-1.8.67-2.93.3-4.43.76-1.26-.62-4.2.49-5.84.13l.11.17c-.4.2-.51-.07-.82-.08.06.13.46.12.21.24-1.784556.218183-3.582721.305083-5.38.26-1.83-.08-3.67-.23-5.47-.28-1.31 0-.74.93-2.4.52l.47-.33a23.68994175 23.68994175 0 01-4 .21 35.65012255 35.65012255 0 00-4 0c.15-.07.16-.17.42-.16-.55-.26-2-.09-2.06.11-.4 0-.08-.18-.33-.29-.54-.17-1.4.24-1.68 0-.05 0 .16-.07.26-.09-.37.1-1.67-.11-1.34.18-1-.18-1.88 0-2.65-.19-.53.29-1.67-.25-1.86.18.1-.45-1.69-.49-2.32-.32.21-.12-.53-.18-.27-.35-.71 0-1.36 0-1.26.23-1.25-.65-2.65.22-3.32-.54-2.11.06-4.07 0-6 0 .11-.44 2.09.16 2.05-.32a23.09995476 23.09995476 0 01-4.63 0c-.45-.12.28-.17.44-.23-1.8 0-3.44-.44-5-.39 0 0 .19-.06.35-.08-.31 0-.72-.15-.71.06h.32c.46.35-1.32.47-1.4.62.61-.52-1.55-.33-.61-1-.21 0-.48.08-.45.22-.3-.08-.39-.17-.06-.28-1.13 0-.76.24-1.78.11 0-.1.23-.11.35-.21-.626524.191434-1.292794.212147-1.93.06.06-.05 0-.14.23-.1-1.43-.16-2.51.15-4-.2h-.11c.53-.35-.53-.22-.56-.6h-.89l.33.23c-.7033717-.001587-1.4055318-.058429-2.1-.17l.58-.07-1.43-.14.79.26c-.8.08 0 .48-1 .23.21 0-.76-.12-1.13-.4-.4422742.117926-.9077258.117926-1.35 0-.13-.14.18-.39.1-.48-.42.25-1.79-.18-2.31.08.17-.06.21-.25.16-.3l-.35.21c-.34-.14-.38-.18-.3-.33-1-.2.26.52-1 .13.1 0 .06-.05.27-.06-1.24-.29-2.46-.2-3.6-.5-.28-.42 1 .06.69-.31-1.7110138-.069742-3.4169117-.233321-5.11-.49l.29.09c-.31.49-1.16-.46-2-.36.2 0 .31-.24.25-.19-1.3208589-.236031-2.6584247-.366444-4-.39l.23-.09c-.63-.24-1.7-.37-2.39-.55-.23.1-.62 0-.42.24-2-1.13-4.2-.3-6-1.3.23 0 .56 0 .38-.05l-1.65-.18c.08.25.19.18.49.42-.3647378.08825-.7452622.08825-1.11 0 .76 0 .06-.36-.23-.55 0 .08-.08.14-.07.21-.78-.56-.23.43-1.34-.06l.08-.11c-.4475142.029319-.896897.009198-1.34-.06-.14-.3.49 0 .56-.25-.66-.11-1.4.25-1.94-.13.29 0 .7.06 1 0-.3319201-.267999-.7285449-.443894-1.15-.51l-1.08-.35.26.14c-1 .52-1.7-.21-2.9 0 1.17-.21.23-.21.37-.49-.26-.14-.67-.32-.54-.38-.57.13-.83-.37-1.64-.16 0-.11-.56-.13-.39-.34-.7-.07.12.2 0 .3-1.11.11-2.38-.9-4-.76-1.34-.09-1.65.18-2.89.08-.37-.24.41-.27.41-.27-.5557847-.253697-1.1590601-.386622-1.77-.39.14-.06 0-.15-.13-.3-.51-.08-.41.27-1 0 .1700643-.127159.3638767-.218965.57-.27h-1.84c-.12-.2.42-.17.66-.23-.7-.07-1.79-.24-2.06 0l.41.19c-.25 0-.08-.26.12-.26.63-.08.82.27.83.38h-.44c.31.66 1.75.29 2.61.51l-.45.33 1-.14c.17.14.25.4-.2.37.58.33.59 0 1.07.31.06.05 0 .06 0 .06h.63c-.14.06 0 .31-.32.17 1 .47 1.83.07 2.17.47h-.09c1.54.18.21-.27 1.42-.38l.61.9.21-.27c.16 0 .46.13.38.24.62-.09-.07-.15.3-.28.7.43 2.11.3 2.18.81.32-.17-.68-.32.15-.32.13.56.95.1 1.59.48-.26.22-.89-.05-.24.32.5-.36 1.32.37 1.92.4.1-.35 1.29.1 2.29.17a22.30984711 22.30984711 0 002.69.86v.05c.25-.32 1.17-.08 1.87 0-.07.21-.21.27-.59.3l.64.12c.2570882-.102375.5378521-.130105.81-.08l-.21.24c.9609251.031158 1.9160309.161856 2.85.39.1-.24-.75-.86.44-.82 0 .15 0 .39-.29.39.1912387-.02994.3868944-.012777.57.05l-.51.14c.48.19.3-.14.69 0 0 .19.27.19.19.33-.08.14-.34-.14-.5-.09.4064255.079558.7894241.250539 1.12.5 0-.11 0-.26.39-.23.86.14.25.29.73.47.23-.1.76.14.82-.15.25.05.27.19.36.28.46-.05 2.08.33 1.63-.07h-.11.08c1.5 0 3 .69 4.46.81v.1a17.68998747 17.68998747 0 002.58.16c.25 0 .57.28.44.38.5762153-.032979 1.1527429.059129 1.69.27-.69.05.2.19-.7 0 .6240821.290105 1.3165571.400901 2 .32-.35.2.6.41 1 .39l-.57-.26c.4238609.034358.8448552.097841 1.26.19l-.27.3c1.7.66 3.28-.21 4.52.66.5-.16-.94-.3-.48-.51.6302223.217786 1.2421473.485294 1.83.8 1.08.35 1.1-.32 2.25 0-.14-.14-.23-.48.65-.46.88.02.93.64.4.66-.19 0-.28-.07-.27-.11-.27 0-.62 0-.31.18l.12-.1c.38.18 1.5.33 1.21.49.63 0 .29-.16-.16-.29 1 .33 1.63.25 2.68.53-.16-.09-.3-.26-.13-.23l.44.1c.93.15.4-.21 1.34-.13.58.26-.27.4.82.39.64.21.1.33-.17.39.807902.016578 1.605328.186243 2.35.5h-.52c.274222-.00486.5484.011858.82.05l-.26-.27c.29.08.55.11.53.21.33-.12-.19-.42.46-.56.39.17 1.24 0 1.34.35-1.25-.26.1.33-1 .25.260275-.006326.519975.027401.77.1 0 0-.05.06-.14.07 1.18.42.6-.29 1.86-.13-.18.15.25.36.46.35-.5-.06-.2-.32.28-.4.79.23.89 0 1.31.07l-.48-.13c.19-.15.59-.08 1.16-.07 0 .14-.52 0-.33.12.66-.24 1.37.49 2.27.38.39.17 0 .34.35.46 1-.12 1 .37 2.08.29-.27-.27-.33-.22.42-.37h-1.71l1.12-.22c-.51-.06-1.09 0-1.39-.05.54-.13.48-.08.25-.31.66.44 1.41-.05 2.19.28l-.26.28c1.19.39 2.19-.08 3.75.22l-.5-.15c.24-.21 1 .06 1.5 0-.07.2.24.3.45.44 0-.15 1.16.12 1.33-.26l.69.32c1.26.21 1.5-.44 2.71-.27-.38.18.16.37-.67.45.41 0 .78.1.79 0 .23.14 1.16-.18 1.52 0 .18-.07.25-.27.71-.22.05 0 0 .09 0 .09s.73-.08.34-.32c1.22.7 3.53.18 4.59.78h2.8c-.06.06 0 .1-.16.07 1.11.24.71-.53 2-.27.63.34-.69.14-.29.28.15.66 1.55 0 2.39.38h-.21c.65.24 1.61-.2 2.68-.13 0 0-.05.06 0 .1 1.031026-.28892 2.090759-.463307 3.16-.52-.32.25-.47.14-.28.39.47 0-.13-.41.79-.49.3.13 1 .24 1.06.52h-.87c.44.36 1.13 0 1.59 0l-.06.15c1.34-.06 1.35-.46 2.79-.45l-.16-.11c.78-.4.67.21 1.44-.09l.25.39c.52-.1 1.8-.4 2.72-.49a12.30001226 12.30001226 0 01-2.26.65c.675848.026494 1.351469-.057959 2-.25-.214749.075545-.443502.102858-.67.08.773867-.349311 1.611056-.536487 2.46-.55-.14.79 2.67 0 3.45.57 1.79-.42 3.6-.16 5.7-.43-.81-.51.61-.08.42-.68.48-.09.67-.1.72-.06l1.52.19c.37.14-.45.19-.39.32 1.07-.08.48.2 1.21.28-.18-.2.33-.36.95-.35l-.89-.17c1.45-.5 1.35.34 2.82-.17l-.45.25c.76-.2 2.85-.39 3.53-1 .15.05.35.18 0 .28 1.85-.21 4-1.15 5.48-1.1l-.12.17c.34-.1.55-.38 1-.3 0 .06-.11.17 0 .15.415969-.213336.866114-.352103 1.33-.41l-.35.23c1.81-.12 2.66-.89 4.13-1.28.08.44 1.51.31 2.22.24v.07c1.809676-.412519 3.587542-.9539 5.32-1.62 1.29.22 4.06-.65 6-.81-.3 0 0-.34.31-.46s1.16-.57 1.18-.16h-.16c.42.31 1.31 0 2-.14V378c2 .34 4.84-1.36 6-.91.42-.23 1-.36 1.39-.58v.28a28.16003424 28.16003424 0 003.42-.72l-.27.27c.88-.17.93-1 1.73-1.23l.33.36c1.52-.34 3.13-.3 4.55-1 0 .06 0 .19-.27.26.72-.14 2.82-.3 2.45-.81.09.36 1.57-.28 2.36-.61l-.07.3c.434119-.435172.981468-.740025 1.58-.88.24 0 .24.18-.08.17.8 0 .55-.38 1.51-.41l-.31.24c.418231-.006106.815727-.183173 1.1-.49.48-.2 1.51-.22 1.68 0 .224526-.296868.577872-.467962.95-.46.08.08-.08.17-.16.22 1.35-.05 1.91-.68 2.87-.56.024913.079651.096667.13546.18.14-1.05.16-1.9.31-1.83.27.05.26.9.15.29.62.794987-.476689 1.67433-.795832 2.59-.94l.12.07-.08.05c.179836-.011099.356098-.055165.52-.13.229544.020492.460456.020492.69 0 .13.2 1 0 1.42-.08-.08-.28.48-.31-.07-.47.07 0-.08.05-.36.1l-.17.06-1.05.18c.324629-.247593.737605-.349026 1.14-.28.19-.21.4-.43.52-.54.64.3 1.79.34 2 .56 1.28-.32 3-.51 3.79-1.12.37-.11.45.11.6.17-.196521.041768-.387722.105501-.57.19.72-.22 2.18-.31 2.32-.69 1 .08-.49.39.79.21l-.17.13c2.57.35 4-1.31 6.9-.69-.2 0-.3-.05-.34-.11 3.2.17 6.6-.51 9.75.16.89.15 1-.1 1.55-.23l.18.31.95-.28c1.36-.17 2.23.92 3.94.62l-.19-.22c.6.08 1.92.12 1.79.33.132665-.090634.307335-.090634.44 0v.16l1.51-.06c1.11.31-.28.59 1.36.91.62.05 1.82-.14 1.61-.29-.21-.15-.61-.21-.6-.36h.58c.19-.44.73-.83-.62-1.4l-1 .1-.27-.28.83.14c-.336934-.207308-.751669-.244338-1.12-.1-.078593-.149488-.210743-.263779-.37-.32l-1 .3c-.09-.19.48-.29-.15-.48-.48.14.37.46-.39.49-.44-.27-.28-.43-.86-.32-.06-.13.06-.19.29-.22-.51.07-1.31-.12-1.6.11-.46-.31-1.67-.11-1.57-.54-.437262.153438-.896631.234503-1.36.24.87-.47-1.7-.15-1.44-.7-.65.41-2.24.09-3.35.31.07 0 .19-.11.28-.08-.403902-.057827-.799829-.161842-1.18-.31-.08.39-1 .47-1.56.71-.74-.39.46-.46.23-.82 0 .31-1.31.3-1.05.57-.58-.24-.5-.12-.8-.44-.09.49-.53.09-1 .4-.83-.22-.22-.45-1.13-.29-.35-.26.46-.41.46-.41zm-21.48 3l.44-.09-.44.09zm-1.79.3l.77-.12c.08.08 0 .19-.15.22.09-.05-.34-.04-.62-.07v-.03zm4.08 1.3c-.27.08-.38 0-.42 0l.48-.1c-.010546.047101-.030999.091417-.06.13v-.03z" fill="#E7F5F5" fill-rule="nonzero"/><path fill="#E7F5F5" fill-rule="nonzero" d="M237.2 371h.12-.18l-.09.1zM74.84 377.51c-.0228944.0064-.0471056.0064-.07 0h.07zM208.04 374.68l.02.06.14-.09zM65.21 374.8s0-.06-.12-.09c.0352468.035863.075702.066205.12.09zM61 373.93l-.58-.22c.1894771.083122.3830607.156551.58.22zM57.78 373.15c-.0364843.030845-.0669908.06813-.09.11l.09-.11zM109.69 381.2h.13c.3-.02.1-.02-.13 0zM94.11 379.78l.51-.06c-.27-.06-.48-.1-.51.06zM127.07 382.58v.01l.1.01zM95.34 379.84c-.2306069-.083828-.4746709-.124505-.72-.12.234221.069157.4760103.109455.72.12zM43.79 370.08l-.16-.05.16.05zM43.61 370.07h-.18c.07.02.14.03.18 0zM43.05 370.06h.38c-.1226437-.045147-.2573563-.045147-.38 0zM48.03 371.14l.07-.09s-.05.04-.07.09zM49.34 371.39c-.3742728-.186349-.7708147-.324131-1.18-.41l-.06.07c.24-.11.91.44 1.24.34zM54.5 373.75l-1.07-.3c.17.14.39.34-.11.26 1.33.6-.22-.3 1.18.04zM57.89 374.59c-.6-.07 0 .16-.07.21.39-.02.49-.03.07-.21zM82.5 379.06l-.1.24c.46.04.02-.1.1-.24zM87.43 378.52l-.42-.22-.25.2zM89.94 380.74l-.2.01.77.02zM131.75 385.37l-.12-.32c-.31.04-.4.39.12.32zM149.95 385.42c.300462.1861.671137.21946 1 .09-.39-.01-.8-.13-1-.09zM203.9 378.18l-.34.19.66-.24z"/><path d="M97.03 333.68s17.45 10.18 22.31 1.57c4.86-8.61-17.19-13.89-17.19-13.89" stroke="#534741" stroke-width="4" fill="#A57C52" fill-rule="nonzero" stroke-linecap="round"/><circle fill="#CCF2EF" fill-rule="nonzero" cx="443.87" cy="414.48" r="4.48"/><circle fill="#CCF2EF" fill-rule="nonzero" cx="49.82" cy="426.97" r="5.68"/></g></g></svg>
