<?xml version="1.0" encoding="UTF-8"?>
<svg width="720px" height="720px" viewBox="0 0 720 720" version="1.1" xmlns="http://www.w3.org/2000/svg" xmlns:xlink="http://www.w3.org/1999/xlink">
    <title>9E046139-BCEB-44CE-9DD7-67D54F059B60</title>
    <g id="ui_登入" stroke="none" stroke-width="1" fill="none" fill-rule="evenodd">
        <g id="spec" transform="translate(-56.000000, -5364.000000)">
            <g id="bg_pattern" transform="translate(56.000000, 5364.000000)">
                <rect id="Rectangle" x="0" y="0" width="720" height="720"></rect>
                <path d="M272.854741,656.719257 L280.504741,676.598007 L286.872241,667.451757 L303.690991,667.451757 C295.815991,676.823007 281.190991,684.698007 281.190991,684.698007 C281.190991,684.698007 266.622241,676.778007 258.690991,667.451757 L258.690991,667.451757 L269.614741,667.451757 L272.854741,656.719257 Z M293.925991,637.841757 C302.217241,637.841757 311.340991,646.695507 308.404741,659.070507 C308.00518,660.621715 307.375708,662.104388 306.537241,663.469257 L306.537241,663.469257 L284.813491,663.469257 L281.505991,668.216757 L272.393491,644.591757 L266.689741,663.514257 L255.844741,663.514257 C255.004959,662.15142 254.378945,660.667958 253.988491,659.115507 C251.040991,646.706757 260.164741,637.886757 268.467241,637.886757 C273.639137,637.883118 278.447907,640.544736 281.190991,644.929257 C283.939248,640.544565 288.751202,637.883538 293.925991,637.886757 L293.925991,637.886757 Z M486.559741,652.388007 L486.679725,652.666456 C487.096099,653.695747 487.252721,654.813471 487.133491,655.920507 C487.107538,656.895398 486.526235,657.769538 485.637241,658.170507 C480.619741,660.746757 472.193491,662.276757 462.259741,660.353007 L462.259741,660.353007 L461.640991,658.811757 C458.873491,657.563007 456.072241,657.236757 453.945991,658.148007 L453.945991,658.148007 L453.124741,660.308007 L449.052241,660.308007 C445.598491,660.308007 439.275623,660.195507 439.275623,657.124257 C439.26651,655.668245 439.440377,654.216833 439.793491,652.804257 C439.788124,652.71809 439.788124,652.631673 439.793491,652.545507 C441.306737,653.501147 443.08027,653.961243 444.867241,653.861757 C446.442241,653.861757 447.960991,653.783007 449.423491,653.715507 C453.248491,653.513007 456.848491,653.333007 460.875991,654.570507 C464.699654,655.660331 468.656298,656.213125 472.632241,656.213007 C478.178491,656.213007 483.758491,655.200507 486.559741,652.388007 L486.559741,652.388007 Z M454.013491,616.815507 C454.317241,616.140507 458.513491,615.004257 461.067241,615.240507 C463.352822,618.781117 463.509908,625.505216 463.519356,631.442697 L463.519741,633.240507 C463.519741,637.549257 467.367241,641.216757 471.867241,643.466757 C475.230991,645.199257 477.964741,643.680507 481.339741,644.738007 C483.747241,645.480507 485.097241,647.584257 485.929741,649.913007 C483.162241,654.908007 469.245991,655.009257 461.573491,652.658007 C457.197241,651.308007 453.417241,651.510507 449.412241,651.701757 C447.927241,651.780507 446.442241,651.859257 444.912241,651.859257 C442.808491,651.859257 441.357241,651.398007 440.558491,650.509257 C440.120325,649.989322 439.860126,649.342765 439.815991,648.664257 C440.434741,644.985507 442.605991,640.688007 443.179741,636.863007 C443.753491,632.340507 441.008491,631.418007 441.008491,624.904257 C443.708491,621.180507 451.538491,619.099257 453.585991,619.189257 C453.862853,618.428186 454.007439,617.62535 454.013491,616.815507 Z M660.086651,600.119993 C661.622479,598.594978 662.010244,600.662869 662.072439,601.091697 L662.079931,601.147095 C662.081518,601.159904 662.082241,601.166757 662.082241,601.166757 L662.082241,601.166757 L662.082241,639.416757 C662.082241,641.094322 660.722305,642.454256 659.044741,642.454256 C657.367176,642.454256 656.007241,641.094322 656.007241,639.416757 L656.007241,639.416757 L656.007241,622.541757 L655.478491,619.065507 C652.542241,607.984257 658.155991,602.213007 659.978491,600.233007 L659.978491,600.233007 L659.963,600.247 Z M610.917241,599.805507 C611.588266,599.805507 612.132241,600.349481 612.132241,601.020507 L612.132241,601.020507 L612.132241,612.405507 L612.165991,612.405507 L612.165991,612.405507 L612.165991,612.495507 C611.742853,614.30738 610.568827,615.853659 608.937241,616.748007 L608.937241,616.748007 L608.937241,639.405507 C608.937241,641.083072 607.577305,642.443007 605.899741,642.443007 C604.222176,642.443007 602.862241,641.083072 602.862241,639.405507 L602.862241,639.405507 L602.862241,616.601757 C601.34241,615.692305 600.261075,614.200387 599.869741,612.473007 L599.869741,612.473007 L599.869741,601.020507 C599.869741,600.349481 600.413715,599.805507 601.084741,599.805507 C601.755766,599.805507 602.299741,600.349481 602.299741,601.020507 L602.299741,601.020507 L602.299741,609.705507 L602.323116,609.831153 C602.460853,610.405794 602.992022,610.810173 603.594036,610.777185 C604.239052,610.741842 604.748369,610.216313 604.763491,609.570507 L604.763491,609.570507 L604.763491,601.020507 C604.763491,600.349481 605.307465,599.805507 605.978491,599.805507 C606.649516,599.805507 607.19349,600.349481 607.193491,601.020507 L607.193491,601.020507 L607.193491,609.536757 C607.193491,610.251275 607.772722,610.830507 608.487241,610.830507 C609.120428,610.82161 609.644735,610.33614 609.702241,609.705507 L609.702241,609.705507 L609.702241,601.020507 C609.702241,600.349481 610.246215,599.805507 610.917241,599.805507 Z M632.247241,601.785507 C637.617874,601.785507 642.768541,603.918983 646.566153,607.716595 C650.363764,611.514206 652.497241,616.664873 652.497241,622.035507 C652.497241,630.225867 647.563486,637.609752 639.99658,640.744067 C632.429674,643.878383 623.719788,642.145879 617.928328,636.354419 C612.136869,630.56296 610.404365,621.853074 613.53868,614.286167 C616.672995,606.719261 624.05688,601.785507 632.247241,601.785507 Z M461.472241,638.820507 C460.652098,638.820507 459.987241,639.485364 459.987241,640.305507 C459.987241,641.12565 460.652098,641.790507 461.472241,641.790507 C462.292383,641.790507 462.957241,641.12565 462.957241,640.305507 C462.957241,639.485364 462.292383,638.820507 461.472241,638.820507 Z M459.312241,633.296757 L459.312241,633.330507 C458.509475,633.336382 457.856714,633.979177 457.838491,634.781757 C457.838491,635.383403 458.201546,635.925586 458.757835,636.154761 C459.314123,636.383936 459.953721,636.25481 460.377529,635.827768 C460.801337,635.400725 460.925595,634.760163 460.692196,634.205633 C460.458798,633.651103 459.91387,633.292199 459.312241,633.296757 L459.312241,633.296757 Z M459.312241,627.784257 L459.312241,627.818007 C458.509475,627.823882 457.856714,628.466677 457.838491,629.269257 C457.838491,629.870903 458.201546,630.413086 458.757835,630.642261 C459.314123,630.871436 459.953721,630.74231 460.377529,630.315268 C460.801337,629.888225 460.925595,629.247663 460.692196,628.693133 C460.458798,628.138603 459.91387,627.779699 459.312241,627.784257 L459.312241,627.784257 Z M459.312241,622.260507 L459.312241,622.294257 C458.509475,622.300132 457.856714,622.942927 457.838491,623.745507 C457.838491,624.347153 458.201546,624.889336 458.757835,625.118511 C459.314123,625.347686 459.953721,625.21856 460.377529,624.791518 C460.801337,624.364475 460.925595,623.723913 460.692196,623.169383 C460.458798,622.614853 459.91387,622.255949 459.312241,622.260507 L459.312241,622.260507 Z M123.600991,566.764257 C125.359327,566.764257 126.784741,568.18967 126.784741,569.948007 L126.784741,569.948007 L126.784741,578.070507 L134.940991,578.070507 C136.883095,578.049492 138.753052,578.805524 140.134832,580.170402 C141.516613,581.535281 142.295602,583.395791 142.298491,585.338007 L142.298491,585.338007 L142.298491,612.518007 C142.298491,614.448451 141.531624,616.29983 140.166594,617.66486 C138.801564,619.029891 136.950185,619.796757 135.019741,619.796757 L135.019741,619.796757 L92.2697405,619.796757 C90.339296,619.796757 88.4879174,619.029891 87.122887,617.66486 C85.7578566,616.29983 84.9909905,614.448451 84.9909905,612.518007 L84.9909905,612.518007 L84.9909905,585.349257 C84.9909905,581.329314 88.2497979,578.070507 92.2697405,578.070507 L92.2697405,578.070507 L100.425991,578.070507 L100.425991,569.948007 C100.425991,568.18967 101.851404,566.764257 103.609741,566.764257 L103.609741,566.764257 Z M105.533491,601.673007 C105.415712,601.620158 105.281696,601.616577 105.161263,601.66306 C105.04083,601.709543 104.943972,601.802234 104.892241,601.920507 L104.892241,601.920507 L102.259741,607.916757 C102.206892,608.034535 102.203311,608.168551 102.249794,608.288984 C102.296276,608.409417 102.388967,608.506275 102.507241,608.558007 L102.507241,608.558007 L108.503491,611.190507 C108.621269,611.243355 108.755285,611.246937 108.875718,611.200454 C108.996151,611.153971 109.093009,611.06128 109.144741,610.943007 L109.144741,610.943007 L111.777241,604.946757 C111.830089,604.828978 111.83367,604.694962 111.787187,604.57453 C111.740705,604.454097 111.648014,604.357238 111.529741,604.305507 L111.529741,604.305507 Z M130.335953,596.593023 C127.929977,595.59767 125.161288,596.150287 123.321779,597.993017 C121.48227,599.835748 120.934499,602.605399 121.934061,605.00963 C122.933622,607.413861 125.283507,608.978809 127.887241,608.974267 C131.436799,608.968051 134.310991,606.08882 134.310991,602.539257 C134.310991,599.935519 132.741929,597.588376 130.335953,596.593023 Z M106.492685,585.150601 C106.384874,585.11255 106.266313,585.119269 106.163491,585.169257 L106.163491,585.169257 L94.0247405,590.794257 C93.9212862,590.842923 93.8416361,590.931001 93.803585,591.038812 C93.7655339,591.146624 93.7722528,591.265185 93.8222405,591.368007 L93.8222405,591.368007 L96.4772405,596.993007 L96.4772405,597.038007 C96.5238218,597.143456 96.6110159,597.225623 96.7190421,597.265868 C96.8270683,597.306113 96.9467696,597.301025 97.0509905,597.251757 L97.0509905,597.251757 L109.189741,591.626757 C109.293195,591.578091 109.372845,591.490013 109.410896,591.382201 C109.448947,591.27439 109.442228,591.155829 109.392241,591.053007 L109.392241,591.053007 L106.737241,585.371757 C106.688574,585.268303 106.600497,585.188653 106.492685,585.150601 Z M120.079741,571.568007 L107.018491,571.568007 C106.219741,571.568007 106.095991,572.220507 106.095991,573.019257 L106.095991,573.019257 L106.095991,578.059257 L121.137241,578.059257 L121.137241,573.019257 C121.137241,572.220507 120.878491,571.568007 120.079741,571.568007 L120.079741,571.568007 Z M549.143491,502.065507 C549.645843,500.702532 551.143355,499.988718 552.518491,500.456757 C554.796058,501.369367 556.88881,502.688297 558.694741,504.349257 C560.145991,505.541757 559.560991,506.711757 557.097241,507.004257 C556.185991,507.105507 554.858491,507.240507 553.542241,507.409257 C554.175951,508.616835 554.670374,509.892521 555.015991,511.211757 C556.410991,512.235507 557.367241,513.293007 559.515991,515.228007 C561.768693,517.574521 563.760332,520.158371 565.455991,522.934257 C565.711394,522.576031 565.993443,522.237571 566.299741,521.921757 L566.299741,521.921757 L573.623491,514.609257 C573.16323,513.068648 573.596672,511.399894 574.748491,510.278007 L574.748491,510.278007 L576.615991,508.410507 L581.723491,513.506757 L584.052241,511.178007 C582.620513,509.066565 582.207856,506.42556 582.927241,503.978007 L582.927241,503.978007 L594.593491,515.644257 C592.223801,516.334064 589.670892,515.951744 587.607241,514.598007 L587.607241,514.598007 L585.233491,516.971757 L590.329741,522.068007 L588.462241,523.935507 C587.331355,525.07174 585.671876,525.502773 584.130991,525.060507 L584.130991,525.060507 L576.818491,532.373007 C575.50935,533.711113 573.748522,534.513312 571.879741,534.623007 C572.768491,536.771757 573.375991,538.414257 573.375991,538.414257 L573.375991,538.414257 L575.052241,537.705507 C576.063363,537.290655 577.225243,537.692019 577.764714,538.642515 C578.304184,539.593011 578.053077,540.796342 577.178491,541.451757 L577.178491,541.451757 L574.332241,543.555507 C574.124005,543.7001 573.876996,543.778515 573.623491,543.780552 L573.623491,543.780552 L551.922241,543.780552 C551.537562,543.783788 551.17364,543.606359 550.939303,543.301278 C550.704965,542.996197 550.627377,542.59883 550.729741,542.228007 L550.729741,542.228007 L551.235991,540.349257 C551.315621,540.084768 551.47712,539.852367 551.697241,539.685507 L551.697241,539.685507 L553.429741,538.403007 L549.942241,535.028007 L546.915991,542.903007 C546.72801,543.404694 546.247987,543.736672 545.712241,543.735507 L545.712241,543.735507 L540.312241,543.735507 C539.884575,543.735298 539.484645,543.523759 539.243795,543.170363 C539.002946,542.816966 538.9523,542.36738 539.108491,541.969257 L539.108491,541.969257 L539.648491,540.551757 C539.783374,540.219182 540.047166,539.95539 540.379741,539.820507 L540.379741,539.820507 L543.315991,538.684257 C544.165662,533.497217 544.497296,532.314776 544.696077,531.289288 L544.724263,531.13989 C544.788027,530.791826 544.838491,530.440178 544.890991,529.931757 C544.913491,529.099257 545.318491,527.625507 544.744741,526.421757 C541.819741,520.234257 544.958491,519.559257 543.304741,517.106757 C542.980774,516.747673 542.536586,516.519576 542.055991,516.465507 C540.030991,516.592681 537.733779,516.609269 536.518017,516.611432 L536.048491,516.611757 C534.81311,516.754579 533.569788,516.420612 532.572241,515.678007 C531.627241,514.980507 530.029741,510.908007 530.873491,509.974257 C531.717241,509.040507 534.282241,508.264257 536.217241,507.251757 C538.152241,506.239257 538.433491,504.124257 540.492241,502.864257 C543.066315,501.183316 546.305158,500.884281 549.143491,502.065507 Z M385.628727,484.358362 C388.099262,484.348043 390.116163,486.331396 390.147241,488.801757 C390.147241,490.768777 388.900759,492.444665 387.154591,493.082629 L387.154722,493.869127 C389.492515,494.043388 391.82573,494.587714 394.067562,495.519287 C402.419496,498.989859 407.857146,507.1512 407.843516,516.195507 C407.812508,528.522819 397.817085,538.50315 385.489741,538.515507 C376.445424,538.515507 368.292308,533.065521 364.834359,524.708353 C361.37641,516.351185 363.295096,506.733796 369.695224,500.343332 C373.61008,496.434386 378.729779,494.204028 384.027057,493.855584 L384.027027,493.057695 C382.334889,492.404408 381.139579,490.758851 381.147596,488.839494 C381.157995,486.368959 383.158193,484.368762 385.628727,484.358362 Z M578.190991,515.599257 L575.940991,517.849257 L577.707241,519.559257 C578.0645,519.869917 578.102276,520.411373 577.791616,520.768632 C577.480955,521.125891 576.9395,521.163667 576.582241,520.853007 L576.582241,520.853007 L574.568491,519.413007 L572.419741,521.573007 L574.039741,523.193007 C574.201213,523.351648 574.292169,523.568518 574.292169,523.794882 C574.292169,524.021245 574.201213,524.238116 574.039741,524.396757 C573.740614,524.705147 573.259092,524.743669 572.914741,524.486757 L572.914741,524.486757 L570.900991,523.046757 L569.157241,524.801757 C568.267012,525.680156 567.907593,526.963793 568.212241,528.176757 L568.212241,528.176757 L565.444741,531.450507 L560.944741,536.715507 L561.979741,537.750507 L567.222241,533.306757 L570.462241,530.561757 C571.72373,530.938101 573.090144,530.60724 574.039741,529.695507 L574.039741,529.695507 L583.118491,520.526757 L578.190991,515.599257 Z M368.575823,513.410113 L372.912241,516.195507 L368.585909,518.975324 C369.787706,526.249762 375.572215,531.979928 382.877204,533.097566 L385.590991,528.874257 L388.286088,533.068485 C395.540259,531.877641 401.263304,526.1298 402.412619,518.857595 L398.269741,516.195507 L402.418674,513.53019 C401.862889,509.967588 400.192886,506.645784 397.613774,504.061592 C395.075156,501.517974 391.820176,499.853732 388.322224,499.265408 L385.590991,503.516757 L382.837259,499.232086 C375.532032,500.367435 369.753026,506.117979 368.575823,513.410113 Z M395.940991,505.969257 L390.034741,520.864257 L375.139741,526.770507 L381.045991,511.875507 L395.940991,505.969257 Z M392.172241,509.693007 L383.172241,513.281757 L388.628491,518.738007 L392.172241,509.693007 Z M228.203491,446.445507 L252.098491,465.435507 C253.075165,466.21122 253.563812,467.449058 253.380363,468.68274 C253.196913,469.916421 252.369237,470.958521 251.209113,471.41649 C250.048988,471.874458 248.732665,471.67872 247.755991,470.903007 L247.755991,470.903007 L246.473,469.884 L246.473491,492.255507 L234.188491,492.255507 L234.188491,480.409257 C234.188491,477.07898 231.488768,474.379257 228.158491,474.379257 C224.828213,474.379257 222.128491,477.07898 222.128491,480.409257 L222.128491,492.255507 L209.922241,492.255507 L209.922,469.884 L208.639741,470.903007 C207.183854,472.059328 205.089874,471.866453 203.866959,470.49745 L203.734741,470.340507 C202.535592,468.830698 202.787432,466.634655 204.297241,465.435507 L204.297241,465.435507 L228.203491,446.445507 Z M385.590991,487.384257 C385.012095,487.384257 384.490423,487.733608 384.269956,488.268878 C384.049488,488.804148 384.173801,489.419551 384.584757,489.827271 C384.995713,490.234991 385.612079,490.354436 386.14559,490.129744 C386.6791,489.905051 387.024299,489.380634 387.019741,488.801757 C387.013562,488.017077 386.375695,487.384257 385.590991,487.384257 Z M651.945991,419.861757 C653.712241,417.420507 658.369741,416.554257 661.890991,418.635507 C665.412241,420.716757 665.412241,424.024257 664.287241,427.163007 C663.443491,429.525507 662.217241,429.750507 660.968491,429.041757 C659.922241,428.468007 660.293491,426.915507 660.293491,426.915507 C660.56945,426.131038 660.798603,425.330881 660.979741,424.519257 C661.598491,422.100507 658.380991,420.671757 656.547241,421.628007 C654.713491,422.584257 655.287241,424.710507 655.568491,425.475507 L655.568491,425.475507 L657.818491,430.808007 C657.891699,430.912948 657.952126,431.026249 657.998491,431.145507 L657.998491,431.145507 L660.765991,437.096757 C661.865865,436.794168 663.000306,436.635346 664.140991,436.624257 L664.140991,436.624257 L664.152241,436.613007 C670.577806,436.600551 676.037003,441.309812 676.967342,447.667682 C677.897681,454.025553 674.016676,460.101553 667.856943,461.930687 C661.69721,463.759821 655.129066,460.786698 652.438664,454.951479 C649.748262,449.11626 651.752505,442.190729 657.143491,438.694257 L657.143491,438.694257 L655.658491,435.319257 L648.064741,445.669257 C649.424981,447.072966 649.83181,449.145684 649.103082,450.959412 C648.374353,452.77314 646.646546,453.988194 644.693238,454.060568 C642.739929,454.132943 640.926942,453.049083 640.065991,451.294257 L640.065991,451.294257 L637.815991,451.294257 C637.046045,456.605697 633.076719,460.890248 627.839475,462.063058 C622.602231,463.235869 617.184697,461.05338 614.223031,456.577584 C611.261366,452.101789 611.370622,446.262183 614.497637,441.900305 C617.624652,437.538426 623.120032,435.560112 628.309741,436.928007 L628.309741,436.928007 L631.583491,429.874257 C631.63648,429.766618 631.700579,429.664815 631.774741,429.570507 L631.774741,429.570507 L631.774741,426.195507 L629.524741,426.195507 C628.083277,426.195507 626.914741,425.02697 626.914741,423.585507 L626.914741,423.585507 L626.914741,422.921757 C626.914741,421.594257 627.578491,420.604257 629.524741,420.604257 L629.524741,420.604257 L637.725991,420.851757 C638.433557,420.797079 639.129667,421.054448 639.631483,421.556264 C640.1333,422.058081 640.390669,422.754191 640.335991,423.461757 L640.335991,423.461757 L640.335991,423.585507 C640.335991,425.02697 639.167454,426.195507 637.725991,426.195507 L637.725991,426.195507 L635.700991,426.195507 L635.700991,429.289257 L652.857241,429.289257 L652.215991,427.838007 L652.215991,427.770507 L651.732241,426.645507 C651.727205,426.615718 651.727205,426.585296 651.732241,426.555507 C650.685991,424.114257 650.179741,422.303007 651.945991,419.861757 Z M671.125408,444.275257 C669.116066,441.614974 665.777033,440.317008 662.498491,440.921757 L662.498491,440.921757 L666.244741,448.988007 C666.586639,449.985413 666.091774,451.076443 665.116135,451.476246 C664.140496,451.876049 663.022322,451.44602 662.565991,450.495507 L662.565991,450.495507 L660.439741,446.063007 C660.372241,445.950507 659.764741,444.758007 659.764741,444.634257 L659.764741,444.634257 L658.842241,442.553007 C655.820714,444.833222 654.593817,448.788892 655.794679,452.378729 C656.995541,455.968567 660.355625,458.389814 664.140991,458.393007 C667.474798,458.376119 670.513417,456.478579 671.991739,453.490415 C673.470061,450.502251 673.134749,446.93554 671.125408,444.275257 Z M624.968491,440.640507 C620.222939,440.810072 616.46344,444.706302 616.46344,449.454882 C616.46344,454.203462 620.222939,458.099692 624.968491,458.269257 L624.968491,458.269257 L625.024741,458.303007 C629.183628,458.303825 632.77647,455.395781 633.642241,451.328007 L633.642241,451.328007 L624.923491,451.328007 C624.790332,451.32673 624.65793,451.307815 624.529741,451.271757 C624.325928,451.252456 624.12752,451.195223 623.944741,451.103007 C623.469848,450.876777 623.104497,450.470874 622.929314,449.974876 C622.754132,449.478877 622.783519,448.933556 623.010991,448.459257 L623.010991,448.459257 L626.565991,440.820507 C626.04016,440.711501 625.505393,440.651246 624.968491,440.640507 Z M72.2447405,410.029257 C77.2796837,410.102118 82.2951838,410.671119 87.2184905,411.728007 C88.9397405,412.268007 90.3009905,412.605507 90.8072405,413.730507 L90.8072405,413.730507 L96.0947405,425.531757 C96.2390251,425.844498 96.3302709,426.179066 96.3647405,426.521757 L96.3647405,426.521757 L96.6909905,426.521757 L96.6459905,426.499257 C99.1097405,426.499257 101.202241,429.593007 100.583491,432.124257 L100.583491,432.124257 L96.8372405,447.413007 L96.8372405,455.614257 C96.8372405,456.639435 96.0061691,457.470507 94.9809905,457.470507 L94.9809905,457.470507 L90.0647405,457.470507 C89.0395619,457.470507 88.2084905,456.639435 88.2084905,455.614257 L88.2084905,455.614257 L88.2084905,452.655507 L54.6947405,452.655507 L54.6947405,455.614257 C54.6947405,456.639435 53.8636691,457.470507 52.8384905,457.470507 L52.8384905,457.470507 L47.9222405,457.470507 C46.8970619,457.470507 46.0659905,456.639435 46.0659905,455.614257 L46.0659905,455.614257 L46.0659905,447.739257 L42.8259905,432.146757 C42.2972405,429.581757 44.6147405,426.521757 47.0784905,426.521757 L47.0784905,426.521757 L47.7759905,426.521757 C47.7994155,426.182118 47.8753155,425.848157 48.0009905,425.531757 L48.0009905,425.531757 L52.8384905,413.730507 C53.6034905,412.234257 54.7059905,412.200507 56.3484905,411.728007 C61.585088,410.683004 66.9055712,410.114432 72.2447405,410.029257 Z M244.932241,446.333007 L244.932241,455.816757 L238.148491,450.484257 L238.148491,446.333007 L244.932241,446.333007 Z M633.720991,434.678007 L631.920991,438.548007 C635.214781,440.648877 637.381711,444.126718 637.815991,448.009257 L637.815991,448.009257 L639.717241,448.009257 C639.950095,447.064546 640.459275,446.210691 641.179741,445.556757 L641.179741,445.556757 L633.720991,434.678007 Z M630.165991,442.384257 L627.533491,448.009257 L633.653491,448.009257 C633.270892,445.750495 632.019022,443.73135 630.165991,442.384257 L630.165991,442.384257 Z M81.3684905,440.663007 L62.9634905,440.663007 C61.1972405,440.663007 60.3984905,442.148007 61.0847405,443.779257 C61.7353823,445.237696 63.1464807,446.210269 64.7409905,446.299257 L64.7409905,446.299257 L79.5459905,446.299257 C81.1389736,446.213786 82.5483837,445.239379 83.1909905,443.779257 L83.1909905,443.779257 L83.2359905,443.779257 C83.9334905,442.148007 83.1347405,440.663007 81.3684905,440.663007 L81.3684905,440.663007 Z M652.283491,433.226757 L637.557241,433.226757 L644.667241,443.599257 L652.283491,433.226757 Z M53.3372286,432.878025 C51.3753241,432.875964 49.7826342,434.463629 49.7784903,436.425531 C49.7743626,438.387432 51.3603447,439.981798 53.3222405,439.988007 C54.2679469,439.994016 55.176822,439.621765 55.8466065,438.954094 C56.516391,438.286422 56.8915119,437.378728 56.8885086,436.433007 C56.8885086,434.471101 55.2991332,432.88009 53.3372286,432.878025 Z M90.5934905,432.878007 C88.6301182,432.878007 87.0384905,434.469635 87.0384905,436.433007 C87.0384905,438.396379 88.6301182,439.988025 90.5934905,439.988025 C91.5372519,439.991008 92.4432246,439.617428 93.1105681,438.950084 C93.7779115,438.282741 94.1514914,437.376768 94.1485084,436.433007 C94.1485084,434.469635 92.5568628,432.878007 90.5934905,432.878007 Z M72.1547405,415.643007 C68.2967909,415.703644 64.4522919,416.114076 60.6684905,416.869257 C59.3297405,417.116757 58.4522405,417.499257 58.1259905,418.320507 L58.1259905,418.320507 L55.1672405,425.205507 L55.1672405,425.239257 C54.5934905,426.634257 54.8859905,427.196757 56.3709905,427.826757 C61.3116461,429.209684 66.4066423,429.965618 71.5359905,430.076757 C76.8789016,429.954735 82.1884856,429.19946 87.3534905,427.826757 C88.8159905,427.433007 89.5584905,426.634257 88.9397405,425.239257 L88.9397405,425.239257 L85.5647405,418.320507 C85.2159905,417.499257 84.3609905,417.116757 82.9659905,416.869257 C79.4112477,416.106503 75.7900129,415.69577 72.1547405,415.643007 Z M551.888491,361.744257 C553.575481,360.057627 556.31025,360.057627 557.997241,361.744257 L557.997241,361.744257 L558.008491,361.733007 C559.682808,363.425078 559.682808,366.149686 558.008491,367.841757 L558.008491,367.841757 L544.733491,381.105507 L549.390991,412.245507 C549.453487,413.112783 549.132781,413.963886 548.513491,414.574257 L548.513491,414.574257 L546.049741,417.038007 C545.329741,417.791757 544.800991,417.510507 544.620991,417.038007 L544.620991,417.038007 L534.495991,391.421757 L525.214741,400.703007 L526.114741,409.376757 C526.234738,410.012331 526.114465,410.669821 525.777241,411.221757 L525.777241,411.221757 L524.280991,413.168007 C523.538491,414.079257 523.020991,413.156757 522.874741,412.774257 L522.874741,412.774257 L518.374741,404.021757 C518.080448,403.309149 518.017483,402.522089 518.194741,401.771757 C517.362796,401.998815 516.473836,401.868325 515.742241,401.411757 L515.742241,401.411757 L506.989741,396.911757 C506.595991,396.630507 505.684741,396.259257 506.595991,395.505507 L506.595991,395.505507 L508.553491,394.020507 C509.092618,393.661356 509.75557,393.53934 510.387241,393.683007 L510.387241,393.683007 L519.083491,394.583007 L528.432241,385.223007 L502.557241,374.951757 C502.017241,374.726757 501.837241,374.209257 502.557241,373.478007 L502.557241,373.478007 L504.987241,371.048007 C505.59261,370.422042 506.448699,370.103593 507.315991,370.181757 L507.315991,370.181757 L538.748491,374.884257 Z M351.32068,350.136136 C354.265623,349.845707 356.951498,351.834073 357.533491,354.735507 C358.02271,356.902342 358.634951,359.039553 359.367241,361.136757 C361.470991,365.749257 364.497241,361.969257 366.938491,370.249257 C368.310991,374.906757 369.773491,377.561757 369.750991,380.610507 C369.940588,384.953689 367.731523,389.05061 363.998641,391.278787 C360.265759,393.506964 355.611222,393.506964 351.87834,391.278787 C348.145458,389.05061 345.936393,384.953689 346.125991,380.610507 L346.125991,380.610507 L346.126074,376.371772 C344.267983,377.572408 341.858359,377.567326 340.004938,376.356524 L340.005991,380.723007 C340.277335,385.117205 338.087108,389.298848 334.320427,391.578042 C330.553747,393.857236 325.833234,393.857236 322.066554,391.578042 C318.299873,389.298848 316.109646,385.117205 316.380991,380.723007 C316.380991,377.595507 317.854741,374.940507 319.227241,370.283007 C320.577241,365.683007 322.111268,364.794812 323.570836,364.12884 L323.82027,364.016199 C324.897572,363.531879 325.925633,363.06015 326.798491,361.170507 C327.521313,359.071288 328.129708,356.934397 328.620991,354.769257 C329.226659,351.887771 331.904416,349.924254 334.834681,350.21295 C337.764946,350.501646 340.008039,352.949975 340.039741,355.894257 L340.039741,355.894257 L340.005991,355.973007 L340.004833,363.90009 C340.879287,363.242109 341.95076,362.874344 343.065991,362.869248 C344.179125,362.867137 345.250367,363.228164 346.125963,363.880056 L346.125991,355.860507 L346.130937,355.627921 C346.248689,352.772545 348.453236,350.418921 351.32068,350.136136 Z M331.14949,373.580004 C328.274065,372.388964 324.964308,373.047316 322.763554,375.24807 C320.562799,377.448825 319.904448,380.758581 321.095488,383.634006 C322.286527,386.50943 325.092404,388.384265 328.204741,388.384265 C330.246497,388.387248 332.205489,387.577488 333.64923,386.133747 C335.092972,384.690005 335.902732,382.731013 335.899749,380.689257 C335.899749,377.57692 334.024914,374.771044 331.14949,373.580004 Z M360.869385,373.578934 C357.992579,372.388556 354.681942,373.048972 352.482075,375.25206 C350.282208,377.455148 349.626636,380.766748 350.821221,383.641809 C352.015807,386.516871 354.825134,388.388809 357.938491,388.384265 L357.938491,388.384265 L357.949741,388.384265 C359.987598,388.381275 361.940806,387.568879 363.37968,386.125786 C364.818553,384.682693 365.625226,382.727115 365.622249,380.689257 C365.622249,377.575897 363.746191,374.769312 360.869385,373.578934 Z M327.945949,374.849441 L328.204741,374.861757 C329.149741,375.019257 329.307241,375.671757 328.778491,375.986757 C327.720971,376.514047 326.731255,377.167562 325.830991,377.933007 C325.033213,378.782427 324.348773,379.731568 323.794741,380.756757 C323.479741,381.285507 322.815991,381.094257 322.669741,380.160507 C322.599939,378.707183 323.171626,377.296476 324.233491,376.301757 C325.292153,375.278735 326.736425,374.755033 328.204741,374.861757 Z M357.679738,374.849679 L357.938491,374.861757 C358.883491,375.019257 359.040991,375.671757 358.512241,375.986757 C357.456079,376.516399 356.466635,377.169735 355.564741,377.933007 C354.770468,378.785312 354.086367,379.733983 353.528491,380.756757 C353.213491,381.285507 352.549741,381.094257 352.403491,380.160507 C352.344264,378.709002 352.914233,377.302532 353.967241,376.301757 C355.026676,375.279973 356.470376,374.756479 357.938491,374.861757 Z M343.065991,365.850507 C341.904121,365.850507 340.962241,366.792388 340.962241,367.954257 C340.962241,369.116126 341.904121,370.058007 343.065991,370.058007 C343.62394,370.058007 344.159037,369.836362 344.553566,369.441833 C344.948096,369.047303 345.169741,368.512206 345.169741,367.954257 C345.169741,366.792388 344.22786,365.850507 343.065991,365.850507 Z M267.578491,256.928007 C268.199097,256.928007 268.794285,257.174542 269.23312,257.613377 C269.671956,258.052212 269.918491,258.6474 269.918491,259.268007 L269.918491,261.248007 C269.918491,261.868613 269.671956,262.463802 269.23312,262.902637 C268.794285,263.341472 268.199097,263.588007 267.578491,263.588007 L267.049741,263.588007 C266.545545,263.581932 266.138682,263.177075 266.127478,262.675507 C264.788156,262.947411 263.022241,263.604206 263.022241,265.174257 C263.022241,267.604242 264.014472,273.430243 265.80714,278.963885 L283.907341,278.963885 C285.700009,273.430243 286.692241,267.604242 286.692241,265.174257 C286.692241,263.524604 284.763842,262.882539 283.406551,262.635809 L283.407241,262.654257 C283.407241,262.901903 283.308864,263.139406 283.133751,263.314518 C282.958639,263.48963 282.721136,263.588007 282.473491,263.588007 L282.473491,263.588007 L281.955991,263.588007 C280.663644,263.588007 279.615991,262.540353 279.615991,261.248007 L279.615991,261.248007 L279.615991,259.268007 C279.615991,258.6474 279.862526,258.052212 280.301361,257.613377 C280.740196,257.174542 281.335384,256.928007 281.955991,256.928007 L281.955991,256.928007 L282.473491,256.928007 C282.984825,256.928007 283.40108,257.33921 283.407241,257.850507 L283.407241,257.850507 L283.407132,258.167356 C286.591378,258.570842 291.113491,260.357903 291.113491,265.174257 C291.113491,269.982025 287.287754,292.199805 277.263774,295.328863 C277.641696,300.286516 277.205589,306.565263 273.552241,310.613007 C271.279145,313.084714 268.03082,314.426861 264.675991,314.280507 L264.675991,314.258007 C260.743836,314.315763 257.013795,312.519509 254.607241,309.409257 C251.400991,305.291757 250.467241,299.284257 252.053491,292.961757 C254.033491,285.086757 254.055991,280.238007 252.120991,277.774257 C251.173013,276.494488 249.514096,275.773885 247.171162,275.578794 C246.167146,278.179619 243.644487,280.024257 240.690991,280.024257 C236.857444,280.024257 233.749741,276.916553 233.749741,273.083007 C233.749741,269.24946 236.857444,266.141757 240.690991,266.141757 C244.063991,266.141757 246.875072,268.54762 247.501813,271.736925 C250.924924,272.034596 253.502508,273.25675 255.169741,275.389257 C257.925991,278.933007 258.117241,284.636757 255.799741,293.906757 C254.528491,299.003007 255.214741,303.908007 257.655991,307.024257 C259.322679,309.205849 261.931267,310.459977 264.675991,310.399257 C266.934022,310.540315 269.137085,309.66569 270.683491,308.014257 C272.887403,305.566643 273.843876,301.163045 273.411922,295.564791 C262.670247,293.609318 258.600991,270.132679 258.600991,265.174257 C258.600991,260.447784 262.955899,258.638596 266.12772,258.191401 L266.127241,257.850507 C266.127241,257.341024 266.540258,256.928007 267.049741,256.928007 L267.578491,256.928007 Z M453.889741,279.495507 C465.938491,279.495507 474.972241,295.763007 472.013491,304.560507 C469.794428,311.158632 463.993647,310.954023 458.768725,310.439335 L458.272987,310.389587 C456.709508,310.2304 455.21041,310.061757 453.889741,310.061757 C448.050991,310.061757 438.724741,313.358007 435.765991,304.560507 C432.807241,295.763007 441.840991,279.495507 453.889741,279.495507 Z M456.814741,286.695507 L450.975991,286.695507 L450.975991,293.085507 L444.552241,293.085507 L444.552241,298.924257 L450.975991,298.924257 L450.975991,305.348007 L456.814741,305.348007 L456.814741,298.924257 L463.227241,298.924257 L463.227241,293.108007 L456.814741,293.108007 L456.814741,286.695507 Z M616.564741,247.466757 C617.070991,246.544257 624.439741,251.156757 626.689741,257.276757 C628.939741,263.396757 630.987241,271.598007 636.814741,274.511757 C646.174741,279.191757 649.842241,286.403007 654.195991,290.835507 L654.195991,290.835507 L654.319741,290.858007 C657.582241,294.188007 659.314741,300.443007 659.832241,305.100507 L659.832241,305.100507 L629.378491,305.100507 C628.343491,303.390507 627.882241,301.140507 629.007241,300.015507 C630.593491,298.530507 633.675991,301.365507 636.612241,301.905507 C639.548491,302.445507 645.848491,299.284257 646.737241,293.715507 C647.625991,288.146757 642.439741,281.633007 638.772241,281.509257 C637.142042,281.373106 635.581957,282.199291 634.778491,283.624257 C631.324741,281.250507 628.579741,277.178007 626.115991,273.499257 C624.694933,271.137665 622.98694,268.961107 621.030991,267.019257 C617.374741,263.891757 610.489741,266.074257 605.460991,267.671757 C604.167241,268.088007 602.682241,268.549257 601.917241,268.684257 C601.426564,267.899656 601.426564,266.903858 601.917241,266.119257 C602.856542,265.460472 603.521129,264.479606 603.784741,263.363007 C605.494741,255.870507 604.515991,255.375507 611.119741,253.429257 C612.753181,252.939746 614.443958,252.667407 616.148491,252.619257 C615.885422,250.89273 616.027934,249.128665 616.564741,247.466757 Z M606.327241,270.889257 C610.129741,269.685507 616.452241,267.671757 618.702241,269.584257 C620.421549,271.33884 621.931631,273.286846 623.202241,275.389257 C625.767241,279.203007 628.860991,283.793007 632.978491,286.526757 C633.091318,287.098517 633.241643,287.662235 633.428491,288.214257 C633.732241,290.183007 636.195991,295.391757 632.820991,295.256757 L632.820991,295.256757 L632.787241,295.268007 C628.995991,295.110507 625.204741,295.425507 624.698491,299.768007 C624.565529,301.628132 625.013678,303.483626 625.980991,305.078007 L625.980991,305.078007 L616.508491,305.078007 C618.070693,301.818353 619.281271,298.401582 620.119741,294.885507 C616.579705,291.168956 614.923589,286.043277 615.619741,280.958007 C615.518491,275.423007 612.998491,274.388007 612.998491,274.388007 C610.544309,274.440885 608.098778,274.07957 605.764741,273.319257 C605.025875,272.883549 604.373715,272.315292 603.840991,271.643007 C604.572241,271.440507 605.382241,271.193007 606.327241,270.889257 Z M77.2509905,241.616719 C77.7109773,241.614585 78.1665531,241.706466 78.5897405,241.886757 C79.2456796,242.165576 79.8051393,242.631141 80.1984905,243.225507 C80.9859905,244.220007 82.3872905,246.897507 83.7918305,249.765447 L84.1157347,250.42998 C86.1100713,254.540405 88.0158559,258.803988 88.0734905,258.919257 C88.3987188,259.689519 88.5780111,260.5135 88.6022405,261.349257 C89.3222405,262.035507 90.0984905,262.823007 91.2234905,263.801757 C94.6209905,266.895507 98.4797405,273.566757 100.864741,276.941757 C104.070991,281.520507 107.850991,292.005507 107.850991,292.005507 L107.850991,292.005507 L109.887241,291.173007 C110.874643,290.761304 112.012999,290.988086 112.767241,291.746757 C113.307766,292.294814 113.582584,293.051237 113.519911,293.818443 C113.457237,294.58565 113.063298,295.287442 112.440991,295.740507 C112.440991,295.740507 109.639741,298.395507 108.120991,298.395507 L108.120991,298.395507 L81.7959905,298.395507 C81.3322396,298.390938 80.8968223,298.171579 80.6171509,297.80162 C80.3374795,297.431661 80.2451724,296.952927 80.3672405,296.505507 L80.3672405,296.505507 L80.9972405,294.255507 C81.0823932,293.930157 81.2770743,293.644095 81.5484905,293.445507 L81.5484905,293.445507 L83.6747405,291.848007 L79.4672405,287.730507 L75.7547405,297.315507 C75.5217593,297.931348 74.9392127,298.344911 74.2809905,298.361757 L74.2809905,298.361757 L67.7334905,298.361757 C67.2000789,298.342885 66.7096398,298.064253 66.4203332,297.615715 C66.1310266,297.167178 66.0794516,296.605478 66.2822405,296.111757 L66.2822405,296.111757 L66.9572405,294.401757 C67.117327,293.995014 67.4392476,293.673093 67.8459905,293.513007 L67.8459905,293.513007 L71.4459905,292.095507 C72.5067048,285.851757 72.9188221,284.400736 73.1661253,283.162908 L73.1981649,282.998726 L73.1981649,282.998726 L73.2285059,282.834658 C73.2975183,282.45009 73.3547405,282.046757 73.4147405,281.486757 C73.4372405,280.845507 73.6059905,279.889257 73.6059905,278.899257 C70.4260237,280.044784 67.1707897,280.969481 63.8634905,281.666757 C63.5333344,281.755781 63.1929379,281.801167 62.8509905,281.801757 C62.3944734,281.805629 61.9422255,281.713647 61.5234905,281.531757 C59.3297405,280.586757 58.5309905,277.673007 59.1497405,272.869257 C59.1722405,272.621757 59.2622405,272.374257 59.2622405,272.126757 C59.4454882,272.26587 59.6370981,272.39361 59.8359905,272.509257 C60.5580029,272.9378 61.309949,273.313773 62.0859905,273.634257 C61.6809905,276.458007 61.8722405,278.303007 62.8059905,278.708007 C64.1222405,279.270507 66.5297405,276.818007 69.1397405,272.633007 L69.1397405,272.633007 L67.0922405,272.486757 C64.8931759,272.43142 62.7459416,271.807405 60.8597405,270.675507 C58.8459905,269.539257 53.5809905,263.441757 54.3459905,262.193007 C55.1109905,260.944257 58.7672405,260.269257 61.1747405,258.964257 C63.5822405,257.659257 62.6822405,254.723007 65.1572405,253.159257 C69.3309905,250.493007 74.8547405,251.820507 77.5322405,252.743007 C78.6009905,248.366757 78.5559905,245.216757 77.3972405,244.710507 C76.2384905,244.204257 74.1684905,246.105507 71.9184905,249.480507 L71.9184905,249.480507 L71.2097405,249.480507 C70.1366445,249.473253 69.0657591,249.578833 68.0147405,249.795507 C71.0297405,245.070507 74.3934905,241.616719 77.2509905,241.616719 Z M282.431721,282.963863 L267.28276,282.963863 C269.243574,287.613545 271.815101,291.285507 274.857241,291.285507 C277.89938,291.285507 280.470907,287.613545 282.431721,282.963863 Z M470.010991,279.101757 C471.360991,276.030507 473.948491,274.568007 475.962241,275.445507 C477.975991,276.266757 479.089741,279.349257 478.358491,282.746757 C477.492241,286.661757 476.007241,290.070507 471.799741,288.236757 C467.592241,286.403007 468.435991,282.701757 470.010991,279.101757 Z M431.817241,275.389257 C433.830991,274.545507 436.429741,275.974257 437.768491,279.045507 C439.354741,282.645507 440.187241,286.335507 435.979741,288.180507 C431.772241,290.025507 430.298491,286.605507 429.432241,282.690507 C428.689741,279.349257 429.803491,276.233007 431.817241,275.389257 Z M457.062241,267.784257 C457.962241,264.319257 460.437241,262.564257 462.687241,263.430507 C464.937241,264.296757 466.602241,267.638007 466.365991,271.361757 C466.107241,275.726757 465.117241,279.574257 460.414741,277.763007 C455.712241,275.963007 455.993491,271.834257 457.062241,267.784257 Z M445.114741,263.430507 C447.364741,262.564257 449.828491,264.319257 450.739741,267.784257 C451.797241,271.834257 452.067241,275.963007 447.364741,277.763007 C442.662241,279.574257 441.683491,275.726757 441.435991,271.361757 C441.210991,267.638007 442.864741,264.296757 445.114741,263.430507 Z M81.0309905,251.044257 C80.2283377,255.717763 78.8529787,260.274584 76.9359905,264.611757 C75.1059124,268.982411 72.7403224,273.108967 69.8934905,276.896757 C72.9759905,275.918007 76.1709905,274.748007 77.8584905,274.140507 C78.6684905,273.836757 79.2534905,273.623007 79.4897405,273.555507 C80.2547405,273.296757 82.4034905,271.541757 84.0572405,267.671757 C85.7109905,263.801757 85.5309905,261.034257 85.1822405,260.314257 C85.0697405,260.078007 84.8334905,259.515507 84.4847405,258.728007 C83.7759905,257.085507 82.4259905,253.946757 81.0309905,251.044257 Z M240.690991,270.000507 C238.988573,270.000507 237.608491,271.380589 237.608491,273.083007 C237.608491,274.785425 238.988573,276.165507 240.690991,276.165507 C242.393408,276.165507 243.773491,274.785425 243.773491,273.083007 C243.773491,272.265477 243.448728,271.481431 242.870647,270.90335 C242.292566,270.325269 241.50852,270.000507 240.690991,270.000507 Z M554.554741,141.109257 C558.559741,141.109257 561.057241,141.818007 562.339741,143.359257 C563.622241,144.900507 563.307241,146.835507 563.059741,148.230507 C563.034698,148.335569 563.012619,148.441245 562.99352,148.547408 C569.597265,149.204941 571.180326,150.624996 572.025991,151.403007 C572.813491,152.303007 572.149741,158.794257 570.225991,162.563007 C570.410991,162.878007 570.601546,163.230229 570.786052,163.587575 L570.968112,163.945439 C571.535528,165.076556 572.003491,166.151757 572.003491,166.151757 C572.480654,167.292133 572.864553,168.490427 573.173003,169.717141 C575.568572,169.59436 578.15263,170.138211 578.978491,172.575507 C580.306887,176.177639 580.583904,180.083187 579.777241,183.836757 C579.216603,185.840346 576.786355,186.905376 574.136572,187.424429 C572.903252,192.332947 567.266984,192.843639 559.977679,192.858134 L559.320514,192.85821 C557.777158,192.855774 556.165202,192.836757 554.509741,192.836757 C552.814904,192.836757 551.180501,192.856296 549.627388,192.859535 L548.640361,192.85902 C541.476647,192.833565 536.224525,192.273607 535.07869,187.40754 C532.462009,186.882221 530.078062,185.818669 529.523491,183.836757 C528.716827,180.083187 528.993844,176.177639 530.322241,172.575507 C531.127254,170.199734 533.602825,169.623022 535.94726,169.709034 C536.24219,168.487871 536.618007,167.292678 537.094741,166.151757 C537.117642,166.121221 537.591219,165.044292 538.160443,163.919261 L538.342963,163.563554 C538.558647,163.149413 538.782241,162.743007 538.995991,162.394257 C537.128491,158.603007 536.498491,152.291757 537.274741,151.414257 L537.274741,151.414257 L537.356758,151.340358 C538.254663,150.534556 539.953478,149.161837 546.48796,148.531374 C546.471425,148.46446 546.45249,148.39793 546.432241,148.331757 C546.083491,146.925507 545.610991,144.956757 546.893491,143.359257 C548.175991,141.761757 550.549741,141.109257 554.554741,141.109257 Z M210.225991,132.334257 C211.10021,132.334257 211.938624,132.681539 212.556791,133.299706 C213.174958,133.917873 213.522241,134.756287 213.522241,135.630507 L213.522241,135.630507 L213.522241,185.940507 C213.522241,187.762804 212.048277,189.241809 210.225991,189.248007 L210.225991,189.248007 L169.725991,189.248007 C167.899309,189.248007 166.418491,187.767189 166.418491,185.940507 L166.418491,185.940507 L166.418491,135.641757 C166.424689,133.81947 167.903693,132.345496 169.725991,132.345507 L169.725991,132.345507 L210.225991,132.345507 Z M542.100991,167.850507 L539.940991,167.850507 L539.940991,183.195507 C539.940991,185.786413 542.041335,187.886757 544.632241,187.886757 L544.632241,187.886757 L564.668491,187.886757 C567.259396,187.886757 569.359741,185.786413 569.359741,183.195507 L569.359741,183.195507 L569.382241,167.850507 L567.222241,167.850507 L567.222241,183.195507 C567.222241,184.593478 566.088961,185.726757 564.690991,185.726757 L564.690991,185.726757 L544.632241,185.726757 C543.23427,185.726757 542.100991,184.593478 542.100991,183.195507 L542.100991,183.195507 L542.100991,167.850507 Z M185.824741,172.305507 C185.637408,172.29431 185.449573,172.29431 185.262241,172.305507 L185.262241,172.305507 L184.654741,172.361757 L181.864741,181.260507 L182.528491,181.350507 L183.034741,181.350507 C183.188288,181.361659 183.342443,181.361659 183.495991,181.350507 L183.495991,181.350507 L184.024741,181.283007 L184.485991,179.573007 L185.104741,179.708007 C185.299593,179.718734 185.494888,179.718734 185.689741,179.708007 C185.900902,179.706037 186.11157,179.687227 186.319741,179.651757 C186.544023,179.617964 186.765775,179.569104 186.983491,179.505507 L186.983491,179.505507 L187.467241,181.238007 L187.995991,181.305507 L188.490991,181.305507 L188.490991,181.384257 C188.909326,181.375401 189.326558,181.337812 189.739741,181.271757 L189.739741,181.271757 L186.983491,172.361757 L186.342241,172.305507 Z M194.509741,172.170507 C194.075468,172.163229 193.642731,172.223963 193.227241,172.350507 C192.866239,172.453035 192.532132,172.63353 192.248491,172.879257 C191.976674,173.117554 191.761446,173.413492 191.618491,173.745507 C191.470246,174.102064 191.393786,174.48436 191.393491,174.870507 C191.3845,175.188096 191.434077,175.504626 191.539741,175.804257 C191.624939,176.065678 191.76277,176.306883 191.944741,176.513007 C192.123014,176.723931 192.336094,176.902766 192.574741,177.041757 C192.831347,177.19588 193.102691,177.324014 193.384741,177.424257 L193.384741,177.424257 L194.082241,177.683007 L194.408491,177.818007 C194.506036,177.861172 194.596946,177.917991 194.678491,177.986757 C194.766512,178.050087 194.836344,178.135438 194.880991,178.234257 C194.938276,178.337183 194.965559,178.454107 194.959741,178.571757 C194.98319,178.845073 194.841618,179.106096 194.599741,179.235507 C194.292477,179.386528 193.951625,179.456248 193.609741,179.438007 C192.918411,179.406821 192.24077,179.234539 191.618491,178.931757 C191.505991,179.269257 191.404741,179.606757 191.314741,179.933007 C191.240663,180.24077 191.184321,180.552533 191.145991,180.866757 C191.56278,181.027746 191.991607,181.155642 192.428491,181.249257 C192.876251,181.340836 193.332806,181.382341 193.789741,181.373007 C194.295799,181.380511 194.800132,181.312256 195.285991,181.170507 C195.69712,181.054668 196.080046,180.855547 196.410991,180.585507 C196.705241,180.337119 196.939791,180.025668 197.097241,179.674257 L197.097241,179.674257 L197.029741,179.696757 C197.30906,178.97658 197.332886,178.182382 197.097241,177.446757 C196.990721,177.176232 196.834249,176.928166 196.635991,176.715507 C196.427576,176.499857 196.184131,176.321077 195.915991,176.186757 C195.609094,176.026983 195.293614,175.884266 194.970991,175.759257 L194.970991,175.759257 L194.374741,175.523007 C194.174627,175.44709 193.985476,175.344948 193.812241,175.219257 C193.649143,175.094299 193.560259,174.895368 193.575991,174.690507 C193.573486,174.564644 193.604551,174.440384 193.665991,174.330507 C193.724418,174.236712 193.805709,174.159292 193.902241,174.105507 C193.999816,174.049792 194.106446,174.011709 194.217241,173.993007 C194.344164,173.975863 194.472817,173.975863 194.599741,173.993007 C194.981053,173.979547 195.361784,174.03285 195.724741,174.150507 C196.017241,174.251757 196.275991,174.341757 196.489741,174.431757 C196.628466,174.143486 196.737769,173.841961 196.815991,173.531757 C196.896336,173.243802 196.956483,172.950589 196.995991,172.654257 C196.585296,172.503799 196.16418,172.38348 195.735991,172.294257 C195.333211,172.206921 194.921848,172.165408 194.509741,172.170507 Z M202.305991,172.170507 C201.871661,172.16229 201.438778,172.223046 201.023491,172.350507 C200.662489,172.453035 200.328382,172.63353 200.044741,172.879257 C199.772924,173.117554 199.557696,173.413492 199.414741,173.745507 C199.261337,174.100473 199.184662,174.483845 199.189741,174.870507 C199.18075,175.188096 199.230327,175.504626 199.335991,175.804257 C199.421575,176.063134 199.555154,176.303575 199.729741,176.513007 C199.913144,176.718715 200.125341,176.89681 200.359741,177.041757 C200.619089,177.198136 200.894401,177.326364 201.180991,177.424257 L201.180991,177.424257 L201.878491,177.683007 L202.193491,177.818007 C202.294981,177.860215 202.389738,177.917069 202.474741,177.986757 C202.55665,178.056335 202.62526,178.140192 202.677241,178.234257 C202.725468,178.340045 202.748571,178.455557 202.744741,178.571757 C202.770316,178.842572 202.633517,179.102931 202.395991,179.235507 C202.088727,179.386528 201.747875,179.456248 201.405991,179.438007 C200.714661,179.406821 200.03702,179.234539 199.414741,178.931757 C199.290991,179.269257 199.200991,179.606757 199.110991,179.933007 C199.036913,180.24077 198.980571,180.552533 198.942241,180.866757 C199.355226,181.027624 199.780305,181.155524 200.213491,181.249257 C200.661331,181.340289 201.117826,181.381789 201.574741,181.373007 C202.084541,181.381298 202.5927,181.313038 203.082241,181.170507 C203.492333,181.052062 203.874758,180.853201 204.207241,180.585507 C204.494722,180.333435 204.724884,180.022717 204.882241,179.674257 L204.882241,179.674257 L204.814741,179.674257 C204.977113,179.297992 205.057643,178.891508 205.050991,178.481757 C205.060125,178.129228 205.00288,177.778127 204.882241,177.446757 C204.784234,177.172006 204.62673,176.922304 204.420991,176.715507 C204.214478,176.502556 203.975199,176.324046 203.712241,176.186757 C203.405344,176.026983 203.089864,175.884266 202.767241,175.759257 L202.767241,175.759257 L202.170991,175.523007 C201.970877,175.44709 201.781726,175.344948 201.608491,175.219257 C201.445393,175.094299 201.356509,174.895368 201.372241,174.690507 C201.360155,174.452073 201.481528,174.226665 201.687241,174.105507 C201.788841,174.049815 201.899158,174.011775 202.013491,173.993007 C202.140414,173.975863 202.269067,173.975863 202.395991,173.993007 C202.777196,173.981567 203.157583,174.034821 203.520991,174.150507 L203.520991,174.150507 L204.285991,174.431757 C204.414932,174.139465 204.523931,173.838777 204.612241,173.531757 C204.692586,173.243802 204.752733,172.950589 204.792241,172.654257 C204.381032,172.505383 203.96003,172.385097 203.532241,172.294257 C203.129372,172.207485 202.718073,172.165978 202.305991,172.170507 Z M177.510991,172.148007 C177.015126,172.143216 176.519375,172.16575 176.025991,172.215507 L176.025991,172.215507 L175.148491,172.316757 L175.148491,181.215507 C175.520038,181.281895 175.896155,181.319507 176.273491,181.328007 L176.273491,181.328007 L176.757241,181.328007 C176.937241,181.316757 177.128491,181.249257 177.342241,181.249257 L177.342241,181.249257 L177.342241,178.346757 L178.152241,178.346757 C178.531909,178.345661 178.909912,178.29652 179.277241,178.200507 C179.643537,178.102434 179.98737,177.934338 180.289741,177.705507 C180.594024,177.4523 180.836441,177.132925 180.998491,176.771757 L180.998491,176.771757 L181.009741,176.794257 C181.391547,175.793663 181.367325,174.683496 180.942241,173.700507 C180.736469,173.308846 180.434514,172.975921 180.064741,172.733007 C179.692577,172.503757 179.280279,172.347237 178.849741,172.271757 C178.408658,172.186498 177.960228,172.145047 177.510991,172.148007 Z M185.768491,174.566757 L186.567241,177.784257 C186.426662,177.822751 186.283907,177.852805 186.139741,177.874257 C185.997459,177.885416 185.854522,177.885416 185.712241,177.874257 C185.584972,177.885114 185.457009,177.885114 185.329741,177.874257 L185.329741,177.874257 L184.935991,177.773007 L185.768491,174.566757 Z M177.657241,173.925507 C177.835207,173.920669 178.013025,173.939586 178.185991,173.981757 C178.34612,174.020043 178.495894,174.09301 178.624741,174.195507 L178.624741,174.195507 L178.624741,174.139257 C178.752746,174.253852 178.852804,174.396242 178.917241,174.555507 C178.98996,174.757361 179.0243,174.971032 179.018491,175.185507 C179.047399,175.534421 178.92439,175.878846 178.680991,176.130507 C178.446132,176.347368 178.134039,176.460857 177.814741,176.445507 L177.814741,176.445507 L177.499741,176.445507 C177.428928,176.456671 177.356803,176.456671 177.285991,176.445507 L177.285991,176.445507 L177.285991,173.925507 Z M558.447241,164.014257 C557.99989,164.014257 557.637241,164.376906 557.637241,164.824257 L557.637241,164.824257 L557.637241,168.199257 L555.477241,168.199257 L555.477241,167.591757 C555.477241,167.144406 555.114591,166.781757 554.667241,166.781757 C554.21989,166.781757 553.857241,167.144406 553.857241,167.591757 L553.857241,167.591757 L553.857241,168.199257 L551.685991,168.199257 L551.685991,164.824257 C551.685991,164.376906 551.323341,164.014257 550.875991,164.014257 C550.42864,164.014257 550.065991,164.376906 550.065991,164.824257 L550.065991,164.824257 L550.054741,169.200507 C550.060489,169.561609 550.211888,169.905072 550.474565,170.152921 C550.737242,170.400769 551.088913,170.531977 551.449741,170.516757 L551.449741,170.516757 L553.845991,170.516757 L553.845991,170.876757 C553.845991,171.324108 554.20864,171.686757 554.655991,171.686757 C555.103341,171.686757 555.465991,171.324108 555.465991,170.876757 L555.465991,170.876757 L555.465991,170.516757 L557.873491,170.516757 C558.232409,170.528876 558.581147,170.396284 558.841352,170.148771 C559.101557,169.901259 559.251409,169.559582 559.257241,169.200507 L559.257241,169.200507 L559.257241,164.824257 C559.257241,164.376906 558.894591,164.014257 558.447241,164.014257 Z M188.389741,160.268007 C186.470236,160.617987 184.721249,161.595362 183.417241,163.046757 C184.900713,164.069518 186.60419,164.728556 188.389741,164.970507 L188.389741,164.970507 Z M191.460991,160.211757 L191.460991,164.914257 C193.255753,164.681202 194.968558,164.02154 196.455991,162.990507 C195.153338,161.525793 193.392427,160.546187 191.460991,160.211757 L191.460991,160.211757 Z M422.642011,125.726413 C423.269336,125.365701 424.049097,125.402428 424.639741,125.820507 L424.639741,125.820507 L433.797241,130.568007 C434.348491,129.026757 436.328491,127.901757 438.679741,127.901757 L438.679741,127.901757 L438.679741,134.955507 C438.195849,134.959305 437.712988,134.910264 437.239741,134.809257 L437.239741,134.809257 L441.739741,141.840507 C443.25923,141.165607 444.903361,140.816852 446.565991,140.816757 L446.559,140.816 L446.845162,140.818821 C452.361704,140.925725 457.085755,144.817566 458.246521,150.211663 L458.306285,150.507363 C459.374025,156.153441 456.255624,161.756237 450.894454,163.824117 C445.533285,165.891997 439.460195,163.83449 436.459906,158.933823 C433.459616,154.033157 434.38884,147.688688 438.668491,143.854257 L438.668491,143.854257 L433.043491,135.180507 C432.323491,139.196757 431.153491,146.880507 431.558491,151.751757 C432.120991,158.591757 408.304741,152.741757 408.304741,152.741757 L408.304741,152.741757 L408.304741,152.404257 L406.605991,152.674257 L406.605991,152.741757 C406.603031,158.204253 402.8856,162.964926 397.586775,164.29208 C392.287951,165.619234 386.765419,163.17282 384.188033,158.356602 C381.610646,153.540384 382.638793,147.588392 386.682518,143.915905 C390.726244,140.243418 396.749448,139.791414 401.295991,142.819257 L401.295991,142.819257 L402.792241,141.199257 C400.352513,139.736623 397.53324,139.031805 394.692241,139.174257 L394.692241,139.174257 L394.692241,137.194257 C394.692241,137.194257 395.340266,137.178332 396.3592,137.175637 L396.817787,137.175377 C400.335441,137.180657 407.125741,137.357757 408.585991,138.611757 C408.585991,138.611757 416.100991,131.963007 428.835991,132.154257 L428.835991,132.154257 L422.940991,129.083007 C422.259788,128.838848 421.78257,128.221079 421.718368,127.500297 C421.654166,126.779514 422.014686,126.087125 422.642011,125.726413 Z M394.748491,144.529257 C390.212852,144.529257 386.535991,148.206119 386.535991,152.741757 C386.535991,157.277395 390.212852,160.954257 394.748491,160.954257 L394.748491,160.954257 L394.725991,161.033007 C399.047993,161.02499 402.626287,157.672796 402.915991,153.360507 L402.915991,153.360507 L395.040991,154.643007 C394.94381,154.654162 394.845671,154.654162 394.748491,154.643007 C394.011085,154.648422 393.341282,154.214224 393.045194,153.538852 C392.749107,152.863479 392.883613,152.076667 393.387241,151.538007 L393.387241,151.538007 L398.798491,145.654257 C397.571216,144.928914 396.17404,144.54081 394.748491,144.529257 Z M446.565991,144.529229 C445.618578,144.526758 444.678072,144.69049 443.787241,145.013007 L443.787241,145.013007 L448.118491,151.763007 C448.388261,152.175468 448.481795,152.678718 448.37824,153.160565 C448.274685,153.642413 447.982651,154.062799 447.567241,154.328007 C447.269962,154.522815 446.921388,154.624646 446.565991,154.620507 C445.937638,154.625704 445.350929,154.306841 445.013491,153.776757 L445.013491,153.776757 L440.670991,147.026757 C438.376203,149.394942 437.720475,152.906067 439.005843,155.942871 C440.291211,158.979676 443.268363,160.953137 446.565991,160.954257 C451.101629,160.954257 454.778491,157.277395 454.778491,152.741757 C454.778491,148.206118 451.101629,144.529229 446.565991,144.529229 Z M188.389741,155.138007 L178.568491,155.138007 C178.851895,157.273973 179.733277,159.286331 181.110991,160.943007 C182.999727,158.834091 185.582462,157.472866 188.389741,157.106757 L188.389741,157.106757 L188.389741,155.138007 Z M201.315991,155.070507 L191.472241,155.070507 L191.472,157.03 L191.812167,157.079081 C194.378373,157.491474 196.739207,158.733636 198.532502,160.615012 L198.773491,160.875507 C200.151204,159.218831 201.032586,157.206473 201.315991,155.070507 L201.315991,155.070507 Z M181.144741,146.194257 C179.744303,147.863373 178.846958,149.896054 178.557241,152.055507 L178.557241,152.055507 L188.389741,152.055507 L188.389741,149.985507 C185.603098,149.616054 183.036845,148.273154 181.144741,146.194257 Z M198.739741,146.138007 C196.842032,148.22966 194.261813,149.577596 191.460991,149.940507 L191.460991,149.940507 L191.460991,151.999257 L201.327241,151.999257 C201.037523,149.839804 200.140178,147.807123 198.739741,146.138007 Z M401.498491,148.106757 L399.720991,150.053007 L402.319741,149.625507 C402.10004,149.091843 401.824773,148.582788 401.498491,148.106757 L401.498491,148.106757 Z M405.582241,143.696757 L404.074741,145.339257 C404.954916,146.435384 405.62953,147.681704 406.065991,149.018007 L406.065991,149.018007 L407.899741,148.714257 C407.481528,146.899832 406.692496,145.191538 405.582241,143.696757 L405.582241,143.696757 Z M554.554741,144.270507 C550.583491,144.270507 549.638491,145.069257 549.447241,145.305507 C549.132241,145.710507 549.357241,146.621757 549.570991,147.555507 C549.648297,147.801482 549.711563,148.051169 549.760643,148.303362 C551.207174,148.234599 552.832174,148.196757 554.655991,148.196757 C556.551452,148.196757 558.232595,148.23763 559.725453,148.310834 C559.756898,148.087726 559.800037,147.865596 559.853491,147.645507 C560.044741,146.520507 560.157241,145.823007 559.853491,145.395507 C559.549741,144.968007 558.525991,144.270507 554.554741,144.270507 Z M188.389741,142.211757 C186.624068,142.448582 184.937378,143.09168 183.462241,144.090507 C184.760055,145.518034 186.491648,146.478713 188.389741,146.824257 L188.389741,146.824257 Z M191.460991,142.144257 L191.460991,146.779257 C193.372362,146.436859 195.11675,145.47171 196.422241,144.034257 C194.938002,143.026952 193.239233,142.379801 191.460991,142.144257 L191.460991,142.144257 Z M641.190991,34.8752485 C645.514008,34.8621805 649.823189,35.3644776 654.027241,36.3717569 C655.00162,36.5757557 655.912392,37.0118458 656.682241,37.6430069 L656.682241,37.6430069 L656.920399,37.8498053 C657.307352,38.2050407 657.643758,38.6123794 657.919741,39.0605069 C659.652241,41.5130069 661.620991,46.1705069 663.094741,51.7055069 L663.094741,51.7055069 L663.015991,51.6942569 C664.590991,57.5555069 665.209741,62.8542569 664.815991,65.7567569 C664.2478,70.6002829 662.455192,75.2192497 659.607241,79.1780069 C658.049482,81.2590479 656.297891,83.1876807 654.375991,84.9380069 C653.228491,85.9730069 653.858491,86.7605069 653.858491,86.7605069 L653.858491,86.7605069 L655.523491,89.6517569 C656.25181,91.096686 655.724448,92.8588962 654.322122,93.6662057 C652.919795,94.4735153 651.131057,94.0446671 650.247241,92.6892569 L650.247241,92.6892569 L648.289741,89.3142569 L632.100991,89.3142569 L630.132241,92.6892569 C629.293458,94.1431465 627.43488,94.6417893 625.980991,93.8030069 C624.527101,92.9642244 624.028458,91.1056465 624.867241,89.6517569 L624.867241,89.6517569 L626.622241,86.5917569 C626.768469,86.3063114 626.792344,85.9736767 626.688381,85.6702736 C626.584417,85.3668704 626.361553,85.1187827 626.070991,84.9830069 C623.964964,83.4047668 622.18466,81.4334434 620.828491,79.1780069 C618.226476,75.1041436 616.601659,70.4838102 616.080991,65.6780069 C616.002241,65.3967569 616.002241,65.0817569 616.002241,64.7555069 L616.002241,64.3730069 C616.061145,60.0848425 616.69685,55.8241068 617.892241,51.7055069 C619.399741,46.0692569 621.413491,41.3442569 623.168491,38.9255069 C623.42102,38.545248 623.719527,38.1976189 624.057241,37.8905069 C624.156556,37.7905786 624.261743,37.6966619 624.372241,37.6092569 C625.336064,36.8556248 626.480117,36.3669783 627.690991,36.1917569 C632.136385,35.3076116 636.658534,34.8667021 641.190991,34.8752485 Z M100.493491,75.4317569 C104.205991,74.8242569 102.495991,76.8267569 99.9534905,81.3267569 C98.834063,83.1423433 97.6016337,84.8857798 96.2634905,86.5467569 C94.6671949,88.4268306 92.8154604,90.0740791 90.7622405,91.4405069 C88.1522405,92.9930069 85.8459905,93.7917569 84.1472405,93.6905069 L84.1472405,93.6905069 L56.5847405,92.0480069 C55.9997405,92.0142569 55.4709905,91.1480069 55.0659905,90.1692569 L55.0659905,90.1692569 L53.5022405,86.1530069 C52.9172405,84.6792569 52.7709905,83.4530069 54.3797405,83.1717569 L54.3797405,83.1717569 L100.504741,75.4655069 Z M305.907241,42.2105069 C309.057241,51.0080069 315.649741,60.2780069 325.313491,68.4455069 C326.865991,69.7167569 328.440991,70.9430069 330.150991,72.1355069 L330.150991,72.1355069 L327.214741,75.8367569 L326.089741,84.1280069 L310.530991,84.1280069 L305.940991,68.6592569 L301.328491,84.1730069 L285.780991,84.1730069 L284.655991,75.8817569 L281.719741,72.1805069 C283.339741,70.9880069 284.948491,69.7617569 286.512241,68.4455069 C296.164741,60.2780069 302.768491,51.0080069 305.907241,42.2105069 Z M278.909618,74.1860064 L281.040953,76.8606674 L274.785413,81.8454672 L272.654078,79.1708063 L278.909618,74.1860064 Z M332.891546,74.168997 L339.146215,79.1548886 L337.014413,81.8291775 L330.759744,76.843286 L332.891546,74.168997 Z M631.347241,74.4530069 C629.569741,72.5630069 627.274741,71.8542569 626.194741,72.8667569 C625.114741,73.8792569 625.654741,76.2417569 627.432241,78.1205069 C629.209741,79.9992569 631.459741,80.7080069 632.584741,79.6955069 C633.664741,78.6830069 633.124741,76.3430069 631.347241,74.4530069 Z M654.690991,72.8667569 C653.565991,71.8205069 651.282241,72.5855069 649.515991,74.4530069 C647.749741,76.3205069 647.209741,78.6830069 648.289741,79.6955069 C649.369741,80.7080069 651.675991,79.9992569 653.442241,78.1205069 L653.442241,78.1205069 L653.464741,78.1205069 C655.219741,76.2417569 655.815991,73.9130069 654.690991,72.8667569 Z M66.2034905,53.1117569 C66.2034905,53.1117569 68.2509905,49.2305069 68.9822405,54.5405069 L68.9822405,54.5405069 L72.0084905,71.8767569 C72.0084905,71.8767569 72.8409905,76.2867569 69.2522405,76.2867569 C64.7522405,76.2867569 64.1334905,77.6480069 61.8834905,78.2217569 L61.8834905,78.2217569 L61.8159905,78.2105069 C60.3534905,78.5705069 57.4622405,78.4580069 58.4409905,74.0705069 C59.4197405,69.6830069 63.4922405,57.6680069 66.2034905,53.1117569 Z M70.4784905,44.4492569 C69.2409905,40.0055069 72.8859905,41.9855069 72.8859905,41.9855069 C90.3360905,50.4414569 93.8745485,58.3260869 96.0810691,64.623209 L96.2232135,65.0316298 C96.363728,65.4377789 96.4997405,65.8370819 96.6347405,66.2292569 C99.0534905,73.1480069 96.0047405,72.0230069 96.0047405,72.0230069 C92.8471569,71.7295426 89.6631705,71.9268815 86.5659905,72.6080069 C84.783531,73.0231425 83.0435395,73.6031397 81.3684905,74.3405069 C77.5209905,75.7580069 76.5984905,70.9655069 76.5984905,70.9655069 L76.5984905,70.9655069 L76.5872405,70.9430069 Z M640.943491,41.5692569 C637.163491,41.5692569 631.470991,42.0755069 629.963491,42.8067569 L629.963491,42.8067569 L629.850991,42.8630069 L629.639196,42.9730239 C629.431131,43.0896921 629.23456,43.2261153 629.052241,43.3805069 C629.02183,43.3926166 628.994808,43.4119177 628.973491,43.4367569 C628.695939,43.6708843 628.453463,43.9436706 628.253491,44.2467569 C626.630565,46.8903674 625.441745,49.7769612 624.732241,52.7967569 C623.449741,57.6117569 623.112241,61.7967569 623.809741,63.2367569 C624.247735,64.5550505 625.448744,65.4703176 626.835991,65.5430069 C631.431881,66.2623006 636.068608,66.690653 640.718491,66.8255069 C645.14639,66.7209083 649.56069,66.2922625 653.925991,65.5430069 C655.561493,65.3782258 656.879359,64.1297209 657.132241,62.5055069 L657.132241,62.5055069 L657.132241,62.2130069 L657.109741,62.2130069 C657.255407,59.0282884 656.848133,55.8424126 655.905991,52.7967569 C655.205545,49.8077585 654.036053,46.9485796 652.440991,44.3255069 C652.099371,43.7829438 651.627578,43.3343541 651.068491,43.0205069 C649.797241,42.1767569 645.072241,41.5692569 640.943491,41.5692569 Z" id="Combined-Shape" fill="#E1EDD6" fill-rule="nonzero"></path>
            </g>
        </g>
    </g>
</svg>
