<?xml version="1.0" encoding="UTF-8"?>
<svg width="24px" height="24px" viewBox="0 0 24 24" version="1.1" xmlns="http://www.w3.org/2000/svg" xmlns:xlink="http://www.w3.org/1999/xlink" style="transform: rotate(-90deg);">
    <title>2979CF7A-6F72-40A3-A082-8A96590876E2</title>
    <g id="guideline" stroke="none" stroke-width="1" fill="none" fill-rule="evenodd">
        <g id="icon" transform="translate(-150.000000, -119.000000)">
            <g id="icon/24/arrow_icon.css-copy-7" transform="translate(150.000000, 119.000000)">
                <g id="icon/24/arrow" transform="translate(12.000000, 12.000000) scale(-1, 1) translate(-12.000000, -12.000000) ">
                    <polygon id="#" points="0 0 24 0 24 24 0 24"></polygon>
                    <path d="M13.7928932,4.43992398 C14.1834175,4.04939969 14.8165825,4.04939969 15.2071068,4.43992398 C15.5675907,4.80040794 15.5953203,5.367639 15.2902954,5.75993021 L15.2071068,5.85413755 L9.062,12 L15.2071068,18.1458625 C15.5675907,18.5063464 15.5953203,19.0735775 15.2902954,19.4658687 L15.2071068,19.560076 C14.8466228,19.92056 14.2793918,19.9482895 13.8871006,19.6432646 L13.7928932,19.560076 L6.93992398,12.7071068 C6.57944002,12.3466228 6.55171049,11.7793918 6.85673538,11.3871006 L6.93992398,11.2928932 L13.7928932,4.43992398 Z" id="Path" fill="#00A94F"></path>
                </g>
            </g>
        </g>
    </g>
</svg>
