<?xml version="1.0" encoding="UTF-8"?>
<svg width="24px" height="24px" viewBox="0 0 24 24" version="1.1" xmlns="http://www.w3.org/2000/svg" xmlns:xlink="http://www.w3.org/1999/xlink">
    <title>933BCA6B-5268-4070-8C10-DF241B388619</title>
    <g id="guideline" stroke="none" stroke-width="1" fill="none" fill-rule="evenodd">
        <g id="icon" transform="translate(-86.000000, -119.000000)">
            <g id="icon/24/arrow_icon.css" transform="translate(86.000000, 119.000000)">
                <polygon id="Path" points="0 0 24 0 24 24 0 24"></polygon>
                <path d="M17.7998033,7.36519612 C18.1903276,6.97467183 18.8234926,6.97467183 19.2140169,7.36519612 C19.5745008,7.72568008 19.6022304,8.29291114 19.2972055,8.68520234 L19.2140169,8.77940968 L10.8181643,17.1752622 C10.2689896,17.724437 9.39992715,17.7587604 8.81076641,17.2782325 L8.696844,17.1752622 L5.25313026,13.7315485 C4.86260597,13.3410242 4.86260597,12.7078592 5.25313026,12.3173349 C5.61361422,11.956851 6.18084528,11.9291214 6.57313648,12.2341463 L6.66734382,12.3173349 L9.757,15.407 L17.7998033,7.36519612 Z" id="Path" fill="#ffffff"></path>
            </g>
        </g>
    </g>
</svg>
