<?xml version="1.0" encoding="UTF-8"?>
<svg width="24px" height="24px" viewBox="0 0 24 24" version="1.1" xmlns="http://www.w3.org/2000/svg" xmlns:xlink="http://www.w3.org/1999/xlink">
    <title>A9A9FD62-0D21-482D-A8ED-0F6F36C49831</title>
    <defs>
        <polygon id="path-1" points="0 0 24 0 24 24 0 24"></polygon>
    </defs>
    <g id="ui_註冊" stroke="none" stroke-width="1" fill="none" fill-rule="evenodd">
        <g id="issue0708" transform="translate(-67.000000, -5846.000000)">
            <g id="refresh" transform="translate(66.816363, 5845.931404)">
                <g id="icon/24/refresh" transform="translate(0.183637, 0.068596)">
                    <mask id="mask-2" fill="white">
                        <use xlink:href="#path-1"></use>
                    </mask>
                    <g id="Path"></g>
                    <path d="M18.76,7.74 C19.54,8.97 20,10.43 20,12 C20,16.42 16.42,20 12,20 L12,20 L12,21.7928932 C12,21.9255015 11.9473216,22.0526784 11.8535534,22.1464466 C11.6582912,22.3417088 11.3417088,22.3417088 11.1464466,22.1464466 L11.1464466,22.1464466 L8.21213203,19.212132 C8.09497475,19.0949747 8.09497475,18.9050253 8.21213203,18.787868 L8.21213203,18.787868 L11.1464466,15.8535534 C11.2402148,15.7597852 11.3673918,15.7071068 11.5,15.7071068 C11.7761424,15.7071068 12,15.9309644 12,16.2071068 L12,16.2071068 L12,18 C15.31,18 18,15.31 18,12 C18,10.99 17.74,10.04 17.3,9.2 L17.3,9.2 Z M12.1464466,1.85355339 C12.3417088,1.65829124 12.6582912,1.65829124 12.8535534,1.85355339 L12.8535534,1.85355339 L15.787868,4.78786797 C15.9050253,4.90502525 15.9050253,5.09497475 15.787868,5.21213203 L15.787868,5.21213203 L12.8535534,8.14644661 C12.7597852,8.2402148 12.6326082,8.29289322 12.5,8.29289322 C12.2238576,8.29289322 12,8.06903559 12,7.79289322 L12,7.79289322 L12,6 C8.69,6 6,8.69 6,12 C6,13.01 6.25,13.97 6.7,14.8 L6.7,14.8 L5.24,16.26 C4.46,15.03 4,13.57 4,12 C4,7.58 7.58,4 12,4 L12,4 L12,2.20710678 C12,2.07449854 12.0526784,1.94732158 12.1464466,1.85355339 Z" id="Shape" fill="#00A94F" mask="url(#mask-2)" transform="translate(12.000000, 12.000000) rotate(-135.000000) translate(-12.000000, -12.000000) "></path>
                </g>
            </g>
        </g>
    </g>
</svg>
