<?xml version="1.0" encoding="UTF-8"?>
<svg width="20px" height="20px" viewBox="0 0 20 20" version="1.1" xmlns="http://www.w3.org/2000/svg" xmlns:xlink="http://www.w3.org/1999/xlink">
    <title>54B29DCD-F204-4A71-AECB-E3693ABAB776</title>
    <g id="guideline" stroke="none" stroke-width="1" fill="none" fill-rule="evenodd">
        <g id="input" transform="translate(-419.000000, -445.000000)">
            <g id="icon/24/info_icon.css" transform="translate(419.000000, 445.000000)">
                <g id="icon/24/setting">
                    <rect id="Rectangle" x="0" y="0" width="20" height="20"></rect>
                </g>
                <path d="M10,1.66666667 C14.6023729,1.66666667 18.3333333,5.39762708 18.3333333,10 C18.3333333,14.6023729 14.6023729,18.3333333 10,18.3333333 C5.39762708,18.3333333 1.66666667,14.6023729 1.66666667,10 C1.66666667,5.39762708 5.39762708,1.66666667 10,1.66666667 Z M10,3.33333333 C6.31810167,3.33333333 3.33333333,6.31810167 3.33333333,10 C3.33333333,13.6818983 6.31810167,16.6666667 10,16.6666667 C13.6818983,16.6666667 16.6666667,13.6818983 16.6666667,10 C16.6666667,6.31810167 13.6818983,3.33333333 10,3.33333333 Z M10,9.16666667 C10.4273632,9.16666667 10.7795893,9.48836683 10.8277269,9.90281573 L10.8333333,10 L10.8333333,13.3333333 C10.8333333,13.7935706 10.4602373,14.1666667 10,14.1666667 C9.5726368,14.1666667 9.2204107,13.8449665 9.17227311,13.4305176 L9.16666667,13.3333333 L9.16666667,10 C9.16666667,9.53976271 9.53976271,9.16666667 10,9.16666667 Z M10,5.83333333 C10.4602373,5.83333333 10.8333333,6.20642938 10.8333333,6.66666667 C10.8333333,7.12690396 10.4602373,7.5 10,7.5 C9.53976271,7.5 9.16666667,7.12690396 9.16666667,6.66666667 C9.16666667,6.20642938 9.53976271,5.83333333 10,5.83333333 Z" id="Combined-Shape" fill="#00A94F"></path>
            </g>
        </g>
    </g>
</svg>
