<?xml version="1.0" encoding="UTF-8"?>
<svg width="24px" height="24px" viewBox="0 0 24 24" version="1.1" xmlns="http://www.w3.org/2000/svg" xmlns:xlink="http://www.w3.org/1999/xlink">
    <title>2D28B0A9-C03E-4A57-B0F8-C931CD16D2F0</title>
    <g id="guideline" stroke="none" stroke-width="1" fill="none" fill-rule="evenodd">
        <g id="icon" transform="translate(-342.000000, -119.000000)">
            <g id="icon/24/arrow_icon.css-copy" transform="translate(342.000000, 119.000000)">
                <polygon id="Path" points="0 0 24 0 24 24 0 24"></polygon>
                <path d="M17.8199295,5.14644661 C17.9934958,5.32001296 18.012781,5.58943736 17.8777849,5.7843055 L17.8199295,5.85355339 L5.35355339,18.3199295 C5.15829124,18.5151916 4.84170876,18.5151916 4.64644661,18.3199295 C4.47288026,18.1463631 4.45359511,17.8769387 4.58859116,17.6820706 L4.64644661,17.6128227 L6.47838857,15.7807021 C5.11524591,14.7856874 3.95578305,13.3587867 3,11.5 C5.05678906,7.5 8.05678906,5.5 12,5.5 C13.4444913,5.5 14.7624103,5.76838598 15.953757,6.30515795 L17.1128227,5.14644661 C17.3080849,4.95118446 17.6246673,4.95118446 17.8199295,5.14644661 Z M17.4814816,7.19017265 C18.862012,8.18639043 20.0348515,9.62299954 21,11.5 C18.9432109,15.5 15.9432109,17.5 12,17.5 C10.5367117,17.5 9.20331135,17.2245836 7.99979883,16.6737509 L9.8199238,14.8542513 C10.4470439,15.2626791 11.1958073,15.5 12,15.5 C14.209139,15.5 16,13.709139 16,11.5 C16,10.6958073 15.7626791,9.94704393 15.3542513,9.3199238 L17.4814816,7.19017265 Z M12,7.5 C9.790861,7.5 8,9.290861 8,11.5 C8,12.2866136 8.22705899,13.0201947 8.61921091,13.6387774 L10.1079598,12.1498939 C10.0379854,11.9461321 10,11.727502 10,11.5 C10,10.3954305 10.8954305,9.5 12,9.5 C12.227502,9.5 12.4461321,9.53798537 12.6498939,9.60795977 L14.1387774,8.11921091 C13.5201947,7.72705899 12.7866136,7.5 12,7.5 Z M13.8737694,10.7991735 C13.9553783,11.0172707 14,11.2534244 14,11.5 C14,12.6045695 13.1045695,13.5 12,13.5 C11.7534244,13.5 11.5172707,13.4553783 11.2991735,13.3737694 L13.8737694,10.7991735 Z" id="Combined-Shape" fill="#00A94F"></path>
            </g>
        </g>
    </g>
</svg>
