<?xml version="1.0" encoding="UTF-8"?>
<svg width="24px" height="24px" viewBox="0 0 24 24" version="1.1" xmlns="http://www.w3.org/2000/svg" xmlns:xlink="http://www.w3.org/1999/xlink">
    <title>3186C775-9983-43A6-8B66-01801CCEAF03</title>
    <g id="guideline" stroke="none" stroke-width="1" fill="none" fill-rule="evenodd">
        <g id="icon" transform="translate(-310.000000, -119.000000)">
            <g id="icon/24/arrow_icon.css-copy-6" transform="translate(310.000000, 119.000000)">
                <polygon id="Path" points="0 0 24 0 24 24 0 24"></polygon>
                <path d="M12,6 C15.9432109,6 18.9432109,8 21,12 C18.9432109,16 15.9432109,18 12,18 C8.05678906,18 5.05678906,16 3,12 C5.05678906,8 8.05678906,6 12,6 Z M12,8 C9.790861,8 8,9.790861 8,12 C8,14.209139 9.790861,16 12,16 C14.209139,16 16,14.209139 16,12 C16,9.790861 14.209139,8 12,8 Z M12,10 C13.1045695,10 14,10.8954305 14,12 C14,13.1045695 13.1045695,14 12,14 C10.8954305,14 10,13.1045695 10,12 C10,10.8954305 10.8954305,10 12,10 Z" id="Combined-Shape" fill="#00A94F"></path>
            </g>
        </g>
    </g>
</svg>
