<svg xmlns="http://www.w3.org/2000/svg" viewBox="0 0 24 24"><g fill="none" fill-rule="evenodd"><path d="M0 0h24v24H0z"/><path d="M12.0003453 14.5291093c4.1072069 0 7.7467336 2.6489417 9.3327255 6.629895.2044033.513067-.045818 1.0946916-.558885 1.2990949-.513067.2044033-1.0946916-.045818-1.2990949-.558885-1.2921965-3.2435058-4.214048-5.3701049-7.4747456-5.3701049-3.254689 0-6.17210666 2.1187281-7.46799538 5.3532092-.2053998.5126689-.78750947.7617597-1.30017834.5563599-.51266886-.2053998-.76175965-.7875095-.55635985-1.3001784 1.59061381-3.970102 5.22482607-6.6093907 9.32453357-6.6093907zM12 3c2.7614237 0 5 2.23857625 5 5 0 2.7614237-2.2385763 5-5 5-2.76142375 0-5-2.2385763-5-5 0-2.76142375 2.23857625-5 5-5zm0 2c-1.6568542 0-3 1.34314575-3 3s1.3431458 3 3 3 3-1.34314575 3-3-1.3431458-3-3-3z" fill="#333"/></g></svg>
