<svg width="15" height="18" viewBox="0 0 15 18" fill="none" xmlns="http://www.w3.org/2000/svg">
<path d="M3.39443 10.053C4.02923 9.64679 4.24859 8.75383 3.87967 8.05484C3.51408 7.35585 2.69981 7.11431 2.06501 7.52053C1.43021 7.92309 1.21085 8.81971 1.57977 9.5187C1.94536 10.214 2.75963 10.4556 3.39443 10.053ZM4.62083 10.8435C4.45797 11.0265 4.26853 11.1875 4.05914 11.3193C2.78954 12.128 1.161 11.6486 0.426491 10.247C-0.308016 8.84533 0.130694 7.05576 1.40029 6.24697C2.47381 5.56628 3.79991 5.80049 4.62747 6.73005L9.37684 3.71083C9.05778 2.45557 9.53637 1.07222 10.6099 0.39153C11.8828 -0.417254 13.508 0.0621608 14.2425 1.46381C14.977 2.86545 14.5417 4.65502 13.2687 5.46381C12.1952 6.1445 10.8691 5.91028 10.0416 4.98073L5.29219 7.99995C5.42513 8.52328 5.41848 9.06856 5.28886 9.57726L10.0083 12.5782C10.8359 11.6486 12.162 11.4107 13.2355 12.0951C14.5084 12.9039 14.9438 14.6934 14.2093 16.0951C13.4748 17.4967 11.8496 17.9762 10.5766 17.1674C9.50314 16.4867 9.02454 15.1033 9.34361 13.8481L4.62083 10.8435ZM12.604 4.19757C13.2388 3.79501 13.4582 2.89839 13.0893 2.1994C12.7237 1.5004 11.9094 1.25887 11.2746 1.66509C10.6398 2.06765 10.4204 2.96427 10.7894 3.66326C11.1549 4.35859 11.9692 4.60013 12.604 4.19757ZM11.2447 15.8975C11.8795 16.3 12.6938 16.0622 13.0593 15.3632C13.4249 14.6642 13.2089 13.7676 12.5741 13.365C11.9393 12.9624 11.125 13.2003 10.7594 13.8993C10.3905 14.5983 10.6066 15.4949 11.2447 15.8975Z" fill="#67B77E"/>
</svg>
