<svg width="13" height="16" viewBox="0 0 13 16" fill="none" xmlns="http://www.w3.org/2000/svg">
<path d="M0.597728 6.125V14.875C0.597728 15.2219 0.856439 15.5 1.17264 15.5H12.096C12.4122 15.5 12.6709 15.2219 12.6709 14.875V1.125C12.6709 0.78125 12.4151 0.5 12.096 0.5H5.77194C5.76907 0.5 5.76907 0.5 5.76619 0.5H5.76332C5.44712 0.503125 5.01306 0.696875 4.78597 0.94375L1.00304 5.05625C0.781699 5.3 0.597728 5.775 0.597728 6.125ZM6.34686 6.12813V1.75H11.5211V14.25H1.74755V6.75H5.77482C6.09102 6.75 6.34686 6.46875 6.34686 6.12813ZM5.19703 5.5H2.22473L5.19703 2.26875V5.5Z" fill="#67B77E"/>
</svg>
