<svg width="31" height="30" viewBox="0 0 31 30" fill="none" xmlns="http://www.w3.org/2000/svg">
<g clip-path="url(#clip0)">
<path d="M14.6989 21.7346C13.0079 21.7346 11.6372 23.1044 11.6372 24.7963V29.0822H17.7596V24.7963C17.7605 23.1053 16.3898 21.7346 14.6989 21.7346Z" fill="#FFD5CA"/>
<path d="M15.9228 21.9921C14.8448 22.457 14.0863 23.5349 14.0863 24.7963V29.0822H11.6377V24.7963C11.6377 23.1062 13.0092 21.7346 14.6993 21.7346C15.1272 21.7346 15.544 21.8207 15.9228 21.9921Z" fill="#FFBBAB"/>
<path d="M12.862 0.918701C11.5154 0.918701 10.4134 2.02076 10.4134 3.36733V29.0822H7.96387V3.36733C7.96387 2.02076 9.06592 0.918701 10.4125 0.918701H12.862Z" fill="#EFEFEF"/>
<path d="M23.8827 11.9392V29.0821H21.4341V10.714L23.8827 11.9392Z" fill="#EFEFEF"/>
<path d="M7.96393 10.714V11.9383L4.4253 13.7136C3.59274 14.1304 3.06582 14.975 3.06582 15.9057V27.857C3.06582 28.5303 3.61684 29.0813 4.29013 29.0813H1.8415C1.16821 29.0813 0.617188 28.5303 0.617188 27.857V15.9066C0.617188 14.9758 1.14411 14.1312 1.97668 13.7145L7.96393 10.714Z" fill="#EFEFEF"/>
<path d="M21.7345 30H8.26534C7.75823 30 7.34668 29.5885 7.34668 29.0813V3.36729C7.34668 1.51016 8.85684 0 10.714 0H19.2859C21.1439 0 22.6532 1.51016 22.6532 3.36729V29.0822C22.6532 29.5893 22.2416 30 21.7345 30ZM8.67689 28.6018H21.3238V3.27775C21.3238 2.43399 20.152 1.28803 19.3083 1.28803H10.6899C9.8461 1.28803 8.67689 2.47704 8.67689 3.3208V28.6018Z" fill="#FF956E"/>
<path d="M8.26541 30H2.14298C0.960854 30 0 29.0392 0 27.8579V15.9015C0 14.6186 0.713753 13.4649 1.86144 12.8906L7.85558 9.89441L8.26369 11.0206L2.26266 14.0814C1.7409 14.3414 1.36551 15 1.32763 15.7654L1.30869 27.8097C1.30869 27.9785 1.34657 28.6018 1.80461 28.6018H8.26541V30Z" fill="#FF956E"/>
<path d="M12.2451 4.59155H13.7251V9.48967H12.2451V4.59155Z" fill="#FF956E"/>
<path d="M16.2725 4.59155H17.7551V9.48967H16.2725V4.59155Z" fill="#FF956E"/>
<path d="M13.1636 6.32385H16.8374V7.75738H13.1636V6.32385Z" fill="#FF956E"/>
<path d="M18.9794 29.0822H17.5321L17.5037 24.7661C17.5037 23.5848 16.387 22.2176 15 22.2176C13.7231 22.2176 12.4075 23.441 12.4075 24.6223L12.3499 29.0822H11.0205V24.7962C11.0205 22.6016 12.8062 20.8168 15 20.8168C17.1937 20.8168 18.9794 22.6024 18.9794 24.7962V29.0822Z" fill="#FF956E"/>
<path d="M11.939 12.4541H18.0614V14.0814H11.939V12.4541Z" fill="#FF956E"/>
<path d="M11.939 16.2045H18.0614V17.7551H11.939V16.2045Z" fill="#FF956E"/>
<path d="M3.36719 24.9495H5.81582V26.327H3.36719V24.9495Z" fill="#FF956E"/>
<path d="M3.36719 21.1104H5.81582V22.6532H3.36719V21.1104Z" fill="#FF956E"/>
<path d="M3.36719 17.5597H5.81582V18.9795H3.36719V17.5597Z" fill="#FF956E"/>
<path d="M24.1841 24.9495H26.6327V26.327H24.1841V24.9495Z" fill="#FF956E"/>
<path d="M24.1841 21.1104H26.6327V22.6532H24.1841V21.1104Z" fill="#FF956E"/>
<path d="M24.1841 17.5597H26.6327V18.9795H24.1841V17.5597Z" fill="#FF956E"/>
<path d="M21.8267 28.6018H28.2874C28.7455 28.6018 28.7834 27.9784 28.7834 27.8097L28.7644 15.7654C28.7265 15 28.3512 14.3414 27.8294 14.0814L21.8284 11.0206L22.2373 9.89355L28.2315 12.8898C29.3792 13.464 30.0929 14.6178 30.0929 15.9006V27.857C30.0929 29.0383 29.1321 30 27.9499 30H21.8275V28.6018H21.8267Z" fill="#FF956E"/>
</g>
<defs>
<clipPath id="clip0">
<rect width="30.0921" height="30" fill="white"/>
</clipPath>
</defs>
</svg>
