<svg width="26" height="30" viewBox="0 0 26 30" fill="none" xmlns="http://www.w3.org/2000/svg">
<g clip-path="url(#clip0)">
<path d="M22.7986 14.1555V16.9514L19.5632 16.5021C17.9919 16.2779 16.466 15.8168 15.0685 15.1322C13.6588 14.4587 12.3759 13.5601 11.2432 12.4595C9.76448 14.6158 7.46429 16.1089 4.84154 16.6253L3.15479 16.9506C3.15479 15.5807 3.15479 14.1547 3.15479 14.1547C3.15479 8.93322 8.54004 6.84399 12.9771 6.84399C17.4142 6.84399 22.7986 8.93322 22.7986 14.1555Z" fill="#FFD5CA"/>
<path d="M14.1325 6.90079C9.97247 7.22609 5.46553 9.38243 5.46553 14.1554V16.4799C5.25753 16.536 5.04954 16.581 4.84154 16.626L3.15479 16.9513C3.15479 15.5814 3.15479 14.1554 3.15479 14.1554C3.15479 8.93395 8.54004 6.84473 12.9771 6.84473C13.3582 6.84473 13.7392 6.85578 14.1325 6.90079Z" fill="#FFBBAB"/>
<path d="M5.70847 21.5445C5.54679 20.8481 5.46553 20.1295 5.46553 19.3881V16.4714C5.25835 16.5251 5.05278 16.5836 4.84153 16.6254L3.15479 16.9507V19.3873C3.15479 20.1288 3.23603 20.8473 3.39772 21.5437C4.20697 24.8449 6.76066 27.9219 10.3771 28.9436L12.904 29.0107C9.1681 28.0522 6.53722 24.9057 5.70847 21.5445Z" fill="#EFEFEF"/>
<path d="M3.17769 22.2068C1.42513 22.2068 0 20.8219 0 19.1188C0 17.4157 1.42513 16.0308 3.17769 16.0308V17.0651C2.38144 17.0651 1.22119 17.9281 1.235 19.0501C1.24881 20.2021 2.43669 20.9514 3.25244 20.9372C3.28819 20.9372 3.31582 20.5227 3.35157 20.5179L3.562 22.1887C3.43282 22.2045 3.30525 22.2068 3.17769 22.2068Z" fill="#FF956E"/>
<path d="M22.8221 22.2068C22.6954 22.2068 22.567 22.2045 22.4395 22.1887L22.6499 21.3533C22.7068 21.3604 22.888 20.8322 22.9456 20.8322C23.7419 20.8322 24.7591 20.0971 24.7234 19.0517C24.6844 17.9281 23.6184 17.3225 22.8221 17.3225V16.0308C24.5755 16.0308 25.9998 17.4157 25.9998 19.1188C25.9998 20.8219 24.5747 22.2068 22.8221 22.2068Z" fill="#FF956E"/>
<path d="M13 29.9999C7.25884 29.9999 3.57334 25.6414 2.57721 21.5933C2.40009 20.8274 2.31152 20.0402 2.31152 19.2419V14.0086C2.31152 8.40733 7.85277 5.8562 13.0008 5.8562C13.3729 5.8562 13.7596 5.86883 14.1561 5.90437L13.9522 7.10768C13.6101 7.0761 13.7629 7.10531 13.4428 7.10531C9.13002 7.10531 3.56196 9.52616 3.56196 13.9699V19.3927C3.56196 20.0662 3.6359 20.7287 3.78296 21.3635C4.62309 24.7792 8.17615 28.7437 12.978 28.7437C17.775 28.7437 21.2103 24.5037 22.0561 21.0777C22.2007 20.4547 22.2746 19.7907 22.2746 19.1179L22.4412 13.8294C22.4412 13.1093 22.2438 12.4744 22.0171 11.8617L23.2464 11.4322C23.5413 12.2273 23.69 13.0927 23.69 14.0086V19.2419C23.69 20.0402 23.6006 20.8274 23.4251 21.583C22.4233 25.643 18.737 29.9999 13 29.9999Z" fill="#FF956E"/>
<path d="M22.9458 17.3218L19.7104 16.8726C16.7293 16.4604 13.5955 14.9381 11.3319 13.01C9.73369 14.9349 7.51394 16.2449 4.98706 16.736L3.29381 17.0652L3.00781 15.9788L4.70106 15.6495C7.10931 15.1813 9.18607 13.8303 10.547 11.8453C10.6916 11.6353 10.924 11.4987 11.1824 11.475C11.4481 11.4458 11.6967 11.539 11.8803 11.7174C13.9847 13.7624 16.7659 15.1134 19.7096 15.5216L22.9466 15.9709V17.3218H22.9458Z" fill="#FF956E"/>
<path d="M6.76074 17.6762L7.67155 16.7366L11.2075 20.1728L10.2967 21.1124L6.76074 17.6762Z" fill="#FF956E"/>
<path d="M6.69482 20.1728L10.2308 16.7366L11.2716 17.6762L7.73564 21.1124L6.69482 20.1728Z" fill="#FF956E"/>
<path d="M12.9998 4.58666C11.1156 4.58666 9.33541 4.41137 7.9891 4.09238C6.28285 3.68891 5.4541 3.10067 5.4541 2.29293C5.4541 1.4852 6.28366 0.89775 7.9891 0.493486C9.33541 0.175286 11.1156 0 12.9998 0C14.884 0 16.6642 0.175286 18.0105 0.494276C19.7167 0.89775 20.5455 1.48677 20.5455 2.29372C20.5455 3.10067 19.7159 3.68891 18.0105 4.09317C16.6634 4.41137 14.884 4.58666 12.9998 4.58666ZM6.93123 2.29293C7.4821 2.66798 9.56048 3.24358 12.9998 3.24358C16.4391 3.24358 18.5175 2.66798 19.0684 2.29293C18.5175 1.91788 16.4391 1.34228 12.9998 1.34228C9.56048 1.34228 7.4821 1.91788 6.93123 2.29293Z" fill="#FF956E"/>
<path d="M14.7729 17.6762L15.6838 16.7366L19.2198 20.1728L18.3089 21.1124L14.7729 17.6762Z" fill="#FF956E"/>
<path d="M14.707 20.1728L18.243 16.7366L19.2838 17.6762L15.7478 21.1124L14.707 20.1728Z" fill="#FF956E"/>
</g>
<defs>
<clipPath id="clip0">
<rect width="26" height="30" fill="white"/>
</clipPath>
</defs>
</svg>
