<svg width="24" height="28" viewBox="0 0 24 28" fill="none" xmlns="http://www.w3.org/2000/svg">
<g clip-path="url(#clip0)">
<path d="M11.1829 7.58081H12.3255C12.9563 7.58081 13.4682 8.09268 13.4682 8.72347V12.1523H16.897C17.5278 12.1523 18.0396 12.6641 18.0396 13.2949V14.4376C18.0396 15.0684 17.5278 15.5802 16.897 15.5802H13.4682V19.009C13.4682 19.6398 12.9563 20.1517 12.3255 20.1517H11.1829C10.5521 20.1517 10.0402 19.6398 10.0402 19.009V15.5802H6.61141C5.98062 15.5802 5.46875 15.0684 5.46875 14.4376V13.2949C5.46875 12.6641 5.98062 12.1523 6.61141 12.1523H10.0402V8.72347C10.0394 8.09268 10.5521 7.58081 11.1829 7.58081Z" fill="#FFD5CA"/>
<path d="M12.897 26.6203C12.1995 26.8943 11.7543 27.0092 11.7543 27.0092C11.7543 27.0092 0.897461 24.1518 0.897461 14.0719C0.897461 8.43736 0.897461 4.72331 0.897461 4.72331L11.7543 0.723999L12.897 1.14667L3.18278 4.72331V14.0719C3.18278 22.1292 10.1087 25.5692 12.897 26.6203Z" fill="#EFEFEF"/>
<path d="M8.89673 15.5802H6.61141C5.98303 15.5802 5.46875 15.0659 5.46875 14.4375V13.2949C5.46875 12.6665 5.98303 12.1522 6.61141 12.1522H8.89673C8.26835 12.1522 7.75407 12.6665 7.75407 13.2949V14.4375C7.75407 15.0659 8.26835 15.5802 8.89673 15.5802Z" fill="#FFBBAB"/>
<path d="M11.7143 28C11.6412 28 11.568 27.9912 11.4957 27.9711C11.38 27.9421 0 24.8243 0 14.2053V4.85751C0 4.49832 0.224193 4.1777 0.560884 4.05315L11.4178 0.0530349C11.609 -0.0176783 11.8203 -0.0176783 12.0108 0.0530349L22.8677 4.05315C23.2036 4.1777 23.4277 4.49912 23.4277 4.85751V14.2045C23.4277 24.8235 12.0478 27.9413 11.932 27.9711C11.8605 27.9912 11.7874 28 11.7143 28ZM1.3315 5.15724V14.6698C1.3315 23.3072 10.0702 26.2619 11.5929 26.7215C13.1149 26.2619 22.1477 23.0404 22.1477 14.403V5.21108L11.7143 1.38935L1.3315 5.15724Z" fill="#FF956E"/>
<path d="M12.2855 21.1432H11.1428C10.0403 21.1432 9.14273 20.2464 9.14273 19.1432V16.5718H6.57135C5.46886 16.5718 4.57129 15.675 4.57129 14.5717V13.429C4.57129 12.3266 5.46806 11.429 6.57135 11.429H9.14273V8.8576C9.14273 7.75512 10.0395 6.85754 11.1428 6.85754H12.2855C13.3879 6.85754 14.2855 7.75432 14.2855 8.8576V11.429H16.8569C17.9594 11.429 18.857 12.3258 18.857 13.429V14.5717C18.857 15.6742 17.9602 16.5718 16.8569 16.5718H14.2855V19.1432C14.2855 20.2456 13.3879 21.1432 12.2855 21.1432ZM6.2218 12.9437C6.02734 12.9437 5.86984 13.1012 5.86984 13.2957V14.7051C5.86984 14.8996 6.02734 15.0571 6.2218 15.0571H9.60076C10.1841 15.0571 10.6574 15.5304 10.6574 16.1137V19.2886C10.6574 19.4831 10.8149 19.6406 11.0094 19.6406H12.418C12.6125 19.6406 12.77 19.4831 12.77 19.2886V16.1137C12.77 15.5304 13.2433 15.0571 13.8267 15.0571H17.1767C17.3712 15.0571 17.5287 14.8996 17.5287 14.7051V13.2965C17.5287 13.102 17.3712 12.9445 17.1767 12.9445H13.8267C13.2433 12.9445 12.77 12.4712 12.77 11.8878V8.44538C12.77 8.25091 12.6125 8.09342 12.418 8.09342H11.0094C10.8149 8.09342 10.6574 8.25091 10.6574 8.44538V11.8878C10.6574 12.4712 10.1841 12.9445 9.60076 12.9445H6.2218V12.9437Z" fill="#FF956E"/>
</g>
<defs>
<clipPath id="clip0">
<rect width="23.4286" height="28" fill="white"/>
</clipPath>
</defs>
</svg>
