<svg width="24" height="25" viewBox="0 0 24 25" fill="none" xmlns="http://www.w3.org/2000/svg">
<g clip-path="url(#clip0)">
<path d="M4.40625 7H5.34375V7.9375C5.34375 8.32562 5.65875 8.64062 6.04688 8.64062C6.435 8.64062 6.75 8.32562 6.75 7.9375V7H7.6875C8.07562 7 8.39062 6.685 8.39062 6.29688C8.39062 5.90875 8.07562 5.59375 7.6875 5.59375H6.75V4.65625C6.75 4.26812 6.435 3.95312 6.04688 3.95312C5.65875 3.95312 5.34375 4.26812 5.34375 4.65625V5.59375H4.40625C4.01812 5.59375 3.70312 5.90875 3.70312 6.29688C3.70312 6.685 4.01812 7 4.40625 7Z" fill="#dadada"/>
<path d="M15.3281 7H18.1406C18.5287 7 18.8438 6.685 18.8438 6.29688C18.8438 5.90875 18.5287 5.59375 18.1406 5.59375H15.3281C14.94 5.59375 14.625 5.90875 14.625 6.29688C14.625 6.685 14.94 7 15.3281 7Z" fill="#dadada"/>
<path d="M18.375 17.4531H15.0938C14.7056 17.4531 14.3906 17.7681 14.3906 18.1562C14.3906 18.5444 14.7056 18.8594 15.0938 18.8594H18.375C18.7631 18.8594 19.0781 18.5444 19.0781 18.1562C19.0781 17.7681 18.7631 17.4531 18.375 17.4531Z" fill="#dadada"/>
<path d="M18.375 15.1094H15.0938C14.7056 15.1094 14.3906 15.4244 14.3906 15.8125C14.3906 16.2006 14.7056 16.5156 15.0938 16.5156H18.375C18.7631 16.5156 19.0781 16.2006 19.0781 15.8125C19.0781 15.4244 18.7631 15.1094 18.375 15.1094Z" fill="#dadada"/>
<path d="M7.71635 15.3151C7.44166 15.0405 6.99635 15.0405 6.72213 15.3151L6.04713 15.9901L5.3726 15.3156C5.09791 15.0409 4.6526 15.0409 4.37838 15.3156C4.10369 15.5903 4.10369 16.0356 4.37838 16.3098L5.05291 16.9844L4.37838 17.6589C4.10369 17.9336 4.10369 18.3784 4.37838 18.6531C4.51572 18.7905 4.69572 18.8589 4.87572 18.8589C5.05572 18.8589 5.23572 18.7905 5.37307 18.6531L6.04713 17.9786L6.72166 18.6536C6.859 18.7909 7.039 18.8594 7.219 18.8594C7.399 18.8594 7.57901 18.7909 7.71635 18.6536C7.99104 18.3789 7.99104 17.9336 7.71635 17.6594L7.04135 16.9844L7.71588 16.3098C7.99057 16.0351 7.99057 15.5898 7.71635 15.3151Z" fill="#dadada"/>
<path d="M22.7812 12.9611V2.35938C22.7812 1.19641 21.8348 0.25 20.6719 0.25H2.10938C0.946406 0.25 0 1.19641 0 2.35938V20.9219C0 22.0848 0.946406 23.0312 2.10938 23.0312H12.7111C13.8638 23.8009 15.2475 24.25 16.7344 24.25C20.7408 24.25 24 20.9908 24 16.9844C24 15.4975 23.5509 14.1138 22.7812 12.9611ZM21.375 2.35938V11.3983C20.1155 10.3502 18.4973 9.71875 16.7344 9.71875C14.9714 9.71875 13.3533 10.3502 12.0938 11.3983V1.65625H20.6719C21.0595 1.65625 21.375 1.97172 21.375 2.35938ZM2.10938 1.65625H10.6875V10.9375H1.40625V2.35938C1.40625 1.97172 1.72172 1.65625 2.10938 1.65625ZM1.40625 20.9219V12.3438H10.6875V12.9611C9.91781 14.1138 9.46875 15.4975 9.46875 16.9844C9.46875 18.7473 10.1002 20.3655 11.1483 21.625H2.10938C1.72172 21.625 1.40625 21.3095 1.40625 20.9219ZM16.7344 22.8438C13.5033 22.8438 10.875 20.215 10.875 16.9844C10.875 13.7537 13.5033 11.125 16.7344 11.125C19.9655 11.125 22.5938 13.7537 22.5938 16.9844C22.5938 20.215 19.965 22.8438 16.7344 22.8438Z" fill="#dadada"/>
</g>
<defs>
<clipPath id="clip0">
<rect width="24" height="24" fill="white" transform="translate(0 0.25)"/>
</clipPath>
</defs>
</svg>
