<svg width="14" height="18" viewBox="0 0 14 18" fill="none" xmlns="http://www.w3.org/2000/svg">
<path d="M11.1662 1.48939C9.64441 0.237592 7.63172 -0.26149 5.70084 0.13123C3.09907 0.654857 1.0782 2.70027 0.570934 5.30205C0.202759 7.23292 0.718204 9.22925 1.97818 10.7429C2.5509 11.3974 2.88635 12.2237 2.91089 13.091V15.5455C2.91089 16.9037 4.00724 18 5.36539 18H8.63806C9.99622 18 11.0926 16.9037 11.0926 15.5455V13.2464C11.1171 12.2892 11.4689 11.3647 12.0907 10.6365C14.3489 7.84655 13.9316 3.75571 11.1662 1.47302V1.48939ZM9.45623 15.5455C9.45623 15.9955 9.08805 16.3637 8.63806 16.3637H5.36539C4.9154 16.3637 4.54723 15.9955 4.54723 15.5455V14.7273H9.45623V15.5455ZM10.8226 9.62197C9.99622 10.5956 9.52168 11.8147 9.45623 13.091H7.8199V10.6365C7.8199 10.1865 7.45172 9.81833 7.00173 9.81833C6.55174 9.81833 6.18356 10.1865 6.18356 10.6365V13.091H4.54723C4.52268 11.8392 4.06451 10.6365 3.23816 9.68742C1.50365 7.60928 1.78182 4.50842 3.85997 2.77391C4.48177 2.25846 5.21812 1.89847 6.01175 1.73484C8.67079 1.18667 11.2644 2.89664 11.8126 5.55568C11.878 5.88295 11.9107 6.21021 11.9107 6.54566C11.9189 7.66655 11.5344 8.75471 10.8226 9.62197Z" fill="white"/>
</svg>
