<svg xmlns="http://www.w3.org/2000/svg" viewBox="0 0 538.72 538.72"><defs><style>.cls-1{fill:#6fb26f;}.cls-2{fill:#fff;}</style></defs><g id="圖層_2" data-name="圖層 2"><g id="Layer_1" data-name="Layer 1"><circle class="cls-1" cx="269.36" cy="269.36" r="269.36"/><path class="cls-2" d="M268.86,122.46c-84.57,0-153.42,56.23-153.42,125.33,0,61.89,54.59,113.74,128.3,123.6,5,1.06,11.8,3.32,13.52,7.59,1.54,3.88,1,9.86.49,13.9L255.65,406c-.57,3.87-3.07,15.25,13.41,8.29s88.42-52.46,120.64-89.73c22-24.29,32.57-49.18,32.57-76.77,0-69.1-68.84-125.33-153.41-125.33ZM208.81,288.88H178.3a8.13,8.13,0,0,1-8.05-8.1V219.4a8.06,8.06,0,1,1,16.11,0v53.28h22.45a8.1,8.1,0,0,1,0,16.2Zm31.53-8.1a8,8,0,1,1-16.09,0V219.4a8,8,0,1,1,16.09,0Zm73.39,0a8.09,8.09,0,0,1-5.52,7.67,8.22,8.22,0,0,1-2.54.4,7.88,7.88,0,0,1-6.52-3.22L267.91,243v37.82a8,8,0,1,1-16.07,0V219.4a8.06,8.06,0,0,1,5.5-7.65,7.32,7.32,0,0,1,2.48-.43,8.28,8.28,0,0,1,6.33,3.28l31.47,42.84v-38a8.06,8.06,0,1,1,16.11,0ZM363,242a8.12,8.12,0,0,1,0,16.23H340.58v14.47H363a8.1,8.1,0,0,1,0,16.2H332.51a8.09,8.09,0,0,1-8-8.1V219.4a8.1,8.1,0,0,1,8.05-8.1h30.51a8.11,8.11,0,0,1,0,16.21H340.58V242Z"/></g></g></svg>
