<svg xmlns="http://www.w3.org/2000/svg" viewBox="0 0 538.72 538.72"><defs><style>.cls-1{fill:#f46060;}.cls-2{fill:#fff;}</style></defs><g id="圖層_2" data-name="圖層 2"><g id="Layer_1" data-name="Layer 1"><circle class="cls-1" cx="269.36" cy="269.36" r="269.36"/><path class="cls-2" d="M432.76,187.38a42.73,42.73,0,0,0-30-30C376.05,150,269.35,150,269.35,150s-106.68,0-133.36,7a43.57,43.57,0,0,0-30,30.32c-7,26.67-7,82-7,82s0,55.59,7,82a42.71,42.71,0,0,0,30.05,30c26.95,7.3,133.36,7.3,133.36,7.3s106.69,0,133.36-7a42.7,42.7,0,0,0,30-30c7-26.67,7-82,7-82S440.06,214.05,432.76,187.38Z"/><path class="cls-1" d="M229.51,320.46l88.72-51.1-88.72-51.1Z"/></g></g></svg>
